%TF.GenerationSoftware,KiCad,Pcbnew,8.0.4*%
%TF.CreationDate,2024-08-13T21:05:31+09:00*%
%TF.ProjectId,chibarobo_board_2024,63686962-6172-46f6-926f-5f626f617264,rev?*%
%TF.SameCoordinates,Original*%
%TF.FileFunction,Paste,Bot*%
%TF.FilePolarity,Positive*%
%FSLAX46Y46*%
G04 Gerber Fmt 4.6, Leading zero omitted, Abs format (unit mm)*
G04 Created by KiCad (PCBNEW 8.0.4) date 2024-08-13 21:05:31*
%MOMM*%
%LPD*%
G01*
G04 APERTURE LIST*
G04 Aperture macros list*
%AMRoundRect*
0 Rectangle with rounded corners*
0 $1 Rounding radius*
0 $2 $3 $4 $5 $6 $7 $8 $9 X,Y pos of 4 corners*
0 Add a 4 corners polygon primitive as box body*
4,1,4,$2,$3,$4,$5,$6,$7,$8,$9,$2,$3,0*
0 Add four circle primitives for the rounded corners*
1,1,$1+$1,$2,$3*
1,1,$1+$1,$4,$5*
1,1,$1+$1,$6,$7*
1,1,$1+$1,$8,$9*
0 Add four rect primitives between the rounded corners*
20,1,$1+$1,$2,$3,$4,$5,0*
20,1,$1+$1,$4,$5,$6,$7,0*
20,1,$1+$1,$6,$7,$8,$9,0*
20,1,$1+$1,$8,$9,$2,$3,0*%
G04 Aperture macros list end*
%ADD10RoundRect,0.200000X-0.275000X0.200000X-0.275000X-0.200000X0.275000X-0.200000X0.275000X0.200000X0*%
%ADD11RoundRect,0.225000X0.250000X-0.225000X0.250000X0.225000X-0.250000X0.225000X-0.250000X-0.225000X0*%
%ADD12R,0.500000X1.000000*%
%ADD13RoundRect,0.225000X-0.250000X0.225000X-0.250000X-0.225000X0.250000X-0.225000X0.250000X0.225000X0*%
%ADD14RoundRect,0.200000X-0.200000X-0.275000X0.200000X-0.275000X0.200000X0.275000X-0.200000X0.275000X0*%
%ADD15R,0.850000X0.300000*%
%ADD16R,2.286000X1.397000*%
%ADD17R,6.180000X5.690000*%
%ADD18R,1.000000X0.500000*%
%ADD19RoundRect,0.137500X0.137500X-0.662500X0.137500X0.662500X-0.137500X0.662500X-0.137500X-0.662500X0*%
%ADD20RoundRect,0.200000X0.200000X0.275000X-0.200000X0.275000X-0.200000X-0.275000X0.200000X-0.275000X0*%
%ADD21R,0.700000X1.775000*%
%ADD22RoundRect,0.225000X-0.225000X-0.250000X0.225000X-0.250000X0.225000X0.250000X-0.225000X0.250000X0*%
%ADD23RoundRect,0.200000X0.275000X-0.200000X0.275000X0.200000X-0.275000X0.200000X-0.275000X-0.200000X0*%
%ADD24RoundRect,0.112500X0.187500X0.112500X-0.187500X0.112500X-0.187500X-0.112500X0.187500X-0.112500X0*%
%ADD25RoundRect,0.125000X0.125000X0.125000X-0.125000X0.125000X-0.125000X-0.125000X0.125000X-0.125000X0*%
%ADD26RoundRect,0.250000X0.250000X0.475000X-0.250000X0.475000X-0.250000X-0.475000X0.250000X-0.475000X0*%
%ADD27RoundRect,0.125000X0.125000X-0.125000X0.125000X0.125000X-0.125000X0.125000X-0.125000X-0.125000X0*%
%ADD28R,1.450000X0.600000*%
%ADD29RoundRect,0.225000X0.225000X0.250000X-0.225000X0.250000X-0.225000X-0.250000X0.225000X-0.250000X0*%
%ADD30RoundRect,0.250000X-0.375000X-0.625000X0.375000X-0.625000X0.375000X0.625000X-0.375000X0.625000X0*%
%ADD31RoundRect,0.250000X0.312500X0.625000X-0.312500X0.625000X-0.312500X-0.625000X0.312500X-0.625000X0*%
%ADD32R,0.600000X1.450000*%
%ADD33R,0.700000X1.525000*%
%ADD34R,0.800000X0.300000*%
%ADD35RoundRect,0.137500X-0.662500X-0.137500X0.662500X-0.137500X0.662500X0.137500X-0.662500X0.137500X0*%
%ADD36RoundRect,0.112500X0.112500X-0.187500X0.112500X0.187500X-0.112500X0.187500X-0.112500X-0.187500X0*%
%ADD37R,0.600000X1.200000*%
%ADD38R,0.939800X1.320800*%
%ADD39R,6.604000X7.315200*%
%ADD40R,14.000000X3.000000*%
G04 APERTURE END LIST*
D10*
%TO.C,R7*%
X137989124Y-99681981D03*
X137989124Y-101331981D03*
%TD*%
D11*
%TO.C,C17*%
X121213802Y-61097364D03*
X121213802Y-59547364D03*
%TD*%
D12*
%TO.C,Q3*%
X169650000Y-64950000D03*
X168350000Y-64950000D03*
X169000000Y-63050000D03*
%TD*%
D13*
%TO.C,C9*%
X128500000Y-77725000D03*
X128500000Y-79275000D03*
%TD*%
%TO.C,C14*%
X131491802Y-60035542D03*
X131491802Y-61585542D03*
%TD*%
D14*
%TO.C,R52*%
X114175000Y-66000000D03*
X115825000Y-66000000D03*
%TD*%
D15*
%TO.C,IC5*%
X130075000Y-59000000D03*
X130075000Y-59500000D03*
X130075000Y-60000000D03*
X130075000Y-60500000D03*
X126925000Y-60500000D03*
X126925000Y-60000000D03*
X126925000Y-59500000D03*
X126925000Y-59000000D03*
%TD*%
D16*
%TO.C,Q2*%
X146000000Y-93000000D03*
D17*
X152436000Y-90714000D03*
D16*
X146000000Y-88428000D03*
%TD*%
D18*
%TO.C,Q8*%
X113900000Y-61850000D03*
X113900000Y-63150000D03*
X112000000Y-62500000D03*
%TD*%
D10*
%TO.C,R61*%
X155787095Y-71776873D03*
X155787095Y-73426873D03*
%TD*%
D13*
%TO.C,C2*%
X139484104Y-96491895D03*
X139484104Y-98041895D03*
%TD*%
D10*
%TO.C,R19*%
X178500000Y-69675000D03*
X178500000Y-71325000D03*
%TD*%
D19*
%TO.C,U1*%
X169635000Y-60750000D03*
X168365000Y-60750000D03*
X168365000Y-54250000D03*
X169635000Y-54250000D03*
%TD*%
D20*
%TO.C,R3*%
X133825000Y-93000000D03*
X132175000Y-93000000D03*
%TD*%
D11*
%TO.C,C1*%
X136500000Y-98050000D03*
X136500000Y-96500000D03*
%TD*%
D20*
%TO.C,R48*%
X113825000Y-52500000D03*
X112175000Y-52500000D03*
%TD*%
D13*
%TO.C,C6*%
X142000000Y-96225000D03*
X142000000Y-97775000D03*
%TD*%
D10*
%TO.C,R6*%
X138004623Y-96446313D03*
X138004623Y-98096313D03*
%TD*%
D14*
%TO.C,R1*%
X133500000Y-103000000D03*
X135150000Y-103000000D03*
%TD*%
D21*
%TO.C,IC3*%
X120810000Y-78538000D03*
X119540000Y-78538000D03*
X118270000Y-78538000D03*
X117000000Y-78538000D03*
X115730000Y-78538000D03*
X114460000Y-78538000D03*
X113190000Y-78538000D03*
X113190000Y-71462000D03*
X114460000Y-71462000D03*
X115730000Y-71462000D03*
X117000000Y-71462000D03*
X118270000Y-71462000D03*
X119540000Y-71462000D03*
X120810000Y-71462000D03*
%TD*%
D22*
%TO.C,C18*%
X127450000Y-62000000D03*
X129000000Y-62000000D03*
%TD*%
D23*
%TO.C,R42*%
X123075000Y-61325000D03*
X123075000Y-59675000D03*
%TD*%
D10*
%TO.C,R37*%
X128500000Y-74675000D03*
X128500000Y-76325000D03*
%TD*%
D12*
%TO.C,Q5*%
X176618196Y-73548876D03*
X175318196Y-73548876D03*
X175968196Y-71648876D03*
%TD*%
D14*
%TO.C,R59*%
X142675000Y-64000000D03*
X144325000Y-64000000D03*
%TD*%
%TO.C,R49*%
X118175000Y-62557176D03*
X119825000Y-62557176D03*
%TD*%
%TO.C,R18*%
X171850000Y-72500000D03*
X173500000Y-72500000D03*
%TD*%
D11*
%TO.C,C7*%
X130500000Y-92275000D03*
X130500000Y-90725000D03*
%TD*%
D14*
%TO.C,R57*%
X139042214Y-74029487D03*
X140692214Y-74029487D03*
%TD*%
D24*
%TO.C,D9*%
X153054674Y-71055664D03*
X150954674Y-71055664D03*
%TD*%
D11*
%TO.C,C15*%
X108500000Y-56775000D03*
X108500000Y-55225000D03*
%TD*%
D14*
%TO.C,R50*%
X117175000Y-66000000D03*
X118825000Y-66000000D03*
%TD*%
D13*
%TO.C,C10*%
X133000000Y-65000000D03*
X133000000Y-66550000D03*
%TD*%
D25*
%TO.C,D7*%
X122206320Y-64500000D03*
X120006320Y-64500000D03*
%TD*%
D13*
%TO.C,C13*%
X123500000Y-72725000D03*
X123500000Y-74275000D03*
%TD*%
D14*
%TO.C,R12*%
X168180651Y-66829614D03*
X169830651Y-66829614D03*
%TD*%
D12*
%TO.C,Q4*%
X173270991Y-68789091D03*
X171970991Y-68789091D03*
X172620991Y-66889091D03*
%TD*%
D23*
%TO.C,R13*%
X178500000Y-65325000D03*
X178500000Y-63675000D03*
%TD*%
D26*
%TO.C,C12*%
X139950000Y-72000000D03*
X138050000Y-72000000D03*
%TD*%
D23*
%TO.C,R2*%
X136500000Y-101325000D03*
X136500000Y-99675000D03*
%TD*%
D27*
%TO.C,D6*%
X112000000Y-67100000D03*
X112000000Y-64900000D03*
%TD*%
D14*
%TO.C,R40*%
X129500000Y-55500000D03*
X131150000Y-55500000D03*
%TD*%
D28*
%TO.C,Q13*%
X159800000Y-74050000D03*
X159800000Y-75950000D03*
X157500000Y-75000000D03*
%TD*%
D14*
%TO.C,R60*%
X142675000Y-66000000D03*
X144325000Y-66000000D03*
%TD*%
D10*
%TO.C,R29*%
X168000000Y-77675000D03*
X168000000Y-79325000D03*
%TD*%
D23*
%TO.C,R47*%
X114500000Y-60150000D03*
X114500000Y-58500000D03*
%TD*%
D29*
%TO.C,C11*%
X125032379Y-75790854D03*
X123482379Y-75790854D03*
%TD*%
D10*
%TO.C,R44*%
X110000000Y-55175000D03*
X110000000Y-56825000D03*
%TD*%
%TO.C,R31*%
X168000000Y-80675000D03*
X168000000Y-82325000D03*
%TD*%
D19*
%TO.C,U3*%
X176635000Y-69250000D03*
X175365000Y-69250000D03*
X175365000Y-62750000D03*
X176635000Y-62750000D03*
%TD*%
D22*
%TO.C,C16*%
X123035342Y-57008178D03*
X124585342Y-57008178D03*
%TD*%
D28*
%TO.C,Q11*%
X150650000Y-78050000D03*
X150650000Y-79950000D03*
X148350000Y-79000000D03*
%TD*%
D10*
%TO.C,R33*%
X168000000Y-83675000D03*
X168000000Y-85325000D03*
%TD*%
%TO.C,R27*%
X168000000Y-74675000D03*
X168000000Y-76325000D03*
%TD*%
D30*
%TO.C,F1*%
X142100000Y-68500000D03*
X144900000Y-68500000D03*
%TD*%
D14*
%TO.C,R15*%
X171830768Y-70735149D03*
X173480768Y-70735149D03*
%TD*%
D10*
%TO.C,R35*%
X168000000Y-86675000D03*
X168000000Y-88325000D03*
%TD*%
D31*
%TO.C,R58*%
X141962500Y-86000000D03*
X139037500Y-86000000D03*
%TD*%
D10*
%TO.C,R41*%
X131500000Y-57000000D03*
X131500000Y-58650000D03*
%TD*%
D14*
%TO.C,R55*%
X134175000Y-82000000D03*
X135825000Y-82000000D03*
%TD*%
D20*
%TO.C,R9*%
X133825000Y-90000000D03*
X132175000Y-90000000D03*
%TD*%
D10*
%TO.C,R54*%
X126000000Y-72686152D03*
X126000000Y-74336152D03*
%TD*%
D32*
%TO.C,Q10*%
X119450000Y-60800000D03*
X117550000Y-60800000D03*
X118500000Y-58500000D03*
%TD*%
D20*
%TO.C,R45*%
X127825000Y-55500000D03*
X126175000Y-55500000D03*
%TD*%
D23*
%TO.C,R16*%
X178500000Y-68325000D03*
X178500000Y-66675000D03*
%TD*%
D24*
%TO.C,D10*%
X143550000Y-78500000D03*
X141450000Y-78500000D03*
%TD*%
D33*
%TO.C,IC2*%
X139405000Y-94212000D03*
X138135000Y-94212000D03*
X136865000Y-94212000D03*
X135595000Y-94212000D03*
X135595000Y-88788000D03*
X136865000Y-88788000D03*
X138135000Y-88788000D03*
X139405000Y-88788000D03*
%TD*%
D14*
%TO.C,R39*%
X124675000Y-80000000D03*
X126325000Y-80000000D03*
%TD*%
D34*
%TO.C,U6*%
X126550000Y-77250000D03*
X126550000Y-77750000D03*
X126550000Y-78250000D03*
X126550000Y-78750000D03*
X123450000Y-78750000D03*
X123450000Y-78250000D03*
X123450000Y-77750000D03*
X123450000Y-77250000D03*
%TD*%
D35*
%TO.C,U7*%
X114250000Y-69135000D03*
X114250000Y-67865000D03*
X120750000Y-67865000D03*
X120750000Y-69135000D03*
%TD*%
D36*
%TO.C,D4*%
X125075000Y-61550000D03*
X125075000Y-59450000D03*
%TD*%
D20*
%TO.C,R46*%
X124650000Y-55500000D03*
X123000000Y-55500000D03*
%TD*%
D11*
%TO.C,C3*%
X139492501Y-101270049D03*
X139492501Y-99720049D03*
%TD*%
D19*
%TO.C,U2*%
X173270000Y-64500000D03*
X172000000Y-64500000D03*
X172000000Y-58000000D03*
X173270000Y-58000000D03*
%TD*%
D10*
%TO.C,R43*%
X111500000Y-58500000D03*
X111500000Y-60150000D03*
%TD*%
D37*
%TO.C,U8*%
X126050000Y-89750000D03*
X127000000Y-89750000D03*
X127950000Y-89750000D03*
X127950000Y-92250000D03*
X127000000Y-92250000D03*
X126050000Y-92250000D03*
%TD*%
D20*
%TO.C,R56*%
X133650000Y-80000000D03*
X132000000Y-80000000D03*
%TD*%
%TO.C,R8*%
X137551657Y-87032933D03*
X135901657Y-87032933D03*
%TD*%
D38*
%TO.C,IC4*%
X140260600Y-68299200D03*
D39*
X138000000Y-61847600D03*
D38*
X135739400Y-68299200D03*
%TD*%
D40*
%TO.C,L1*%
X113000000Y-85600000D03*
X113000000Y-106400000D03*
%TD*%
D14*
%TO.C,R53*%
X122538694Y-67672970D03*
X124188694Y-67672970D03*
%TD*%
D28*
%TO.C,Q9*%
X111750000Y-56800000D03*
X111750000Y-54900000D03*
X114050000Y-55850000D03*
%TD*%
D20*
%TO.C,R51*%
X118825904Y-64495647D03*
X117175904Y-64495647D03*
%TD*%
M02*
