%TF.GenerationSoftware,KiCad,Pcbnew,8.0.4*%
%TF.CreationDate,2024-08-16T06:12:58+09:00*%
%TF.ProjectId,chibarobo_board_2024,63686962-6172-46f6-926f-5f626f617264,rev?*%
%TF.SameCoordinates,Original*%
%TF.FileFunction,Legend,Top*%
%TF.FilePolarity,Positive*%
%FSLAX46Y46*%
G04 Gerber Fmt 4.6, Leading zero omitted, Abs format (unit mm)*
G04 Created by KiCad (PCBNEW 8.0.4) date 2024-08-16 06:12:58*
%MOMM*%
%LPD*%
G01*
G04 APERTURE LIST*
%ADD10C,0.150000*%
%ADD11C,0.200000*%
%ADD12C,0.100000*%
%ADD13C,0.254000*%
%ADD14C,0.120000*%
%ADD15C,1.000000*%
G04 APERTURE END LIST*
D10*
X183533332Y-113350633D02*
X183599999Y-113383966D01*
X183599999Y-113383966D02*
X183699999Y-113383966D01*
X183699999Y-113383966D02*
X183799999Y-113350633D01*
X183799999Y-113350633D02*
X183866666Y-113283966D01*
X183866666Y-113283966D02*
X183899999Y-113217300D01*
X183899999Y-113217300D02*
X183933332Y-113083966D01*
X183933332Y-113083966D02*
X183933332Y-112983966D01*
X183933332Y-112983966D02*
X183899999Y-112850633D01*
X183899999Y-112850633D02*
X183866666Y-112783966D01*
X183866666Y-112783966D02*
X183799999Y-112717300D01*
X183799999Y-112717300D02*
X183699999Y-112683966D01*
X183699999Y-112683966D02*
X183633332Y-112683966D01*
X183633332Y-112683966D02*
X183533332Y-112717300D01*
X183533332Y-112717300D02*
X183499999Y-112750633D01*
X183499999Y-112750633D02*
X183499999Y-112983966D01*
X183499999Y-112983966D02*
X183633332Y-112983966D01*
X183199999Y-112683966D02*
X183199999Y-113383966D01*
X183199999Y-113383966D02*
X182799999Y-112683966D01*
X182799999Y-112683966D02*
X182799999Y-113383966D01*
X182466666Y-112683966D02*
X182466666Y-113383966D01*
X182466666Y-113383966D02*
X182299999Y-113383966D01*
X182299999Y-113383966D02*
X182199999Y-113350633D01*
X182199999Y-113350633D02*
X182133333Y-113283966D01*
X182133333Y-113283966D02*
X182099999Y-113217300D01*
X182099999Y-113217300D02*
X182066666Y-113083966D01*
X182066666Y-113083966D02*
X182066666Y-112983966D01*
X182066666Y-112983966D02*
X182099999Y-112850633D01*
X182099999Y-112850633D02*
X182133333Y-112783966D01*
X182133333Y-112783966D02*
X182199999Y-112717300D01*
X182199999Y-112717300D02*
X182299999Y-112683966D01*
X182299999Y-112683966D02*
X182466666Y-112683966D01*
X186483333Y-112683966D02*
X186483333Y-113383966D01*
X186483333Y-113383966D02*
X186216666Y-113383966D01*
X186216666Y-113383966D02*
X186150000Y-113350633D01*
X186150000Y-113350633D02*
X186116666Y-113317300D01*
X186116666Y-113317300D02*
X186083333Y-113250633D01*
X186083333Y-113250633D02*
X186083333Y-113150633D01*
X186083333Y-113150633D02*
X186116666Y-113083966D01*
X186116666Y-113083966D02*
X186150000Y-113050633D01*
X186150000Y-113050633D02*
X186216666Y-113017300D01*
X186216666Y-113017300D02*
X186483333Y-113017300D01*
X185850000Y-113383966D02*
X185683333Y-112683966D01*
X185683333Y-112683966D02*
X185550000Y-113183966D01*
X185550000Y-113183966D02*
X185416666Y-112683966D01*
X185416666Y-112683966D02*
X185250000Y-113383966D01*
X184983333Y-112683966D02*
X184983333Y-113383966D01*
X184983333Y-113383966D02*
X184750000Y-112883966D01*
X184750000Y-112883966D02*
X184516666Y-113383966D01*
X184516666Y-113383966D02*
X184516666Y-112683966D01*
D11*
X104665526Y-85750625D02*
X104570288Y-85655387D01*
X104570288Y-85655387D02*
X104475049Y-85369673D01*
X104475049Y-85369673D02*
X104475049Y-85179197D01*
X104475049Y-85179197D02*
X104570288Y-84893482D01*
X104570288Y-84893482D02*
X104760764Y-84703006D01*
X104760764Y-84703006D02*
X104951240Y-84607768D01*
X104951240Y-84607768D02*
X105332192Y-84512530D01*
X105332192Y-84512530D02*
X105617907Y-84512530D01*
X105617907Y-84512530D02*
X105998859Y-84607768D01*
X105998859Y-84607768D02*
X106189335Y-84703006D01*
X106189335Y-84703006D02*
X106379811Y-84893482D01*
X106379811Y-84893482D02*
X106475049Y-85179197D01*
X106475049Y-85179197D02*
X106475049Y-85369673D01*
X106475049Y-85369673D02*
X106379811Y-85655387D01*
X106379811Y-85655387D02*
X106284573Y-85750625D01*
X104475049Y-86607768D02*
X106475049Y-86607768D01*
X104475049Y-87464911D02*
X105522668Y-87464911D01*
X105522668Y-87464911D02*
X105713145Y-87369673D01*
X105713145Y-87369673D02*
X105808383Y-87179197D01*
X105808383Y-87179197D02*
X105808383Y-86893482D01*
X105808383Y-86893482D02*
X105713145Y-86703006D01*
X105713145Y-86703006D02*
X105617907Y-86607768D01*
X104475049Y-88417292D02*
X105808383Y-88417292D01*
X106475049Y-88417292D02*
X106379811Y-88322054D01*
X106379811Y-88322054D02*
X106284573Y-88417292D01*
X106284573Y-88417292D02*
X106379811Y-88512530D01*
X106379811Y-88512530D02*
X106475049Y-88417292D01*
X106475049Y-88417292D02*
X106284573Y-88417292D01*
X104475049Y-89369673D02*
X106475049Y-89369673D01*
X105713145Y-89369673D02*
X105808383Y-89560149D01*
X105808383Y-89560149D02*
X105808383Y-89941102D01*
X105808383Y-89941102D02*
X105713145Y-90131578D01*
X105713145Y-90131578D02*
X105617907Y-90226816D01*
X105617907Y-90226816D02*
X105427430Y-90322054D01*
X105427430Y-90322054D02*
X104856002Y-90322054D01*
X104856002Y-90322054D02*
X104665526Y-90226816D01*
X104665526Y-90226816D02*
X104570288Y-90131578D01*
X104570288Y-90131578D02*
X104475049Y-89941102D01*
X104475049Y-89941102D02*
X104475049Y-89560149D01*
X104475049Y-89560149D02*
X104570288Y-89369673D01*
X104475049Y-92036340D02*
X105522668Y-92036340D01*
X105522668Y-92036340D02*
X105713145Y-91941102D01*
X105713145Y-91941102D02*
X105808383Y-91750626D01*
X105808383Y-91750626D02*
X105808383Y-91369673D01*
X105808383Y-91369673D02*
X105713145Y-91179197D01*
X104570288Y-92036340D02*
X104475049Y-91845864D01*
X104475049Y-91845864D02*
X104475049Y-91369673D01*
X104475049Y-91369673D02*
X104570288Y-91179197D01*
X104570288Y-91179197D02*
X104760764Y-91083959D01*
X104760764Y-91083959D02*
X104951240Y-91083959D01*
X104951240Y-91083959D02*
X105141716Y-91179197D01*
X105141716Y-91179197D02*
X105236954Y-91369673D01*
X105236954Y-91369673D02*
X105236954Y-91845864D01*
X105236954Y-91845864D02*
X105332192Y-92036340D01*
X104475049Y-94131578D02*
X105427430Y-93464911D01*
X104475049Y-92988721D02*
X106475049Y-92988721D01*
X106475049Y-92988721D02*
X106475049Y-93750626D01*
X106475049Y-93750626D02*
X106379811Y-93941102D01*
X106379811Y-93941102D02*
X106284573Y-94036340D01*
X106284573Y-94036340D02*
X106094097Y-94131578D01*
X106094097Y-94131578D02*
X105808383Y-94131578D01*
X105808383Y-94131578D02*
X105617907Y-94036340D01*
X105617907Y-94036340D02*
X105522668Y-93941102D01*
X105522668Y-93941102D02*
X105427430Y-93750626D01*
X105427430Y-93750626D02*
X105427430Y-92988721D01*
X104475049Y-95274435D02*
X104570288Y-95083959D01*
X104570288Y-95083959D02*
X104665526Y-94988721D01*
X104665526Y-94988721D02*
X104856002Y-94893483D01*
X104856002Y-94893483D02*
X105427430Y-94893483D01*
X105427430Y-94893483D02*
X105617907Y-94988721D01*
X105617907Y-94988721D02*
X105713145Y-95083959D01*
X105713145Y-95083959D02*
X105808383Y-95274435D01*
X105808383Y-95274435D02*
X105808383Y-95560150D01*
X105808383Y-95560150D02*
X105713145Y-95750626D01*
X105713145Y-95750626D02*
X105617907Y-95845864D01*
X105617907Y-95845864D02*
X105427430Y-95941102D01*
X105427430Y-95941102D02*
X104856002Y-95941102D01*
X104856002Y-95941102D02*
X104665526Y-95845864D01*
X104665526Y-95845864D02*
X104570288Y-95750626D01*
X104570288Y-95750626D02*
X104475049Y-95560150D01*
X104475049Y-95560150D02*
X104475049Y-95274435D01*
X104475049Y-96798245D02*
X106475049Y-96798245D01*
X105713145Y-96798245D02*
X105808383Y-96988721D01*
X105808383Y-96988721D02*
X105808383Y-97369674D01*
X105808383Y-97369674D02*
X105713145Y-97560150D01*
X105713145Y-97560150D02*
X105617907Y-97655388D01*
X105617907Y-97655388D02*
X105427430Y-97750626D01*
X105427430Y-97750626D02*
X104856002Y-97750626D01*
X104856002Y-97750626D02*
X104665526Y-97655388D01*
X104665526Y-97655388D02*
X104570288Y-97560150D01*
X104570288Y-97560150D02*
X104475049Y-97369674D01*
X104475049Y-97369674D02*
X104475049Y-96988721D01*
X104475049Y-96988721D02*
X104570288Y-96798245D01*
X104475049Y-98893483D02*
X104570288Y-98703007D01*
X104570288Y-98703007D02*
X104665526Y-98607769D01*
X104665526Y-98607769D02*
X104856002Y-98512531D01*
X104856002Y-98512531D02*
X105427430Y-98512531D01*
X105427430Y-98512531D02*
X105617907Y-98607769D01*
X105617907Y-98607769D02*
X105713145Y-98703007D01*
X105713145Y-98703007D02*
X105808383Y-98893483D01*
X105808383Y-98893483D02*
X105808383Y-99179198D01*
X105808383Y-99179198D02*
X105713145Y-99369674D01*
X105713145Y-99369674D02*
X105617907Y-99464912D01*
X105617907Y-99464912D02*
X105427430Y-99560150D01*
X105427430Y-99560150D02*
X104856002Y-99560150D01*
X104856002Y-99560150D02*
X104665526Y-99464912D01*
X104665526Y-99464912D02*
X104570288Y-99369674D01*
X104570288Y-99369674D02*
X104475049Y-99179198D01*
X104475049Y-99179198D02*
X104475049Y-98893483D01*
X105522668Y-101083960D02*
X105427430Y-101369674D01*
X105427430Y-101369674D02*
X105332192Y-101464912D01*
X105332192Y-101464912D02*
X105141716Y-101560150D01*
X105141716Y-101560150D02*
X104856002Y-101560150D01*
X104856002Y-101560150D02*
X104665526Y-101464912D01*
X104665526Y-101464912D02*
X104570288Y-101369674D01*
X104570288Y-101369674D02*
X104475049Y-101179198D01*
X104475049Y-101179198D02*
X104475049Y-100417293D01*
X104475049Y-100417293D02*
X106475049Y-100417293D01*
X106475049Y-100417293D02*
X106475049Y-101083960D01*
X106475049Y-101083960D02*
X106379811Y-101274436D01*
X106379811Y-101274436D02*
X106284573Y-101369674D01*
X106284573Y-101369674D02*
X106094097Y-101464912D01*
X106094097Y-101464912D02*
X105903621Y-101464912D01*
X105903621Y-101464912D02*
X105713145Y-101369674D01*
X105713145Y-101369674D02*
X105617907Y-101274436D01*
X105617907Y-101274436D02*
X105522668Y-101083960D01*
X105522668Y-101083960D02*
X105522668Y-100417293D01*
X104475049Y-102703007D02*
X104570288Y-102512531D01*
X104570288Y-102512531D02*
X104665526Y-102417293D01*
X104665526Y-102417293D02*
X104856002Y-102322055D01*
X104856002Y-102322055D02*
X105427430Y-102322055D01*
X105427430Y-102322055D02*
X105617907Y-102417293D01*
X105617907Y-102417293D02*
X105713145Y-102512531D01*
X105713145Y-102512531D02*
X105808383Y-102703007D01*
X105808383Y-102703007D02*
X105808383Y-102988722D01*
X105808383Y-102988722D02*
X105713145Y-103179198D01*
X105713145Y-103179198D02*
X105617907Y-103274436D01*
X105617907Y-103274436D02*
X105427430Y-103369674D01*
X105427430Y-103369674D02*
X104856002Y-103369674D01*
X104856002Y-103369674D02*
X104665526Y-103274436D01*
X104665526Y-103274436D02*
X104570288Y-103179198D01*
X104570288Y-103179198D02*
X104475049Y-102988722D01*
X104475049Y-102988722D02*
X104475049Y-102703007D01*
X104475049Y-105083960D02*
X105522668Y-105083960D01*
X105522668Y-105083960D02*
X105713145Y-104988722D01*
X105713145Y-104988722D02*
X105808383Y-104798246D01*
X105808383Y-104798246D02*
X105808383Y-104417293D01*
X105808383Y-104417293D02*
X105713145Y-104226817D01*
X104570288Y-105083960D02*
X104475049Y-104893484D01*
X104475049Y-104893484D02*
X104475049Y-104417293D01*
X104475049Y-104417293D02*
X104570288Y-104226817D01*
X104570288Y-104226817D02*
X104760764Y-104131579D01*
X104760764Y-104131579D02*
X104951240Y-104131579D01*
X104951240Y-104131579D02*
X105141716Y-104226817D01*
X105141716Y-104226817D02*
X105236954Y-104417293D01*
X105236954Y-104417293D02*
X105236954Y-104893484D01*
X105236954Y-104893484D02*
X105332192Y-105083960D01*
X104475049Y-106036341D02*
X105808383Y-106036341D01*
X105427430Y-106036341D02*
X105617907Y-106131579D01*
X105617907Y-106131579D02*
X105713145Y-106226817D01*
X105713145Y-106226817D02*
X105808383Y-106417293D01*
X105808383Y-106417293D02*
X105808383Y-106607770D01*
X104475049Y-108131579D02*
X106475049Y-108131579D01*
X104570288Y-108131579D02*
X104475049Y-107941103D01*
X104475049Y-107941103D02*
X104475049Y-107560150D01*
X104475049Y-107560150D02*
X104570288Y-107369674D01*
X104570288Y-107369674D02*
X104665526Y-107274436D01*
X104665526Y-107274436D02*
X104856002Y-107179198D01*
X104856002Y-107179198D02*
X105427430Y-107179198D01*
X105427430Y-107179198D02*
X105617907Y-107274436D01*
X105617907Y-107274436D02*
X105713145Y-107369674D01*
X105713145Y-107369674D02*
X105808383Y-107560150D01*
X105808383Y-107560150D02*
X105808383Y-107941103D01*
X105808383Y-107941103D02*
X105713145Y-108131579D01*
X103064685Y-84512530D02*
X103159923Y-84607768D01*
X103159923Y-84607768D02*
X103255161Y-84798244D01*
X103255161Y-84798244D02*
X103255161Y-85274435D01*
X103255161Y-85274435D02*
X103159923Y-85464911D01*
X103159923Y-85464911D02*
X103064685Y-85560149D01*
X103064685Y-85560149D02*
X102874209Y-85655387D01*
X102874209Y-85655387D02*
X102683733Y-85655387D01*
X102683733Y-85655387D02*
X102398019Y-85560149D01*
X102398019Y-85560149D02*
X101255161Y-84417292D01*
X101255161Y-84417292D02*
X101255161Y-85655387D01*
X103255161Y-86893482D02*
X103255161Y-87083959D01*
X103255161Y-87083959D02*
X103159923Y-87274435D01*
X103159923Y-87274435D02*
X103064685Y-87369673D01*
X103064685Y-87369673D02*
X102874209Y-87464911D01*
X102874209Y-87464911D02*
X102493257Y-87560149D01*
X102493257Y-87560149D02*
X102017066Y-87560149D01*
X102017066Y-87560149D02*
X101636114Y-87464911D01*
X101636114Y-87464911D02*
X101445638Y-87369673D01*
X101445638Y-87369673D02*
X101350400Y-87274435D01*
X101350400Y-87274435D02*
X101255161Y-87083959D01*
X101255161Y-87083959D02*
X101255161Y-86893482D01*
X101255161Y-86893482D02*
X101350400Y-86703006D01*
X101350400Y-86703006D02*
X101445638Y-86607768D01*
X101445638Y-86607768D02*
X101636114Y-86512530D01*
X101636114Y-86512530D02*
X102017066Y-86417292D01*
X102017066Y-86417292D02*
X102493257Y-86417292D01*
X102493257Y-86417292D02*
X102874209Y-86512530D01*
X102874209Y-86512530D02*
X103064685Y-86607768D01*
X103064685Y-86607768D02*
X103159923Y-86703006D01*
X103159923Y-86703006D02*
X103255161Y-86893482D01*
X103064685Y-88322054D02*
X103159923Y-88417292D01*
X103159923Y-88417292D02*
X103255161Y-88607768D01*
X103255161Y-88607768D02*
X103255161Y-89083959D01*
X103255161Y-89083959D02*
X103159923Y-89274435D01*
X103159923Y-89274435D02*
X103064685Y-89369673D01*
X103064685Y-89369673D02*
X102874209Y-89464911D01*
X102874209Y-89464911D02*
X102683733Y-89464911D01*
X102683733Y-89464911D02*
X102398019Y-89369673D01*
X102398019Y-89369673D02*
X101255161Y-88226816D01*
X101255161Y-88226816D02*
X101255161Y-89464911D01*
X102588495Y-91179197D02*
X101255161Y-91179197D01*
X103350400Y-90703006D02*
X101921828Y-90226816D01*
X101921828Y-90226816D02*
X101921828Y-91464911D01*
D10*
X101130180Y-93408207D02*
X101606371Y-93074874D01*
X101130180Y-92836779D02*
X102130180Y-92836779D01*
X102130180Y-92836779D02*
X102130180Y-93217731D01*
X102130180Y-93217731D02*
X102082561Y-93312969D01*
X102082561Y-93312969D02*
X102034942Y-93360588D01*
X102034942Y-93360588D02*
X101939704Y-93408207D01*
X101939704Y-93408207D02*
X101796847Y-93408207D01*
X101796847Y-93408207D02*
X101701609Y-93360588D01*
X101701609Y-93360588D02*
X101653990Y-93312969D01*
X101653990Y-93312969D02*
X101606371Y-93217731D01*
X101606371Y-93217731D02*
X101606371Y-92836779D01*
X101177800Y-94217731D02*
X101130180Y-94122493D01*
X101130180Y-94122493D02*
X101130180Y-93932017D01*
X101130180Y-93932017D02*
X101177800Y-93836779D01*
X101177800Y-93836779D02*
X101273038Y-93789160D01*
X101273038Y-93789160D02*
X101653990Y-93789160D01*
X101653990Y-93789160D02*
X101749228Y-93836779D01*
X101749228Y-93836779D02*
X101796847Y-93932017D01*
X101796847Y-93932017D02*
X101796847Y-94122493D01*
X101796847Y-94122493D02*
X101749228Y-94217731D01*
X101749228Y-94217731D02*
X101653990Y-94265350D01*
X101653990Y-94265350D02*
X101558752Y-94265350D01*
X101558752Y-94265350D02*
X101463514Y-93789160D01*
X101796847Y-94598684D02*
X101130180Y-94836779D01*
X101130180Y-94836779D02*
X101796847Y-95074874D01*
X101130180Y-95979636D02*
X101130180Y-95408208D01*
X101130180Y-95693922D02*
X102130180Y-95693922D01*
X102130180Y-95693922D02*
X101987323Y-95598684D01*
X101987323Y-95598684D02*
X101892085Y-95503446D01*
X101892085Y-95503446D02*
X101844466Y-95408208D01*
D12*
X197923117Y-73564538D02*
X198542164Y-73564538D01*
X198542164Y-73564538D02*
X198208831Y-73945490D01*
X198208831Y-73945490D02*
X198351688Y-73945490D01*
X198351688Y-73945490D02*
X198446926Y-73993109D01*
X198446926Y-73993109D02*
X198494545Y-74040728D01*
X198494545Y-74040728D02*
X198542164Y-74135966D01*
X198542164Y-74135966D02*
X198542164Y-74374061D01*
X198542164Y-74374061D02*
X198494545Y-74469299D01*
X198494545Y-74469299D02*
X198446926Y-74516919D01*
X198446926Y-74516919D02*
X198351688Y-74564538D01*
X198351688Y-74564538D02*
X198065974Y-74564538D01*
X198065974Y-74564538D02*
X197970736Y-74516919D01*
X197970736Y-74516919D02*
X197923117Y-74469299D01*
X199399307Y-73897871D02*
X199399307Y-74564538D01*
X199161212Y-73516919D02*
X198923117Y-74231204D01*
X198923117Y-74231204D02*
X199542164Y-74231204D01*
X198561747Y-60957419D02*
X198085557Y-60957419D01*
X198085557Y-60957419D02*
X198037938Y-61433609D01*
X198037938Y-61433609D02*
X198085557Y-61385990D01*
X198085557Y-61385990D02*
X198180795Y-61338371D01*
X198180795Y-61338371D02*
X198418890Y-61338371D01*
X198418890Y-61338371D02*
X198514128Y-61385990D01*
X198514128Y-61385990D02*
X198561747Y-61433609D01*
X198561747Y-61433609D02*
X198609366Y-61528847D01*
X198609366Y-61528847D02*
X198609366Y-61766942D01*
X198609366Y-61766942D02*
X198561747Y-61862180D01*
X198561747Y-61862180D02*
X198514128Y-61909800D01*
X198514128Y-61909800D02*
X198418890Y-61957419D01*
X198418890Y-61957419D02*
X198180795Y-61957419D01*
X198180795Y-61957419D02*
X198085557Y-61909800D01*
X198085557Y-61909800D02*
X198037938Y-61862180D01*
X198895081Y-60957419D02*
X199228414Y-61957419D01*
X199228414Y-61957419D02*
X199561747Y-60957419D01*
D10*
X194516666Y-111816033D02*
X194516666Y-111116033D01*
X194516666Y-111116033D02*
X194783333Y-111116033D01*
X194783333Y-111116033D02*
X194850000Y-111149366D01*
X194850000Y-111149366D02*
X194883333Y-111182700D01*
X194883333Y-111182700D02*
X194916666Y-111249366D01*
X194916666Y-111249366D02*
X194916666Y-111349366D01*
X194916666Y-111349366D02*
X194883333Y-111416033D01*
X194883333Y-111416033D02*
X194850000Y-111449366D01*
X194850000Y-111449366D02*
X194783333Y-111482700D01*
X194783333Y-111482700D02*
X194516666Y-111482700D01*
X195150000Y-111116033D02*
X195316666Y-111816033D01*
X195316666Y-111816033D02*
X195450000Y-111316033D01*
X195450000Y-111316033D02*
X195583333Y-111816033D01*
X195583333Y-111816033D02*
X195750000Y-111116033D01*
X196016666Y-111816033D02*
X196016666Y-111116033D01*
X196016666Y-111116033D02*
X196250000Y-111616033D01*
X196250000Y-111616033D02*
X196483333Y-111116033D01*
X196483333Y-111116033D02*
X196483333Y-111816033D01*
D12*
X190675341Y-73642145D02*
X191294388Y-73642145D01*
X191294388Y-73642145D02*
X190961055Y-74023097D01*
X190961055Y-74023097D02*
X191103912Y-74023097D01*
X191103912Y-74023097D02*
X191199150Y-74070716D01*
X191199150Y-74070716D02*
X191246769Y-74118335D01*
X191246769Y-74118335D02*
X191294388Y-74213573D01*
X191294388Y-74213573D02*
X191294388Y-74451668D01*
X191294388Y-74451668D02*
X191246769Y-74546906D01*
X191246769Y-74546906D02*
X191199150Y-74594526D01*
X191199150Y-74594526D02*
X191103912Y-74642145D01*
X191103912Y-74642145D02*
X190818198Y-74642145D01*
X190818198Y-74642145D02*
X190722960Y-74594526D01*
X190722960Y-74594526D02*
X190675341Y-74546906D01*
X192199150Y-73642145D02*
X191722960Y-73642145D01*
X191722960Y-73642145D02*
X191675341Y-74118335D01*
X191675341Y-74118335D02*
X191722960Y-74070716D01*
X191722960Y-74070716D02*
X191818198Y-74023097D01*
X191818198Y-74023097D02*
X192056293Y-74023097D01*
X192056293Y-74023097D02*
X192151531Y-74070716D01*
X192151531Y-74070716D02*
X192199150Y-74118335D01*
X192199150Y-74118335D02*
X192246769Y-74213573D01*
X192246769Y-74213573D02*
X192246769Y-74451668D01*
X192246769Y-74451668D02*
X192199150Y-74546906D01*
X192199150Y-74546906D02*
X192151531Y-74594526D01*
X192151531Y-74594526D02*
X192056293Y-74642145D01*
X192056293Y-74642145D02*
X191818198Y-74642145D01*
X191818198Y-74642145D02*
X191722960Y-74594526D01*
X191722960Y-74594526D02*
X191675341Y-74546906D01*
X111332591Y-55532847D02*
X111523067Y-55532847D01*
X111523067Y-55532847D02*
X111618305Y-55580466D01*
X111618305Y-55580466D02*
X111713543Y-55675704D01*
X111713543Y-55675704D02*
X111761162Y-55866180D01*
X111761162Y-55866180D02*
X111761162Y-56199513D01*
X111761162Y-56199513D02*
X111713543Y-56389989D01*
X111713543Y-56389989D02*
X111618305Y-56485228D01*
X111618305Y-56485228D02*
X111523067Y-56532847D01*
X111523067Y-56532847D02*
X111332591Y-56532847D01*
X111332591Y-56532847D02*
X111237353Y-56485228D01*
X111237353Y-56485228D02*
X111142115Y-56389989D01*
X111142115Y-56389989D02*
X111094496Y-56199513D01*
X111094496Y-56199513D02*
X111094496Y-55866180D01*
X111094496Y-55866180D02*
X111142115Y-55675704D01*
X111142115Y-55675704D02*
X111237353Y-55580466D01*
X111237353Y-55580466D02*
X111332591Y-55532847D01*
X112046877Y-55532847D02*
X112380210Y-56532847D01*
X112380210Y-56532847D02*
X112713543Y-55532847D01*
X113046877Y-56009037D02*
X113380210Y-56009037D01*
X113523067Y-56532847D02*
X113046877Y-56532847D01*
X113046877Y-56532847D02*
X113046877Y-55532847D01*
X113046877Y-55532847D02*
X113523067Y-55532847D01*
X114523067Y-56532847D02*
X114189734Y-56056656D01*
X113951639Y-56532847D02*
X113951639Y-55532847D01*
X113951639Y-55532847D02*
X114332591Y-55532847D01*
X114332591Y-55532847D02*
X114427829Y-55580466D01*
X114427829Y-55580466D02*
X114475448Y-55628085D01*
X114475448Y-55628085D02*
X114523067Y-55723323D01*
X114523067Y-55723323D02*
X114523067Y-55866180D01*
X114523067Y-55866180D02*
X114475448Y-55961418D01*
X114475448Y-55961418D02*
X114427829Y-56009037D01*
X114427829Y-56009037D02*
X114332591Y-56056656D01*
X114332591Y-56056656D02*
X113951639Y-56056656D01*
X115523067Y-56532847D02*
X115189734Y-56056656D01*
X114951639Y-56532847D02*
X114951639Y-55532847D01*
X114951639Y-55532847D02*
X115332591Y-55532847D01*
X115332591Y-55532847D02*
X115427829Y-55580466D01*
X115427829Y-55580466D02*
X115475448Y-55628085D01*
X115475448Y-55628085D02*
X115523067Y-55723323D01*
X115523067Y-55723323D02*
X115523067Y-55866180D01*
X115523067Y-55866180D02*
X115475448Y-55961418D01*
X115475448Y-55961418D02*
X115427829Y-56009037D01*
X115427829Y-56009037D02*
X115332591Y-56056656D01*
X115332591Y-56056656D02*
X114951639Y-56056656D01*
X115951639Y-56532847D02*
X115951639Y-55532847D01*
X116427829Y-56532847D02*
X116427829Y-55532847D01*
X116427829Y-55532847D02*
X116665924Y-55532847D01*
X116665924Y-55532847D02*
X116808781Y-55580466D01*
X116808781Y-55580466D02*
X116904019Y-55675704D01*
X116904019Y-55675704D02*
X116951638Y-55770942D01*
X116951638Y-55770942D02*
X116999257Y-55961418D01*
X116999257Y-55961418D02*
X116999257Y-56104275D01*
X116999257Y-56104275D02*
X116951638Y-56294751D01*
X116951638Y-56294751D02*
X116904019Y-56389989D01*
X116904019Y-56389989D02*
X116808781Y-56485228D01*
X116808781Y-56485228D02*
X116665924Y-56532847D01*
X116665924Y-56532847D02*
X116427829Y-56532847D01*
X117427829Y-56009037D02*
X117761162Y-56009037D01*
X117904019Y-56532847D02*
X117427829Y-56532847D01*
X117427829Y-56532847D02*
X117427829Y-55532847D01*
X117427829Y-55532847D02*
X117904019Y-55532847D01*
D10*
X188699999Y-112683966D02*
X188699999Y-113383966D01*
X188699999Y-113383966D02*
X188533332Y-113383966D01*
X188533332Y-113383966D02*
X188433332Y-113350633D01*
X188433332Y-113350633D02*
X188366666Y-113283966D01*
X188366666Y-113283966D02*
X188333332Y-113217300D01*
X188333332Y-113217300D02*
X188299999Y-113083966D01*
X188299999Y-113083966D02*
X188299999Y-112983966D01*
X188299999Y-112983966D02*
X188333332Y-112850633D01*
X188333332Y-112850633D02*
X188366666Y-112783966D01*
X188366666Y-112783966D02*
X188433332Y-112717300D01*
X188433332Y-112717300D02*
X188533332Y-112683966D01*
X188533332Y-112683966D02*
X188699999Y-112683966D01*
X187999999Y-112683966D02*
X187999999Y-113383966D01*
X187266666Y-112683966D02*
X187499999Y-113017300D01*
X187666666Y-112683966D02*
X187666666Y-113383966D01*
X187666666Y-113383966D02*
X187399999Y-113383966D01*
X187399999Y-113383966D02*
X187333333Y-113350633D01*
X187333333Y-113350633D02*
X187299999Y-113317300D01*
X187299999Y-113317300D02*
X187266666Y-113250633D01*
X187266666Y-113250633D02*
X187266666Y-113150633D01*
X187266666Y-113150633D02*
X187299999Y-113083966D01*
X187299999Y-113083966D02*
X187333333Y-113050633D01*
X187333333Y-113050633D02*
X187399999Y-113017300D01*
X187399999Y-113017300D02*
X187666666Y-113017300D01*
D12*
X197967429Y-68402197D02*
X198586476Y-68402197D01*
X198586476Y-68402197D02*
X198253143Y-68783149D01*
X198253143Y-68783149D02*
X198396000Y-68783149D01*
X198396000Y-68783149D02*
X198491238Y-68830768D01*
X198491238Y-68830768D02*
X198538857Y-68878387D01*
X198538857Y-68878387D02*
X198586476Y-68973625D01*
X198586476Y-68973625D02*
X198586476Y-69211720D01*
X198586476Y-69211720D02*
X198538857Y-69306958D01*
X198538857Y-69306958D02*
X198491238Y-69354578D01*
X198491238Y-69354578D02*
X198396000Y-69402197D01*
X198396000Y-69402197D02*
X198110286Y-69402197D01*
X198110286Y-69402197D02*
X198015048Y-69354578D01*
X198015048Y-69354578D02*
X197967429Y-69306958D01*
X199157905Y-68830768D02*
X199062667Y-68783149D01*
X199062667Y-68783149D02*
X199015048Y-68735530D01*
X199015048Y-68735530D02*
X198967429Y-68640292D01*
X198967429Y-68640292D02*
X198967429Y-68592673D01*
X198967429Y-68592673D02*
X199015048Y-68497435D01*
X199015048Y-68497435D02*
X199062667Y-68449816D01*
X199062667Y-68449816D02*
X199157905Y-68402197D01*
X199157905Y-68402197D02*
X199348381Y-68402197D01*
X199348381Y-68402197D02*
X199443619Y-68449816D01*
X199443619Y-68449816D02*
X199491238Y-68497435D01*
X199491238Y-68497435D02*
X199538857Y-68592673D01*
X199538857Y-68592673D02*
X199538857Y-68640292D01*
X199538857Y-68640292D02*
X199491238Y-68735530D01*
X199491238Y-68735530D02*
X199443619Y-68783149D01*
X199443619Y-68783149D02*
X199348381Y-68830768D01*
X199348381Y-68830768D02*
X199157905Y-68830768D01*
X199157905Y-68830768D02*
X199062667Y-68878387D01*
X199062667Y-68878387D02*
X199015048Y-68926006D01*
X199015048Y-68926006D02*
X198967429Y-69021244D01*
X198967429Y-69021244D02*
X198967429Y-69211720D01*
X198967429Y-69211720D02*
X199015048Y-69306958D01*
X199015048Y-69306958D02*
X199062667Y-69354578D01*
X199062667Y-69354578D02*
X199157905Y-69402197D01*
X199157905Y-69402197D02*
X199348381Y-69402197D01*
X199348381Y-69402197D02*
X199443619Y-69354578D01*
X199443619Y-69354578D02*
X199491238Y-69306958D01*
X199491238Y-69306958D02*
X199538857Y-69211720D01*
X199538857Y-69211720D02*
X199538857Y-69021244D01*
X199538857Y-69021244D02*
X199491238Y-68926006D01*
X199491238Y-68926006D02*
X199443619Y-68878387D01*
X199443619Y-68878387D02*
X199348381Y-68830768D01*
X197860385Y-63947879D02*
X198093719Y-63947879D01*
X198193719Y-64314546D02*
X197860385Y-64314546D01*
X197860385Y-64314546D02*
X197860385Y-63614546D01*
X197860385Y-63614546D02*
X198193719Y-63614546D01*
X198493718Y-64314546D02*
X198493718Y-63614546D01*
X198493718Y-63614546D02*
X198727052Y-64114546D01*
X198727052Y-64114546D02*
X198960385Y-63614546D01*
X198960385Y-63614546D02*
X198960385Y-64314546D01*
X199260385Y-64281213D02*
X199360385Y-64314546D01*
X199360385Y-64314546D02*
X199527052Y-64314546D01*
X199527052Y-64314546D02*
X199593718Y-64281213D01*
X199593718Y-64281213D02*
X199627052Y-64247879D01*
X199627052Y-64247879D02*
X199660385Y-64181213D01*
X199660385Y-64181213D02*
X199660385Y-64114546D01*
X199660385Y-64114546D02*
X199627052Y-64047879D01*
X199627052Y-64047879D02*
X199593718Y-64014546D01*
X199593718Y-64014546D02*
X199527052Y-63981213D01*
X199527052Y-63981213D02*
X199393718Y-63947879D01*
X199393718Y-63947879D02*
X199327052Y-63914546D01*
X199327052Y-63914546D02*
X199293718Y-63881213D01*
X199293718Y-63881213D02*
X199260385Y-63814546D01*
X199260385Y-63814546D02*
X199260385Y-63747879D01*
X199260385Y-63747879D02*
X199293718Y-63681213D01*
X199293718Y-63681213D02*
X199327052Y-63647879D01*
X199327052Y-63647879D02*
X199393718Y-63614546D01*
X199393718Y-63614546D02*
X199560385Y-63614546D01*
X199560385Y-63614546D02*
X199660385Y-63647879D01*
X197763719Y-63420213D02*
X199723719Y-63420213D01*
X191214285Y-66290752D02*
X191214285Y-66957419D01*
X190976190Y-65909800D02*
X190738095Y-66624085D01*
X190738095Y-66624085D02*
X191357142Y-66624085D01*
X192261904Y-66957419D02*
X191690476Y-66957419D01*
X191976190Y-66957419D02*
X191976190Y-65957419D01*
X191976190Y-65957419D02*
X191880952Y-66100276D01*
X191880952Y-66100276D02*
X191785714Y-66195514D01*
X191785714Y-66195514D02*
X191690476Y-66243133D01*
X198458004Y-66302956D02*
X198458004Y-66969623D01*
X198219909Y-65922004D02*
X197981814Y-66636289D01*
X197981814Y-66636289D02*
X198600861Y-66636289D01*
X199172290Y-65969623D02*
X199267528Y-65969623D01*
X199267528Y-65969623D02*
X199362766Y-66017242D01*
X199362766Y-66017242D02*
X199410385Y-66064861D01*
X199410385Y-66064861D02*
X199458004Y-66160099D01*
X199458004Y-66160099D02*
X199505623Y-66350575D01*
X199505623Y-66350575D02*
X199505623Y-66588670D01*
X199505623Y-66588670D02*
X199458004Y-66779146D01*
X199458004Y-66779146D02*
X199410385Y-66874384D01*
X199410385Y-66874384D02*
X199362766Y-66922004D01*
X199362766Y-66922004D02*
X199267528Y-66969623D01*
X199267528Y-66969623D02*
X199172290Y-66969623D01*
X199172290Y-66969623D02*
X199077052Y-66922004D01*
X199077052Y-66922004D02*
X199029433Y-66874384D01*
X199029433Y-66874384D02*
X198981814Y-66779146D01*
X198981814Y-66779146D02*
X198934195Y-66588670D01*
X198934195Y-66588670D02*
X198934195Y-66350575D01*
X198934195Y-66350575D02*
X198981814Y-66160099D01*
X198981814Y-66160099D02*
X199029433Y-66064861D01*
X199029433Y-66064861D02*
X199077052Y-66017242D01*
X199077052Y-66017242D02*
X199172290Y-65969623D01*
X190690476Y-70957419D02*
X191309523Y-70957419D01*
X191309523Y-70957419D02*
X190976190Y-71338371D01*
X190976190Y-71338371D02*
X191119047Y-71338371D01*
X191119047Y-71338371D02*
X191214285Y-71385990D01*
X191214285Y-71385990D02*
X191261904Y-71433609D01*
X191261904Y-71433609D02*
X191309523Y-71528847D01*
X191309523Y-71528847D02*
X191309523Y-71766942D01*
X191309523Y-71766942D02*
X191261904Y-71862180D01*
X191261904Y-71862180D02*
X191214285Y-71909800D01*
X191214285Y-71909800D02*
X191119047Y-71957419D01*
X191119047Y-71957419D02*
X190833333Y-71957419D01*
X190833333Y-71957419D02*
X190738095Y-71909800D01*
X190738095Y-71909800D02*
X190690476Y-71862180D01*
X191642857Y-70957419D02*
X192309523Y-70957419D01*
X192309523Y-70957419D02*
X191880952Y-71957419D01*
D10*
X194516666Y-84316033D02*
X194516666Y-83616033D01*
X194516666Y-83616033D02*
X194783333Y-83616033D01*
X194783333Y-83616033D02*
X194850000Y-83649366D01*
X194850000Y-83649366D02*
X194883333Y-83682700D01*
X194883333Y-83682700D02*
X194916666Y-83749366D01*
X194916666Y-83749366D02*
X194916666Y-83849366D01*
X194916666Y-83849366D02*
X194883333Y-83916033D01*
X194883333Y-83916033D02*
X194850000Y-83949366D01*
X194850000Y-83949366D02*
X194783333Y-83982700D01*
X194783333Y-83982700D02*
X194516666Y-83982700D01*
X195150000Y-83616033D02*
X195316666Y-84316033D01*
X195316666Y-84316033D02*
X195450000Y-83816033D01*
X195450000Y-83816033D02*
X195583333Y-84316033D01*
X195583333Y-84316033D02*
X195750000Y-83616033D01*
X196016666Y-84316033D02*
X196016666Y-83616033D01*
X196016666Y-83616033D02*
X196250000Y-84116033D01*
X196250000Y-84116033D02*
X196483333Y-83616033D01*
X196483333Y-83616033D02*
X196483333Y-84316033D01*
X197466667Y-111149366D02*
X197400000Y-111116033D01*
X197400000Y-111116033D02*
X197300000Y-111116033D01*
X197300000Y-111116033D02*
X197200000Y-111149366D01*
X197200000Y-111149366D02*
X197133334Y-111216033D01*
X197133334Y-111216033D02*
X197100000Y-111282700D01*
X197100000Y-111282700D02*
X197066667Y-111416033D01*
X197066667Y-111416033D02*
X197066667Y-111516033D01*
X197066667Y-111516033D02*
X197100000Y-111649366D01*
X197100000Y-111649366D02*
X197133334Y-111716033D01*
X197133334Y-111716033D02*
X197200000Y-111782700D01*
X197200000Y-111782700D02*
X197300000Y-111816033D01*
X197300000Y-111816033D02*
X197366667Y-111816033D01*
X197366667Y-111816033D02*
X197466667Y-111782700D01*
X197466667Y-111782700D02*
X197500000Y-111749366D01*
X197500000Y-111749366D02*
X197500000Y-111516033D01*
X197500000Y-111516033D02*
X197366667Y-111516033D01*
X197800000Y-111816033D02*
X197800000Y-111116033D01*
X197800000Y-111116033D02*
X198200000Y-111816033D01*
X198200000Y-111816033D02*
X198200000Y-111116033D01*
X198533333Y-111816033D02*
X198533333Y-111116033D01*
X198533333Y-111116033D02*
X198700000Y-111116033D01*
X198700000Y-111116033D02*
X198800000Y-111149366D01*
X198800000Y-111149366D02*
X198866667Y-111216033D01*
X198866667Y-111216033D02*
X198900000Y-111282700D01*
X198900000Y-111282700D02*
X198933333Y-111416033D01*
X198933333Y-111416033D02*
X198933333Y-111516033D01*
X198933333Y-111516033D02*
X198900000Y-111649366D01*
X198900000Y-111649366D02*
X198866667Y-111716033D01*
X198866667Y-111716033D02*
X198800000Y-111782700D01*
X198800000Y-111782700D02*
X198700000Y-111816033D01*
X198700000Y-111816033D02*
X198533333Y-111816033D01*
X197466667Y-83649366D02*
X197400000Y-83616033D01*
X197400000Y-83616033D02*
X197300000Y-83616033D01*
X197300000Y-83616033D02*
X197200000Y-83649366D01*
X197200000Y-83649366D02*
X197133334Y-83716033D01*
X197133334Y-83716033D02*
X197100000Y-83782700D01*
X197100000Y-83782700D02*
X197066667Y-83916033D01*
X197066667Y-83916033D02*
X197066667Y-84016033D01*
X197066667Y-84016033D02*
X197100000Y-84149366D01*
X197100000Y-84149366D02*
X197133334Y-84216033D01*
X197133334Y-84216033D02*
X197200000Y-84282700D01*
X197200000Y-84282700D02*
X197300000Y-84316033D01*
X197300000Y-84316033D02*
X197366667Y-84316033D01*
X197366667Y-84316033D02*
X197466667Y-84282700D01*
X197466667Y-84282700D02*
X197500000Y-84249366D01*
X197500000Y-84249366D02*
X197500000Y-84016033D01*
X197500000Y-84016033D02*
X197366667Y-84016033D01*
X197800000Y-84316033D02*
X197800000Y-83616033D01*
X197800000Y-83616033D02*
X198200000Y-84316033D01*
X198200000Y-84316033D02*
X198200000Y-83616033D01*
X198533333Y-84316033D02*
X198533333Y-83616033D01*
X198533333Y-83616033D02*
X198700000Y-83616033D01*
X198700000Y-83616033D02*
X198800000Y-83649366D01*
X198800000Y-83649366D02*
X198866667Y-83716033D01*
X198866667Y-83716033D02*
X198900000Y-83782700D01*
X198900000Y-83782700D02*
X198933333Y-83916033D01*
X198933333Y-83916033D02*
X198933333Y-84016033D01*
X198933333Y-84016033D02*
X198900000Y-84149366D01*
X198900000Y-84149366D02*
X198866667Y-84216033D01*
X198866667Y-84216033D02*
X198800000Y-84282700D01*
X198800000Y-84282700D02*
X198700000Y-84316033D01*
X198700000Y-84316033D02*
X198533333Y-84316033D01*
D12*
X197945273Y-71098674D02*
X198564320Y-71098674D01*
X198564320Y-71098674D02*
X198230987Y-71479626D01*
X198230987Y-71479626D02*
X198373844Y-71479626D01*
X198373844Y-71479626D02*
X198469082Y-71527245D01*
X198469082Y-71527245D02*
X198516701Y-71574864D01*
X198516701Y-71574864D02*
X198564320Y-71670102D01*
X198564320Y-71670102D02*
X198564320Y-71908197D01*
X198564320Y-71908197D02*
X198516701Y-72003435D01*
X198516701Y-72003435D02*
X198469082Y-72051055D01*
X198469082Y-72051055D02*
X198373844Y-72098674D01*
X198373844Y-72098674D02*
X198088130Y-72098674D01*
X198088130Y-72098674D02*
X197992892Y-72051055D01*
X197992892Y-72051055D02*
X197945273Y-72003435D01*
X199421463Y-71098674D02*
X199230987Y-71098674D01*
X199230987Y-71098674D02*
X199135749Y-71146293D01*
X199135749Y-71146293D02*
X199088130Y-71193912D01*
X199088130Y-71193912D02*
X198992892Y-71336769D01*
X198992892Y-71336769D02*
X198945273Y-71527245D01*
X198945273Y-71527245D02*
X198945273Y-71908197D01*
X198945273Y-71908197D02*
X198992892Y-72003435D01*
X198992892Y-72003435D02*
X199040511Y-72051055D01*
X199040511Y-72051055D02*
X199135749Y-72098674D01*
X199135749Y-72098674D02*
X199326225Y-72098674D01*
X199326225Y-72098674D02*
X199421463Y-72051055D01*
X199421463Y-72051055D02*
X199469082Y-72003435D01*
X199469082Y-72003435D02*
X199516701Y-71908197D01*
X199516701Y-71908197D02*
X199516701Y-71670102D01*
X199516701Y-71670102D02*
X199469082Y-71574864D01*
X199469082Y-71574864D02*
X199421463Y-71527245D01*
X199421463Y-71527245D02*
X199326225Y-71479626D01*
X199326225Y-71479626D02*
X199135749Y-71479626D01*
X199135749Y-71479626D02*
X199040511Y-71527245D01*
X199040511Y-71527245D02*
X198992892Y-71574864D01*
X198992892Y-71574864D02*
X198945273Y-71670102D01*
D10*
X192300000Y-84316033D02*
X192300000Y-83616033D01*
X192300000Y-83616033D02*
X192466667Y-83616033D01*
X192466667Y-83616033D02*
X192566667Y-83649366D01*
X192566667Y-83649366D02*
X192633334Y-83716033D01*
X192633334Y-83716033D02*
X192666667Y-83782700D01*
X192666667Y-83782700D02*
X192700000Y-83916033D01*
X192700000Y-83916033D02*
X192700000Y-84016033D01*
X192700000Y-84016033D02*
X192666667Y-84149366D01*
X192666667Y-84149366D02*
X192633334Y-84216033D01*
X192633334Y-84216033D02*
X192566667Y-84282700D01*
X192566667Y-84282700D02*
X192466667Y-84316033D01*
X192466667Y-84316033D02*
X192300000Y-84316033D01*
X193000000Y-84316033D02*
X193000000Y-83616033D01*
X193733333Y-84316033D02*
X193500000Y-83982700D01*
X193333333Y-84316033D02*
X193333333Y-83616033D01*
X193333333Y-83616033D02*
X193600000Y-83616033D01*
X193600000Y-83616033D02*
X193666667Y-83649366D01*
X193666667Y-83649366D02*
X193700000Y-83682700D01*
X193700000Y-83682700D02*
X193733333Y-83749366D01*
X193733333Y-83749366D02*
X193733333Y-83849366D01*
X193733333Y-83849366D02*
X193700000Y-83916033D01*
X193700000Y-83916033D02*
X193666667Y-83949366D01*
X193666667Y-83949366D02*
X193600000Y-83982700D01*
X193600000Y-83982700D02*
X193333333Y-83982700D01*
D12*
X191761904Y-61005038D02*
X191666666Y-60957419D01*
X191666666Y-60957419D02*
X191523809Y-60957419D01*
X191523809Y-60957419D02*
X191380952Y-61005038D01*
X191380952Y-61005038D02*
X191285714Y-61100276D01*
X191285714Y-61100276D02*
X191238095Y-61195514D01*
X191238095Y-61195514D02*
X191190476Y-61385990D01*
X191190476Y-61385990D02*
X191190476Y-61528847D01*
X191190476Y-61528847D02*
X191238095Y-61719323D01*
X191238095Y-61719323D02*
X191285714Y-61814561D01*
X191285714Y-61814561D02*
X191380952Y-61909800D01*
X191380952Y-61909800D02*
X191523809Y-61957419D01*
X191523809Y-61957419D02*
X191619047Y-61957419D01*
X191619047Y-61957419D02*
X191761904Y-61909800D01*
X191761904Y-61909800D02*
X191809523Y-61862180D01*
X191809523Y-61862180D02*
X191809523Y-61528847D01*
X191809523Y-61528847D02*
X191619047Y-61528847D01*
D10*
X192300000Y-111816033D02*
X192300000Y-111116033D01*
X192300000Y-111116033D02*
X192466667Y-111116033D01*
X192466667Y-111116033D02*
X192566667Y-111149366D01*
X192566667Y-111149366D02*
X192633334Y-111216033D01*
X192633334Y-111216033D02*
X192666667Y-111282700D01*
X192666667Y-111282700D02*
X192700000Y-111416033D01*
X192700000Y-111416033D02*
X192700000Y-111516033D01*
X192700000Y-111516033D02*
X192666667Y-111649366D01*
X192666667Y-111649366D02*
X192633334Y-111716033D01*
X192633334Y-111716033D02*
X192566667Y-111782700D01*
X192566667Y-111782700D02*
X192466667Y-111816033D01*
X192466667Y-111816033D02*
X192300000Y-111816033D01*
X193000000Y-111816033D02*
X193000000Y-111116033D01*
X193733333Y-111816033D02*
X193500000Y-111482700D01*
X193333333Y-111816033D02*
X193333333Y-111116033D01*
X193333333Y-111116033D02*
X193600000Y-111116033D01*
X193600000Y-111116033D02*
X193666667Y-111149366D01*
X193666667Y-111149366D02*
X193700000Y-111182700D01*
X193700000Y-111182700D02*
X193733333Y-111249366D01*
X193733333Y-111249366D02*
X193733333Y-111349366D01*
X193733333Y-111349366D02*
X193700000Y-111416033D01*
X193700000Y-111416033D02*
X193666667Y-111449366D01*
X193666667Y-111449366D02*
X193600000Y-111482700D01*
X193600000Y-111482700D02*
X193333333Y-111482700D01*
D12*
X190261905Y-63457419D02*
X190880952Y-63457419D01*
X190880952Y-63457419D02*
X190547619Y-63838371D01*
X190547619Y-63838371D02*
X190690476Y-63838371D01*
X190690476Y-63838371D02*
X190785714Y-63885990D01*
X190785714Y-63885990D02*
X190833333Y-63933609D01*
X190833333Y-63933609D02*
X190880952Y-64028847D01*
X190880952Y-64028847D02*
X190880952Y-64266942D01*
X190880952Y-64266942D02*
X190833333Y-64362180D01*
X190833333Y-64362180D02*
X190785714Y-64409800D01*
X190785714Y-64409800D02*
X190690476Y-64457419D01*
X190690476Y-64457419D02*
X190404762Y-64457419D01*
X190404762Y-64457419D02*
X190309524Y-64409800D01*
X190309524Y-64409800D02*
X190261905Y-64362180D01*
X191166667Y-63457419D02*
X191500000Y-64457419D01*
X191500000Y-64457419D02*
X191833333Y-63457419D01*
X192071429Y-63457419D02*
X192690476Y-63457419D01*
X192690476Y-63457419D02*
X192357143Y-63838371D01*
X192357143Y-63838371D02*
X192500000Y-63838371D01*
X192500000Y-63838371D02*
X192595238Y-63885990D01*
X192595238Y-63885990D02*
X192642857Y-63933609D01*
X192642857Y-63933609D02*
X192690476Y-64028847D01*
X192690476Y-64028847D02*
X192690476Y-64266942D01*
X192690476Y-64266942D02*
X192642857Y-64362180D01*
X192642857Y-64362180D02*
X192595238Y-64409800D01*
X192595238Y-64409800D02*
X192500000Y-64457419D01*
X192500000Y-64457419D02*
X192214286Y-64457419D01*
X192214286Y-64457419D02*
X192119048Y-64409800D01*
X192119048Y-64409800D02*
X192071429Y-64362180D01*
X190701554Y-76213699D02*
X191320601Y-76213699D01*
X191320601Y-76213699D02*
X190987268Y-76594651D01*
X190987268Y-76594651D02*
X191130125Y-76594651D01*
X191130125Y-76594651D02*
X191225363Y-76642270D01*
X191225363Y-76642270D02*
X191272982Y-76689889D01*
X191272982Y-76689889D02*
X191320601Y-76785127D01*
X191320601Y-76785127D02*
X191320601Y-77023222D01*
X191320601Y-77023222D02*
X191272982Y-77118460D01*
X191272982Y-77118460D02*
X191225363Y-77166080D01*
X191225363Y-77166080D02*
X191130125Y-77213699D01*
X191130125Y-77213699D02*
X190844411Y-77213699D01*
X190844411Y-77213699D02*
X190749173Y-77166080D01*
X190749173Y-77166080D02*
X190701554Y-77118460D01*
X191653935Y-76213699D02*
X192272982Y-76213699D01*
X192272982Y-76213699D02*
X191939649Y-76594651D01*
X191939649Y-76594651D02*
X192082506Y-76594651D01*
X192082506Y-76594651D02*
X192177744Y-76642270D01*
X192177744Y-76642270D02*
X192225363Y-76689889D01*
X192225363Y-76689889D02*
X192272982Y-76785127D01*
X192272982Y-76785127D02*
X192272982Y-77023222D01*
X192272982Y-77023222D02*
X192225363Y-77118460D01*
X192225363Y-77118460D02*
X192177744Y-77166080D01*
X192177744Y-77166080D02*
X192082506Y-77213699D01*
X192082506Y-77213699D02*
X191796792Y-77213699D01*
X191796792Y-77213699D02*
X191701554Y-77166080D01*
X191701554Y-77166080D02*
X191653935Y-77118460D01*
X190690476Y-68457419D02*
X191309523Y-68457419D01*
X191309523Y-68457419D02*
X190976190Y-68838371D01*
X190976190Y-68838371D02*
X191119047Y-68838371D01*
X191119047Y-68838371D02*
X191214285Y-68885990D01*
X191214285Y-68885990D02*
X191261904Y-68933609D01*
X191261904Y-68933609D02*
X191309523Y-69028847D01*
X191309523Y-69028847D02*
X191309523Y-69266942D01*
X191309523Y-69266942D02*
X191261904Y-69362180D01*
X191261904Y-69362180D02*
X191214285Y-69409800D01*
X191214285Y-69409800D02*
X191119047Y-69457419D01*
X191119047Y-69457419D02*
X190833333Y-69457419D01*
X190833333Y-69457419D02*
X190738095Y-69409800D01*
X190738095Y-69409800D02*
X190690476Y-69362180D01*
X191785714Y-69457419D02*
X191976190Y-69457419D01*
X191976190Y-69457419D02*
X192071428Y-69409800D01*
X192071428Y-69409800D02*
X192119047Y-69362180D01*
X192119047Y-69362180D02*
X192214285Y-69219323D01*
X192214285Y-69219323D02*
X192261904Y-69028847D01*
X192261904Y-69028847D02*
X192261904Y-68647895D01*
X192261904Y-68647895D02*
X192214285Y-68552657D01*
X192214285Y-68552657D02*
X192166666Y-68505038D01*
X192166666Y-68505038D02*
X192071428Y-68457419D01*
X192071428Y-68457419D02*
X191880952Y-68457419D01*
X191880952Y-68457419D02*
X191785714Y-68505038D01*
X191785714Y-68505038D02*
X191738095Y-68552657D01*
X191738095Y-68552657D02*
X191690476Y-68647895D01*
X191690476Y-68647895D02*
X191690476Y-68885990D01*
X191690476Y-68885990D02*
X191738095Y-68981228D01*
X191738095Y-68981228D02*
X191785714Y-69028847D01*
X191785714Y-69028847D02*
X191880952Y-69076466D01*
X191880952Y-69076466D02*
X192071428Y-69076466D01*
X192071428Y-69076466D02*
X192166666Y-69028847D01*
X192166666Y-69028847D02*
X192214285Y-68981228D01*
X192214285Y-68981228D02*
X192261904Y-68885990D01*
X197937501Y-76329610D02*
X197985120Y-76281991D01*
X197985120Y-76281991D02*
X198080358Y-76234372D01*
X198080358Y-76234372D02*
X198318453Y-76234372D01*
X198318453Y-76234372D02*
X198413691Y-76281991D01*
X198413691Y-76281991D02*
X198461310Y-76329610D01*
X198461310Y-76329610D02*
X198508929Y-76424848D01*
X198508929Y-76424848D02*
X198508929Y-76520086D01*
X198508929Y-76520086D02*
X198461310Y-76662943D01*
X198461310Y-76662943D02*
X197889882Y-77234372D01*
X197889882Y-77234372D02*
X198508929Y-77234372D01*
X199366072Y-76234372D02*
X199175596Y-76234372D01*
X199175596Y-76234372D02*
X199080358Y-76281991D01*
X199080358Y-76281991D02*
X199032739Y-76329610D01*
X199032739Y-76329610D02*
X198937501Y-76472467D01*
X198937501Y-76472467D02*
X198889882Y-76662943D01*
X198889882Y-76662943D02*
X198889882Y-77043895D01*
X198889882Y-77043895D02*
X198937501Y-77139133D01*
X198937501Y-77139133D02*
X198985120Y-77186753D01*
X198985120Y-77186753D02*
X199080358Y-77234372D01*
X199080358Y-77234372D02*
X199270834Y-77234372D01*
X199270834Y-77234372D02*
X199366072Y-77186753D01*
X199366072Y-77186753D02*
X199413691Y-77139133D01*
X199413691Y-77139133D02*
X199461310Y-77043895D01*
X199461310Y-77043895D02*
X199461310Y-76805800D01*
X199461310Y-76805800D02*
X199413691Y-76710562D01*
X199413691Y-76710562D02*
X199366072Y-76662943D01*
X199366072Y-76662943D02*
X199270834Y-76615324D01*
X199270834Y-76615324D02*
X199080358Y-76615324D01*
X199080358Y-76615324D02*
X198985120Y-76662943D01*
X198985120Y-76662943D02*
X198937501Y-76710562D01*
X198937501Y-76710562D02*
X198889882Y-76805800D01*
D10*
X170108188Y-71389570D02*
X170012950Y-71341951D01*
X170012950Y-71341951D02*
X169917712Y-71246713D01*
X169917712Y-71246713D02*
X169774855Y-71103855D01*
X169774855Y-71103855D02*
X169679617Y-71056236D01*
X169679617Y-71056236D02*
X169584379Y-71056236D01*
X169631998Y-71294332D02*
X169536760Y-71246713D01*
X169536760Y-71246713D02*
X169441522Y-71151474D01*
X169441522Y-71151474D02*
X169393903Y-70960998D01*
X169393903Y-70960998D02*
X169393903Y-70627665D01*
X169393903Y-70627665D02*
X169441522Y-70437189D01*
X169441522Y-70437189D02*
X169536760Y-70341951D01*
X169536760Y-70341951D02*
X169631998Y-70294332D01*
X169631998Y-70294332D02*
X169822474Y-70294332D01*
X169822474Y-70294332D02*
X169917712Y-70341951D01*
X169917712Y-70341951D02*
X170012950Y-70437189D01*
X170012950Y-70437189D02*
X170060569Y-70627665D01*
X170060569Y-70627665D02*
X170060569Y-70960998D01*
X170060569Y-70960998D02*
X170012950Y-71151474D01*
X170012950Y-71151474D02*
X169917712Y-71246713D01*
X169917712Y-71246713D02*
X169822474Y-71294332D01*
X169822474Y-71294332D02*
X169631998Y-71294332D01*
X170393903Y-70294332D02*
X171060569Y-70294332D01*
X171060569Y-70294332D02*
X170631998Y-71294332D01*
X170103443Y-66299350D02*
X170008205Y-66251731D01*
X170008205Y-66251731D02*
X169912967Y-66156493D01*
X169912967Y-66156493D02*
X169770110Y-66013635D01*
X169770110Y-66013635D02*
X169674872Y-65966016D01*
X169674872Y-65966016D02*
X169579634Y-65966016D01*
X169627253Y-66204112D02*
X169532015Y-66156493D01*
X169532015Y-66156493D02*
X169436777Y-66061254D01*
X169436777Y-66061254D02*
X169389158Y-65870778D01*
X169389158Y-65870778D02*
X169389158Y-65537445D01*
X169389158Y-65537445D02*
X169436777Y-65346969D01*
X169436777Y-65346969D02*
X169532015Y-65251731D01*
X169532015Y-65251731D02*
X169627253Y-65204112D01*
X169627253Y-65204112D02*
X169817729Y-65204112D01*
X169817729Y-65204112D02*
X169912967Y-65251731D01*
X169912967Y-65251731D02*
X170008205Y-65346969D01*
X170008205Y-65346969D02*
X170055824Y-65537445D01*
X170055824Y-65537445D02*
X170055824Y-65870778D01*
X170055824Y-65870778D02*
X170008205Y-66061254D01*
X170008205Y-66061254D02*
X169912967Y-66156493D01*
X169912967Y-66156493D02*
X169817729Y-66204112D01*
X169817729Y-66204112D02*
X169627253Y-66204112D01*
X170912967Y-65204112D02*
X170722491Y-65204112D01*
X170722491Y-65204112D02*
X170627253Y-65251731D01*
X170627253Y-65251731D02*
X170579634Y-65299350D01*
X170579634Y-65299350D02*
X170484396Y-65442207D01*
X170484396Y-65442207D02*
X170436777Y-65632683D01*
X170436777Y-65632683D02*
X170436777Y-66013635D01*
X170436777Y-66013635D02*
X170484396Y-66108873D01*
X170484396Y-66108873D02*
X170532015Y-66156493D01*
X170532015Y-66156493D02*
X170627253Y-66204112D01*
X170627253Y-66204112D02*
X170817729Y-66204112D01*
X170817729Y-66204112D02*
X170912967Y-66156493D01*
X170912967Y-66156493D02*
X170960586Y-66108873D01*
X170960586Y-66108873D02*
X171008205Y-66013635D01*
X171008205Y-66013635D02*
X171008205Y-65775540D01*
X171008205Y-65775540D02*
X170960586Y-65680302D01*
X170960586Y-65680302D02*
X170912967Y-65632683D01*
X170912967Y-65632683D02*
X170817729Y-65585064D01*
X170817729Y-65585064D02*
X170627253Y-65585064D01*
X170627253Y-65585064D02*
X170532015Y-65632683D01*
X170532015Y-65632683D02*
X170484396Y-65680302D01*
X170484396Y-65680302D02*
X170436777Y-65775540D01*
X102454819Y-75738094D02*
X101454819Y-75738094D01*
X101454819Y-75738094D02*
X101454819Y-75499999D01*
X101454819Y-75499999D02*
X101502438Y-75357142D01*
X101502438Y-75357142D02*
X101597676Y-75261904D01*
X101597676Y-75261904D02*
X101692914Y-75214285D01*
X101692914Y-75214285D02*
X101883390Y-75166666D01*
X101883390Y-75166666D02*
X102026247Y-75166666D01*
X102026247Y-75166666D02*
X102216723Y-75214285D01*
X102216723Y-75214285D02*
X102311961Y-75261904D01*
X102311961Y-75261904D02*
X102407200Y-75357142D01*
X102407200Y-75357142D02*
X102454819Y-75499999D01*
X102454819Y-75499999D02*
X102454819Y-75738094D01*
X101454819Y-74833332D02*
X101454819Y-74214285D01*
X101454819Y-74214285D02*
X101835771Y-74547618D01*
X101835771Y-74547618D02*
X101835771Y-74404761D01*
X101835771Y-74404761D02*
X101883390Y-74309523D01*
X101883390Y-74309523D02*
X101931009Y-74261904D01*
X101931009Y-74261904D02*
X102026247Y-74214285D01*
X102026247Y-74214285D02*
X102264342Y-74214285D01*
X102264342Y-74214285D02*
X102359580Y-74261904D01*
X102359580Y-74261904D02*
X102407200Y-74309523D01*
X102407200Y-74309523D02*
X102454819Y-74404761D01*
X102454819Y-74404761D02*
X102454819Y-74690475D01*
X102454819Y-74690475D02*
X102407200Y-74785713D01*
X102407200Y-74785713D02*
X102359580Y-74833332D01*
X169884819Y-91642857D02*
X169408628Y-91976190D01*
X169884819Y-92214285D02*
X168884819Y-92214285D01*
X168884819Y-92214285D02*
X168884819Y-91833333D01*
X168884819Y-91833333D02*
X168932438Y-91738095D01*
X168932438Y-91738095D02*
X168980057Y-91690476D01*
X168980057Y-91690476D02*
X169075295Y-91642857D01*
X169075295Y-91642857D02*
X169218152Y-91642857D01*
X169218152Y-91642857D02*
X169313390Y-91690476D01*
X169313390Y-91690476D02*
X169361009Y-91738095D01*
X169361009Y-91738095D02*
X169408628Y-91833333D01*
X169408628Y-91833333D02*
X169408628Y-92214285D01*
X168884819Y-91309523D02*
X168884819Y-90690476D01*
X168884819Y-90690476D02*
X169265771Y-91023809D01*
X169265771Y-91023809D02*
X169265771Y-90880952D01*
X169265771Y-90880952D02*
X169313390Y-90785714D01*
X169313390Y-90785714D02*
X169361009Y-90738095D01*
X169361009Y-90738095D02*
X169456247Y-90690476D01*
X169456247Y-90690476D02*
X169694342Y-90690476D01*
X169694342Y-90690476D02*
X169789580Y-90738095D01*
X169789580Y-90738095D02*
X169837200Y-90785714D01*
X169837200Y-90785714D02*
X169884819Y-90880952D01*
X169884819Y-90880952D02*
X169884819Y-91166666D01*
X169884819Y-91166666D02*
X169837200Y-91261904D01*
X169837200Y-91261904D02*
X169789580Y-91309523D01*
X168884819Y-90071428D02*
X168884819Y-89976190D01*
X168884819Y-89976190D02*
X168932438Y-89880952D01*
X168932438Y-89880952D02*
X168980057Y-89833333D01*
X168980057Y-89833333D02*
X169075295Y-89785714D01*
X169075295Y-89785714D02*
X169265771Y-89738095D01*
X169265771Y-89738095D02*
X169503866Y-89738095D01*
X169503866Y-89738095D02*
X169694342Y-89785714D01*
X169694342Y-89785714D02*
X169789580Y-89833333D01*
X169789580Y-89833333D02*
X169837200Y-89880952D01*
X169837200Y-89880952D02*
X169884819Y-89976190D01*
X169884819Y-89976190D02*
X169884819Y-90071428D01*
X169884819Y-90071428D02*
X169837200Y-90166666D01*
X169837200Y-90166666D02*
X169789580Y-90214285D01*
X169789580Y-90214285D02*
X169694342Y-90261904D01*
X169694342Y-90261904D02*
X169503866Y-90309523D01*
X169503866Y-90309523D02*
X169265771Y-90309523D01*
X169265771Y-90309523D02*
X169075295Y-90261904D01*
X169075295Y-90261904D02*
X168980057Y-90214285D01*
X168980057Y-90214285D02*
X168932438Y-90166666D01*
X168932438Y-90166666D02*
X168884819Y-90071428D01*
X159954819Y-63142857D02*
X159478628Y-63476190D01*
X159954819Y-63714285D02*
X158954819Y-63714285D01*
X158954819Y-63714285D02*
X158954819Y-63333333D01*
X158954819Y-63333333D02*
X159002438Y-63238095D01*
X159002438Y-63238095D02*
X159050057Y-63190476D01*
X159050057Y-63190476D02*
X159145295Y-63142857D01*
X159145295Y-63142857D02*
X159288152Y-63142857D01*
X159288152Y-63142857D02*
X159383390Y-63190476D01*
X159383390Y-63190476D02*
X159431009Y-63238095D01*
X159431009Y-63238095D02*
X159478628Y-63333333D01*
X159478628Y-63333333D02*
X159478628Y-63714285D01*
X159050057Y-62761904D02*
X159002438Y-62714285D01*
X159002438Y-62714285D02*
X158954819Y-62619047D01*
X158954819Y-62619047D02*
X158954819Y-62380952D01*
X158954819Y-62380952D02*
X159002438Y-62285714D01*
X159002438Y-62285714D02*
X159050057Y-62238095D01*
X159050057Y-62238095D02*
X159145295Y-62190476D01*
X159145295Y-62190476D02*
X159240533Y-62190476D01*
X159240533Y-62190476D02*
X159383390Y-62238095D01*
X159383390Y-62238095D02*
X159954819Y-62809523D01*
X159954819Y-62809523D02*
X159954819Y-62190476D01*
X158954819Y-61857142D02*
X158954819Y-61238095D01*
X158954819Y-61238095D02*
X159335771Y-61571428D01*
X159335771Y-61571428D02*
X159335771Y-61428571D01*
X159335771Y-61428571D02*
X159383390Y-61333333D01*
X159383390Y-61333333D02*
X159431009Y-61285714D01*
X159431009Y-61285714D02*
X159526247Y-61238095D01*
X159526247Y-61238095D02*
X159764342Y-61238095D01*
X159764342Y-61238095D02*
X159859580Y-61285714D01*
X159859580Y-61285714D02*
X159907200Y-61333333D01*
X159907200Y-61333333D02*
X159954819Y-61428571D01*
X159954819Y-61428571D02*
X159954819Y-61714285D01*
X159954819Y-61714285D02*
X159907200Y-61809523D01*
X159907200Y-61809523D02*
X159859580Y-61857142D01*
X130178571Y-77114700D02*
X131321429Y-77114700D01*
X145978571Y-77114700D02*
X147121429Y-77114700D01*
X146550000Y-77686128D02*
X146550000Y-76543271D01*
D12*
X194690476Y-95957419D02*
X194690476Y-96671704D01*
X194690476Y-96671704D02*
X194642857Y-96814561D01*
X194642857Y-96814561D02*
X194547619Y-96909800D01*
X194547619Y-96909800D02*
X194404762Y-96957419D01*
X194404762Y-96957419D02*
X194309524Y-96957419D01*
X195690476Y-96957419D02*
X195119048Y-96957419D01*
X195404762Y-96957419D02*
X195404762Y-95957419D01*
X195404762Y-95957419D02*
X195309524Y-96100276D01*
X195309524Y-96100276D02*
X195214286Y-96195514D01*
X195214286Y-96195514D02*
X195119048Y-96243133D01*
X196309524Y-95957419D02*
X196404762Y-95957419D01*
X196404762Y-95957419D02*
X196500000Y-96005038D01*
X196500000Y-96005038D02*
X196547619Y-96052657D01*
X196547619Y-96052657D02*
X196595238Y-96147895D01*
X196595238Y-96147895D02*
X196642857Y-96338371D01*
X196642857Y-96338371D02*
X196642857Y-96576466D01*
X196642857Y-96576466D02*
X196595238Y-96766942D01*
X196595238Y-96766942D02*
X196547619Y-96862180D01*
X196547619Y-96862180D02*
X196500000Y-96909800D01*
X196500000Y-96909800D02*
X196404762Y-96957419D01*
X196404762Y-96957419D02*
X196309524Y-96957419D01*
X196309524Y-96957419D02*
X196214286Y-96909800D01*
X196214286Y-96909800D02*
X196166667Y-96862180D01*
X196166667Y-96862180D02*
X196119048Y-96766942D01*
X196119048Y-96766942D02*
X196071429Y-96576466D01*
X196071429Y-96576466D02*
X196071429Y-96338371D01*
X196071429Y-96338371D02*
X196119048Y-96147895D01*
X196119048Y-96147895D02*
X196166667Y-96052657D01*
X196166667Y-96052657D02*
X196214286Y-96005038D01*
X196214286Y-96005038D02*
X196309524Y-95957419D01*
D10*
X169884819Y-94642857D02*
X169408628Y-94976190D01*
X169884819Y-95214285D02*
X168884819Y-95214285D01*
X168884819Y-95214285D02*
X168884819Y-94833333D01*
X168884819Y-94833333D02*
X168932438Y-94738095D01*
X168932438Y-94738095D02*
X168980057Y-94690476D01*
X168980057Y-94690476D02*
X169075295Y-94642857D01*
X169075295Y-94642857D02*
X169218152Y-94642857D01*
X169218152Y-94642857D02*
X169313390Y-94690476D01*
X169313390Y-94690476D02*
X169361009Y-94738095D01*
X169361009Y-94738095D02*
X169408628Y-94833333D01*
X169408628Y-94833333D02*
X169408628Y-95214285D01*
X168884819Y-94309523D02*
X168884819Y-93690476D01*
X168884819Y-93690476D02*
X169265771Y-94023809D01*
X169265771Y-94023809D02*
X169265771Y-93880952D01*
X169265771Y-93880952D02*
X169313390Y-93785714D01*
X169313390Y-93785714D02*
X169361009Y-93738095D01*
X169361009Y-93738095D02*
X169456247Y-93690476D01*
X169456247Y-93690476D02*
X169694342Y-93690476D01*
X169694342Y-93690476D02*
X169789580Y-93738095D01*
X169789580Y-93738095D02*
X169837200Y-93785714D01*
X169837200Y-93785714D02*
X169884819Y-93880952D01*
X169884819Y-93880952D02*
X169884819Y-94166666D01*
X169884819Y-94166666D02*
X169837200Y-94261904D01*
X169837200Y-94261904D02*
X169789580Y-94309523D01*
X168980057Y-93309523D02*
X168932438Y-93261904D01*
X168932438Y-93261904D02*
X168884819Y-93166666D01*
X168884819Y-93166666D02*
X168884819Y-92928571D01*
X168884819Y-92928571D02*
X168932438Y-92833333D01*
X168932438Y-92833333D02*
X168980057Y-92785714D01*
X168980057Y-92785714D02*
X169075295Y-92738095D01*
X169075295Y-92738095D02*
X169170533Y-92738095D01*
X169170533Y-92738095D02*
X169313390Y-92785714D01*
X169313390Y-92785714D02*
X169884819Y-93357142D01*
X169884819Y-93357142D02*
X169884819Y-92738095D01*
X132454819Y-98166666D02*
X131978628Y-98499999D01*
X132454819Y-98738094D02*
X131454819Y-98738094D01*
X131454819Y-98738094D02*
X131454819Y-98357142D01*
X131454819Y-98357142D02*
X131502438Y-98261904D01*
X131502438Y-98261904D02*
X131550057Y-98214285D01*
X131550057Y-98214285D02*
X131645295Y-98166666D01*
X131645295Y-98166666D02*
X131788152Y-98166666D01*
X131788152Y-98166666D02*
X131883390Y-98214285D01*
X131883390Y-98214285D02*
X131931009Y-98261904D01*
X131931009Y-98261904D02*
X131978628Y-98357142D01*
X131978628Y-98357142D02*
X131978628Y-98738094D01*
X131454819Y-97261904D02*
X131454819Y-97738094D01*
X131454819Y-97738094D02*
X131931009Y-97785713D01*
X131931009Y-97785713D02*
X131883390Y-97738094D01*
X131883390Y-97738094D02*
X131835771Y-97642856D01*
X131835771Y-97642856D02*
X131835771Y-97404761D01*
X131835771Y-97404761D02*
X131883390Y-97309523D01*
X131883390Y-97309523D02*
X131931009Y-97261904D01*
X131931009Y-97261904D02*
X132026247Y-97214285D01*
X132026247Y-97214285D02*
X132264342Y-97214285D01*
X132264342Y-97214285D02*
X132359580Y-97261904D01*
X132359580Y-97261904D02*
X132407200Y-97309523D01*
X132407200Y-97309523D02*
X132454819Y-97404761D01*
X132454819Y-97404761D02*
X132454819Y-97642856D01*
X132454819Y-97642856D02*
X132407200Y-97738094D01*
X132407200Y-97738094D02*
X132359580Y-97785713D01*
D12*
X186309523Y-115542580D02*
X186309523Y-114828295D01*
X186309523Y-114828295D02*
X186357142Y-114685438D01*
X186357142Y-114685438D02*
X186452380Y-114590200D01*
X186452380Y-114590200D02*
X186595237Y-114542580D01*
X186595237Y-114542580D02*
X186690475Y-114542580D01*
X185309523Y-114542580D02*
X185880951Y-114542580D01*
X185595237Y-114542580D02*
X185595237Y-115542580D01*
X185595237Y-115542580D02*
X185690475Y-115399723D01*
X185690475Y-115399723D02*
X185785713Y-115304485D01*
X185785713Y-115304485D02*
X185880951Y-115256866D01*
X184452380Y-115209247D02*
X184452380Y-114542580D01*
X184690475Y-115590200D02*
X184928570Y-114875914D01*
X184928570Y-114875914D02*
X184309523Y-114875914D01*
D10*
X194934179Y-58619552D02*
X194934179Y-59333837D01*
X194934179Y-59333837D02*
X194886560Y-59476694D01*
X194886560Y-59476694D02*
X194791322Y-59571933D01*
X194791322Y-59571933D02*
X194648465Y-59619552D01*
X194648465Y-59619552D02*
X194553227Y-59619552D01*
X195934179Y-59619552D02*
X195362751Y-59619552D01*
X195648465Y-59619552D02*
X195648465Y-58619552D01*
X195648465Y-58619552D02*
X195553227Y-58762409D01*
X195553227Y-58762409D02*
X195457989Y-58857647D01*
X195457989Y-58857647D02*
X195362751Y-58905266D01*
D12*
X196190476Y-108957419D02*
X196190476Y-109671704D01*
X196190476Y-109671704D02*
X196142857Y-109814561D01*
X196142857Y-109814561D02*
X196047619Y-109909800D01*
X196047619Y-109909800D02*
X195904762Y-109957419D01*
X195904762Y-109957419D02*
X195809524Y-109957419D01*
X197190476Y-109957419D02*
X196619048Y-109957419D01*
X196904762Y-109957419D02*
X196904762Y-108957419D01*
X196904762Y-108957419D02*
X196809524Y-109100276D01*
X196809524Y-109100276D02*
X196714286Y-109195514D01*
X196714286Y-109195514D02*
X196619048Y-109243133D01*
X197523810Y-108957419D02*
X198142857Y-108957419D01*
X198142857Y-108957419D02*
X197809524Y-109338371D01*
X197809524Y-109338371D02*
X197952381Y-109338371D01*
X197952381Y-109338371D02*
X198047619Y-109385990D01*
X198047619Y-109385990D02*
X198095238Y-109433609D01*
X198095238Y-109433609D02*
X198142857Y-109528847D01*
X198142857Y-109528847D02*
X198142857Y-109766942D01*
X198142857Y-109766942D02*
X198095238Y-109862180D01*
X198095238Y-109862180D02*
X198047619Y-109909800D01*
X198047619Y-109909800D02*
X197952381Y-109957419D01*
X197952381Y-109957419D02*
X197666667Y-109957419D01*
X197666667Y-109957419D02*
X197571429Y-109909800D01*
X197571429Y-109909800D02*
X197523810Y-109862180D01*
X155238094Y-95042580D02*
X155238094Y-96042580D01*
X154666666Y-95042580D02*
X155095237Y-95614009D01*
X154666666Y-96042580D02*
X155238094Y-95471152D01*
X153714285Y-95042580D02*
X154285713Y-95042580D01*
X153999999Y-95042580D02*
X153999999Y-96042580D01*
X153999999Y-96042580D02*
X154095237Y-95899723D01*
X154095237Y-95899723D02*
X154190475Y-95804485D01*
X154190475Y-95804485D02*
X154285713Y-95756866D01*
D10*
X99804819Y-64738094D02*
X98804819Y-64738094D01*
X98804819Y-64738094D02*
X98804819Y-64499999D01*
X98804819Y-64499999D02*
X98852438Y-64357142D01*
X98852438Y-64357142D02*
X98947676Y-64261904D01*
X98947676Y-64261904D02*
X99042914Y-64214285D01*
X99042914Y-64214285D02*
X99233390Y-64166666D01*
X99233390Y-64166666D02*
X99376247Y-64166666D01*
X99376247Y-64166666D02*
X99566723Y-64214285D01*
X99566723Y-64214285D02*
X99661961Y-64261904D01*
X99661961Y-64261904D02*
X99757200Y-64357142D01*
X99757200Y-64357142D02*
X99804819Y-64499999D01*
X99804819Y-64499999D02*
X99804819Y-64738094D01*
X98900057Y-63785713D02*
X98852438Y-63738094D01*
X98852438Y-63738094D02*
X98804819Y-63642856D01*
X98804819Y-63642856D02*
X98804819Y-63404761D01*
X98804819Y-63404761D02*
X98852438Y-63309523D01*
X98852438Y-63309523D02*
X98900057Y-63261904D01*
X98900057Y-63261904D02*
X98995295Y-63214285D01*
X98995295Y-63214285D02*
X99090533Y-63214285D01*
X99090533Y-63214285D02*
X99233390Y-63261904D01*
X99233390Y-63261904D02*
X99804819Y-63833332D01*
X99804819Y-63833332D02*
X99804819Y-63214285D01*
X128022360Y-98649256D02*
X127546169Y-98982589D01*
X128022360Y-99220684D02*
X127022360Y-99220684D01*
X127022360Y-99220684D02*
X127022360Y-98839732D01*
X127022360Y-98839732D02*
X127069979Y-98744494D01*
X127069979Y-98744494D02*
X127117598Y-98696875D01*
X127117598Y-98696875D02*
X127212836Y-98649256D01*
X127212836Y-98649256D02*
X127355693Y-98649256D01*
X127355693Y-98649256D02*
X127450931Y-98696875D01*
X127450931Y-98696875D02*
X127498550Y-98744494D01*
X127498550Y-98744494D02*
X127546169Y-98839732D01*
X127546169Y-98839732D02*
X127546169Y-99220684D01*
X128022360Y-97696875D02*
X128022360Y-98268303D01*
X128022360Y-97982589D02*
X127022360Y-97982589D01*
X127022360Y-97982589D02*
X127165217Y-98077827D01*
X127165217Y-98077827D02*
X127260455Y-98173065D01*
X127260455Y-98173065D02*
X127308074Y-98268303D01*
X128022360Y-96744494D02*
X128022360Y-97315922D01*
X128022360Y-97030208D02*
X127022360Y-97030208D01*
X127022360Y-97030208D02*
X127165217Y-97125446D01*
X127165217Y-97125446D02*
X127260455Y-97220684D01*
X127260455Y-97220684D02*
X127308074Y-97315922D01*
X166384819Y-53467857D02*
X165908628Y-53801190D01*
X166384819Y-54039285D02*
X165384819Y-54039285D01*
X165384819Y-54039285D02*
X165384819Y-53658333D01*
X165384819Y-53658333D02*
X165432438Y-53563095D01*
X165432438Y-53563095D02*
X165480057Y-53515476D01*
X165480057Y-53515476D02*
X165575295Y-53467857D01*
X165575295Y-53467857D02*
X165718152Y-53467857D01*
X165718152Y-53467857D02*
X165813390Y-53515476D01*
X165813390Y-53515476D02*
X165861009Y-53563095D01*
X165861009Y-53563095D02*
X165908628Y-53658333D01*
X165908628Y-53658333D02*
X165908628Y-54039285D01*
X166384819Y-52515476D02*
X166384819Y-53086904D01*
X166384819Y-52801190D02*
X165384819Y-52801190D01*
X165384819Y-52801190D02*
X165527676Y-52896428D01*
X165527676Y-52896428D02*
X165622914Y-52991666D01*
X165622914Y-52991666D02*
X165670533Y-53086904D01*
X165718152Y-51658333D02*
X166384819Y-51658333D01*
X165337200Y-51896428D02*
X166051485Y-52134523D01*
X166051485Y-52134523D02*
X166051485Y-51515476D01*
X150467451Y-67397047D02*
X151276974Y-67397047D01*
X151276974Y-67397047D02*
X151372212Y-67349428D01*
X151372212Y-67349428D02*
X151419832Y-67301809D01*
X151419832Y-67301809D02*
X151467451Y-67206571D01*
X151467451Y-67206571D02*
X151467451Y-67016095D01*
X151467451Y-67016095D02*
X151419832Y-66920857D01*
X151419832Y-66920857D02*
X151372212Y-66873238D01*
X151372212Y-66873238D02*
X151276974Y-66825619D01*
X151276974Y-66825619D02*
X150467451Y-66825619D01*
X150467451Y-65873238D02*
X150467451Y-66349428D01*
X150467451Y-66349428D02*
X150943641Y-66397047D01*
X150943641Y-66397047D02*
X150896022Y-66349428D01*
X150896022Y-66349428D02*
X150848403Y-66254190D01*
X150848403Y-66254190D02*
X150848403Y-66016095D01*
X150848403Y-66016095D02*
X150896022Y-65920857D01*
X150896022Y-65920857D02*
X150943641Y-65873238D01*
X150943641Y-65873238D02*
X151038879Y-65825619D01*
X151038879Y-65825619D02*
X151276974Y-65825619D01*
X151276974Y-65825619D02*
X151372212Y-65873238D01*
X151372212Y-65873238D02*
X151419832Y-65920857D01*
X151419832Y-65920857D02*
X151467451Y-66016095D01*
X151467451Y-66016095D02*
X151467451Y-66254190D01*
X151467451Y-66254190D02*
X151419832Y-66349428D01*
X151419832Y-66349428D02*
X151372212Y-66397047D01*
X172025562Y-63943006D02*
X171549371Y-64276339D01*
X172025562Y-64514434D02*
X171025562Y-64514434D01*
X171025562Y-64514434D02*
X171025562Y-64133482D01*
X171025562Y-64133482D02*
X171073181Y-64038244D01*
X171073181Y-64038244D02*
X171120800Y-63990625D01*
X171120800Y-63990625D02*
X171216038Y-63943006D01*
X171216038Y-63943006D02*
X171358895Y-63943006D01*
X171358895Y-63943006D02*
X171454133Y-63990625D01*
X171454133Y-63990625D02*
X171501752Y-64038244D01*
X171501752Y-64038244D02*
X171549371Y-64133482D01*
X171549371Y-64133482D02*
X171549371Y-64514434D01*
X171120800Y-63562053D02*
X171073181Y-63514434D01*
X171073181Y-63514434D02*
X171025562Y-63419196D01*
X171025562Y-63419196D02*
X171025562Y-63181101D01*
X171025562Y-63181101D02*
X171073181Y-63085863D01*
X171073181Y-63085863D02*
X171120800Y-63038244D01*
X171120800Y-63038244D02*
X171216038Y-62990625D01*
X171216038Y-62990625D02*
X171311276Y-62990625D01*
X171311276Y-62990625D02*
X171454133Y-63038244D01*
X171454133Y-63038244D02*
X172025562Y-63609672D01*
X172025562Y-63609672D02*
X172025562Y-62990625D01*
X171120800Y-62609672D02*
X171073181Y-62562053D01*
X171073181Y-62562053D02*
X171025562Y-62466815D01*
X171025562Y-62466815D02*
X171025562Y-62228720D01*
X171025562Y-62228720D02*
X171073181Y-62133482D01*
X171073181Y-62133482D02*
X171120800Y-62085863D01*
X171120800Y-62085863D02*
X171216038Y-62038244D01*
X171216038Y-62038244D02*
X171311276Y-62038244D01*
X171311276Y-62038244D02*
X171454133Y-62085863D01*
X171454133Y-62085863D02*
X172025562Y-62657291D01*
X172025562Y-62657291D02*
X172025562Y-62038244D01*
X163704819Y-73261904D02*
X164514342Y-73261904D01*
X164514342Y-73261904D02*
X164609580Y-73214285D01*
X164609580Y-73214285D02*
X164657200Y-73166666D01*
X164657200Y-73166666D02*
X164704819Y-73071428D01*
X164704819Y-73071428D02*
X164704819Y-72880952D01*
X164704819Y-72880952D02*
X164657200Y-72785714D01*
X164657200Y-72785714D02*
X164609580Y-72738095D01*
X164609580Y-72738095D02*
X164514342Y-72690476D01*
X164514342Y-72690476D02*
X163704819Y-72690476D01*
X164038152Y-71785714D02*
X164704819Y-71785714D01*
X163657200Y-72023809D02*
X164371485Y-72261904D01*
X164371485Y-72261904D02*
X164371485Y-71642857D01*
X130081035Y-91205673D02*
X129747702Y-90729482D01*
X129509607Y-91205673D02*
X129509607Y-90205673D01*
X129509607Y-90205673D02*
X129890559Y-90205673D01*
X129890559Y-90205673D02*
X129985797Y-90253292D01*
X129985797Y-90253292D02*
X130033416Y-90300911D01*
X130033416Y-90300911D02*
X130081035Y-90396149D01*
X130081035Y-90396149D02*
X130081035Y-90539006D01*
X130081035Y-90539006D02*
X130033416Y-90634244D01*
X130033416Y-90634244D02*
X129985797Y-90681863D01*
X129985797Y-90681863D02*
X129890559Y-90729482D01*
X129890559Y-90729482D02*
X129509607Y-90729482D01*
X130938178Y-90205673D02*
X130747702Y-90205673D01*
X130747702Y-90205673D02*
X130652464Y-90253292D01*
X130652464Y-90253292D02*
X130604845Y-90300911D01*
X130604845Y-90300911D02*
X130509607Y-90443768D01*
X130509607Y-90443768D02*
X130461988Y-90634244D01*
X130461988Y-90634244D02*
X130461988Y-91015196D01*
X130461988Y-91015196D02*
X130509607Y-91110434D01*
X130509607Y-91110434D02*
X130557226Y-91158054D01*
X130557226Y-91158054D02*
X130652464Y-91205673D01*
X130652464Y-91205673D02*
X130842940Y-91205673D01*
X130842940Y-91205673D02*
X130938178Y-91158054D01*
X130938178Y-91158054D02*
X130985797Y-91110434D01*
X130985797Y-91110434D02*
X131033416Y-91015196D01*
X131033416Y-91015196D02*
X131033416Y-90777101D01*
X131033416Y-90777101D02*
X130985797Y-90681863D01*
X130985797Y-90681863D02*
X130938178Y-90634244D01*
X130938178Y-90634244D02*
X130842940Y-90586625D01*
X130842940Y-90586625D02*
X130652464Y-90586625D01*
X130652464Y-90586625D02*
X130557226Y-90634244D01*
X130557226Y-90634244D02*
X130509607Y-90681863D01*
X130509607Y-90681863D02*
X130461988Y-90777101D01*
X131414369Y-90300911D02*
X131461988Y-90253292D01*
X131461988Y-90253292D02*
X131557226Y-90205673D01*
X131557226Y-90205673D02*
X131795321Y-90205673D01*
X131795321Y-90205673D02*
X131890559Y-90253292D01*
X131890559Y-90253292D02*
X131938178Y-90300911D01*
X131938178Y-90300911D02*
X131985797Y-90396149D01*
X131985797Y-90396149D02*
X131985797Y-90491387D01*
X131985797Y-90491387D02*
X131938178Y-90634244D01*
X131938178Y-90634244D02*
X131366750Y-91205673D01*
X131366750Y-91205673D02*
X131985797Y-91205673D01*
X161332904Y-53477461D02*
X160856713Y-53810794D01*
X161332904Y-54048889D02*
X160332904Y-54048889D01*
X160332904Y-54048889D02*
X160332904Y-53667937D01*
X160332904Y-53667937D02*
X160380523Y-53572699D01*
X160380523Y-53572699D02*
X160428142Y-53525080D01*
X160428142Y-53525080D02*
X160523380Y-53477461D01*
X160523380Y-53477461D02*
X160666237Y-53477461D01*
X160666237Y-53477461D02*
X160761475Y-53525080D01*
X160761475Y-53525080D02*
X160809094Y-53572699D01*
X160809094Y-53572699D02*
X160856713Y-53667937D01*
X160856713Y-53667937D02*
X160856713Y-54048889D01*
X161332904Y-52525080D02*
X161332904Y-53096508D01*
X161332904Y-52810794D02*
X160332904Y-52810794D01*
X160332904Y-52810794D02*
X160475761Y-52906032D01*
X160475761Y-52906032D02*
X160570999Y-53001270D01*
X160570999Y-53001270D02*
X160618618Y-53096508D01*
X160332904Y-52191746D02*
X160332904Y-51525080D01*
X160332904Y-51525080D02*
X161332904Y-51953651D01*
D13*
X129974285Y-94695270D02*
X129853333Y-94634794D01*
X129853333Y-94634794D02*
X129732380Y-94513842D01*
X129732380Y-94513842D02*
X129550952Y-94332413D01*
X129550952Y-94332413D02*
X129429999Y-94271937D01*
X129429999Y-94271937D02*
X129309047Y-94271937D01*
X129369523Y-94574318D02*
X129248571Y-94513842D01*
X129248571Y-94513842D02*
X129127618Y-94392889D01*
X129127618Y-94392889D02*
X129067142Y-94150984D01*
X129067142Y-94150984D02*
X129067142Y-93727651D01*
X129067142Y-93727651D02*
X129127618Y-93485746D01*
X129127618Y-93485746D02*
X129248571Y-93364794D01*
X129248571Y-93364794D02*
X129369523Y-93304318D01*
X129369523Y-93304318D02*
X129611428Y-93304318D01*
X129611428Y-93304318D02*
X129732380Y-93364794D01*
X129732380Y-93364794D02*
X129853333Y-93485746D01*
X129853333Y-93485746D02*
X129913809Y-93727651D01*
X129913809Y-93727651D02*
X129913809Y-94150984D01*
X129913809Y-94150984D02*
X129853333Y-94392889D01*
X129853333Y-94392889D02*
X129732380Y-94513842D01*
X129732380Y-94513842D02*
X129611428Y-94574318D01*
X129611428Y-94574318D02*
X129369523Y-94574318D01*
X131123333Y-94574318D02*
X130397618Y-94574318D01*
X130760475Y-94574318D02*
X130760475Y-93304318D01*
X130760475Y-93304318D02*
X130639523Y-93485746D01*
X130639523Y-93485746D02*
X130518571Y-93606699D01*
X130518571Y-93606699D02*
X130397618Y-93667175D01*
X132272380Y-93304318D02*
X131667618Y-93304318D01*
X131667618Y-93304318D02*
X131607142Y-93909080D01*
X131607142Y-93909080D02*
X131667618Y-93848603D01*
X131667618Y-93848603D02*
X131788571Y-93788127D01*
X131788571Y-93788127D02*
X132090952Y-93788127D01*
X132090952Y-93788127D02*
X132211904Y-93848603D01*
X132211904Y-93848603D02*
X132272380Y-93909080D01*
X132272380Y-93909080D02*
X132332857Y-94030032D01*
X132332857Y-94030032D02*
X132332857Y-94332413D01*
X132332857Y-94332413D02*
X132272380Y-94453365D01*
X132272380Y-94453365D02*
X132211904Y-94513842D01*
X132211904Y-94513842D02*
X132090952Y-94574318D01*
X132090952Y-94574318D02*
X131788571Y-94574318D01*
X131788571Y-94574318D02*
X131667618Y-94513842D01*
X131667618Y-94513842D02*
X131607142Y-94453365D01*
D10*
X122940476Y-48904819D02*
X122940476Y-49619104D01*
X122940476Y-49619104D02*
X122892857Y-49761961D01*
X122892857Y-49761961D02*
X122797619Y-49857200D01*
X122797619Y-49857200D02*
X122654762Y-49904819D01*
X122654762Y-49904819D02*
X122559524Y-49904819D01*
X123940476Y-49904819D02*
X123369048Y-49904819D01*
X123654762Y-49904819D02*
X123654762Y-48904819D01*
X123654762Y-48904819D02*
X123559524Y-49047676D01*
X123559524Y-49047676D02*
X123464286Y-49142914D01*
X123464286Y-49142914D02*
X123369048Y-49190533D01*
X124845238Y-48904819D02*
X124369048Y-48904819D01*
X124369048Y-48904819D02*
X124321429Y-49381009D01*
X124321429Y-49381009D02*
X124369048Y-49333390D01*
X124369048Y-49333390D02*
X124464286Y-49285771D01*
X124464286Y-49285771D02*
X124702381Y-49285771D01*
X124702381Y-49285771D02*
X124797619Y-49333390D01*
X124797619Y-49333390D02*
X124845238Y-49381009D01*
X124845238Y-49381009D02*
X124892857Y-49476247D01*
X124892857Y-49476247D02*
X124892857Y-49714342D01*
X124892857Y-49714342D02*
X124845238Y-49809580D01*
X124845238Y-49809580D02*
X124797619Y-49857200D01*
X124797619Y-49857200D02*
X124702381Y-49904819D01*
X124702381Y-49904819D02*
X124464286Y-49904819D01*
X124464286Y-49904819D02*
X124369048Y-49857200D01*
X124369048Y-49857200D02*
X124321429Y-49809580D01*
X161615625Y-59588383D02*
X161615625Y-60302668D01*
X161615625Y-60302668D02*
X161568006Y-60445525D01*
X161568006Y-60445525D02*
X161472768Y-60540764D01*
X161472768Y-60540764D02*
X161329911Y-60588383D01*
X161329911Y-60588383D02*
X161234673Y-60588383D01*
X162044197Y-59683621D02*
X162091816Y-59636002D01*
X162091816Y-59636002D02*
X162187054Y-59588383D01*
X162187054Y-59588383D02*
X162425149Y-59588383D01*
X162425149Y-59588383D02*
X162520387Y-59636002D01*
X162520387Y-59636002D02*
X162568006Y-59683621D01*
X162568006Y-59683621D02*
X162615625Y-59778859D01*
X162615625Y-59778859D02*
X162615625Y-59874097D01*
X162615625Y-59874097D02*
X162568006Y-60016954D01*
X162568006Y-60016954D02*
X161996578Y-60588383D01*
X161996578Y-60588383D02*
X162615625Y-60588383D01*
X104238095Y-111754819D02*
X104238095Y-110754819D01*
X104238095Y-111231009D02*
X104809523Y-111231009D01*
X104809523Y-111754819D02*
X104809523Y-110754819D01*
X105190476Y-110754819D02*
X105809523Y-110754819D01*
X105809523Y-110754819D02*
X105476190Y-111135771D01*
X105476190Y-111135771D02*
X105619047Y-111135771D01*
X105619047Y-111135771D02*
X105714285Y-111183390D01*
X105714285Y-111183390D02*
X105761904Y-111231009D01*
X105761904Y-111231009D02*
X105809523Y-111326247D01*
X105809523Y-111326247D02*
X105809523Y-111564342D01*
X105809523Y-111564342D02*
X105761904Y-111659580D01*
X105761904Y-111659580D02*
X105714285Y-111707200D01*
X105714285Y-111707200D02*
X105619047Y-111754819D01*
X105619047Y-111754819D02*
X105333333Y-111754819D01*
X105333333Y-111754819D02*
X105238095Y-111707200D01*
X105238095Y-111707200D02*
X105190476Y-111659580D01*
X151435220Y-59609883D02*
X151435220Y-60324168D01*
X151435220Y-60324168D02*
X151387601Y-60467025D01*
X151387601Y-60467025D02*
X151292363Y-60562264D01*
X151292363Y-60562264D02*
X151149506Y-60609883D01*
X151149506Y-60609883D02*
X151054268Y-60609883D01*
X152339982Y-59943216D02*
X152339982Y-60609883D01*
X152101887Y-59562264D02*
X151863792Y-60276549D01*
X151863792Y-60276549D02*
X152482839Y-60276549D01*
X194238095Y-51254819D02*
X194238095Y-50254819D01*
X194238095Y-50731009D02*
X194809523Y-50731009D01*
X194809523Y-51254819D02*
X194809523Y-50254819D01*
X195238095Y-50350057D02*
X195285714Y-50302438D01*
X195285714Y-50302438D02*
X195380952Y-50254819D01*
X195380952Y-50254819D02*
X195619047Y-50254819D01*
X195619047Y-50254819D02*
X195714285Y-50302438D01*
X195714285Y-50302438D02*
X195761904Y-50350057D01*
X195761904Y-50350057D02*
X195809523Y-50445295D01*
X195809523Y-50445295D02*
X195809523Y-50540533D01*
X195809523Y-50540533D02*
X195761904Y-50683390D01*
X195761904Y-50683390D02*
X195190476Y-51254819D01*
X195190476Y-51254819D02*
X195809523Y-51254819D01*
X152666666Y-109654819D02*
X152666666Y-110369104D01*
X152666666Y-110369104D02*
X152619047Y-110511961D01*
X152619047Y-110511961D02*
X152523809Y-110607200D01*
X152523809Y-110607200D02*
X152380952Y-110654819D01*
X152380952Y-110654819D02*
X152285714Y-110654819D01*
X153190476Y-110654819D02*
X153380952Y-110654819D01*
X153380952Y-110654819D02*
X153476190Y-110607200D01*
X153476190Y-110607200D02*
X153523809Y-110559580D01*
X153523809Y-110559580D02*
X153619047Y-110416723D01*
X153619047Y-110416723D02*
X153666666Y-110226247D01*
X153666666Y-110226247D02*
X153666666Y-109845295D01*
X153666666Y-109845295D02*
X153619047Y-109750057D01*
X153619047Y-109750057D02*
X153571428Y-109702438D01*
X153571428Y-109702438D02*
X153476190Y-109654819D01*
X153476190Y-109654819D02*
X153285714Y-109654819D01*
X153285714Y-109654819D02*
X153190476Y-109702438D01*
X153190476Y-109702438D02*
X153142857Y-109750057D01*
X153142857Y-109750057D02*
X153095238Y-109845295D01*
X153095238Y-109845295D02*
X153095238Y-110083390D01*
X153095238Y-110083390D02*
X153142857Y-110178628D01*
X153142857Y-110178628D02*
X153190476Y-110226247D01*
X153190476Y-110226247D02*
X153285714Y-110273866D01*
X153285714Y-110273866D02*
X153476190Y-110273866D01*
X153476190Y-110273866D02*
X153571428Y-110226247D01*
X153571428Y-110226247D02*
X153619047Y-110178628D01*
X153619047Y-110178628D02*
X153666666Y-110083390D01*
D12*
X194690476Y-99957419D02*
X194690476Y-100671704D01*
X194690476Y-100671704D02*
X194642857Y-100814561D01*
X194642857Y-100814561D02*
X194547619Y-100909800D01*
X194547619Y-100909800D02*
X194404762Y-100957419D01*
X194404762Y-100957419D02*
X194309524Y-100957419D01*
X195690476Y-100957419D02*
X195119048Y-100957419D01*
X195404762Y-100957419D02*
X195404762Y-99957419D01*
X195404762Y-99957419D02*
X195309524Y-100100276D01*
X195309524Y-100100276D02*
X195214286Y-100195514D01*
X195214286Y-100195514D02*
X195119048Y-100243133D01*
X196071429Y-100052657D02*
X196119048Y-100005038D01*
X196119048Y-100005038D02*
X196214286Y-99957419D01*
X196214286Y-99957419D02*
X196452381Y-99957419D01*
X196452381Y-99957419D02*
X196547619Y-100005038D01*
X196547619Y-100005038D02*
X196595238Y-100052657D01*
X196595238Y-100052657D02*
X196642857Y-100147895D01*
X196642857Y-100147895D02*
X196642857Y-100243133D01*
X196642857Y-100243133D02*
X196595238Y-100385990D01*
X196595238Y-100385990D02*
X196023810Y-100957419D01*
X196023810Y-100957419D02*
X196642857Y-100957419D01*
D10*
X143041855Y-112377875D02*
X143041855Y-111377875D01*
X143041855Y-111377875D02*
X143279950Y-111377875D01*
X143279950Y-111377875D02*
X143422807Y-111425494D01*
X143422807Y-111425494D02*
X143518045Y-111520732D01*
X143518045Y-111520732D02*
X143565664Y-111615970D01*
X143565664Y-111615970D02*
X143613283Y-111806446D01*
X143613283Y-111806446D02*
X143613283Y-111949303D01*
X143613283Y-111949303D02*
X143565664Y-112139779D01*
X143565664Y-112139779D02*
X143518045Y-112235017D01*
X143518045Y-112235017D02*
X143422807Y-112330256D01*
X143422807Y-112330256D02*
X143279950Y-112377875D01*
X143279950Y-112377875D02*
X143041855Y-112377875D01*
X144184712Y-111806446D02*
X144089474Y-111758827D01*
X144089474Y-111758827D02*
X144041855Y-111711208D01*
X144041855Y-111711208D02*
X143994236Y-111615970D01*
X143994236Y-111615970D02*
X143994236Y-111568351D01*
X143994236Y-111568351D02*
X144041855Y-111473113D01*
X144041855Y-111473113D02*
X144089474Y-111425494D01*
X144089474Y-111425494D02*
X144184712Y-111377875D01*
X144184712Y-111377875D02*
X144375188Y-111377875D01*
X144375188Y-111377875D02*
X144470426Y-111425494D01*
X144470426Y-111425494D02*
X144518045Y-111473113D01*
X144518045Y-111473113D02*
X144565664Y-111568351D01*
X144565664Y-111568351D02*
X144565664Y-111615970D01*
X144565664Y-111615970D02*
X144518045Y-111711208D01*
X144518045Y-111711208D02*
X144470426Y-111758827D01*
X144470426Y-111758827D02*
X144375188Y-111806446D01*
X144375188Y-111806446D02*
X144184712Y-111806446D01*
X144184712Y-111806446D02*
X144089474Y-111854065D01*
X144089474Y-111854065D02*
X144041855Y-111901684D01*
X144041855Y-111901684D02*
X143994236Y-111996922D01*
X143994236Y-111996922D02*
X143994236Y-112187398D01*
X143994236Y-112187398D02*
X144041855Y-112282636D01*
X144041855Y-112282636D02*
X144089474Y-112330256D01*
X144089474Y-112330256D02*
X144184712Y-112377875D01*
X144184712Y-112377875D02*
X144375188Y-112377875D01*
X144375188Y-112377875D02*
X144470426Y-112330256D01*
X144470426Y-112330256D02*
X144518045Y-112282636D01*
X144518045Y-112282636D02*
X144565664Y-112187398D01*
X144565664Y-112187398D02*
X144565664Y-111996922D01*
X144565664Y-111996922D02*
X144518045Y-111901684D01*
X144518045Y-111901684D02*
X144470426Y-111854065D01*
X144470426Y-111854065D02*
X144375188Y-111806446D01*
X143958045Y-107802976D02*
X143958045Y-106802976D01*
X144529473Y-107802976D02*
X144100902Y-107231547D01*
X144529473Y-106802976D02*
X143958045Y-107374404D01*
X135690476Y-109654819D02*
X135690476Y-110369104D01*
X135690476Y-110369104D02*
X135642857Y-110511961D01*
X135642857Y-110511961D02*
X135547619Y-110607200D01*
X135547619Y-110607200D02*
X135404762Y-110654819D01*
X135404762Y-110654819D02*
X135309524Y-110654819D01*
X136690476Y-110654819D02*
X136119048Y-110654819D01*
X136404762Y-110654819D02*
X136404762Y-109654819D01*
X136404762Y-109654819D02*
X136309524Y-109797676D01*
X136309524Y-109797676D02*
X136214286Y-109892914D01*
X136214286Y-109892914D02*
X136119048Y-109940533D01*
X137642857Y-110654819D02*
X137071429Y-110654819D01*
X137357143Y-110654819D02*
X137357143Y-109654819D01*
X137357143Y-109654819D02*
X137261905Y-109797676D01*
X137261905Y-109797676D02*
X137166667Y-109892914D01*
X137166667Y-109892914D02*
X137071429Y-109940533D01*
X156443502Y-57684997D02*
X156443502Y-58399282D01*
X156443502Y-58399282D02*
X156395883Y-58542139D01*
X156395883Y-58542139D02*
X156300645Y-58637378D01*
X156300645Y-58637378D02*
X156157788Y-58684997D01*
X156157788Y-58684997D02*
X156062550Y-58684997D01*
X157348264Y-57684997D02*
X157157788Y-57684997D01*
X157157788Y-57684997D02*
X157062550Y-57732616D01*
X157062550Y-57732616D02*
X157014931Y-57780235D01*
X157014931Y-57780235D02*
X156919693Y-57923092D01*
X156919693Y-57923092D02*
X156872074Y-58113568D01*
X156872074Y-58113568D02*
X156872074Y-58494520D01*
X156872074Y-58494520D02*
X156919693Y-58589758D01*
X156919693Y-58589758D02*
X156967312Y-58637378D01*
X156967312Y-58637378D02*
X157062550Y-58684997D01*
X157062550Y-58684997D02*
X157253026Y-58684997D01*
X157253026Y-58684997D02*
X157348264Y-58637378D01*
X157348264Y-58637378D02*
X157395883Y-58589758D01*
X157395883Y-58589758D02*
X157443502Y-58494520D01*
X157443502Y-58494520D02*
X157443502Y-58256425D01*
X157443502Y-58256425D02*
X157395883Y-58161187D01*
X157395883Y-58161187D02*
X157348264Y-58113568D01*
X157348264Y-58113568D02*
X157253026Y-58065949D01*
X157253026Y-58065949D02*
X157062550Y-58065949D01*
X157062550Y-58065949D02*
X156967312Y-58113568D01*
X156967312Y-58113568D02*
X156919693Y-58161187D01*
X156919693Y-58161187D02*
X156872074Y-58256425D01*
D12*
X126844919Y-86238094D02*
X125844919Y-86238094D01*
X126321109Y-86238094D02*
X126321109Y-85666666D01*
X126844919Y-85666666D02*
X125844919Y-85666666D01*
X126797300Y-85238094D02*
X126844919Y-85095237D01*
X126844919Y-85095237D02*
X126844919Y-84857142D01*
X126844919Y-84857142D02*
X126797300Y-84761904D01*
X126797300Y-84761904D02*
X126749680Y-84714285D01*
X126749680Y-84714285D02*
X126654442Y-84666666D01*
X126654442Y-84666666D02*
X126559204Y-84666666D01*
X126559204Y-84666666D02*
X126463966Y-84714285D01*
X126463966Y-84714285D02*
X126416347Y-84761904D01*
X126416347Y-84761904D02*
X126368728Y-84857142D01*
X126368728Y-84857142D02*
X126321109Y-85047618D01*
X126321109Y-85047618D02*
X126273490Y-85142856D01*
X126273490Y-85142856D02*
X126225871Y-85190475D01*
X126225871Y-85190475D02*
X126130633Y-85238094D01*
X126130633Y-85238094D02*
X126035395Y-85238094D01*
X126035395Y-85238094D02*
X125940157Y-85190475D01*
X125940157Y-85190475D02*
X125892538Y-85142856D01*
X125892538Y-85142856D02*
X125844919Y-85047618D01*
X125844919Y-85047618D02*
X125844919Y-84809523D01*
X125844919Y-84809523D02*
X125892538Y-84666666D01*
X126844919Y-83714285D02*
X126844919Y-84285713D01*
X126844919Y-83999999D02*
X125844919Y-83999999D01*
X125844919Y-83999999D02*
X125987776Y-84095237D01*
X125987776Y-84095237D02*
X126083014Y-84190475D01*
X126083014Y-84190475D02*
X126130633Y-84285713D01*
D10*
X102454819Y-80738094D02*
X101454819Y-80738094D01*
X101454819Y-80738094D02*
X101454819Y-80499999D01*
X101454819Y-80499999D02*
X101502438Y-80357142D01*
X101502438Y-80357142D02*
X101597676Y-80261904D01*
X101597676Y-80261904D02*
X101692914Y-80214285D01*
X101692914Y-80214285D02*
X101883390Y-80166666D01*
X101883390Y-80166666D02*
X102026247Y-80166666D01*
X102026247Y-80166666D02*
X102216723Y-80214285D01*
X102216723Y-80214285D02*
X102311961Y-80261904D01*
X102311961Y-80261904D02*
X102407200Y-80357142D01*
X102407200Y-80357142D02*
X102454819Y-80499999D01*
X102454819Y-80499999D02*
X102454819Y-80738094D01*
X102454819Y-79214285D02*
X102454819Y-79785713D01*
X102454819Y-79499999D02*
X101454819Y-79499999D01*
X101454819Y-79499999D02*
X101597676Y-79595237D01*
X101597676Y-79595237D02*
X101692914Y-79690475D01*
X101692914Y-79690475D02*
X101740533Y-79785713D01*
X161666666Y-57684819D02*
X161666666Y-58399104D01*
X161666666Y-58399104D02*
X161619047Y-58541961D01*
X161619047Y-58541961D02*
X161523809Y-58637200D01*
X161523809Y-58637200D02*
X161380952Y-58684819D01*
X161380952Y-58684819D02*
X161285714Y-58684819D01*
X162619047Y-57684819D02*
X162142857Y-57684819D01*
X162142857Y-57684819D02*
X162095238Y-58161009D01*
X162095238Y-58161009D02*
X162142857Y-58113390D01*
X162142857Y-58113390D02*
X162238095Y-58065771D01*
X162238095Y-58065771D02*
X162476190Y-58065771D01*
X162476190Y-58065771D02*
X162571428Y-58113390D01*
X162571428Y-58113390D02*
X162619047Y-58161009D01*
X162619047Y-58161009D02*
X162666666Y-58256247D01*
X162666666Y-58256247D02*
X162666666Y-58494342D01*
X162666666Y-58494342D02*
X162619047Y-58589580D01*
X162619047Y-58589580D02*
X162571428Y-58637200D01*
X162571428Y-58637200D02*
X162476190Y-58684819D01*
X162476190Y-58684819D02*
X162238095Y-58684819D01*
X162238095Y-58684819D02*
X162142857Y-58637200D01*
X162142857Y-58637200D02*
X162095238Y-58589580D01*
X151289580Y-79642857D02*
X151337200Y-79690476D01*
X151337200Y-79690476D02*
X151384819Y-79833333D01*
X151384819Y-79833333D02*
X151384819Y-79928571D01*
X151384819Y-79928571D02*
X151337200Y-80071428D01*
X151337200Y-80071428D02*
X151241961Y-80166666D01*
X151241961Y-80166666D02*
X151146723Y-80214285D01*
X151146723Y-80214285D02*
X150956247Y-80261904D01*
X150956247Y-80261904D02*
X150813390Y-80261904D01*
X150813390Y-80261904D02*
X150622914Y-80214285D01*
X150622914Y-80214285D02*
X150527676Y-80166666D01*
X150527676Y-80166666D02*
X150432438Y-80071428D01*
X150432438Y-80071428D02*
X150384819Y-79928571D01*
X150384819Y-79928571D02*
X150384819Y-79833333D01*
X150384819Y-79833333D02*
X150432438Y-79690476D01*
X150432438Y-79690476D02*
X150480057Y-79642857D01*
X151384819Y-78690476D02*
X151384819Y-79261904D01*
X151384819Y-78976190D02*
X150384819Y-78976190D01*
X150384819Y-78976190D02*
X150527676Y-79071428D01*
X150527676Y-79071428D02*
X150622914Y-79166666D01*
X150622914Y-79166666D02*
X150670533Y-79261904D01*
X151384819Y-78214285D02*
X151384819Y-78023809D01*
X151384819Y-78023809D02*
X151337200Y-77928571D01*
X151337200Y-77928571D02*
X151289580Y-77880952D01*
X151289580Y-77880952D02*
X151146723Y-77785714D01*
X151146723Y-77785714D02*
X150956247Y-77738095D01*
X150956247Y-77738095D02*
X150575295Y-77738095D01*
X150575295Y-77738095D02*
X150480057Y-77785714D01*
X150480057Y-77785714D02*
X150432438Y-77833333D01*
X150432438Y-77833333D02*
X150384819Y-77928571D01*
X150384819Y-77928571D02*
X150384819Y-78119047D01*
X150384819Y-78119047D02*
X150432438Y-78214285D01*
X150432438Y-78214285D02*
X150480057Y-78261904D01*
X150480057Y-78261904D02*
X150575295Y-78309523D01*
X150575295Y-78309523D02*
X150813390Y-78309523D01*
X150813390Y-78309523D02*
X150908628Y-78261904D01*
X150908628Y-78261904D02*
X150956247Y-78214285D01*
X150956247Y-78214285D02*
X151003866Y-78119047D01*
X151003866Y-78119047D02*
X151003866Y-77928571D01*
X151003866Y-77928571D02*
X150956247Y-77833333D01*
X150956247Y-77833333D02*
X150908628Y-77785714D01*
X150908628Y-77785714D02*
X150813390Y-77738095D01*
D13*
X154695270Y-76725714D02*
X154634794Y-76846666D01*
X154634794Y-76846666D02*
X154513842Y-76967619D01*
X154513842Y-76967619D02*
X154332413Y-77149047D01*
X154332413Y-77149047D02*
X154271937Y-77270000D01*
X154271937Y-77270000D02*
X154271937Y-77390952D01*
X154574318Y-77330476D02*
X154513842Y-77451428D01*
X154513842Y-77451428D02*
X154392889Y-77572381D01*
X154392889Y-77572381D02*
X154150984Y-77632857D01*
X154150984Y-77632857D02*
X153727651Y-77632857D01*
X153727651Y-77632857D02*
X153485746Y-77572381D01*
X153485746Y-77572381D02*
X153364794Y-77451428D01*
X153364794Y-77451428D02*
X153304318Y-77330476D01*
X153304318Y-77330476D02*
X153304318Y-77088571D01*
X153304318Y-77088571D02*
X153364794Y-76967619D01*
X153364794Y-76967619D02*
X153485746Y-76846666D01*
X153485746Y-76846666D02*
X153727651Y-76786190D01*
X153727651Y-76786190D02*
X154150984Y-76786190D01*
X154150984Y-76786190D02*
X154392889Y-76846666D01*
X154392889Y-76846666D02*
X154513842Y-76967619D01*
X154513842Y-76967619D02*
X154574318Y-77088571D01*
X154574318Y-77088571D02*
X154574318Y-77330476D01*
X154574318Y-75576666D02*
X154574318Y-76302381D01*
X154574318Y-75939524D02*
X153304318Y-75939524D01*
X153304318Y-75939524D02*
X153485746Y-76060476D01*
X153485746Y-76060476D02*
X153606699Y-76181428D01*
X153606699Y-76181428D02*
X153667175Y-76302381D01*
X153727651Y-74488095D02*
X154574318Y-74488095D01*
X153243842Y-74790476D02*
X154150984Y-75092857D01*
X154150984Y-75092857D02*
X154150984Y-74306666D01*
D10*
X169884819Y-100642857D02*
X169408628Y-100976190D01*
X169884819Y-101214285D02*
X168884819Y-101214285D01*
X168884819Y-101214285D02*
X168884819Y-100833333D01*
X168884819Y-100833333D02*
X168932438Y-100738095D01*
X168932438Y-100738095D02*
X168980057Y-100690476D01*
X168980057Y-100690476D02*
X169075295Y-100642857D01*
X169075295Y-100642857D02*
X169218152Y-100642857D01*
X169218152Y-100642857D02*
X169313390Y-100690476D01*
X169313390Y-100690476D02*
X169361009Y-100738095D01*
X169361009Y-100738095D02*
X169408628Y-100833333D01*
X169408628Y-100833333D02*
X169408628Y-101214285D01*
X168884819Y-100309523D02*
X168884819Y-99690476D01*
X168884819Y-99690476D02*
X169265771Y-100023809D01*
X169265771Y-100023809D02*
X169265771Y-99880952D01*
X169265771Y-99880952D02*
X169313390Y-99785714D01*
X169313390Y-99785714D02*
X169361009Y-99738095D01*
X169361009Y-99738095D02*
X169456247Y-99690476D01*
X169456247Y-99690476D02*
X169694342Y-99690476D01*
X169694342Y-99690476D02*
X169789580Y-99738095D01*
X169789580Y-99738095D02*
X169837200Y-99785714D01*
X169837200Y-99785714D02*
X169884819Y-99880952D01*
X169884819Y-99880952D02*
X169884819Y-100166666D01*
X169884819Y-100166666D02*
X169837200Y-100261904D01*
X169837200Y-100261904D02*
X169789580Y-100309523D01*
X168884819Y-98833333D02*
X168884819Y-99023809D01*
X168884819Y-99023809D02*
X168932438Y-99119047D01*
X168932438Y-99119047D02*
X168980057Y-99166666D01*
X168980057Y-99166666D02*
X169122914Y-99261904D01*
X169122914Y-99261904D02*
X169313390Y-99309523D01*
X169313390Y-99309523D02*
X169694342Y-99309523D01*
X169694342Y-99309523D02*
X169789580Y-99261904D01*
X169789580Y-99261904D02*
X169837200Y-99214285D01*
X169837200Y-99214285D02*
X169884819Y-99119047D01*
X169884819Y-99119047D02*
X169884819Y-98928571D01*
X169884819Y-98928571D02*
X169837200Y-98833333D01*
X169837200Y-98833333D02*
X169789580Y-98785714D01*
X169789580Y-98785714D02*
X169694342Y-98738095D01*
X169694342Y-98738095D02*
X169456247Y-98738095D01*
X169456247Y-98738095D02*
X169361009Y-98785714D01*
X169361009Y-98785714D02*
X169313390Y-98833333D01*
X169313390Y-98833333D02*
X169265771Y-98928571D01*
X169265771Y-98928571D02*
X169265771Y-99119047D01*
X169265771Y-99119047D02*
X169313390Y-99214285D01*
X169313390Y-99214285D02*
X169361009Y-99261904D01*
X169361009Y-99261904D02*
X169456247Y-99309523D01*
D13*
X110299050Y-53963142D02*
X110480479Y-54023618D01*
X110480479Y-54023618D02*
X110782860Y-54023618D01*
X110782860Y-54023618D02*
X110903812Y-53963142D01*
X110903812Y-53963142D02*
X110964288Y-53902665D01*
X110964288Y-53902665D02*
X111024765Y-53781713D01*
X111024765Y-53781713D02*
X111024765Y-53660761D01*
X111024765Y-53660761D02*
X110964288Y-53539808D01*
X110964288Y-53539808D02*
X110903812Y-53479332D01*
X110903812Y-53479332D02*
X110782860Y-53418856D01*
X110782860Y-53418856D02*
X110540955Y-53358380D01*
X110540955Y-53358380D02*
X110420003Y-53297903D01*
X110420003Y-53297903D02*
X110359526Y-53237427D01*
X110359526Y-53237427D02*
X110299050Y-53116475D01*
X110299050Y-53116475D02*
X110299050Y-52995522D01*
X110299050Y-52995522D02*
X110359526Y-52874570D01*
X110359526Y-52874570D02*
X110420003Y-52814094D01*
X110420003Y-52814094D02*
X110540955Y-52753618D01*
X110540955Y-52753618D02*
X110843336Y-52753618D01*
X110843336Y-52753618D02*
X111024765Y-52814094D01*
X112234289Y-54023618D02*
X111508574Y-54023618D01*
X111871431Y-54023618D02*
X111871431Y-52753618D01*
X111871431Y-52753618D02*
X111750479Y-52935046D01*
X111750479Y-52935046D02*
X111629527Y-53055999D01*
X111629527Y-53055999D02*
X111508574Y-53116475D01*
D10*
X172024819Y-68642857D02*
X171548628Y-68976190D01*
X172024819Y-69214285D02*
X171024819Y-69214285D01*
X171024819Y-69214285D02*
X171024819Y-68833333D01*
X171024819Y-68833333D02*
X171072438Y-68738095D01*
X171072438Y-68738095D02*
X171120057Y-68690476D01*
X171120057Y-68690476D02*
X171215295Y-68642857D01*
X171215295Y-68642857D02*
X171358152Y-68642857D01*
X171358152Y-68642857D02*
X171453390Y-68690476D01*
X171453390Y-68690476D02*
X171501009Y-68738095D01*
X171501009Y-68738095D02*
X171548628Y-68833333D01*
X171548628Y-68833333D02*
X171548628Y-69214285D01*
X171120057Y-68261904D02*
X171072438Y-68214285D01*
X171072438Y-68214285D02*
X171024819Y-68119047D01*
X171024819Y-68119047D02*
X171024819Y-67880952D01*
X171024819Y-67880952D02*
X171072438Y-67785714D01*
X171072438Y-67785714D02*
X171120057Y-67738095D01*
X171120057Y-67738095D02*
X171215295Y-67690476D01*
X171215295Y-67690476D02*
X171310533Y-67690476D01*
X171310533Y-67690476D02*
X171453390Y-67738095D01*
X171453390Y-67738095D02*
X172024819Y-68309523D01*
X172024819Y-68309523D02*
X172024819Y-67690476D01*
X171024819Y-66785714D02*
X171024819Y-67261904D01*
X171024819Y-67261904D02*
X171501009Y-67309523D01*
X171501009Y-67309523D02*
X171453390Y-67261904D01*
X171453390Y-67261904D02*
X171405771Y-67166666D01*
X171405771Y-67166666D02*
X171405771Y-66928571D01*
X171405771Y-66928571D02*
X171453390Y-66833333D01*
X171453390Y-66833333D02*
X171501009Y-66785714D01*
X171501009Y-66785714D02*
X171596247Y-66738095D01*
X171596247Y-66738095D02*
X171834342Y-66738095D01*
X171834342Y-66738095D02*
X171929580Y-66785714D01*
X171929580Y-66785714D02*
X171977200Y-66833333D01*
X171977200Y-66833333D02*
X172024819Y-66928571D01*
X172024819Y-66928571D02*
X172024819Y-67166666D01*
X172024819Y-67166666D02*
X171977200Y-67261904D01*
X171977200Y-67261904D02*
X171929580Y-67309523D01*
X129357142Y-80384819D02*
X129023809Y-79908628D01*
X128785714Y-80384819D02*
X128785714Y-79384819D01*
X128785714Y-79384819D02*
X129166666Y-79384819D01*
X129166666Y-79384819D02*
X129261904Y-79432438D01*
X129261904Y-79432438D02*
X129309523Y-79480057D01*
X129309523Y-79480057D02*
X129357142Y-79575295D01*
X129357142Y-79575295D02*
X129357142Y-79718152D01*
X129357142Y-79718152D02*
X129309523Y-79813390D01*
X129309523Y-79813390D02*
X129261904Y-79861009D01*
X129261904Y-79861009D02*
X129166666Y-79908628D01*
X129166666Y-79908628D02*
X128785714Y-79908628D01*
X129690476Y-79384819D02*
X130309523Y-79384819D01*
X130309523Y-79384819D02*
X129976190Y-79765771D01*
X129976190Y-79765771D02*
X130119047Y-79765771D01*
X130119047Y-79765771D02*
X130214285Y-79813390D01*
X130214285Y-79813390D02*
X130261904Y-79861009D01*
X130261904Y-79861009D02*
X130309523Y-79956247D01*
X130309523Y-79956247D02*
X130309523Y-80194342D01*
X130309523Y-80194342D02*
X130261904Y-80289580D01*
X130261904Y-80289580D02*
X130214285Y-80337200D01*
X130214285Y-80337200D02*
X130119047Y-80384819D01*
X130119047Y-80384819D02*
X129833333Y-80384819D01*
X129833333Y-80384819D02*
X129738095Y-80337200D01*
X129738095Y-80337200D02*
X129690476Y-80289580D01*
X130880952Y-79813390D02*
X130785714Y-79765771D01*
X130785714Y-79765771D02*
X130738095Y-79718152D01*
X130738095Y-79718152D02*
X130690476Y-79622914D01*
X130690476Y-79622914D02*
X130690476Y-79575295D01*
X130690476Y-79575295D02*
X130738095Y-79480057D01*
X130738095Y-79480057D02*
X130785714Y-79432438D01*
X130785714Y-79432438D02*
X130880952Y-79384819D01*
X130880952Y-79384819D02*
X131071428Y-79384819D01*
X131071428Y-79384819D02*
X131166666Y-79432438D01*
X131166666Y-79432438D02*
X131214285Y-79480057D01*
X131214285Y-79480057D02*
X131261904Y-79575295D01*
X131261904Y-79575295D02*
X131261904Y-79622914D01*
X131261904Y-79622914D02*
X131214285Y-79718152D01*
X131214285Y-79718152D02*
X131166666Y-79765771D01*
X131166666Y-79765771D02*
X131071428Y-79813390D01*
X131071428Y-79813390D02*
X130880952Y-79813390D01*
X130880952Y-79813390D02*
X130785714Y-79861009D01*
X130785714Y-79861009D02*
X130738095Y-79908628D01*
X130738095Y-79908628D02*
X130690476Y-80003866D01*
X130690476Y-80003866D02*
X130690476Y-80194342D01*
X130690476Y-80194342D02*
X130738095Y-80289580D01*
X130738095Y-80289580D02*
X130785714Y-80337200D01*
X130785714Y-80337200D02*
X130880952Y-80384819D01*
X130880952Y-80384819D02*
X131071428Y-80384819D01*
X131071428Y-80384819D02*
X131166666Y-80337200D01*
X131166666Y-80337200D02*
X131214285Y-80289580D01*
X131214285Y-80289580D02*
X131261904Y-80194342D01*
X131261904Y-80194342D02*
X131261904Y-80003866D01*
X131261904Y-80003866D02*
X131214285Y-79908628D01*
X131214285Y-79908628D02*
X131166666Y-79861009D01*
X131166666Y-79861009D02*
X131071428Y-79813390D01*
X152577993Y-66142857D02*
X152101802Y-66476190D01*
X152577993Y-66714285D02*
X151577993Y-66714285D01*
X151577993Y-66714285D02*
X151577993Y-66333333D01*
X151577993Y-66333333D02*
X151625612Y-66238095D01*
X151625612Y-66238095D02*
X151673231Y-66190476D01*
X151673231Y-66190476D02*
X151768469Y-66142857D01*
X151768469Y-66142857D02*
X151911326Y-66142857D01*
X151911326Y-66142857D02*
X152006564Y-66190476D01*
X152006564Y-66190476D02*
X152054183Y-66238095D01*
X152054183Y-66238095D02*
X152101802Y-66333333D01*
X152101802Y-66333333D02*
X152101802Y-66714285D01*
X151673231Y-65761904D02*
X151625612Y-65714285D01*
X151625612Y-65714285D02*
X151577993Y-65619047D01*
X151577993Y-65619047D02*
X151577993Y-65380952D01*
X151577993Y-65380952D02*
X151625612Y-65285714D01*
X151625612Y-65285714D02*
X151673231Y-65238095D01*
X151673231Y-65238095D02*
X151768469Y-65190476D01*
X151768469Y-65190476D02*
X151863707Y-65190476D01*
X151863707Y-65190476D02*
X152006564Y-65238095D01*
X152006564Y-65238095D02*
X152577993Y-65809523D01*
X152577993Y-65809523D02*
X152577993Y-65190476D01*
X151577993Y-64333333D02*
X151577993Y-64523809D01*
X151577993Y-64523809D02*
X151625612Y-64619047D01*
X151625612Y-64619047D02*
X151673231Y-64666666D01*
X151673231Y-64666666D02*
X151816088Y-64761904D01*
X151816088Y-64761904D02*
X152006564Y-64809523D01*
X152006564Y-64809523D02*
X152387516Y-64809523D01*
X152387516Y-64809523D02*
X152482754Y-64761904D01*
X152482754Y-64761904D02*
X152530374Y-64714285D01*
X152530374Y-64714285D02*
X152577993Y-64619047D01*
X152577993Y-64619047D02*
X152577993Y-64428571D01*
X152577993Y-64428571D02*
X152530374Y-64333333D01*
X152530374Y-64333333D02*
X152482754Y-64285714D01*
X152482754Y-64285714D02*
X152387516Y-64238095D01*
X152387516Y-64238095D02*
X152149421Y-64238095D01*
X152149421Y-64238095D02*
X152054183Y-64285714D01*
X152054183Y-64285714D02*
X152006564Y-64333333D01*
X152006564Y-64333333D02*
X151958945Y-64428571D01*
X151958945Y-64428571D02*
X151958945Y-64619047D01*
X151958945Y-64619047D02*
X152006564Y-64714285D01*
X152006564Y-64714285D02*
X152054183Y-64761904D01*
X152054183Y-64761904D02*
X152149421Y-64809523D01*
D13*
X141960728Y-79560217D02*
X141839776Y-79499741D01*
X141839776Y-79499741D02*
X141718823Y-79378789D01*
X141718823Y-79378789D02*
X141537395Y-79197360D01*
X141537395Y-79197360D02*
X141416442Y-79136884D01*
X141416442Y-79136884D02*
X141295490Y-79136884D01*
X141355966Y-79439265D02*
X141235014Y-79378789D01*
X141235014Y-79378789D02*
X141114061Y-79257836D01*
X141114061Y-79257836D02*
X141053585Y-79015931D01*
X141053585Y-79015931D02*
X141053585Y-78592598D01*
X141053585Y-78592598D02*
X141114061Y-78350693D01*
X141114061Y-78350693D02*
X141235014Y-78229741D01*
X141235014Y-78229741D02*
X141355966Y-78169265D01*
X141355966Y-78169265D02*
X141597871Y-78169265D01*
X141597871Y-78169265D02*
X141718823Y-78229741D01*
X141718823Y-78229741D02*
X141839776Y-78350693D01*
X141839776Y-78350693D02*
X141900252Y-78592598D01*
X141900252Y-78592598D02*
X141900252Y-79015931D01*
X141900252Y-79015931D02*
X141839776Y-79257836D01*
X141839776Y-79257836D02*
X141718823Y-79378789D01*
X141718823Y-79378789D02*
X141597871Y-79439265D01*
X141597871Y-79439265D02*
X141355966Y-79439265D01*
X143109776Y-79439265D02*
X142384061Y-79439265D01*
X142746918Y-79439265D02*
X142746918Y-78169265D01*
X142746918Y-78169265D02*
X142625966Y-78350693D01*
X142625966Y-78350693D02*
X142505014Y-78471646D01*
X142505014Y-78471646D02*
X142384061Y-78532122D01*
X143593585Y-78290217D02*
X143654061Y-78229741D01*
X143654061Y-78229741D02*
X143775014Y-78169265D01*
X143775014Y-78169265D02*
X144077395Y-78169265D01*
X144077395Y-78169265D02*
X144198347Y-78229741D01*
X144198347Y-78229741D02*
X144258823Y-78290217D01*
X144258823Y-78290217D02*
X144319300Y-78411169D01*
X144319300Y-78411169D02*
X144319300Y-78532122D01*
X144319300Y-78532122D02*
X144258823Y-78713550D01*
X144258823Y-78713550D02*
X143533109Y-79439265D01*
X143533109Y-79439265D02*
X144319300Y-79439265D01*
X176225237Y-83299318D02*
X176225237Y-82029318D01*
X177555714Y-83178365D02*
X177495238Y-83238842D01*
X177495238Y-83238842D02*
X177313809Y-83299318D01*
X177313809Y-83299318D02*
X177192857Y-83299318D01*
X177192857Y-83299318D02*
X177011428Y-83238842D01*
X177011428Y-83238842D02*
X176890476Y-83117889D01*
X176890476Y-83117889D02*
X176829999Y-82996937D01*
X176829999Y-82996937D02*
X176769523Y-82755032D01*
X176769523Y-82755032D02*
X176769523Y-82573603D01*
X176769523Y-82573603D02*
X176829999Y-82331699D01*
X176829999Y-82331699D02*
X176890476Y-82210746D01*
X176890476Y-82210746D02*
X177011428Y-82089794D01*
X177011428Y-82089794D02*
X177192857Y-82029318D01*
X177192857Y-82029318D02*
X177313809Y-82029318D01*
X177313809Y-82029318D02*
X177495238Y-82089794D01*
X177495238Y-82089794D02*
X177555714Y-82150270D01*
X178765238Y-83299318D02*
X178039523Y-83299318D01*
X178402380Y-83299318D02*
X178402380Y-82029318D01*
X178402380Y-82029318D02*
X178281428Y-82210746D01*
X178281428Y-82210746D02*
X178160476Y-82331699D01*
X178160476Y-82331699D02*
X178039523Y-82392175D01*
D12*
X195166666Y-86957419D02*
X195166666Y-87671704D01*
X195166666Y-87671704D02*
X195119047Y-87814561D01*
X195119047Y-87814561D02*
X195023809Y-87909800D01*
X195023809Y-87909800D02*
X194880952Y-87957419D01*
X194880952Y-87957419D02*
X194785714Y-87957419D01*
X195785714Y-87385990D02*
X195690476Y-87338371D01*
X195690476Y-87338371D02*
X195642857Y-87290752D01*
X195642857Y-87290752D02*
X195595238Y-87195514D01*
X195595238Y-87195514D02*
X195595238Y-87147895D01*
X195595238Y-87147895D02*
X195642857Y-87052657D01*
X195642857Y-87052657D02*
X195690476Y-87005038D01*
X195690476Y-87005038D02*
X195785714Y-86957419D01*
X195785714Y-86957419D02*
X195976190Y-86957419D01*
X195976190Y-86957419D02*
X196071428Y-87005038D01*
X196071428Y-87005038D02*
X196119047Y-87052657D01*
X196119047Y-87052657D02*
X196166666Y-87147895D01*
X196166666Y-87147895D02*
X196166666Y-87195514D01*
X196166666Y-87195514D02*
X196119047Y-87290752D01*
X196119047Y-87290752D02*
X196071428Y-87338371D01*
X196071428Y-87338371D02*
X195976190Y-87385990D01*
X195976190Y-87385990D02*
X195785714Y-87385990D01*
X195785714Y-87385990D02*
X195690476Y-87433609D01*
X195690476Y-87433609D02*
X195642857Y-87481228D01*
X195642857Y-87481228D02*
X195595238Y-87576466D01*
X195595238Y-87576466D02*
X195595238Y-87766942D01*
X195595238Y-87766942D02*
X195642857Y-87862180D01*
X195642857Y-87862180D02*
X195690476Y-87909800D01*
X195690476Y-87909800D02*
X195785714Y-87957419D01*
X195785714Y-87957419D02*
X195976190Y-87957419D01*
X195976190Y-87957419D02*
X196071428Y-87909800D01*
X196071428Y-87909800D02*
X196119047Y-87862180D01*
X196119047Y-87862180D02*
X196166666Y-87766942D01*
X196166666Y-87766942D02*
X196166666Y-87576466D01*
X196166666Y-87576466D02*
X196119047Y-87481228D01*
X196119047Y-87481228D02*
X196071428Y-87433609D01*
X196071428Y-87433609D02*
X195976190Y-87385990D01*
D10*
X194238095Y-111254819D02*
X194238095Y-110254819D01*
X194238095Y-110731009D02*
X194809523Y-110731009D01*
X194809523Y-111254819D02*
X194809523Y-110254819D01*
X195714285Y-110588152D02*
X195714285Y-111254819D01*
X195476190Y-110207200D02*
X195238095Y-110921485D01*
X195238095Y-110921485D02*
X195857142Y-110921485D01*
X128024819Y-101642857D02*
X127548628Y-101976190D01*
X128024819Y-102214285D02*
X127024819Y-102214285D01*
X127024819Y-102214285D02*
X127024819Y-101833333D01*
X127024819Y-101833333D02*
X127072438Y-101738095D01*
X127072438Y-101738095D02*
X127120057Y-101690476D01*
X127120057Y-101690476D02*
X127215295Y-101642857D01*
X127215295Y-101642857D02*
X127358152Y-101642857D01*
X127358152Y-101642857D02*
X127453390Y-101690476D01*
X127453390Y-101690476D02*
X127501009Y-101738095D01*
X127501009Y-101738095D02*
X127548628Y-101833333D01*
X127548628Y-101833333D02*
X127548628Y-102214285D01*
X128024819Y-100690476D02*
X128024819Y-101261904D01*
X128024819Y-100976190D02*
X127024819Y-100976190D01*
X127024819Y-100976190D02*
X127167676Y-101071428D01*
X127167676Y-101071428D02*
X127262914Y-101166666D01*
X127262914Y-101166666D02*
X127310533Y-101261904D01*
X127024819Y-100071428D02*
X127024819Y-99976190D01*
X127024819Y-99976190D02*
X127072438Y-99880952D01*
X127072438Y-99880952D02*
X127120057Y-99833333D01*
X127120057Y-99833333D02*
X127215295Y-99785714D01*
X127215295Y-99785714D02*
X127405771Y-99738095D01*
X127405771Y-99738095D02*
X127643866Y-99738095D01*
X127643866Y-99738095D02*
X127834342Y-99785714D01*
X127834342Y-99785714D02*
X127929580Y-99833333D01*
X127929580Y-99833333D02*
X127977200Y-99880952D01*
X127977200Y-99880952D02*
X128024819Y-99976190D01*
X128024819Y-99976190D02*
X128024819Y-100071428D01*
X128024819Y-100071428D02*
X127977200Y-100166666D01*
X127977200Y-100166666D02*
X127929580Y-100214285D01*
X127929580Y-100214285D02*
X127834342Y-100261904D01*
X127834342Y-100261904D02*
X127643866Y-100309523D01*
X127643866Y-100309523D02*
X127405771Y-100309523D01*
X127405771Y-100309523D02*
X127215295Y-100261904D01*
X127215295Y-100261904D02*
X127120057Y-100214285D01*
X127120057Y-100214285D02*
X127072438Y-100166666D01*
X127072438Y-100166666D02*
X127024819Y-100071428D01*
X127725057Y-85095238D02*
X127677438Y-85190476D01*
X127677438Y-85190476D02*
X127582200Y-85285714D01*
X127582200Y-85285714D02*
X127439342Y-85428571D01*
X127439342Y-85428571D02*
X127391723Y-85523809D01*
X127391723Y-85523809D02*
X127391723Y-85619047D01*
X127629819Y-85571428D02*
X127582200Y-85666666D01*
X127582200Y-85666666D02*
X127486961Y-85761904D01*
X127486961Y-85761904D02*
X127296485Y-85809523D01*
X127296485Y-85809523D02*
X126963152Y-85809523D01*
X126963152Y-85809523D02*
X126772676Y-85761904D01*
X126772676Y-85761904D02*
X126677438Y-85666666D01*
X126677438Y-85666666D02*
X126629819Y-85571428D01*
X126629819Y-85571428D02*
X126629819Y-85380952D01*
X126629819Y-85380952D02*
X126677438Y-85285714D01*
X126677438Y-85285714D02*
X126772676Y-85190476D01*
X126772676Y-85190476D02*
X126963152Y-85142857D01*
X126963152Y-85142857D02*
X127296485Y-85142857D01*
X127296485Y-85142857D02*
X127486961Y-85190476D01*
X127486961Y-85190476D02*
X127582200Y-85285714D01*
X127582200Y-85285714D02*
X127629819Y-85380952D01*
X127629819Y-85380952D02*
X127629819Y-85571428D01*
X127629819Y-84190476D02*
X127629819Y-84761904D01*
X127629819Y-84476190D02*
X126629819Y-84476190D01*
X126629819Y-84476190D02*
X126772676Y-84571428D01*
X126772676Y-84571428D02*
X126867914Y-84666666D01*
X126867914Y-84666666D02*
X126915533Y-84761904D01*
X169166666Y-109654819D02*
X169166666Y-110369104D01*
X169166666Y-110369104D02*
X169119047Y-110511961D01*
X169119047Y-110511961D02*
X169023809Y-110607200D01*
X169023809Y-110607200D02*
X168880952Y-110654819D01*
X168880952Y-110654819D02*
X168785714Y-110654819D01*
X169547619Y-109654819D02*
X170214285Y-109654819D01*
X170214285Y-109654819D02*
X169785714Y-110654819D01*
X132024819Y-101166666D02*
X131548628Y-101499999D01*
X132024819Y-101738094D02*
X131024819Y-101738094D01*
X131024819Y-101738094D02*
X131024819Y-101357142D01*
X131024819Y-101357142D02*
X131072438Y-101261904D01*
X131072438Y-101261904D02*
X131120057Y-101214285D01*
X131120057Y-101214285D02*
X131215295Y-101166666D01*
X131215295Y-101166666D02*
X131358152Y-101166666D01*
X131358152Y-101166666D02*
X131453390Y-101214285D01*
X131453390Y-101214285D02*
X131501009Y-101261904D01*
X131501009Y-101261904D02*
X131548628Y-101357142D01*
X131548628Y-101357142D02*
X131548628Y-101738094D01*
X131358152Y-100309523D02*
X132024819Y-100309523D01*
X130977200Y-100547618D02*
X131691485Y-100785713D01*
X131691485Y-100785713D02*
X131691485Y-100166666D01*
X169884819Y-88642857D02*
X169408628Y-88976190D01*
X169884819Y-89214285D02*
X168884819Y-89214285D01*
X168884819Y-89214285D02*
X168884819Y-88833333D01*
X168884819Y-88833333D02*
X168932438Y-88738095D01*
X168932438Y-88738095D02*
X168980057Y-88690476D01*
X168980057Y-88690476D02*
X169075295Y-88642857D01*
X169075295Y-88642857D02*
X169218152Y-88642857D01*
X169218152Y-88642857D02*
X169313390Y-88690476D01*
X169313390Y-88690476D02*
X169361009Y-88738095D01*
X169361009Y-88738095D02*
X169408628Y-88833333D01*
X169408628Y-88833333D02*
X169408628Y-89214285D01*
X168980057Y-88261904D02*
X168932438Y-88214285D01*
X168932438Y-88214285D02*
X168884819Y-88119047D01*
X168884819Y-88119047D02*
X168884819Y-87880952D01*
X168884819Y-87880952D02*
X168932438Y-87785714D01*
X168932438Y-87785714D02*
X168980057Y-87738095D01*
X168980057Y-87738095D02*
X169075295Y-87690476D01*
X169075295Y-87690476D02*
X169170533Y-87690476D01*
X169170533Y-87690476D02*
X169313390Y-87738095D01*
X169313390Y-87738095D02*
X169884819Y-88309523D01*
X169884819Y-88309523D02*
X169884819Y-87690476D01*
X169313390Y-87119047D02*
X169265771Y-87214285D01*
X169265771Y-87214285D02*
X169218152Y-87261904D01*
X169218152Y-87261904D02*
X169122914Y-87309523D01*
X169122914Y-87309523D02*
X169075295Y-87309523D01*
X169075295Y-87309523D02*
X168980057Y-87261904D01*
X168980057Y-87261904D02*
X168932438Y-87214285D01*
X168932438Y-87214285D02*
X168884819Y-87119047D01*
X168884819Y-87119047D02*
X168884819Y-86928571D01*
X168884819Y-86928571D02*
X168932438Y-86833333D01*
X168932438Y-86833333D02*
X168980057Y-86785714D01*
X168980057Y-86785714D02*
X169075295Y-86738095D01*
X169075295Y-86738095D02*
X169122914Y-86738095D01*
X169122914Y-86738095D02*
X169218152Y-86785714D01*
X169218152Y-86785714D02*
X169265771Y-86833333D01*
X169265771Y-86833333D02*
X169313390Y-86928571D01*
X169313390Y-86928571D02*
X169313390Y-87119047D01*
X169313390Y-87119047D02*
X169361009Y-87214285D01*
X169361009Y-87214285D02*
X169408628Y-87261904D01*
X169408628Y-87261904D02*
X169503866Y-87309523D01*
X169503866Y-87309523D02*
X169694342Y-87309523D01*
X169694342Y-87309523D02*
X169789580Y-87261904D01*
X169789580Y-87261904D02*
X169837200Y-87214285D01*
X169837200Y-87214285D02*
X169884819Y-87119047D01*
X169884819Y-87119047D02*
X169884819Y-86928571D01*
X169884819Y-86928571D02*
X169837200Y-86833333D01*
X169837200Y-86833333D02*
X169789580Y-86785714D01*
X169789580Y-86785714D02*
X169694342Y-86738095D01*
X169694342Y-86738095D02*
X169503866Y-86738095D01*
X169503866Y-86738095D02*
X169408628Y-86785714D01*
X169408628Y-86785714D02*
X169361009Y-86833333D01*
X169361009Y-86833333D02*
X169313390Y-86928571D01*
X104238095Y-51254819D02*
X104238095Y-50254819D01*
X104238095Y-50731009D02*
X104809523Y-50731009D01*
X104809523Y-51254819D02*
X104809523Y-50254819D01*
X105809523Y-51254819D02*
X105238095Y-51254819D01*
X105523809Y-51254819D02*
X105523809Y-50254819D01*
X105523809Y-50254819D02*
X105428571Y-50397676D01*
X105428571Y-50397676D02*
X105333333Y-50492914D01*
X105333333Y-50492914D02*
X105238095Y-50540533D01*
X156578536Y-59594718D02*
X156578536Y-60309003D01*
X156578536Y-60309003D02*
X156530917Y-60451860D01*
X156530917Y-60451860D02*
X156435679Y-60547099D01*
X156435679Y-60547099D02*
X156292822Y-60594718D01*
X156292822Y-60594718D02*
X156197584Y-60594718D01*
X156959489Y-59594718D02*
X157578536Y-59594718D01*
X157578536Y-59594718D02*
X157245203Y-59975670D01*
X157245203Y-59975670D02*
X157388060Y-59975670D01*
X157388060Y-59975670D02*
X157483298Y-60023289D01*
X157483298Y-60023289D02*
X157530917Y-60070908D01*
X157530917Y-60070908D02*
X157578536Y-60166146D01*
X157578536Y-60166146D02*
X157578536Y-60404241D01*
X157578536Y-60404241D02*
X157530917Y-60499479D01*
X157530917Y-60499479D02*
X157483298Y-60547099D01*
X157483298Y-60547099D02*
X157388060Y-60594718D01*
X157388060Y-60594718D02*
X157102346Y-60594718D01*
X157102346Y-60594718D02*
X157007108Y-60547099D01*
X157007108Y-60547099D02*
X156959489Y-60499479D01*
X169138948Y-64826093D02*
X168805615Y-64349902D01*
X168567520Y-64826093D02*
X168567520Y-63826093D01*
X168567520Y-63826093D02*
X168948472Y-63826093D01*
X168948472Y-63826093D02*
X169043710Y-63873712D01*
X169043710Y-63873712D02*
X169091329Y-63921331D01*
X169091329Y-63921331D02*
X169138948Y-64016569D01*
X169138948Y-64016569D02*
X169138948Y-64159426D01*
X169138948Y-64159426D02*
X169091329Y-64254664D01*
X169091329Y-64254664D02*
X169043710Y-64302283D01*
X169043710Y-64302283D02*
X168948472Y-64349902D01*
X168948472Y-64349902D02*
X168567520Y-64349902D01*
X169519901Y-63921331D02*
X169567520Y-63873712D01*
X169567520Y-63873712D02*
X169662758Y-63826093D01*
X169662758Y-63826093D02*
X169900853Y-63826093D01*
X169900853Y-63826093D02*
X169996091Y-63873712D01*
X169996091Y-63873712D02*
X170043710Y-63921331D01*
X170043710Y-63921331D02*
X170091329Y-64016569D01*
X170091329Y-64016569D02*
X170091329Y-64111807D01*
X170091329Y-64111807D02*
X170043710Y-64254664D01*
X170043710Y-64254664D02*
X169472282Y-64826093D01*
X169472282Y-64826093D02*
X170091329Y-64826093D01*
X171043710Y-64826093D02*
X170472282Y-64826093D01*
X170757996Y-64826093D02*
X170757996Y-63826093D01*
X170757996Y-63826093D02*
X170662758Y-63968950D01*
X170662758Y-63968950D02*
X170567520Y-64064188D01*
X170567520Y-64064188D02*
X170472282Y-64111807D01*
X116360403Y-56454819D02*
X116360403Y-55454819D01*
X116360403Y-55454819D02*
X116598498Y-55454819D01*
X116598498Y-55454819D02*
X116741355Y-55502438D01*
X116741355Y-55502438D02*
X116836593Y-55597676D01*
X116836593Y-55597676D02*
X116884212Y-55692914D01*
X116884212Y-55692914D02*
X116931831Y-55883390D01*
X116931831Y-55883390D02*
X116931831Y-56026247D01*
X116931831Y-56026247D02*
X116884212Y-56216723D01*
X116884212Y-56216723D02*
X116836593Y-56311961D01*
X116836593Y-56311961D02*
X116741355Y-56407200D01*
X116741355Y-56407200D02*
X116598498Y-56454819D01*
X116598498Y-56454819D02*
X116360403Y-56454819D01*
X117836593Y-55454819D02*
X117360403Y-55454819D01*
X117360403Y-55454819D02*
X117312784Y-55931009D01*
X117312784Y-55931009D02*
X117360403Y-55883390D01*
X117360403Y-55883390D02*
X117455641Y-55835771D01*
X117455641Y-55835771D02*
X117693736Y-55835771D01*
X117693736Y-55835771D02*
X117788974Y-55883390D01*
X117788974Y-55883390D02*
X117836593Y-55931009D01*
X117836593Y-55931009D02*
X117884212Y-56026247D01*
X117884212Y-56026247D02*
X117884212Y-56264342D01*
X117884212Y-56264342D02*
X117836593Y-56359580D01*
X117836593Y-56359580D02*
X117788974Y-56407200D01*
X117788974Y-56407200D02*
X117693736Y-56454819D01*
X117693736Y-56454819D02*
X117455641Y-56454819D01*
X117455641Y-56454819D02*
X117360403Y-56407200D01*
X117360403Y-56407200D02*
X117312784Y-56359580D01*
X156223057Y-53451665D02*
X155746866Y-53784998D01*
X156223057Y-54023093D02*
X155223057Y-54023093D01*
X155223057Y-54023093D02*
X155223057Y-53642141D01*
X155223057Y-53642141D02*
X155270676Y-53546903D01*
X155270676Y-53546903D02*
X155318295Y-53499284D01*
X155318295Y-53499284D02*
X155413533Y-53451665D01*
X155413533Y-53451665D02*
X155556390Y-53451665D01*
X155556390Y-53451665D02*
X155651628Y-53499284D01*
X155651628Y-53499284D02*
X155699247Y-53546903D01*
X155699247Y-53546903D02*
X155746866Y-53642141D01*
X155746866Y-53642141D02*
X155746866Y-54023093D01*
X155318295Y-53070712D02*
X155270676Y-53023093D01*
X155270676Y-53023093D02*
X155223057Y-52927855D01*
X155223057Y-52927855D02*
X155223057Y-52689760D01*
X155223057Y-52689760D02*
X155270676Y-52594522D01*
X155270676Y-52594522D02*
X155318295Y-52546903D01*
X155318295Y-52546903D02*
X155413533Y-52499284D01*
X155413533Y-52499284D02*
X155508771Y-52499284D01*
X155508771Y-52499284D02*
X155651628Y-52546903D01*
X155651628Y-52546903D02*
X156223057Y-53118331D01*
X156223057Y-53118331D02*
X156223057Y-52499284D01*
X155223057Y-51880236D02*
X155223057Y-51784998D01*
X155223057Y-51784998D02*
X155270676Y-51689760D01*
X155270676Y-51689760D02*
X155318295Y-51642141D01*
X155318295Y-51642141D02*
X155413533Y-51594522D01*
X155413533Y-51594522D02*
X155604009Y-51546903D01*
X155604009Y-51546903D02*
X155842104Y-51546903D01*
X155842104Y-51546903D02*
X156032580Y-51594522D01*
X156032580Y-51594522D02*
X156127818Y-51642141D01*
X156127818Y-51642141D02*
X156175438Y-51689760D01*
X156175438Y-51689760D02*
X156223057Y-51784998D01*
X156223057Y-51784998D02*
X156223057Y-51880236D01*
X156223057Y-51880236D02*
X156175438Y-51975474D01*
X156175438Y-51975474D02*
X156127818Y-52023093D01*
X156127818Y-52023093D02*
X156032580Y-52070712D01*
X156032580Y-52070712D02*
X155842104Y-52118331D01*
X155842104Y-52118331D02*
X155604009Y-52118331D01*
X155604009Y-52118331D02*
X155413533Y-52070712D01*
X155413533Y-52070712D02*
X155318295Y-52023093D01*
X155318295Y-52023093D02*
X155270676Y-51975474D01*
X155270676Y-51975474D02*
X155223057Y-51880236D01*
X169138948Y-69901672D02*
X168805615Y-69425481D01*
X168567520Y-69901672D02*
X168567520Y-68901672D01*
X168567520Y-68901672D02*
X168948472Y-68901672D01*
X168948472Y-68901672D02*
X169043710Y-68949291D01*
X169043710Y-68949291D02*
X169091329Y-68996910D01*
X169091329Y-68996910D02*
X169138948Y-69092148D01*
X169138948Y-69092148D02*
X169138948Y-69235005D01*
X169138948Y-69235005D02*
X169091329Y-69330243D01*
X169091329Y-69330243D02*
X169043710Y-69377862D01*
X169043710Y-69377862D02*
X168948472Y-69425481D01*
X168948472Y-69425481D02*
X168567520Y-69425481D01*
X169519901Y-68996910D02*
X169567520Y-68949291D01*
X169567520Y-68949291D02*
X169662758Y-68901672D01*
X169662758Y-68901672D02*
X169900853Y-68901672D01*
X169900853Y-68901672D02*
X169996091Y-68949291D01*
X169996091Y-68949291D02*
X170043710Y-68996910D01*
X170043710Y-68996910D02*
X170091329Y-69092148D01*
X170091329Y-69092148D02*
X170091329Y-69187386D01*
X170091329Y-69187386D02*
X170043710Y-69330243D01*
X170043710Y-69330243D02*
X169472282Y-69901672D01*
X169472282Y-69901672D02*
X170091329Y-69901672D01*
X170948472Y-69235005D02*
X170948472Y-69901672D01*
X170710377Y-68854053D02*
X170472282Y-69568338D01*
X170472282Y-69568338D02*
X171091329Y-69568338D01*
X169884819Y-97642857D02*
X169408628Y-97976190D01*
X169884819Y-98214285D02*
X168884819Y-98214285D01*
X168884819Y-98214285D02*
X168884819Y-97833333D01*
X168884819Y-97833333D02*
X168932438Y-97738095D01*
X168932438Y-97738095D02*
X168980057Y-97690476D01*
X168980057Y-97690476D02*
X169075295Y-97642857D01*
X169075295Y-97642857D02*
X169218152Y-97642857D01*
X169218152Y-97642857D02*
X169313390Y-97690476D01*
X169313390Y-97690476D02*
X169361009Y-97738095D01*
X169361009Y-97738095D02*
X169408628Y-97833333D01*
X169408628Y-97833333D02*
X169408628Y-98214285D01*
X168884819Y-97309523D02*
X168884819Y-96690476D01*
X168884819Y-96690476D02*
X169265771Y-97023809D01*
X169265771Y-97023809D02*
X169265771Y-96880952D01*
X169265771Y-96880952D02*
X169313390Y-96785714D01*
X169313390Y-96785714D02*
X169361009Y-96738095D01*
X169361009Y-96738095D02*
X169456247Y-96690476D01*
X169456247Y-96690476D02*
X169694342Y-96690476D01*
X169694342Y-96690476D02*
X169789580Y-96738095D01*
X169789580Y-96738095D02*
X169837200Y-96785714D01*
X169837200Y-96785714D02*
X169884819Y-96880952D01*
X169884819Y-96880952D02*
X169884819Y-97166666D01*
X169884819Y-97166666D02*
X169837200Y-97261904D01*
X169837200Y-97261904D02*
X169789580Y-97309523D01*
X169218152Y-95833333D02*
X169884819Y-95833333D01*
X168837200Y-96071428D02*
X169551485Y-96309523D01*
X169551485Y-96309523D02*
X169551485Y-95690476D01*
D14*
%TO.C,Q7*%
X171113427Y-69989513D02*
X169253427Y-69989513D01*
X171053427Y-66689513D02*
X169253427Y-66689513D01*
X169253427Y-69989513D02*
X169253427Y-68939513D01*
X169253427Y-66689513D02*
X169253427Y-67739513D01*
X171803427Y-70281189D02*
X171323427Y-70281189D01*
X171563427Y-69951189D01*
X171803427Y-70281189D01*
G36*
X171803427Y-70281189D02*
G01*
X171323427Y-70281189D01*
X171563427Y-69951189D01*
X171803427Y-70281189D01*
G37*
%TO.C,Q6*%
X171108682Y-64899293D02*
X169248682Y-64899293D01*
X171048682Y-61599293D02*
X169248682Y-61599293D01*
X169248682Y-64899293D02*
X169248682Y-63849293D01*
X169248682Y-61599293D02*
X169248682Y-62649293D01*
X171798682Y-65190969D02*
X171318682Y-65190969D01*
X171558682Y-64860969D01*
X171798682Y-65190969D01*
G36*
X171798682Y-65190969D02*
G01*
X171318682Y-65190969D01*
X171558682Y-64860969D01*
X171798682Y-65190969D01*
G37*
%TO.C,D3*%
X101000000Y-77360000D02*
X101000000Y-73350000D01*
X101000000Y-77360000D02*
X103000000Y-77360000D01*
X103000000Y-77360000D02*
X103000000Y-73350000D01*
%TO.C,R30*%
X167477500Y-90762742D02*
X167477500Y-91237258D01*
X168522500Y-90762742D02*
X168522500Y-91237258D01*
%TO.C,R23*%
X158857610Y-65262742D02*
X158857610Y-65737258D01*
X159902610Y-65262742D02*
X159902610Y-65737258D01*
%TO.C,J16*%
X128600000Y-50550000D02*
X128600000Y-71850000D01*
X128600000Y-50550000D02*
X149400000Y-50550000D01*
X135860000Y-76450000D02*
X144013170Y-76450000D01*
X149400000Y-50550000D02*
X149400000Y-71850000D01*
X131283194Y-76450000D02*
G75*
G02*
X128599999Y-71850000I2723646J4671270D01*
G01*
X149400000Y-71850000D02*
G75*
G02*
X146716807Y-76450002I-5406830J71260D01*
G01*
%TO.C,J10*%
D11*
X191690000Y-91600000D02*
X199310000Y-91600000D01*
X199310000Y-97400000D01*
X191690000Y-97400000D01*
X191690000Y-91600000D01*
D12*
X192960000Y-91600000D02*
X198040000Y-91600000D01*
X198040000Y-92900000D01*
X192960000Y-92900000D01*
X192960000Y-91600000D01*
G36*
X192960000Y-91600000D02*
G01*
X198040000Y-91600000D01*
X198040000Y-92900000D01*
X192960000Y-92900000D01*
X192960000Y-91600000D01*
G37*
D14*
%TO.C,R32*%
X167477500Y-93762742D02*
X167477500Y-94237258D01*
X168522500Y-93762742D02*
X168522500Y-94237258D01*
%TO.C,R5*%
X132477500Y-98237258D02*
X132477500Y-97762742D01*
X133522500Y-98237258D02*
X133522500Y-97762742D01*
%TO.C,J14*%
D12*
X188040000Y-119900000D02*
X182960000Y-119900000D01*
X182960000Y-118600000D01*
X188040000Y-118600000D01*
X188040000Y-119900000D01*
G36*
X188040000Y-119900000D02*
G01*
X182960000Y-119900000D01*
X182960000Y-118600000D01*
X188040000Y-118600000D01*
X188040000Y-119900000D01*
G37*
D11*
X189310000Y-119900000D02*
X181690000Y-119900000D01*
X181690000Y-114100000D01*
X189310000Y-114100000D01*
X189310000Y-119900000D01*
D14*
%TO.C,J1*%
X192667513Y-60164733D02*
X193997513Y-60164733D01*
X192667513Y-61494733D02*
X192667513Y-60164733D01*
X192667513Y-62764733D02*
X192667513Y-78064733D01*
X192667513Y-62764733D02*
X195267513Y-62764733D01*
X192667513Y-78064733D02*
X197867513Y-78064733D01*
X195267513Y-60164733D02*
X197867513Y-60164733D01*
X195267513Y-62764733D02*
X195267513Y-60164733D01*
X197867513Y-60164733D02*
X197867513Y-78064733D01*
%TO.C,J13*%
D11*
X191690000Y-104600000D02*
X199310000Y-104600000D01*
X199310000Y-110400000D01*
X191690000Y-110400000D01*
X191690000Y-104600000D01*
D12*
X192960000Y-104600000D02*
X198040000Y-104600000D01*
X198040000Y-105900000D01*
X192960000Y-105900000D01*
X192960000Y-104600000D01*
G36*
X192960000Y-104600000D02*
G01*
X198040000Y-104600000D01*
X198040000Y-105900000D01*
X192960000Y-105900000D01*
X192960000Y-104600000D01*
G37*
%TO.C,K1*%
D11*
X163450000Y-106450000D02*
X137550000Y-106450000D01*
X137550000Y-80550000D01*
X163450000Y-80550000D01*
X163450000Y-106450000D01*
D14*
%TO.C,D2*%
X100500000Y-66500044D02*
X100500000Y-62050000D01*
X101300000Y-66500000D02*
X100500000Y-66500000D01*
X103500000Y-65950000D02*
X103500000Y-62050000D01*
%TO.C,R11*%
X128475041Y-98243657D02*
X128475041Y-97769141D01*
X129520041Y-98243657D02*
X129520041Y-97769141D01*
%TO.C,R14*%
X163977500Y-52587742D02*
X163977500Y-53062258D01*
X165022500Y-52587742D02*
X165022500Y-53062258D01*
%TO.C,U5*%
X151852632Y-64250143D02*
X152092632Y-64250143D01*
X151852632Y-66635143D02*
X151852632Y-64250143D01*
X151852632Y-66635143D02*
X151852632Y-69020143D01*
X151852632Y-69020143D02*
X152092632Y-69020143D01*
X154672632Y-64250143D02*
X154432632Y-64250143D01*
X154672632Y-66635143D02*
X154672632Y-64250143D01*
X154672632Y-66635143D02*
X154672632Y-69020143D01*
X154672632Y-69020143D02*
X154432632Y-69020143D01*
X152092632Y-69797643D02*
X151762632Y-70037643D01*
X151762632Y-69557643D01*
X152092632Y-69797643D01*
G36*
X152092632Y-69797643D02*
G01*
X151762632Y-70037643D01*
X151762632Y-69557643D01*
X152092632Y-69797643D01*
G37*
%TO.C,R22*%
X172478243Y-63537407D02*
X172478243Y-63062891D01*
X173523243Y-63537407D02*
X173523243Y-63062891D01*
%TO.C,U4*%
X160590000Y-70115000D02*
X160830000Y-70115000D01*
X160590000Y-72500000D02*
X160590000Y-70115000D01*
X160590000Y-72500000D02*
X160590000Y-74885000D01*
X160590000Y-74885000D02*
X160830000Y-74885000D01*
X163410000Y-70115000D02*
X163170000Y-70115000D01*
X163410000Y-72500000D02*
X163410000Y-70115000D01*
X163410000Y-72500000D02*
X163410000Y-74885000D01*
X163410000Y-74885000D02*
X163170000Y-74885000D01*
X163500000Y-69577500D02*
X163170000Y-69337500D01*
X163500000Y-69097500D01*
X163500000Y-69577500D01*
G36*
X163500000Y-69577500D02*
G01*
X163170000Y-69337500D01*
X163500000Y-69097500D01*
X163500000Y-69577500D01*
G37*
%TO.C,R62*%
X130486635Y-91658354D02*
X130961151Y-91658354D01*
X130486635Y-92703354D02*
X130961151Y-92703354D01*
%TO.C,R17*%
X158925585Y-52597346D02*
X158925585Y-53071862D01*
X159970585Y-52597346D02*
X159970585Y-53071862D01*
D11*
%TO.C,Q15*%
X129500000Y-93050000D02*
X130300000Y-93050000D01*
X130650000Y-93200000D02*
X130750000Y-93200000D01*
X130650000Y-94800000D02*
X130650000Y-93200000D01*
X130750000Y-93200000D02*
X130750000Y-94800000D01*
X130750000Y-94800000D02*
X130650000Y-94800000D01*
D14*
%TO.C,J15*%
X119650000Y-50250000D02*
X119650000Y-51500000D01*
X119940000Y-50540000D02*
X119940000Y-56510000D01*
X119940000Y-56510000D02*
X127560000Y-56510000D01*
X119950000Y-50550000D02*
X119950000Y-51300000D01*
X119950000Y-51300000D02*
X121750000Y-51300000D01*
X119950000Y-52800000D02*
X120700000Y-52800000D01*
X120700000Y-52800000D02*
X120700000Y-55750000D01*
X120700000Y-55750000D02*
X123750000Y-55750000D01*
X120900000Y-50250000D02*
X119650000Y-50250000D01*
X121750000Y-50550000D02*
X119950000Y-50550000D01*
X121750000Y-51300000D02*
X121750000Y-50550000D01*
X123250000Y-50550000D02*
X123250000Y-51300000D01*
X123250000Y-51300000D02*
X124250000Y-51300000D01*
X124250000Y-50550000D02*
X123250000Y-50550000D01*
X124250000Y-51300000D02*
X124250000Y-50550000D01*
X125750000Y-50550000D02*
X125750000Y-51300000D01*
X125750000Y-51300000D02*
X127550000Y-51300000D01*
X126800000Y-52800000D02*
X126800000Y-55750000D01*
X126800000Y-55750000D02*
X123750000Y-55750000D01*
X127550000Y-50550000D02*
X125750000Y-50550000D01*
X127550000Y-51300000D02*
X127550000Y-50550000D01*
X127550000Y-52800000D02*
X126800000Y-52800000D01*
X127560000Y-50540000D02*
X119940000Y-50540000D01*
X127560000Y-56510000D02*
X127560000Y-50540000D01*
%TO.C,J2*%
X160618959Y-56093564D02*
X160618959Y-50953564D01*
X160618959Y-58693564D02*
X160618959Y-57363564D01*
X161948959Y-58693564D02*
X160618959Y-58693564D01*
X163278959Y-50953564D02*
X160618959Y-50953564D01*
X163278959Y-56093564D02*
X160618959Y-56093564D01*
X163278959Y-56093564D02*
X163278959Y-50953564D01*
%TO.C,J4*%
X150438554Y-56115064D02*
X150438554Y-50975064D01*
X150438554Y-58715064D02*
X150438554Y-57385064D01*
X151768554Y-58715064D02*
X150438554Y-58715064D01*
X153098554Y-50975064D02*
X150438554Y-50975064D01*
X153098554Y-56115064D02*
X150438554Y-56115064D01*
X153098554Y-56115064D02*
X153098554Y-50975064D01*
%TO.C,J9*%
X145150000Y-113900000D02*
X145150000Y-117050000D01*
X145150000Y-117050000D02*
X148000000Y-119650000D01*
X148000000Y-111350000D02*
X145150000Y-113900000D01*
X148000000Y-119650000D02*
X160850000Y-119650000D01*
X160850000Y-111350000D02*
X148000000Y-111350000D01*
X160850000Y-119650000D02*
X160850000Y-111350000D01*
%TO.C,J12*%
D11*
X191690000Y-98100000D02*
X199310000Y-98100000D01*
X199310000Y-103900000D01*
X191690000Y-103900000D01*
X191690000Y-98100000D01*
D12*
X192960000Y-98100000D02*
X198040000Y-98100000D01*
X198040000Y-99400000D01*
X192960000Y-99400000D01*
X192960000Y-98100000D01*
G36*
X192960000Y-98100000D02*
G01*
X198040000Y-98100000D01*
X198040000Y-99400000D01*
X192960000Y-99400000D01*
X192960000Y-98100000D01*
G37*
D14*
%TO.C,D8*%
X143414849Y-108748157D02*
X144619950Y-108748157D01*
X143414849Y-108748157D02*
G75*
G02*
X139065051Y-108748157I-2174899J0D01*
G01*
X139065051Y-108748157D02*
G75*
G02*
X143414849Y-108748157I2174899J0D01*
G01*
%TO.C,J11*%
X128650000Y-113900000D02*
X128650000Y-117050000D01*
X128650000Y-117050000D02*
X131500000Y-119650000D01*
X131500000Y-111350000D02*
X128650000Y-113900000D01*
X131500000Y-119650000D02*
X144350000Y-119650000D01*
X144350000Y-111350000D02*
X131500000Y-111350000D01*
X144350000Y-119650000D02*
X144350000Y-111350000D01*
%TO.C,J6*%
X155446836Y-62270178D02*
X155446836Y-67410178D01*
X155446836Y-62270178D02*
X158106836Y-62270178D01*
X155446836Y-67410178D02*
X158106836Y-67410178D01*
X156776836Y-59670178D02*
X158106836Y-59670178D01*
X158106836Y-59670178D02*
X158106836Y-61000178D01*
X158106836Y-62270178D02*
X158106836Y-67410178D01*
D15*
%TO.C,HS1*%
X108387500Y-57600000D02*
X127387500Y-57600000D01*
X108387500Y-62600000D02*
X127387500Y-62600000D01*
X108387500Y-67600000D02*
X127387500Y-67600000D01*
X108387500Y-72600000D02*
X127387500Y-72600000D01*
X108387500Y-77600000D02*
X127387500Y-77600000D01*
X108387500Y-82600000D02*
X127387500Y-82600000D01*
X108387500Y-87600000D02*
X127387500Y-87600000D01*
X108387500Y-92600000D02*
X127387500Y-92600000D01*
X108387500Y-97600000D02*
X127387500Y-97600000D01*
X108387500Y-102600000D02*
X127387500Y-102600000D01*
X108387500Y-107600000D02*
X127387500Y-107600000D01*
X108387500Y-112600000D02*
X127387500Y-112600000D01*
D12*
X125387500Y-113100000D02*
X127887500Y-113100000D01*
X127887500Y-56900000D01*
X125387500Y-56900000D01*
X125387500Y-113100000D01*
G36*
X125387500Y-113100000D02*
G01*
X127887500Y-113100000D01*
X127887500Y-56900000D01*
X125387500Y-56900000D01*
X125387500Y-113100000D01*
G37*
D14*
%TO.C,D1*%
X101000000Y-82360000D02*
X101000000Y-78350000D01*
X101000000Y-82360000D02*
X103000000Y-82360000D01*
X103000000Y-82360000D02*
X103000000Y-78350000D01*
%TO.C,J5*%
X160670000Y-62270000D02*
X160670000Y-67410000D01*
X160670000Y-62270000D02*
X163330000Y-62270000D01*
X160670000Y-67410000D02*
X163330000Y-67410000D01*
X162000000Y-59670000D02*
X163330000Y-59670000D01*
X163330000Y-59670000D02*
X163330000Y-61000000D01*
X163330000Y-62270000D02*
X163330000Y-67410000D01*
%TO.C,C19*%
X148990000Y-78859420D02*
X148990000Y-79140580D01*
X150010000Y-78859420D02*
X150010000Y-79140580D01*
D11*
%TO.C,Q14*%
X150750000Y-74250000D02*
X157250000Y-74250000D01*
X150750000Y-77750000D02*
X150750000Y-74250000D01*
X157125000Y-72000000D02*
X157125000Y-73900000D01*
X157250000Y-74250000D02*
X157250000Y-77750000D01*
X157250000Y-77750000D02*
X150750000Y-77750000D01*
D14*
%TO.C,R36*%
X167477500Y-99762742D02*
X167477500Y-100237258D01*
X168522500Y-99762742D02*
X168522500Y-100237258D01*
D11*
%TO.C,S1*%
X109400000Y-51900000D02*
X113600000Y-51900000D01*
X109400000Y-53000000D02*
X109400000Y-54000000D01*
X113600000Y-53000000D02*
X113600000Y-54000000D01*
X113600000Y-55100000D02*
X109400000Y-55100000D01*
X108647370Y-52411000D02*
G75*
G02*
X108540630Y-52411000I-53370J0D01*
G01*
X108540630Y-52411000D02*
G75*
G02*
X108647370Y-52411000I53370J0D01*
G01*
D14*
%TO.C,R25*%
X172477500Y-68237258D02*
X172477500Y-67762742D01*
X173522500Y-68237258D02*
X173522500Y-67762742D01*
%TO.C,R38*%
X130237258Y-77977500D02*
X129762742Y-77977500D01*
X130237258Y-79022500D02*
X129762742Y-79022500D01*
%TO.C,R26*%
X150170674Y-65262742D02*
X150170674Y-65737258D01*
X151215674Y-65262742D02*
X151215674Y-65737258D01*
D11*
%TO.C,Q12*%
X142611443Y-77414947D02*
X142761443Y-77414947D01*
X142611443Y-80314947D02*
X142611443Y-77414947D01*
X142761443Y-77414947D02*
X142761443Y-80314947D01*
X142761443Y-80314947D02*
X142611443Y-80314947D01*
X144561443Y-80364947D02*
X143111443Y-80364947D01*
D12*
%TO.C,IC1*%
X164135000Y-57325000D02*
X164135000Y-57325000D01*
X164235000Y-57325000D02*
X164235000Y-57325000D01*
D11*
X164765000Y-109725000D02*
X164765000Y-55725000D01*
X168035000Y-55725000D02*
X164765000Y-55725000D01*
D12*
X170035000Y-52325000D02*
X173035000Y-52325000D01*
X170035000Y-55325000D02*
X170035000Y-52325000D01*
X173035000Y-52325000D02*
X173035000Y-55325000D01*
X173035000Y-55325000D02*
X176035000Y-55325000D01*
X176035000Y-52325000D02*
X179035000Y-52325000D01*
X176035000Y-55325000D02*
X176035000Y-52325000D01*
X179035000Y-52325000D02*
X179035000Y-55325000D01*
X179035000Y-55325000D02*
X182035000Y-55325000D01*
X182035000Y-52325000D02*
X185035000Y-52325000D01*
X182035000Y-55325000D02*
X182035000Y-52325000D01*
X185035000Y-52325000D02*
X185035000Y-55325000D01*
D11*
X187035000Y-55725000D02*
X190165000Y-55725000D01*
X190165000Y-55725000D02*
X190165000Y-109725000D01*
X190165000Y-109725000D02*
X164765000Y-109725000D01*
X168035000Y-50325000D02*
X187035000Y-50325000D01*
X187035000Y-69325000D01*
X168035000Y-69325000D01*
X168035000Y-50325000D01*
D12*
X164135000Y-57325000D02*
G75*
G02*
X164235000Y-57325000I50000J0D01*
G01*
X164235000Y-57325000D02*
G75*
G02*
X164135000Y-57325000I-50000J0D01*
G01*
%TO.C,J8*%
D11*
X191690000Y-85100000D02*
X199310000Y-85100000D01*
X199310000Y-90900000D01*
X191690000Y-90900000D01*
X191690000Y-85100000D01*
D12*
X192960000Y-85100000D02*
X198040000Y-85100000D01*
X198040000Y-86400000D01*
X192960000Y-86400000D01*
X192960000Y-85100000D01*
G36*
X192960000Y-85100000D02*
G01*
X198040000Y-85100000D01*
X198040000Y-86400000D01*
X192960000Y-86400000D01*
X192960000Y-85100000D01*
G37*
D14*
%TO.C,R10*%
X128477500Y-101237258D02*
X128477500Y-100762742D01*
X129522500Y-101237258D02*
X129522500Y-100762742D01*
%TO.C,Q1*%
X128175000Y-79880000D02*
X132816000Y-79880000D01*
X128175000Y-83149000D02*
X129685000Y-83149000D01*
X128175000Y-86850000D02*
X129685000Y-86850000D01*
X128175000Y-90120000D02*
X128175000Y-79880000D01*
X128175000Y-90120000D02*
X132816000Y-90120000D01*
X129685000Y-90120000D02*
X129685000Y-79880000D01*
X132816000Y-90120000D02*
X132816000Y-79880000D01*
%TO.C,J7*%
X161650000Y-113900000D02*
X161650000Y-117050000D01*
X161650000Y-117050000D02*
X164500000Y-119650000D01*
X164500000Y-111350000D02*
X161650000Y-113900000D01*
X164500000Y-119650000D02*
X177350000Y-119650000D01*
X177350000Y-111350000D02*
X164500000Y-111350000D01*
X177350000Y-119650000D02*
X177350000Y-111350000D01*
%TO.C,R4*%
X132477500Y-101237258D02*
X132477500Y-100762742D01*
X133522500Y-101237258D02*
X133522500Y-100762742D01*
%TO.C,R28*%
X167477500Y-87762742D02*
X167477500Y-88237258D01*
X168522500Y-87762742D02*
X168522500Y-88237258D01*
%TO.C,J3*%
X155581870Y-56099899D02*
X155581870Y-50959899D01*
X155581870Y-58699899D02*
X155581870Y-57369899D01*
X156911870Y-58699899D02*
X155581870Y-58699899D01*
X158241870Y-50959899D02*
X155581870Y-50959899D01*
X158241870Y-56099899D02*
X155581870Y-56099899D01*
X158241870Y-56099899D02*
X158241870Y-50959899D01*
%TO.C,R21*%
X169544548Y-65278774D02*
X170019064Y-65278774D01*
X169544548Y-66323774D02*
X170019064Y-66323774D01*
%TO.C,D5*%
X115538498Y-51662960D02*
X115538498Y-51818960D01*
X115538498Y-53978960D02*
X115538498Y-54134960D01*
X115538498Y-51663444D02*
G75*
G02*
X118770833Y-51820352I1560000J-1235516D01*
G01*
X116057537Y-51818960D02*
G75*
G02*
X118139628Y-51819123I1040961J-1080000D01*
G01*
X118139628Y-53978797D02*
G75*
G02*
X116057537Y-53978960I-1041130J1079837D01*
G01*
X118770833Y-53977568D02*
G75*
G02*
X115538498Y-54134476I-1672335J1078608D01*
G01*
%TO.C,R20*%
X153815738Y-52571550D02*
X153815738Y-53046066D01*
X154860738Y-52571550D02*
X154860738Y-53046066D01*
%TO.C,R24*%
X169544548Y-70354353D02*
X170019064Y-70354353D01*
X169544548Y-71399353D02*
X170019064Y-71399353D01*
%TO.C,R34*%
X167477500Y-96762742D02*
X167477500Y-97237258D01*
X168522500Y-96762742D02*
X168522500Y-97237258D01*
%TD*%
M02*
