%TF.GenerationSoftware,KiCad,Pcbnew,8.0.4*%
%TF.CreationDate,2024-09-03T11:52:29+09:00*%
%TF.ProjectId,chibarobo_board_2024,63686962-6172-46f6-926f-5f626f617264,rev?*%
%TF.SameCoordinates,Original*%
%TF.FileFunction,Soldermask,Top*%
%TF.FilePolarity,Negative*%
%FSLAX46Y46*%
G04 Gerber Fmt 4.6, Leading zero omitted, Abs format (unit mm)*
G04 Created by KiCad (PCBNEW 8.0.4) date 2024-09-03 11:52:29*
%MOMM*%
%LPD*%
G01*
G04 APERTURE LIST*
G04 Aperture macros list*
%AMRoundRect*
0 Rectangle with rounded corners*
0 $1 Rounding radius*
0 $2 $3 $4 $5 $6 $7 $8 $9 X,Y pos of 4 corners*
0 Add a 4 corners polygon primitive as box body*
4,1,4,$2,$3,$4,$5,$6,$7,$8,$9,$2,$3,0*
0 Add four circle primitives for the rounded corners*
1,1,$1+$1,$2,$3*
1,1,$1+$1,$4,$5*
1,1,$1+$1,$6,$7*
1,1,$1+$1,$8,$9*
0 Add four rect primitives between the rounded corners*
20,1,$1+$1,$2,$3,$4,$5,0*
20,1,$1+$1,$4,$5,$6,$7,0*
20,1,$1+$1,$6,$7,$8,$9,0*
20,1,$1+$1,$8,$9,$2,$3,0*%
%AMFreePoly0*
4,1,5,1.500000,-5.750000,-1.500000,-5.750000,-1.500000,5.750000,1.500000,5.750000,1.500000,-5.750000,1.500000,-5.750000,$1*%
%AMFreePoly1*
4,1,5,1.000000,-3.750000,-1.000000,-3.750000,-1.000000,3.750000,1.000000,3.750000,1.000000,-3.750000,1.000000,-3.750000,$1*%
G04 Aperture macros list end*
%ADD10C,3.500000*%
%ADD11C,0.100000*%
%ADD12RoundRect,0.225000X0.375000X-0.225000X0.375000X0.225000X-0.375000X0.225000X-0.375000X-0.225000X0*%
%ADD13RoundRect,0.200000X0.250000X0.200000X-0.250000X0.200000X-0.250000X-0.200000X0.250000X-0.200000X0*%
%ADD14RoundRect,0.200000X-0.275000X0.200000X-0.275000X-0.200000X0.275000X-0.200000X0.275000X0.200000X0*%
%ADD15R,1.000000X2.000000*%
%ADD16RoundRect,1.375000X-1.375000X-1.375000X1.375000X-1.375000X1.375000X1.375000X-1.375000X1.375000X0*%
%ADD17C,5.500000*%
%ADD18R,1.524000X1.524000*%
%ADD19C,1.524000*%
%ADD20R,2.000000X2.000000*%
%ADD21C,2.000000*%
%ADD22RoundRect,0.200000X0.275000X-0.200000X0.275000X0.200000X-0.275000X0.200000X-0.275000X-0.200000X0*%
%ADD23R,1.700000X1.700000*%
%ADD24O,1.700000X1.700000*%
%ADD25FreePoly0,180.000000*%
%ADD26FreePoly1,180.000000*%
%ADD27FreePoly0,270.000000*%
%ADD28R,1.100000X1.500000*%
%ADD29RoundRect,0.137500X0.137500X-0.662500X0.137500X0.662500X-0.137500X0.662500X-0.137500X-0.662500X0*%
%ADD30RoundRect,0.137500X-0.137500X0.662500X-0.137500X-0.662500X0.137500X-0.662500X0.137500X0.662500X0*%
%ADD31RoundRect,0.200000X-0.200000X-0.275000X0.200000X-0.275000X0.200000X0.275000X-0.200000X0.275000X0*%
%ADD32R,0.800000X0.400000*%
%ADD33RoundRect,0.250000X-0.600000X-0.750000X0.600000X-0.750000X0.600000X0.750000X-0.600000X0.750000X0*%
%ADD34O,1.700000X2.000000*%
%ADD35C,3.200000*%
%ADD36RoundRect,1.500000X-1.500000X-1.500000X1.500000X-1.500000X1.500000X1.500000X-1.500000X1.500000X0*%
%ADD37C,6.000000*%
%ADD38R,2.800000X2.800000*%
%ADD39O,2.800000X2.800000*%
%ADD40C,2.600000*%
%ADD41RoundRect,0.225000X-0.250000X0.225000X-0.250000X-0.225000X0.250000X-0.225000X0.250000X0.225000X0*%
%ADD42R,0.950000X1.900000*%
%ADD43R,3.250000X1.900000*%
%ADD44R,0.650000X1.050000*%
%ADD45RoundRect,0.200000X0.200000X0.275000X-0.200000X0.275000X-0.200000X-0.275000X0.200000X-0.275000X0*%
%ADD46R,1.450000X0.600000*%
%ADD47R,1.665000X1.665000*%
%ADD48C,1.665000*%
%ADD49R,2.000000X1.905000*%
%ADD50O,2.000000X1.905000*%
%ADD51R,1.800000X1.800000*%
%ADD52C,1.800000*%
%ADD53R,1.600000X1.600000*%
%ADD54C,1.600000*%
G04 APERTURE END LIST*
D10*
X135500000Y-79500000D02*
X135500000Y-109000000D01*
X152500000Y-109500000D02*
X162000000Y-109500000D01*
X162000000Y-109500000D02*
X163000000Y-110500000D01*
X150500000Y-107500000D02*
X152500000Y-109500000D01*
D11*
X135500000Y-109000000D02*
X135500000Y-109500000D01*
D10*
X150500000Y-107500000D02*
X150500000Y-109500000D01*
D12*
%TO.C,D3*%
X102000000Y-100000000D03*
X102000000Y-96700000D03*
%TD*%
D13*
%TO.C,Q4*%
X171200000Y-65950000D03*
X171200000Y-64050000D03*
X168800000Y-65000000D03*
%TD*%
D14*
%TO.C,R22*%
X159380110Y-64675000D03*
X159380110Y-66325000D03*
%TD*%
D15*
%TO.C,J15*%
X129550000Y-64350000D03*
X148450000Y-64350000D03*
D16*
X133550000Y-73750000D03*
D17*
X144450000Y-73750000D03*
%TD*%
D18*
%TO.C,J10*%
X198000000Y-68000000D03*
D19*
X195500000Y-68000000D03*
X193000000Y-68000000D03*
%TD*%
D20*
%TO.C,C5*%
X105500000Y-77367677D03*
D21*
X105500000Y-72367677D03*
%TD*%
D22*
%TO.C,R5*%
X133000000Y-98825000D03*
X133000000Y-97175000D03*
%TD*%
D18*
%TO.C,J14*%
X198000000Y-87500000D03*
D19*
X195500000Y-87500000D03*
X193000000Y-87500000D03*
%TD*%
D23*
%TO.C,J1*%
X197000000Y-108483788D03*
D24*
X194460000Y-108483788D03*
X197000000Y-105943788D03*
X194460000Y-105943788D03*
X197000000Y-103403788D03*
X194460000Y-103403788D03*
X197000000Y-100863788D03*
X194460000Y-100863788D03*
X197000000Y-98323788D03*
X194460000Y-98323788D03*
X197000000Y-95783788D03*
X194460000Y-95783788D03*
X197000000Y-93243788D03*
X194460000Y-93243788D03*
%TD*%
D18*
%TO.C,J13*%
X198000000Y-81000000D03*
D19*
X195500000Y-81000000D03*
X193000000Y-81000000D03*
%TD*%
D25*
%TO.C,K1*%
X150500000Y-100900000D03*
D26*
X142050000Y-91400000D03*
X158950000Y-91400000D03*
D27*
X150500000Y-83000000D03*
%TD*%
D28*
%TO.C,D2*%
X102750000Y-81350000D03*
X102750000Y-84350000D03*
X101250000Y-84350000D03*
X101250000Y-81350000D03*
%TD*%
D29*
%TO.C,U6*%
X152627632Y-69885143D03*
X153897632Y-69885143D03*
X153897632Y-63385143D03*
X152627632Y-63385143D03*
%TD*%
D30*
%TO.C,U5*%
X162635000Y-69250000D03*
X161365000Y-69250000D03*
X161365000Y-75750000D03*
X162635000Y-75750000D03*
%TD*%
D31*
%TO.C,R8*%
X129898893Y-92180854D03*
X131548893Y-92180854D03*
%TD*%
D22*
%TO.C,R16*%
X159448085Y-53659604D03*
X159448085Y-52009604D03*
%TD*%
D32*
%TO.C,Q1*%
X129900000Y-93500000D03*
X129900000Y-94500000D03*
X131500000Y-94000000D03*
%TD*%
D33*
%TO.C,J16*%
X122500000Y-53000000D03*
D34*
X125000000Y-53000000D03*
%TD*%
D23*
%TO.C,J2*%
X161948959Y-57363564D03*
D24*
X161948959Y-54823564D03*
X161948959Y-52283564D03*
%TD*%
D35*
%TO.C,H3*%
X105000000Y-115500000D03*
%TD*%
D23*
%TO.C,J4*%
X151768554Y-57385064D03*
D24*
X151768554Y-54845064D03*
X151768554Y-52305064D03*
%TD*%
D35*
%TO.C,H2*%
X195000000Y-55000000D03*
%TD*%
D20*
%TO.C,C4*%
X105500000Y-61632323D03*
D21*
X105500000Y-66632323D03*
%TD*%
D36*
%TO.C,J9*%
X149400000Y-115500000D03*
D37*
X156600000Y-115500000D03*
%TD*%
D18*
%TO.C,J12*%
X198000000Y-74500000D03*
D19*
X195500000Y-74500000D03*
X193000000Y-74500000D03*
%TD*%
D38*
%TO.C,D10*%
X146319950Y-108748157D03*
D39*
X141239950Y-108748157D03*
%TD*%
D36*
%TO.C,J11*%
X132900000Y-115500000D03*
D37*
X140100000Y-115500000D03*
%TD*%
D23*
%TO.C,J6*%
X156776836Y-61000178D03*
D24*
X156776836Y-63540178D03*
X156776836Y-66080178D03*
%TD*%
D31*
%TO.C,R17*%
X169175000Y-70000000D03*
X170825000Y-70000000D03*
%TD*%
D40*
%TO.C,HS1*%
X124687500Y-100000000D03*
X124887500Y-70000000D03*
%TD*%
D14*
%TO.C,R18*%
X177000000Y-63675000D03*
X177000000Y-65325000D03*
%TD*%
D31*
%TO.C,R14*%
X169175000Y-68000000D03*
X170825000Y-68000000D03*
%TD*%
D12*
%TO.C,D1*%
X102000000Y-95300000D03*
X102000000Y-92000000D03*
%TD*%
D14*
%TO.C,R28*%
X168000000Y-81175000D03*
X168000000Y-82825000D03*
%TD*%
D23*
%TO.C,J5*%
X162000000Y-61000000D03*
D24*
X162000000Y-63540000D03*
X162000000Y-66080000D03*
%TD*%
D41*
%TO.C,C19*%
X149500000Y-78225000D03*
X149500000Y-79775000D03*
%TD*%
D42*
%TO.C,Q15*%
X156300000Y-72950000D03*
X154000000Y-72950000D03*
X151700000Y-72950000D03*
D43*
X154000000Y-79050000D03*
%TD*%
D44*
%TO.C,S1*%
X113076483Y-51527024D03*
X113076483Y-55677024D03*
X110926483Y-51527024D03*
X110926483Y-55677024D03*
%TD*%
D14*
%TO.C,R30*%
X168000000Y-84175000D03*
X168000000Y-85825000D03*
%TD*%
%TO.C,R32*%
X168000000Y-87175000D03*
X168000000Y-88825000D03*
%TD*%
%TO.C,R26*%
X168000000Y-78175000D03*
X168000000Y-79825000D03*
%TD*%
D29*
%TO.C,U4*%
X173365000Y-63750000D03*
X174635000Y-63750000D03*
X174635000Y-57250000D03*
X173365000Y-57250000D03*
%TD*%
D45*
%TO.C,R37*%
X130825000Y-78500000D03*
X129175000Y-78500000D03*
%TD*%
D14*
%TO.C,R34*%
X168000000Y-90175000D03*
X168000000Y-91825000D03*
%TD*%
%TO.C,R25*%
X150693174Y-64675000D03*
X150693174Y-66325000D03*
%TD*%
D46*
%TO.C,Q13*%
X143836443Y-79814947D03*
X143836443Y-77914947D03*
X141536443Y-78864947D03*
%TD*%
D47*
%TO.C,IC1*%
X189000000Y-103800000D03*
D48*
X189000000Y-101260000D03*
X189000000Y-98720000D03*
X189000000Y-96180000D03*
X189000000Y-93640000D03*
X189000000Y-91100000D03*
X189000000Y-88560000D03*
X189000000Y-86020000D03*
X189000000Y-83480000D03*
X189000000Y-80940000D03*
X189000000Y-78400000D03*
X189000000Y-75860000D03*
X189000000Y-73320000D03*
X189000000Y-70780000D03*
X189000000Y-68240000D03*
X189000000Y-65700000D03*
X189000000Y-63160000D03*
X189000000Y-60620000D03*
X189000000Y-58080000D03*
X189000000Y-55540000D03*
X189000000Y-53000000D03*
X166140000Y-103800000D03*
X166140000Y-101260000D03*
X166140000Y-98720000D03*
X166140000Y-96180000D03*
X166140000Y-93640000D03*
X166140000Y-91100000D03*
X166140000Y-88560000D03*
X166140000Y-86020000D03*
X166140000Y-83480000D03*
X166140000Y-80940000D03*
X166140000Y-78400000D03*
X166140000Y-75860000D03*
X166140000Y-73320000D03*
X166140000Y-70780000D03*
X166140000Y-68240000D03*
X166140000Y-65700000D03*
X166140000Y-63160000D03*
X166140000Y-60620000D03*
X166140000Y-58080000D03*
X166140000Y-55540000D03*
X166140000Y-53000000D03*
%TD*%
D18*
%TO.C,J8*%
X198000000Y-61500000D03*
D19*
X195500000Y-61500000D03*
X193000000Y-61500000D03*
%TD*%
D29*
%TO.C,U3*%
X169365000Y-61750000D03*
X170635000Y-61750000D03*
X170635000Y-55250000D03*
X169365000Y-55250000D03*
%TD*%
D35*
%TO.C,H4*%
X195000000Y-115000000D03*
%TD*%
D49*
%TO.C,Q2*%
X131445000Y-87540000D03*
D50*
X131445000Y-85000000D03*
X131445000Y-82460000D03*
%TD*%
D36*
%TO.C,J7*%
X165900000Y-115500000D03*
D37*
X173100000Y-115500000D03*
%TD*%
D22*
%TO.C,R4*%
X133000000Y-101825000D03*
X133000000Y-100175000D03*
%TD*%
D13*
%TO.C,Q5*%
X175200000Y-67950000D03*
X175200000Y-66050000D03*
X172800000Y-67000000D03*
%TD*%
D22*
%TO.C,R15*%
X177000000Y-62325000D03*
X177000000Y-60675000D03*
%TD*%
D35*
%TO.C,H1*%
X105000000Y-55000000D03*
%TD*%
D23*
%TO.C,J3*%
X156911870Y-57369899D03*
D24*
X156911870Y-54829899D03*
X156911870Y-52289899D03*
%TD*%
D51*
%TO.C,D5*%
X115828498Y-52898960D03*
D52*
X118368498Y-52898960D03*
%TD*%
D22*
%TO.C,R19*%
X154338238Y-53633808D03*
X154338238Y-51983808D03*
%TD*%
D53*
%TO.C,C8*%
X131000000Y-100152651D03*
D54*
X131000000Y-96652651D03*
%TD*%
M02*
