%TF.GenerationSoftware,KiCad,Pcbnew,8.0.4*%
%TF.CreationDate,2024-09-03T11:52:29+09:00*%
%TF.ProjectId,chibarobo_board_2024,63686962-6172-46f6-926f-5f626f617264,rev?*%
%TF.SameCoordinates,Original*%
%TF.FileFunction,Paste,Top*%
%TF.FilePolarity,Positive*%
%FSLAX46Y46*%
G04 Gerber Fmt 4.6, Leading zero omitted, Abs format (unit mm)*
G04 Created by KiCad (PCBNEW 8.0.4) date 2024-09-03 11:52:29*
%MOMM*%
%LPD*%
G01*
G04 APERTURE LIST*
G04 Aperture macros list*
%AMRoundRect*
0 Rectangle with rounded corners*
0 $1 Rounding radius*
0 $2 $3 $4 $5 $6 $7 $8 $9 X,Y pos of 4 corners*
0 Add a 4 corners polygon primitive as box body*
4,1,4,$2,$3,$4,$5,$6,$7,$8,$9,$2,$3,0*
0 Add four circle primitives for the rounded corners*
1,1,$1+$1,$2,$3*
1,1,$1+$1,$4,$5*
1,1,$1+$1,$6,$7*
1,1,$1+$1,$8,$9*
0 Add four rect primitives between the rounded corners*
20,1,$1+$1,$2,$3,$4,$5,0*
20,1,$1+$1,$4,$5,$6,$7,0*
20,1,$1+$1,$6,$7,$8,$9,0*
20,1,$1+$1,$8,$9,$2,$3,0*%
G04 Aperture macros list end*
%ADD10RoundRect,0.225000X0.375000X-0.225000X0.375000X0.225000X-0.375000X0.225000X-0.375000X-0.225000X0*%
%ADD11RoundRect,0.200000X0.250000X0.200000X-0.250000X0.200000X-0.250000X-0.200000X0.250000X-0.200000X0*%
%ADD12RoundRect,0.200000X-0.275000X0.200000X-0.275000X-0.200000X0.275000X-0.200000X0.275000X0.200000X0*%
%ADD13RoundRect,0.200000X0.275000X-0.200000X0.275000X0.200000X-0.275000X0.200000X-0.275000X-0.200000X0*%
%ADD14R,1.100000X1.500000*%
%ADD15RoundRect,0.137500X0.137500X-0.662500X0.137500X0.662500X-0.137500X0.662500X-0.137500X-0.662500X0*%
%ADD16RoundRect,0.137500X-0.137500X0.662500X-0.137500X-0.662500X0.137500X-0.662500X0.137500X0.662500X0*%
%ADD17RoundRect,0.200000X-0.200000X-0.275000X0.200000X-0.275000X0.200000X0.275000X-0.200000X0.275000X0*%
%ADD18R,0.800000X0.400000*%
%ADD19RoundRect,0.225000X-0.250000X0.225000X-0.250000X-0.225000X0.250000X-0.225000X0.250000X0.225000X0*%
%ADD20R,0.950000X1.900000*%
%ADD21R,3.250000X1.900000*%
%ADD22R,0.650000X1.050000*%
%ADD23RoundRect,0.200000X0.200000X0.275000X-0.200000X0.275000X-0.200000X-0.275000X0.200000X-0.275000X0*%
%ADD24R,1.450000X0.600000*%
G04 APERTURE END LIST*
D10*
%TO.C,D3*%
X102000000Y-100000000D03*
X102000000Y-96700000D03*
%TD*%
D11*
%TO.C,Q4*%
X171200000Y-65950000D03*
X171200000Y-64050000D03*
X168800000Y-65000000D03*
%TD*%
D12*
%TO.C,R22*%
X159380110Y-64675000D03*
X159380110Y-66325000D03*
%TD*%
D13*
%TO.C,R5*%
X133000000Y-98825000D03*
X133000000Y-97175000D03*
%TD*%
D14*
%TO.C,D2*%
X102750000Y-81350000D03*
X102750000Y-84350000D03*
X101250000Y-84350000D03*
X101250000Y-81350000D03*
%TD*%
D15*
%TO.C,U6*%
X152627632Y-69885143D03*
X153897632Y-69885143D03*
X153897632Y-63385143D03*
X152627632Y-63385143D03*
%TD*%
D16*
%TO.C,U5*%
X162635000Y-69250000D03*
X161365000Y-69250000D03*
X161365000Y-75750000D03*
X162635000Y-75750000D03*
%TD*%
D17*
%TO.C,R8*%
X129898893Y-92180854D03*
X131548893Y-92180854D03*
%TD*%
D13*
%TO.C,R16*%
X159448085Y-53659604D03*
X159448085Y-52009604D03*
%TD*%
D18*
%TO.C,Q1*%
X129900000Y-93500000D03*
X129900000Y-94500000D03*
X131500000Y-94000000D03*
%TD*%
D17*
%TO.C,R17*%
X169175000Y-70000000D03*
X170825000Y-70000000D03*
%TD*%
D12*
%TO.C,R18*%
X177000000Y-63675000D03*
X177000000Y-65325000D03*
%TD*%
D17*
%TO.C,R14*%
X169175000Y-68000000D03*
X170825000Y-68000000D03*
%TD*%
D10*
%TO.C,D1*%
X102000000Y-95300000D03*
X102000000Y-92000000D03*
%TD*%
D12*
%TO.C,R28*%
X168000000Y-81175000D03*
X168000000Y-82825000D03*
%TD*%
D19*
%TO.C,C19*%
X149500000Y-78225000D03*
X149500000Y-79775000D03*
%TD*%
D20*
%TO.C,Q15*%
X156300000Y-72950000D03*
X154000000Y-72950000D03*
X151700000Y-72950000D03*
D21*
X154000000Y-79050000D03*
%TD*%
D22*
%TO.C,S1*%
X113076483Y-51527024D03*
X113076483Y-55677024D03*
X110926483Y-51527024D03*
X110926483Y-55677024D03*
%TD*%
D12*
%TO.C,R30*%
X168000000Y-84175000D03*
X168000000Y-85825000D03*
%TD*%
%TO.C,R32*%
X168000000Y-87175000D03*
X168000000Y-88825000D03*
%TD*%
%TO.C,R26*%
X168000000Y-78175000D03*
X168000000Y-79825000D03*
%TD*%
D15*
%TO.C,U4*%
X173365000Y-63750000D03*
X174635000Y-63750000D03*
X174635000Y-57250000D03*
X173365000Y-57250000D03*
%TD*%
D23*
%TO.C,R37*%
X130825000Y-78500000D03*
X129175000Y-78500000D03*
%TD*%
D12*
%TO.C,R34*%
X168000000Y-90175000D03*
X168000000Y-91825000D03*
%TD*%
%TO.C,R25*%
X150693174Y-64675000D03*
X150693174Y-66325000D03*
%TD*%
D24*
%TO.C,Q13*%
X143836443Y-79814947D03*
X143836443Y-77914947D03*
X141536443Y-78864947D03*
%TD*%
D15*
%TO.C,U3*%
X169365000Y-61750000D03*
X170635000Y-61750000D03*
X170635000Y-55250000D03*
X169365000Y-55250000D03*
%TD*%
D13*
%TO.C,R4*%
X133000000Y-101825000D03*
X133000000Y-100175000D03*
%TD*%
D11*
%TO.C,Q5*%
X175200000Y-67950000D03*
X175200000Y-66050000D03*
X172800000Y-67000000D03*
%TD*%
D13*
%TO.C,R15*%
X177000000Y-62325000D03*
X177000000Y-60675000D03*
%TD*%
%TO.C,R19*%
X154338238Y-53633808D03*
X154338238Y-51983808D03*
%TD*%
M02*
