M48
; DRILL file {KiCad 8.0.4} date 2024-09-03T11:52:41+0900
; FORMAT={-:-/ absolute / inch / decimal}
; #@! TF.CreationDate,2024-09-03T11:52:41+09:00
; #@! TF.GenerationSoftware,Kicad,Pcbnew,8.0.4
; #@! TF.FileFunction,Plated,1,2,PTH
FMAT,2
INCH
; #@! TA.AperFunction,Plated,PTH,ViaDrill
T1C0.0118
; #@! TA.AperFunction,Plated,PTH,ViaDrill
T2C0.0236
; #@! TA.AperFunction,Plated,PTH,ComponentDrill
T3C0.0276
; #@! TA.AperFunction,Plated,PTH,ComponentDrill
T4C0.0300
; #@! TA.AperFunction,Plated,PTH,ComponentDrill
T5C0.0315
; #@! TA.AperFunction,Plated,PTH,ComponentDrill
T6C0.0354
; #@! TA.AperFunction,Plated,PTH,ComponentDrill
T7C0.0394
; #@! TA.AperFunction,Plated,PTH,ComponentDrill
T8C0.0433
; #@! TA.AperFunction,Plated,PTH,ComponentDrill
T9C0.0437
; #@! TA.AperFunction,Plated,PTH,ComponentDrill
T10C0.0551
; #@! TA.AperFunction,Plated,PTH,ComponentDrill
T11C0.0591
; #@! TA.AperFunction,Plated,PTH,ComponentDrill
T12C0.1614
; #@! TA.AperFunction,Plated,PTH,ComponentDrill
T13C0.1772
%
G90
G05
T1
X3.9764Y-2.0079
X3.9764Y-2.0472
X3.9764Y-2.0866
X3.9764Y-2.126
X3.9764Y-2.1654
X3.9764Y-2.2047
X3.9764Y-2.2638
X3.9764Y-2.3031
X4.0157Y-2.0079
X4.0157Y-2.0472
X4.0157Y-2.0866
X4.0157Y-2.126
X4.0157Y-2.1654
X4.0157Y-2.2047
X4.0157Y-2.2638
X4.0157Y-2.3031
X4.0157Y-4.626
X4.0354Y-4.3504
X4.0551Y-2.0079
X4.0551Y-2.0472
X4.0551Y-2.2638
X4.0551Y-2.3031
X4.0945Y-2.0079
X4.0945Y-2.0472
X4.0945Y-2.2638
X4.0945Y-2.3031
X4.1339Y-2.0079
X4.1339Y-2.0472
X4.1339Y-2.2638
X4.1339Y-2.3031
X4.1339Y-2.7559
X4.1339Y-3.2677
X4.1732Y-2.0079
X4.1732Y-2.0472
X4.1732Y-2.2638
X4.1732Y-2.3031
X4.1732Y-3.5827
X4.1929Y-3.1496
X4.2126Y-2.0079
X4.2126Y-2.0472
X4.2126Y-2.2638
X4.2126Y-2.3031
X4.2126Y-2.6772
X4.2126Y-3.7795
X4.2323Y-2.5394
X4.2913Y-2.7362
X4.311Y-2.5591
X4.3307Y-2.0276
X4.3504Y-3.937
X4.3701Y-4.6457
X4.3898Y-3.1693
X4.4094Y-3.0906
X4.4291Y-4.3504
X4.4291Y-4.4488
X4.4488Y-2.2835
X4.4633Y-2.3147
X4.4685Y-3.2087
X4.4685Y-3.7205
X4.4882Y-2.0276
X4.4882Y-3.563
X4.5276Y-3.7992
X4.5472Y-4.5079
X4.6063Y-3.0315
X4.626Y-2.7165
X4.6299Y-2.2835
X4.6457Y-3.5433
X4.6563Y-2.874
X4.6563Y-3.0315
X4.685Y-2.7362
X4.685Y-4.0157
X4.7047Y-2.874
X4.7047Y-4.5276
X4.7244Y-3.5827
X4.7835Y-3.7205
X4.7835Y-4.626
X4.8031Y-3.3071
X4.8031Y-4.3898
X4.9409Y-3.0709
X4.9409Y-4.5079
X4.9606Y-4.3898
X4.9803Y-2.2835
X4.9803Y-2.6653
X5.0Y-2.9921
X5.0197Y-2.8937
X5.0197Y-3.0906
X5.0197Y-4.5866
X5.0984Y-2.2244
X5.1181Y-4.3504
X5.1711Y-3.5317
X5.1769Y-3.6704
X5.1772Y-3.5729
X5.1772Y-4.1732
X5.1969Y-4.2717
X5.2179Y-3.7307
X5.2461Y-3.7008
X5.2461Y-3.7598
X5.3937Y-4.6457
X5.4134Y-2.7559
X5.4331Y-3.2283
X5.4331Y-3.5718
X5.4587Y-3.5472
X5.4753Y-3.7611
X5.4884Y-3.6614
X5.4914Y-3.8295
X5.5512Y-2.6378
X5.689Y-3.8189
X5.7283Y-3.357
X5.7677Y-3.1102
X5.7874Y-3.3819
X5.8Y-4.1339
X5.8465Y-3.0118
X5.8858Y-3.3858
X5.9039Y-2.8093
X6.0236Y-4.0157
X6.0433Y-3.4055
X6.0626Y-2.5591
X6.0636Y-2.8058
X6.0827Y-3.878
X6.1614Y-4.0748
X6.2008Y-2.874
X6.353Y-2.9823
X6.3583Y-3.0709
X6.3583Y-3.1102
X6.3583Y-3.1496
X6.3583Y-3.189
X6.3583Y-3.2283
X6.3583Y-3.2677
X6.3583Y-3.3071
X6.3583Y-3.3465
X6.3583Y-3.3858
X6.3583Y-3.4252
X6.3583Y-3.4646
X6.3583Y-3.5039
X6.3583Y-3.5433
X6.3583Y-3.5827
X6.3583Y-3.622
X6.3583Y-3.6614
X6.3583Y-3.7008
X6.3583Y-3.7402
X6.3583Y-3.7795
X6.3583Y-3.8189
X6.3583Y-3.8583
X6.3583Y-3.8976
X6.3583Y-3.937
X6.3583Y-3.9764
X6.3583Y-4.0157
X6.3583Y-4.0551
X6.3583Y-4.0945
X6.3583Y-4.1339
X6.3583Y-4.1732
X6.3583Y-4.2126
X6.3976Y-3.0709
X6.3976Y-3.1102
X6.3976Y-3.1496
X6.3976Y-3.189
X6.3976Y-3.2283
X6.3976Y-3.2677
X6.3976Y-3.3071
X6.3976Y-3.3465
X6.3976Y-3.3858
X6.3976Y-3.4252
X6.3976Y-3.4646
X6.3976Y-3.5039
X6.3976Y-3.5433
X6.3976Y-3.5827
X6.3976Y-3.622
X6.3976Y-3.6614
X6.3976Y-3.7008
X6.3976Y-3.7402
X6.3976Y-3.7795
X6.3976Y-3.8189
X6.3976Y-3.8583
X6.3976Y-3.8976
X6.3976Y-3.937
X6.3976Y-3.9764
X6.3976Y-4.0157
X6.3976Y-4.0551
X6.3976Y-4.0945
X6.3976Y-4.1339
X6.3976Y-4.1732
X6.3976Y-4.2126
X6.4173Y-2.2047
X6.437Y-3.0709
X6.437Y-3.1102
X6.437Y-3.1496
X6.437Y-3.189
X6.437Y-3.2283
X6.437Y-3.2677
X6.437Y-3.3071
X6.437Y-3.3465
X6.437Y-3.3858
X6.437Y-3.4252
X6.437Y-3.4646
X6.437Y-3.5039
X6.437Y-3.5433
X6.437Y-3.5827
X6.437Y-3.622
X6.437Y-3.6614
X6.437Y-3.7008
X6.437Y-3.7402
X6.437Y-3.7795
X6.437Y-3.8189
X6.437Y-3.8583
X6.437Y-3.8976
X6.437Y-3.937
X6.437Y-3.9764
X6.437Y-4.0157
X6.437Y-4.0551
X6.437Y-4.0945
X6.437Y-4.1339
X6.437Y-4.1732
X6.437Y-4.2126
X6.4562Y-2.1151
X6.4581Y-2.2252
X6.4961Y-2.5394
X6.5047Y-3.0407
X6.619Y-2.1819
X6.6535Y-2.3228
X6.6535Y-2.3622
X6.6732Y-4.626
X6.6929Y-2.3425
X6.6929Y-4.4488
X6.7323Y-2.8346
X6.7323Y-3.878
X6.752Y-3.7992
X6.7649Y-2.6406
X6.7717Y-2.9528
X6.7717Y-3.0118
X6.811Y-2.3425
X6.811Y-2.815
X6.811Y-3.2087
X6.8307Y-3.7402
X6.8504Y-3.9173
X6.8504Y-3.9173
X6.8582Y-2.6584
X6.8701Y-2.9134
X6.8898Y-3.1693
X6.8898Y-3.4646
X6.9291Y-2.0669
X6.9291Y-2.1654
X6.9488Y-4.6654
X6.9685Y-3.4646
X6.9882Y-3.0709
X6.9882Y-3.7008
X7.0079Y-2.2047
X7.0079Y-2.7756
X7.0112Y-2.4089
X7.0866Y-2.0669
X7.0866Y-3.4055
X7.0866Y-3.8386
X7.1063Y-2.2244
X7.1063Y-2.6575
X7.126Y-3.2283
X7.126Y-3.7402
X7.1654Y-2.5
X7.1654Y-2.7362
X7.185Y-3.0315
X7.185Y-3.1102
X7.2047Y-3.3465
X7.2047Y-3.5236
X7.2244Y-2.2441
X7.2441Y-2.0866
X7.2441Y-3.7205
X7.2638Y-3.4252
X7.3031Y-2.0866
X7.3425Y-2.1457
X7.3622Y-2.0276
X7.5197Y-2.0866
X7.5197Y-4.6063
X7.7559Y-2.3228
X7.815Y-4.4094
X7.815Y-4.5866
T2
X5.748Y-3.563
T4
X7.5984Y-2.4213
X7.5984Y-2.6772
X7.5984Y-2.9331
X7.5984Y-3.189
X7.5984Y-3.4449
X7.6969Y-2.4213
X7.6969Y-2.6772
X7.6969Y-2.9331
X7.6969Y-3.189
X7.6969Y-3.4449
X7.7953Y-2.4213
X7.7953Y-2.6772
X7.7953Y-2.9331
X7.7953Y-3.189
X7.7953Y-3.4449
T5
X5.1575Y-3.8052
X5.1575Y-3.943
T6
X4.5602Y-2.0826
X4.6602Y-2.0826
T7
X4.1535Y-2.4265
X4.1535Y-2.6233
X4.1535Y-2.8491
X4.1535Y-3.046
X4.8228Y-2.0866
X4.9213Y-2.0866
X5.9751Y-2.0593
X5.9751Y-2.1593
X5.9751Y-2.2593
X6.1723Y-2.4016
X6.1723Y-2.5016
X6.1723Y-2.6016
X6.1776Y-2.0587
X6.1776Y-2.1587
X6.1776Y-2.2587
X6.3759Y-2.0584
X6.3759Y-2.1584
X6.3759Y-2.2584
X6.378Y-2.4016
X6.378Y-2.5016
X6.378Y-2.6016
X7.6559Y-3.671
X7.6559Y-3.771
X7.6559Y-3.871
X7.6559Y-3.971
X7.6559Y-4.071
X7.6559Y-4.171
X7.6559Y-4.271
X7.7559Y-3.671
X7.7559Y-3.771
X7.7559Y-3.871
X7.7559Y-3.971
X7.7559Y-4.071
X7.7559Y-4.171
X7.7559Y-4.271
T8
X5.175Y-3.2465
X5.175Y-3.3465
X5.175Y-3.4465
T9
X6.5409Y-2.0866
X6.5409Y-2.1866
X6.5409Y-2.2866
X6.5409Y-2.3866
X6.5409Y-2.4866
X6.5409Y-2.5866
X6.5409Y-2.6866
X6.5409Y-2.7866
X6.5409Y-2.8866
X6.5409Y-2.9866
X6.5409Y-3.0866
X6.5409Y-3.1866
X6.5409Y-3.2866
X6.5409Y-3.3866
X6.5409Y-3.4866
X6.5409Y-3.5866
X6.5409Y-3.6866
X6.5409Y-3.7866
X6.5409Y-3.8866
X6.5409Y-3.9866
X6.5409Y-4.0866
X7.4409Y-2.0866
X7.4409Y-2.1866
X7.4409Y-2.2866
X7.4409Y-2.3866
X7.4409Y-2.4866
X7.4409Y-2.5866
X7.4409Y-2.6866
X7.4409Y-2.7866
X7.4409Y-2.8866
X7.4409Y-2.9866
X7.4409Y-3.0866
X7.4409Y-3.1866
X7.4409Y-3.2866
X7.4409Y-3.3866
X7.4409Y-3.4866
X7.4409Y-3.5866
X7.4409Y-3.6866
X7.4409Y-3.7866
X7.4409Y-3.8866
X7.4409Y-3.9866
X7.4409Y-4.0866
T10
X5.5606Y-4.2814
X5.7606Y-4.2814
T12
X5.2579Y-2.9035
X5.687Y-2.9035
T13
X5.2323Y-4.5472
X5.5157Y-4.5472
X5.8819Y-4.5472
X6.1654Y-4.5472
X6.5315Y-4.5472
X6.815Y-4.5472
T3
G00X5.1004Y-2.5138
M15
G01X5.1004Y-2.5531
M16
G05
G00X5.8445Y-2.5138
M15
G01X5.8445Y-2.5531
M16
G05
T8
G00X5.5925Y-3.7067
M15
G01X5.5925Y-3.4902
M16
G05
G00X6.2579Y-3.7067
M15
G01X6.2579Y-3.4902
M16
G05
T11
G00X6.0925Y-3.2677
M15
G01X5.7579Y-3.2677
M16
G05
G00X5.9252Y-4.1398
M15
G01X5.9252Y-3.8051
M16
G05
M30
