%TF.GenerationSoftware,KiCad,Pcbnew,8.0.4*%
%TF.CreationDate,2024-09-03T11:52:29+09:00*%
%TF.ProjectId,chibarobo_board_2024,63686962-6172-46f6-926f-5f626f617264,rev?*%
%TF.SameCoordinates,Original*%
%TF.FileFunction,Paste,Bot*%
%TF.FilePolarity,Positive*%
%FSLAX46Y46*%
G04 Gerber Fmt 4.6, Leading zero omitted, Abs format (unit mm)*
G04 Created by KiCad (PCBNEW 8.0.4) date 2024-09-03 11:52:29*
%MOMM*%
%LPD*%
G01*
G04 APERTURE LIST*
G04 Aperture macros list*
%AMRoundRect*
0 Rectangle with rounded corners*
0 $1 Rounding radius*
0 $2 $3 $4 $5 $6 $7 $8 $9 X,Y pos of 4 corners*
0 Add a 4 corners polygon primitive as box body*
4,1,4,$2,$3,$4,$5,$6,$7,$8,$9,$2,$3,0*
0 Add four circle primitives for the rounded corners*
1,1,$1+$1,$2,$3*
1,1,$1+$1,$4,$5*
1,1,$1+$1,$6,$7*
1,1,$1+$1,$8,$9*
0 Add four rect primitives between the rounded corners*
20,1,$1+$1,$2,$3,$4,$5,0*
20,1,$1+$1,$4,$5,$6,$7,0*
20,1,$1+$1,$6,$7,$8,$9,0*
20,1,$1+$1,$8,$9,$2,$3,0*%
G04 Aperture macros list end*
%ADD10RoundRect,0.200000X-0.275000X0.200000X-0.275000X-0.200000X0.275000X-0.200000X0.275000X0.200000X0*%
%ADD11RoundRect,0.225000X0.250000X-0.225000X0.250000X0.225000X-0.250000X0.225000X-0.250000X-0.225000X0*%
%ADD12RoundRect,0.200000X-0.200000X-0.275000X0.200000X-0.275000X0.200000X0.275000X-0.200000X0.275000X0*%
%ADD13RoundRect,0.200000X0.250000X0.200000X-0.250000X0.200000X-0.250000X-0.200000X0.250000X-0.200000X0*%
%ADD14RoundRect,0.225000X-0.250000X0.225000X-0.250000X-0.225000X0.250000X-0.225000X0.250000X0.225000X0*%
%ADD15R,0.850000X0.300000*%
%ADD16R,2.286000X1.397000*%
%ADD17R,6.180000X5.690000*%
%ADD18RoundRect,0.137500X0.137500X-0.662500X0.137500X0.662500X-0.137500X0.662500X-0.137500X-0.662500X0*%
%ADD19RoundRect,0.200000X0.200000X0.275000X-0.200000X0.275000X-0.200000X-0.275000X0.200000X-0.275000X0*%
%ADD20RoundRect,0.200000X0.275000X-0.200000X0.275000X0.200000X-0.275000X0.200000X-0.275000X-0.200000X0*%
%ADD21R,0.700000X1.775000*%
%ADD22RoundRect,0.225000X-0.225000X-0.250000X0.225000X-0.250000X0.225000X0.250000X-0.225000X0.250000X0*%
%ADD23RoundRect,0.112500X0.187500X0.112500X-0.187500X0.112500X-0.187500X-0.112500X0.187500X-0.112500X0*%
%ADD24RoundRect,0.125000X0.125000X0.125000X-0.125000X0.125000X-0.125000X-0.125000X0.125000X-0.125000X0*%
%ADD25RoundRect,0.125000X0.125000X-0.125000X0.125000X0.125000X-0.125000X0.125000X-0.125000X-0.125000X0*%
%ADD26RoundRect,0.250000X0.250000X0.475000X-0.250000X0.475000X-0.250000X-0.475000X0.250000X-0.475000X0*%
%ADD27R,1.450000X0.600000*%
%ADD28RoundRect,0.225000X0.225000X0.250000X-0.225000X0.250000X-0.225000X-0.250000X0.225000X-0.250000X0*%
%ADD29RoundRect,0.250000X-0.375000X-0.625000X0.375000X-0.625000X0.375000X0.625000X-0.375000X0.625000X0*%
%ADD30RoundRect,0.250000X0.312500X0.625000X-0.312500X0.625000X-0.312500X-0.625000X0.312500X-0.625000X0*%
%ADD31R,0.600000X1.450000*%
%ADD32R,0.700000X1.525000*%
%ADD33R,0.800000X0.300000*%
%ADD34RoundRect,0.137500X-0.662500X-0.137500X0.662500X-0.137500X0.662500X0.137500X-0.662500X0.137500X0*%
%ADD35R,0.600000X1.200000*%
%ADD36R,0.939800X1.320800*%
%ADD37R,6.604000X7.315200*%
%ADD38R,12.000000X3.000000*%
G04 APERTURE END LIST*
D10*
%TO.C,R7*%
X140500000Y-99681981D03*
X140500000Y-101331981D03*
%TD*%
D11*
%TO.C,C17*%
X121213802Y-61097364D03*
X121213802Y-59547364D03*
%TD*%
D10*
%TO.C,R29*%
X168000000Y-68675000D03*
X168000000Y-70325000D03*
%TD*%
D12*
%TO.C,R20*%
X172175000Y-62500000D03*
X173825000Y-62500000D03*
%TD*%
D13*
%TO.C,Q3*%
X174400000Y-58550000D03*
X174400000Y-60450000D03*
X172000000Y-59500000D03*
%TD*%
D14*
%TO.C,C9*%
X128500000Y-77725000D03*
X128500000Y-79275000D03*
%TD*%
%TO.C,C14*%
X131491802Y-60035542D03*
X131491802Y-61585542D03*
%TD*%
D10*
%TO.C,R31*%
X168000000Y-71675000D03*
X168000000Y-73325000D03*
%TD*%
D12*
%TO.C,R51*%
X114175000Y-66000000D03*
X115825000Y-66000000D03*
%TD*%
D15*
%TO.C,IC5*%
X130075000Y-59000000D03*
X130075000Y-59500000D03*
X130075000Y-60000000D03*
X130075000Y-60500000D03*
X126925000Y-60500000D03*
X126925000Y-60000000D03*
X126925000Y-59500000D03*
X126925000Y-59000000D03*
%TD*%
D16*
%TO.C,Q12*%
X146000000Y-93000000D03*
D17*
X152436000Y-90714000D03*
D16*
X146000000Y-88428000D03*
%TD*%
D13*
%TO.C,Q8*%
X114150000Y-61550000D03*
X114150000Y-63450000D03*
X111750000Y-62500000D03*
%TD*%
D10*
%TO.C,R60*%
X155787095Y-71776873D03*
X155787095Y-73426873D03*
%TD*%
D18*
%TO.C,U2*%
X170270000Y-62750000D03*
X169000000Y-62750000D03*
X169000000Y-56250000D03*
X170270000Y-56250000D03*
%TD*%
D14*
%TO.C,C2*%
X138500000Y-96491895D03*
X138500000Y-98041895D03*
%TD*%
D19*
%TO.C,R3*%
X133825000Y-93000000D03*
X132175000Y-93000000D03*
%TD*%
D11*
%TO.C,C1*%
X136500000Y-98050000D03*
X136500000Y-96500000D03*
%TD*%
D19*
%TO.C,R47*%
X113825000Y-52500000D03*
X112175000Y-52500000D03*
%TD*%
D14*
%TO.C,C6*%
X143000000Y-96725000D03*
X143000000Y-98275000D03*
%TD*%
D20*
%TO.C,R13*%
X163980142Y-55355216D03*
X163980142Y-53705216D03*
%TD*%
D10*
%TO.C,R6*%
X140515499Y-96446313D03*
X140515499Y-98096313D03*
%TD*%
D12*
%TO.C,R1*%
X133500000Y-103000000D03*
X135150000Y-103000000D03*
%TD*%
D21*
%TO.C,IC3*%
X120810000Y-78538000D03*
X119540000Y-78538000D03*
X118270000Y-78538000D03*
X117000000Y-78538000D03*
X115730000Y-78538000D03*
X114460000Y-78538000D03*
X113190000Y-78538000D03*
X113190000Y-71462000D03*
X114460000Y-71462000D03*
X115730000Y-71462000D03*
X117000000Y-71462000D03*
X118270000Y-71462000D03*
X119540000Y-71462000D03*
X120810000Y-71462000D03*
%TD*%
D22*
%TO.C,C18*%
X127450000Y-62000000D03*
X129000000Y-62000000D03*
%TD*%
D20*
%TO.C,R41*%
X123075000Y-61325000D03*
X123075000Y-59675000D03*
%TD*%
D10*
%TO.C,R36*%
X128500000Y-74675000D03*
X128500000Y-76325000D03*
%TD*%
%TO.C,R58*%
X143000000Y-60675000D03*
X143000000Y-62325000D03*
%TD*%
D12*
%TO.C,R48*%
X118175000Y-62557176D03*
X119825000Y-62557176D03*
%TD*%
D13*
%TO.C,Q6*%
X174400000Y-64600000D03*
X174400000Y-66500000D03*
X172000000Y-65550000D03*
%TD*%
D11*
%TO.C,C7*%
X130500000Y-92275000D03*
X130500000Y-90725000D03*
%TD*%
D12*
%TO.C,R56*%
X139042214Y-74029487D03*
X140692214Y-74029487D03*
%TD*%
D23*
%TO.C,D9*%
X153054674Y-71055664D03*
X150954674Y-71055664D03*
%TD*%
D11*
%TO.C,C15*%
X108500000Y-56775000D03*
X108500000Y-55225000D03*
%TD*%
D12*
%TO.C,R49*%
X117175000Y-66000000D03*
X118825000Y-66000000D03*
%TD*%
D11*
%TO.C,C10*%
X133000000Y-68275000D03*
X133000000Y-66725000D03*
%TD*%
D24*
%TO.C,D7*%
X122206320Y-64500000D03*
X120006320Y-64500000D03*
%TD*%
D14*
%TO.C,C13*%
X123500000Y-72725000D03*
X123500000Y-74275000D03*
%TD*%
D25*
%TO.C,D4*%
X125047660Y-61607385D03*
X125047660Y-59407385D03*
%TD*%
D20*
%TO.C,R21*%
X176000000Y-67825000D03*
X176000000Y-66175000D03*
%TD*%
%TO.C,R12*%
X176000000Y-64650000D03*
X176000000Y-63000000D03*
%TD*%
D12*
%TO.C,R23*%
X172175000Y-68500000D03*
X173825000Y-68500000D03*
%TD*%
D26*
%TO.C,C12*%
X139950000Y-72000000D03*
X138050000Y-72000000D03*
%TD*%
D20*
%TO.C,R2*%
X136500000Y-101325000D03*
X136500000Y-99675000D03*
%TD*%
D25*
%TO.C,D6*%
X112000000Y-67100000D03*
X112000000Y-64900000D03*
%TD*%
D12*
%TO.C,R39*%
X129500000Y-55500000D03*
X131150000Y-55500000D03*
%TD*%
D27*
%TO.C,Q14*%
X159800000Y-74050000D03*
X159800000Y-75950000D03*
X157500000Y-75000000D03*
%TD*%
D20*
%TO.C,R24*%
X175992653Y-71018825D03*
X175992653Y-69368825D03*
%TD*%
D12*
%TO.C,R59*%
X143175000Y-66000000D03*
X144825000Y-66000000D03*
%TD*%
D20*
%TO.C,R46*%
X114494934Y-60012836D03*
X114494934Y-58362836D03*
%TD*%
D28*
%TO.C,C11*%
X125032379Y-75790854D03*
X123482379Y-75790854D03*
%TD*%
D10*
%TO.C,R35*%
X168000000Y-77675000D03*
X168000000Y-79325000D03*
%TD*%
%TO.C,R43*%
X110000000Y-55175000D03*
X110000000Y-56825000D03*
%TD*%
D22*
%TO.C,C16*%
X123035342Y-57008178D03*
X124585342Y-57008178D03*
%TD*%
D27*
%TO.C,Q11*%
X150650000Y-78050000D03*
X150650000Y-79950000D03*
X148350000Y-79000000D03*
%TD*%
D13*
%TO.C,Q7*%
X174400000Y-70550000D03*
X174400000Y-72450000D03*
X172000000Y-71500000D03*
%TD*%
D29*
%TO.C,F1*%
X142600000Y-68500000D03*
X145400000Y-68500000D03*
%TD*%
D30*
%TO.C,R57*%
X141962500Y-86000000D03*
X139037500Y-86000000D03*
%TD*%
D10*
%TO.C,R40*%
X131500000Y-57000000D03*
X131500000Y-58650000D03*
%TD*%
D12*
%TO.C,R54*%
X134175000Y-82000000D03*
X135825000Y-82000000D03*
%TD*%
D19*
%TO.C,R9*%
X133825000Y-90000000D03*
X132175000Y-90000000D03*
%TD*%
D10*
%TO.C,R53*%
X126000000Y-72686152D03*
X126000000Y-74336152D03*
%TD*%
D31*
%TO.C,Q10*%
X119450000Y-60800000D03*
X117550000Y-60800000D03*
X118500000Y-58500000D03*
%TD*%
D19*
%TO.C,R44*%
X127825000Y-55500000D03*
X126175000Y-55500000D03*
%TD*%
D23*
%TO.C,D8*%
X143550000Y-78500000D03*
X141450000Y-78500000D03*
%TD*%
D32*
%TO.C,IC2*%
X139405000Y-94212000D03*
X138135000Y-94212000D03*
X136865000Y-94212000D03*
X135595000Y-94212000D03*
X135595000Y-88788000D03*
X136865000Y-88788000D03*
X138135000Y-88788000D03*
X139405000Y-88788000D03*
%TD*%
D12*
%TO.C,R38*%
X124675000Y-80000000D03*
X126325000Y-80000000D03*
%TD*%
D33*
%TO.C,U7*%
X126550000Y-77250000D03*
X126550000Y-77750000D03*
X126550000Y-78250000D03*
X126550000Y-78750000D03*
X123450000Y-78750000D03*
X123450000Y-78250000D03*
X123450000Y-77750000D03*
X123450000Y-77250000D03*
%TD*%
D34*
%TO.C,U8*%
X114250000Y-69135000D03*
X114250000Y-67865000D03*
X120750000Y-67865000D03*
X120750000Y-69135000D03*
%TD*%
D10*
%TO.C,R27*%
X168000000Y-65675000D03*
X168000000Y-67325000D03*
%TD*%
D19*
%TO.C,R45*%
X124650000Y-55500000D03*
X123000000Y-55500000D03*
%TD*%
D11*
%TO.C,C3*%
X138508397Y-101270049D03*
X138508397Y-99720049D03*
%TD*%
D10*
%TO.C,R42*%
X111757701Y-58375540D03*
X111757701Y-60025540D03*
%TD*%
D35*
%TO.C,U1*%
X126050000Y-89750000D03*
X127000000Y-89750000D03*
X127950000Y-89750000D03*
X127950000Y-92250000D03*
X127000000Y-92250000D03*
X126050000Y-92250000D03*
%TD*%
D19*
%TO.C,R55*%
X133650000Y-80000000D03*
X132000000Y-80000000D03*
%TD*%
%TO.C,R10*%
X137551657Y-87032933D03*
X135901657Y-87032933D03*
%TD*%
D36*
%TO.C,IC4*%
X140444475Y-68403859D03*
D37*
X138183875Y-61952259D03*
D36*
X135923275Y-68403859D03*
%TD*%
D38*
%TO.C,L1*%
X109500000Y-85600000D03*
X109500000Y-106400000D03*
%TD*%
D12*
%TO.C,R11*%
X172175000Y-56500000D03*
X173825000Y-56500000D03*
%TD*%
D10*
%TO.C,R33*%
X168000000Y-74675000D03*
X168000000Y-76325000D03*
%TD*%
D12*
%TO.C,R52*%
X122538694Y-67672970D03*
X124188694Y-67672970D03*
%TD*%
D27*
%TO.C,Q9*%
X111750000Y-56800000D03*
X111750000Y-54900000D03*
X114050000Y-55850000D03*
%TD*%
D19*
%TO.C,R50*%
X118825904Y-64495647D03*
X117175904Y-64495647D03*
%TD*%
M02*
