%TF.GenerationSoftware,KiCad,Pcbnew,8.0.4*%
%TF.CreationDate,2024-09-03T11:52:29+09:00*%
%TF.ProjectId,chibarobo_board_2024,63686962-6172-46f6-926f-5f626f617264,rev?*%
%TF.SameCoordinates,Original*%
%TF.FileFunction,Legend,Bot*%
%TF.FilePolarity,Positive*%
%FSLAX46Y46*%
G04 Gerber Fmt 4.6, Leading zero omitted, Abs format (unit mm)*
G04 Created by KiCad (PCBNEW 8.0.4) date 2024-09-03 11:52:29*
%MOMM*%
%LPD*%
G01*
G04 APERTURE LIST*
%ADD10C,0.100000*%
%ADD11C,0.150000*%
%ADD12C,0.254000*%
%ADD13C,0.120000*%
%ADD14C,0.200000*%
%ADD15C,0.152400*%
G04 APERTURE END LIST*
D10*
X150586911Y-51280750D02*
X163086911Y-51280750D01*
X163086911Y-53280750D01*
X150586911Y-53280750D01*
X150586911Y-51280750D01*
X150580194Y-53807501D02*
X163080194Y-53807501D01*
X163080194Y-55807501D01*
X150580194Y-55807501D01*
X150580194Y-53807501D01*
X155621002Y-60012586D02*
X163121002Y-60012586D01*
X163121002Y-62012586D01*
X155621002Y-62012586D01*
X155621002Y-60012586D01*
X150560141Y-56377527D02*
X163060141Y-56377527D01*
X163060141Y-58377527D01*
X150560141Y-58377527D01*
X150560141Y-56377527D01*
X155667807Y-65072605D02*
X163167807Y-65072605D01*
X163167807Y-67072605D01*
X155667807Y-67072605D01*
X155667807Y-65072605D01*
X155647753Y-62525801D02*
X163147753Y-62525801D01*
X163147753Y-64525801D01*
X155647753Y-64525801D01*
X155647753Y-62525801D01*
D11*
X149850633Y-58033332D02*
X149883966Y-58099999D01*
X149883966Y-58099999D02*
X149883966Y-58199999D01*
X149883966Y-58199999D02*
X149850633Y-58299999D01*
X149850633Y-58299999D02*
X149783966Y-58366666D01*
X149783966Y-58366666D02*
X149717300Y-58399999D01*
X149717300Y-58399999D02*
X149583966Y-58433332D01*
X149583966Y-58433332D02*
X149483966Y-58433332D01*
X149483966Y-58433332D02*
X149350633Y-58399999D01*
X149350633Y-58399999D02*
X149283966Y-58366666D01*
X149283966Y-58366666D02*
X149217300Y-58299999D01*
X149217300Y-58299999D02*
X149183966Y-58199999D01*
X149183966Y-58199999D02*
X149183966Y-58133332D01*
X149183966Y-58133332D02*
X149217300Y-58033332D01*
X149217300Y-58033332D02*
X149250633Y-57999999D01*
X149250633Y-57999999D02*
X149483966Y-57999999D01*
X149483966Y-57999999D02*
X149483966Y-58133332D01*
X149183966Y-57699999D02*
X149883966Y-57699999D01*
X149883966Y-57699999D02*
X149183966Y-57299999D01*
X149183966Y-57299999D02*
X149883966Y-57299999D01*
X149183966Y-56966666D02*
X149883966Y-56966666D01*
X149883966Y-56966666D02*
X149883966Y-56799999D01*
X149883966Y-56799999D02*
X149850633Y-56699999D01*
X149850633Y-56699999D02*
X149783966Y-56633333D01*
X149783966Y-56633333D02*
X149717300Y-56599999D01*
X149717300Y-56599999D02*
X149583966Y-56566666D01*
X149583966Y-56566666D02*
X149483966Y-56566666D01*
X149483966Y-56566666D02*
X149350633Y-56599999D01*
X149350633Y-56599999D02*
X149283966Y-56633333D01*
X149283966Y-56633333D02*
X149217300Y-56699999D01*
X149217300Y-56699999D02*
X149183966Y-56799999D01*
X149183966Y-56799999D02*
X149183966Y-56966666D01*
X154850633Y-61533332D02*
X154883966Y-61599999D01*
X154883966Y-61599999D02*
X154883966Y-61699999D01*
X154883966Y-61699999D02*
X154850633Y-61799999D01*
X154850633Y-61799999D02*
X154783966Y-61866666D01*
X154783966Y-61866666D02*
X154717300Y-61899999D01*
X154717300Y-61899999D02*
X154583966Y-61933332D01*
X154583966Y-61933332D02*
X154483966Y-61933332D01*
X154483966Y-61933332D02*
X154350633Y-61899999D01*
X154350633Y-61899999D02*
X154283966Y-61866666D01*
X154283966Y-61866666D02*
X154217300Y-61799999D01*
X154217300Y-61799999D02*
X154183966Y-61699999D01*
X154183966Y-61699999D02*
X154183966Y-61633332D01*
X154183966Y-61633332D02*
X154217300Y-61533332D01*
X154217300Y-61533332D02*
X154250633Y-61499999D01*
X154250633Y-61499999D02*
X154483966Y-61499999D01*
X154483966Y-61499999D02*
X154483966Y-61633332D01*
X154183966Y-61199999D02*
X154883966Y-61199999D01*
X154883966Y-61199999D02*
X154183966Y-60799999D01*
X154183966Y-60799999D02*
X154883966Y-60799999D01*
X154183966Y-60466666D02*
X154883966Y-60466666D01*
X154883966Y-60466666D02*
X154883966Y-60299999D01*
X154883966Y-60299999D02*
X154850633Y-60199999D01*
X154850633Y-60199999D02*
X154783966Y-60133333D01*
X154783966Y-60133333D02*
X154717300Y-60099999D01*
X154717300Y-60099999D02*
X154583966Y-60066666D01*
X154583966Y-60066666D02*
X154483966Y-60066666D01*
X154483966Y-60066666D02*
X154350633Y-60099999D01*
X154350633Y-60099999D02*
X154283966Y-60133333D01*
X154283966Y-60133333D02*
X154217300Y-60199999D01*
X154217300Y-60199999D02*
X154183966Y-60299999D01*
X154183966Y-60299999D02*
X154183966Y-60466666D01*
X154883966Y-64433333D02*
X154183966Y-64200000D01*
X154183966Y-64200000D02*
X154883966Y-63966666D01*
X154250633Y-63333333D02*
X154217300Y-63366666D01*
X154217300Y-63366666D02*
X154183966Y-63466666D01*
X154183966Y-63466666D02*
X154183966Y-63533333D01*
X154183966Y-63533333D02*
X154217300Y-63633333D01*
X154217300Y-63633333D02*
X154283966Y-63700000D01*
X154283966Y-63700000D02*
X154350633Y-63733333D01*
X154350633Y-63733333D02*
X154483966Y-63766666D01*
X154483966Y-63766666D02*
X154583966Y-63766666D01*
X154583966Y-63766666D02*
X154717300Y-63733333D01*
X154717300Y-63733333D02*
X154783966Y-63700000D01*
X154783966Y-63700000D02*
X154850633Y-63633333D01*
X154850633Y-63633333D02*
X154883966Y-63533333D01*
X154883966Y-63533333D02*
X154883966Y-63466666D01*
X154883966Y-63466666D02*
X154850633Y-63366666D01*
X154850633Y-63366666D02*
X154817300Y-63333333D01*
X154250633Y-62633333D02*
X154217300Y-62666666D01*
X154217300Y-62666666D02*
X154183966Y-62766666D01*
X154183966Y-62766666D02*
X154183966Y-62833333D01*
X154183966Y-62833333D02*
X154217300Y-62933333D01*
X154217300Y-62933333D02*
X154283966Y-63000000D01*
X154283966Y-63000000D02*
X154350633Y-63033333D01*
X154350633Y-63033333D02*
X154483966Y-63066666D01*
X154483966Y-63066666D02*
X154583966Y-63066666D01*
X154583966Y-63066666D02*
X154717300Y-63033333D01*
X154717300Y-63033333D02*
X154783966Y-63000000D01*
X154783966Y-63000000D02*
X154850633Y-62933333D01*
X154850633Y-62933333D02*
X154883966Y-62833333D01*
X154883966Y-62833333D02*
X154883966Y-62766666D01*
X154883966Y-62766666D02*
X154850633Y-62666666D01*
X154850633Y-62666666D02*
X154817300Y-62633333D01*
X149883966Y-55933333D02*
X149183966Y-55700000D01*
X149183966Y-55700000D02*
X149883966Y-55466666D01*
X149250633Y-54833333D02*
X149217300Y-54866666D01*
X149217300Y-54866666D02*
X149183966Y-54966666D01*
X149183966Y-54966666D02*
X149183966Y-55033333D01*
X149183966Y-55033333D02*
X149217300Y-55133333D01*
X149217300Y-55133333D02*
X149283966Y-55200000D01*
X149283966Y-55200000D02*
X149350633Y-55233333D01*
X149350633Y-55233333D02*
X149483966Y-55266666D01*
X149483966Y-55266666D02*
X149583966Y-55266666D01*
X149583966Y-55266666D02*
X149717300Y-55233333D01*
X149717300Y-55233333D02*
X149783966Y-55200000D01*
X149783966Y-55200000D02*
X149850633Y-55133333D01*
X149850633Y-55133333D02*
X149883966Y-55033333D01*
X149883966Y-55033333D02*
X149883966Y-54966666D01*
X149883966Y-54966666D02*
X149850633Y-54866666D01*
X149850633Y-54866666D02*
X149817300Y-54833333D01*
X149250633Y-54133333D02*
X149217300Y-54166666D01*
X149217300Y-54166666D02*
X149183966Y-54266666D01*
X149183966Y-54266666D02*
X149183966Y-54333333D01*
X149183966Y-54333333D02*
X149217300Y-54433333D01*
X149217300Y-54433333D02*
X149283966Y-54500000D01*
X149283966Y-54500000D02*
X149350633Y-54533333D01*
X149350633Y-54533333D02*
X149483966Y-54566666D01*
X149483966Y-54566666D02*
X149583966Y-54566666D01*
X149583966Y-54566666D02*
X149717300Y-54533333D01*
X149717300Y-54533333D02*
X149783966Y-54500000D01*
X149783966Y-54500000D02*
X149850633Y-54433333D01*
X149850633Y-54433333D02*
X149883966Y-54333333D01*
X149883966Y-54333333D02*
X149883966Y-54266666D01*
X149883966Y-54266666D02*
X149850633Y-54166666D01*
X149850633Y-54166666D02*
X149817300Y-54133333D01*
X149183966Y-53483333D02*
X149883966Y-53483333D01*
X149883966Y-53483333D02*
X149883966Y-53216666D01*
X149883966Y-53216666D02*
X149850633Y-53150000D01*
X149850633Y-53150000D02*
X149817300Y-53116666D01*
X149817300Y-53116666D02*
X149750633Y-53083333D01*
X149750633Y-53083333D02*
X149650633Y-53083333D01*
X149650633Y-53083333D02*
X149583966Y-53116666D01*
X149583966Y-53116666D02*
X149550633Y-53150000D01*
X149550633Y-53150000D02*
X149517300Y-53216666D01*
X149517300Y-53216666D02*
X149517300Y-53483333D01*
X149883966Y-52850000D02*
X149183966Y-52683333D01*
X149183966Y-52683333D02*
X149683966Y-52550000D01*
X149683966Y-52550000D02*
X149183966Y-52416666D01*
X149183966Y-52416666D02*
X149883966Y-52250000D01*
X149183966Y-51983333D02*
X149883966Y-51983333D01*
X149883966Y-51983333D02*
X149383966Y-51750000D01*
X149383966Y-51750000D02*
X149883966Y-51516666D01*
X149883966Y-51516666D02*
X149183966Y-51516666D01*
X154183966Y-66983333D02*
X154883966Y-66983333D01*
X154883966Y-66983333D02*
X154883966Y-66716666D01*
X154883966Y-66716666D02*
X154850633Y-66650000D01*
X154850633Y-66650000D02*
X154817300Y-66616666D01*
X154817300Y-66616666D02*
X154750633Y-66583333D01*
X154750633Y-66583333D02*
X154650633Y-66583333D01*
X154650633Y-66583333D02*
X154583966Y-66616666D01*
X154583966Y-66616666D02*
X154550633Y-66650000D01*
X154550633Y-66650000D02*
X154517300Y-66716666D01*
X154517300Y-66716666D02*
X154517300Y-66983333D01*
X154883966Y-66350000D02*
X154183966Y-66183333D01*
X154183966Y-66183333D02*
X154683966Y-66050000D01*
X154683966Y-66050000D02*
X154183966Y-65916666D01*
X154183966Y-65916666D02*
X154883966Y-65750000D01*
X154183966Y-65483333D02*
X154883966Y-65483333D01*
X154883966Y-65483333D02*
X154383966Y-65250000D01*
X154383966Y-65250000D02*
X154883966Y-65016666D01*
X154883966Y-65016666D02*
X154183966Y-65016666D01*
X139524819Y-100340314D02*
X139048628Y-100006981D01*
X139524819Y-99768886D02*
X138524819Y-99768886D01*
X138524819Y-99768886D02*
X138524819Y-100149838D01*
X138524819Y-100149838D02*
X138572438Y-100245076D01*
X138572438Y-100245076D02*
X138620057Y-100292695D01*
X138620057Y-100292695D02*
X138715295Y-100340314D01*
X138715295Y-100340314D02*
X138858152Y-100340314D01*
X138858152Y-100340314D02*
X138953390Y-100292695D01*
X138953390Y-100292695D02*
X139001009Y-100245076D01*
X139001009Y-100245076D02*
X139048628Y-100149838D01*
X139048628Y-100149838D02*
X139048628Y-99768886D01*
X138524819Y-100673648D02*
X138524819Y-101340314D01*
X138524819Y-101340314D02*
X139524819Y-100911743D01*
X123003382Y-59679506D02*
X123051002Y-59631887D01*
X123051002Y-59631887D02*
X123098621Y-59489030D01*
X123098621Y-59489030D02*
X123098621Y-59393792D01*
X123098621Y-59393792D02*
X123051002Y-59250935D01*
X123051002Y-59250935D02*
X122955763Y-59155697D01*
X122955763Y-59155697D02*
X122860525Y-59108078D01*
X122860525Y-59108078D02*
X122670049Y-59060459D01*
X122670049Y-59060459D02*
X122527192Y-59060459D01*
X122527192Y-59060459D02*
X122336716Y-59108078D01*
X122336716Y-59108078D02*
X122241478Y-59155697D01*
X122241478Y-59155697D02*
X122146240Y-59250935D01*
X122146240Y-59250935D02*
X122098621Y-59393792D01*
X122098621Y-59393792D02*
X122098621Y-59489030D01*
X122098621Y-59489030D02*
X122146240Y-59631887D01*
X122146240Y-59631887D02*
X122193859Y-59679506D01*
X123098621Y-60631887D02*
X123098621Y-60060459D01*
X123098621Y-60346173D02*
X122098621Y-60346173D01*
X122098621Y-60346173D02*
X122241478Y-60250935D01*
X122241478Y-60250935D02*
X122336716Y-60155697D01*
X122336716Y-60155697D02*
X122384335Y-60060459D01*
X122098621Y-60965221D02*
X122098621Y-61631887D01*
X122098621Y-61631887D02*
X123098621Y-61203316D01*
X167024819Y-68857142D02*
X166548628Y-68523809D01*
X167024819Y-68285714D02*
X166024819Y-68285714D01*
X166024819Y-68285714D02*
X166024819Y-68666666D01*
X166024819Y-68666666D02*
X166072438Y-68761904D01*
X166072438Y-68761904D02*
X166120057Y-68809523D01*
X166120057Y-68809523D02*
X166215295Y-68857142D01*
X166215295Y-68857142D02*
X166358152Y-68857142D01*
X166358152Y-68857142D02*
X166453390Y-68809523D01*
X166453390Y-68809523D02*
X166501009Y-68761904D01*
X166501009Y-68761904D02*
X166548628Y-68666666D01*
X166548628Y-68666666D02*
X166548628Y-68285714D01*
X166120057Y-69238095D02*
X166072438Y-69285714D01*
X166072438Y-69285714D02*
X166024819Y-69380952D01*
X166024819Y-69380952D02*
X166024819Y-69619047D01*
X166024819Y-69619047D02*
X166072438Y-69714285D01*
X166072438Y-69714285D02*
X166120057Y-69761904D01*
X166120057Y-69761904D02*
X166215295Y-69809523D01*
X166215295Y-69809523D02*
X166310533Y-69809523D01*
X166310533Y-69809523D02*
X166453390Y-69761904D01*
X166453390Y-69761904D02*
X167024819Y-69190476D01*
X167024819Y-69190476D02*
X167024819Y-69809523D01*
X167024819Y-70285714D02*
X167024819Y-70476190D01*
X167024819Y-70476190D02*
X166977200Y-70571428D01*
X166977200Y-70571428D02*
X166929580Y-70619047D01*
X166929580Y-70619047D02*
X166786723Y-70714285D01*
X166786723Y-70714285D02*
X166596247Y-70761904D01*
X166596247Y-70761904D02*
X166215295Y-70761904D01*
X166215295Y-70761904D02*
X166120057Y-70714285D01*
X166120057Y-70714285D02*
X166072438Y-70666666D01*
X166072438Y-70666666D02*
X166024819Y-70571428D01*
X166024819Y-70571428D02*
X166024819Y-70380952D01*
X166024819Y-70380952D02*
X166072438Y-70285714D01*
X166072438Y-70285714D02*
X166120057Y-70238095D01*
X166120057Y-70238095D02*
X166215295Y-70190476D01*
X166215295Y-70190476D02*
X166453390Y-70190476D01*
X166453390Y-70190476D02*
X166548628Y-70238095D01*
X166548628Y-70238095D02*
X166596247Y-70285714D01*
X166596247Y-70285714D02*
X166643866Y-70380952D01*
X166643866Y-70380952D02*
X166643866Y-70571428D01*
X166643866Y-70571428D02*
X166596247Y-70666666D01*
X166596247Y-70666666D02*
X166548628Y-70714285D01*
X166548628Y-70714285D02*
X166453390Y-70761904D01*
X173642857Y-64384819D02*
X173976190Y-63908628D01*
X174214285Y-64384819D02*
X174214285Y-63384819D01*
X174214285Y-63384819D02*
X173833333Y-63384819D01*
X173833333Y-63384819D02*
X173738095Y-63432438D01*
X173738095Y-63432438D02*
X173690476Y-63480057D01*
X173690476Y-63480057D02*
X173642857Y-63575295D01*
X173642857Y-63575295D02*
X173642857Y-63718152D01*
X173642857Y-63718152D02*
X173690476Y-63813390D01*
X173690476Y-63813390D02*
X173738095Y-63861009D01*
X173738095Y-63861009D02*
X173833333Y-63908628D01*
X173833333Y-63908628D02*
X174214285Y-63908628D01*
X173261904Y-63480057D02*
X173214285Y-63432438D01*
X173214285Y-63432438D02*
X173119047Y-63384819D01*
X173119047Y-63384819D02*
X172880952Y-63384819D01*
X172880952Y-63384819D02*
X172785714Y-63432438D01*
X172785714Y-63432438D02*
X172738095Y-63480057D01*
X172738095Y-63480057D02*
X172690476Y-63575295D01*
X172690476Y-63575295D02*
X172690476Y-63670533D01*
X172690476Y-63670533D02*
X172738095Y-63813390D01*
X172738095Y-63813390D02*
X173309523Y-64384819D01*
X173309523Y-64384819D02*
X172690476Y-64384819D01*
X172071428Y-63384819D02*
X171976190Y-63384819D01*
X171976190Y-63384819D02*
X171880952Y-63432438D01*
X171880952Y-63432438D02*
X171833333Y-63480057D01*
X171833333Y-63480057D02*
X171785714Y-63575295D01*
X171785714Y-63575295D02*
X171738095Y-63765771D01*
X171738095Y-63765771D02*
X171738095Y-64003866D01*
X171738095Y-64003866D02*
X171785714Y-64194342D01*
X171785714Y-64194342D02*
X171833333Y-64289580D01*
X171833333Y-64289580D02*
X171880952Y-64337200D01*
X171880952Y-64337200D02*
X171976190Y-64384819D01*
X171976190Y-64384819D02*
X172071428Y-64384819D01*
X172071428Y-64384819D02*
X172166666Y-64337200D01*
X172166666Y-64337200D02*
X172214285Y-64289580D01*
X172214285Y-64289580D02*
X172261904Y-64194342D01*
X172261904Y-64194342D02*
X172309523Y-64003866D01*
X172309523Y-64003866D02*
X172309523Y-63765771D01*
X172309523Y-63765771D02*
X172261904Y-63575295D01*
X172261904Y-63575295D02*
X172214285Y-63480057D01*
X172214285Y-63480057D02*
X172166666Y-63432438D01*
X172166666Y-63432438D02*
X172071428Y-63384819D01*
X173295238Y-57550057D02*
X173390476Y-57502438D01*
X173390476Y-57502438D02*
X173485714Y-57407200D01*
X173485714Y-57407200D02*
X173628571Y-57264342D01*
X173628571Y-57264342D02*
X173723809Y-57216723D01*
X173723809Y-57216723D02*
X173819047Y-57216723D01*
X173771428Y-57454819D02*
X173866666Y-57407200D01*
X173866666Y-57407200D02*
X173961904Y-57311961D01*
X173961904Y-57311961D02*
X174009523Y-57121485D01*
X174009523Y-57121485D02*
X174009523Y-56788152D01*
X174009523Y-56788152D02*
X173961904Y-56597676D01*
X173961904Y-56597676D02*
X173866666Y-56502438D01*
X173866666Y-56502438D02*
X173771428Y-56454819D01*
X173771428Y-56454819D02*
X173580952Y-56454819D01*
X173580952Y-56454819D02*
X173485714Y-56502438D01*
X173485714Y-56502438D02*
X173390476Y-56597676D01*
X173390476Y-56597676D02*
X173342857Y-56788152D01*
X173342857Y-56788152D02*
X173342857Y-57121485D01*
X173342857Y-57121485D02*
X173390476Y-57311961D01*
X173390476Y-57311961D02*
X173485714Y-57407200D01*
X173485714Y-57407200D02*
X173580952Y-57454819D01*
X173580952Y-57454819D02*
X173771428Y-57454819D01*
X173009523Y-56454819D02*
X172390476Y-56454819D01*
X172390476Y-56454819D02*
X172723809Y-56835771D01*
X172723809Y-56835771D02*
X172580952Y-56835771D01*
X172580952Y-56835771D02*
X172485714Y-56883390D01*
X172485714Y-56883390D02*
X172438095Y-56931009D01*
X172438095Y-56931009D02*
X172390476Y-57026247D01*
X172390476Y-57026247D02*
X172390476Y-57264342D01*
X172390476Y-57264342D02*
X172438095Y-57359580D01*
X172438095Y-57359580D02*
X172485714Y-57407200D01*
X172485714Y-57407200D02*
X172580952Y-57454819D01*
X172580952Y-57454819D02*
X172866666Y-57454819D01*
X172866666Y-57454819D02*
X172961904Y-57407200D01*
X172961904Y-57407200D02*
X173009523Y-57359580D01*
X127429580Y-78333333D02*
X127477200Y-78285714D01*
X127477200Y-78285714D02*
X127524819Y-78142857D01*
X127524819Y-78142857D02*
X127524819Y-78047619D01*
X127524819Y-78047619D02*
X127477200Y-77904762D01*
X127477200Y-77904762D02*
X127381961Y-77809524D01*
X127381961Y-77809524D02*
X127286723Y-77761905D01*
X127286723Y-77761905D02*
X127096247Y-77714286D01*
X127096247Y-77714286D02*
X126953390Y-77714286D01*
X126953390Y-77714286D02*
X126762914Y-77761905D01*
X126762914Y-77761905D02*
X126667676Y-77809524D01*
X126667676Y-77809524D02*
X126572438Y-77904762D01*
X126572438Y-77904762D02*
X126524819Y-78047619D01*
X126524819Y-78047619D02*
X126524819Y-78142857D01*
X126524819Y-78142857D02*
X126572438Y-78285714D01*
X126572438Y-78285714D02*
X126620057Y-78333333D01*
X127524819Y-78809524D02*
X127524819Y-79000000D01*
X127524819Y-79000000D02*
X127477200Y-79095238D01*
X127477200Y-79095238D02*
X127429580Y-79142857D01*
X127429580Y-79142857D02*
X127286723Y-79238095D01*
X127286723Y-79238095D02*
X127096247Y-79285714D01*
X127096247Y-79285714D02*
X126715295Y-79285714D01*
X126715295Y-79285714D02*
X126620057Y-79238095D01*
X126620057Y-79238095D02*
X126572438Y-79190476D01*
X126572438Y-79190476D02*
X126524819Y-79095238D01*
X126524819Y-79095238D02*
X126524819Y-78904762D01*
X126524819Y-78904762D02*
X126572438Y-78809524D01*
X126572438Y-78809524D02*
X126620057Y-78761905D01*
X126620057Y-78761905D02*
X126715295Y-78714286D01*
X126715295Y-78714286D02*
X126953390Y-78714286D01*
X126953390Y-78714286D02*
X127048628Y-78761905D01*
X127048628Y-78761905D02*
X127096247Y-78809524D01*
X127096247Y-78809524D02*
X127143866Y-78904762D01*
X127143866Y-78904762D02*
X127143866Y-79095238D01*
X127143866Y-79095238D02*
X127096247Y-79190476D01*
X127096247Y-79190476D02*
X127048628Y-79238095D01*
X127048628Y-79238095D02*
X126953390Y-79285714D01*
X130421382Y-60167684D02*
X130469002Y-60120065D01*
X130469002Y-60120065D02*
X130516621Y-59977208D01*
X130516621Y-59977208D02*
X130516621Y-59881970D01*
X130516621Y-59881970D02*
X130469002Y-59739113D01*
X130469002Y-59739113D02*
X130373763Y-59643875D01*
X130373763Y-59643875D02*
X130278525Y-59596256D01*
X130278525Y-59596256D02*
X130088049Y-59548637D01*
X130088049Y-59548637D02*
X129945192Y-59548637D01*
X129945192Y-59548637D02*
X129754716Y-59596256D01*
X129754716Y-59596256D02*
X129659478Y-59643875D01*
X129659478Y-59643875D02*
X129564240Y-59739113D01*
X129564240Y-59739113D02*
X129516621Y-59881970D01*
X129516621Y-59881970D02*
X129516621Y-59977208D01*
X129516621Y-59977208D02*
X129564240Y-60120065D01*
X129564240Y-60120065D02*
X129611859Y-60167684D01*
X130516621Y-61120065D02*
X130516621Y-60548637D01*
X130516621Y-60834351D02*
X129516621Y-60834351D01*
X129516621Y-60834351D02*
X129659478Y-60739113D01*
X129659478Y-60739113D02*
X129754716Y-60643875D01*
X129754716Y-60643875D02*
X129802335Y-60548637D01*
X129849954Y-61977208D02*
X130516621Y-61977208D01*
X129469002Y-61739113D02*
X130183287Y-61501018D01*
X130183287Y-61501018D02*
X130183287Y-62120065D01*
X167024819Y-71857142D02*
X166548628Y-71523809D01*
X167024819Y-71285714D02*
X166024819Y-71285714D01*
X166024819Y-71285714D02*
X166024819Y-71666666D01*
X166024819Y-71666666D02*
X166072438Y-71761904D01*
X166072438Y-71761904D02*
X166120057Y-71809523D01*
X166120057Y-71809523D02*
X166215295Y-71857142D01*
X166215295Y-71857142D02*
X166358152Y-71857142D01*
X166358152Y-71857142D02*
X166453390Y-71809523D01*
X166453390Y-71809523D02*
X166501009Y-71761904D01*
X166501009Y-71761904D02*
X166548628Y-71666666D01*
X166548628Y-71666666D02*
X166548628Y-71285714D01*
X166024819Y-72190476D02*
X166024819Y-72809523D01*
X166024819Y-72809523D02*
X166405771Y-72476190D01*
X166405771Y-72476190D02*
X166405771Y-72619047D01*
X166405771Y-72619047D02*
X166453390Y-72714285D01*
X166453390Y-72714285D02*
X166501009Y-72761904D01*
X166501009Y-72761904D02*
X166596247Y-72809523D01*
X166596247Y-72809523D02*
X166834342Y-72809523D01*
X166834342Y-72809523D02*
X166929580Y-72761904D01*
X166929580Y-72761904D02*
X166977200Y-72714285D01*
X166977200Y-72714285D02*
X167024819Y-72619047D01*
X167024819Y-72619047D02*
X167024819Y-72333333D01*
X167024819Y-72333333D02*
X166977200Y-72238095D01*
X166977200Y-72238095D02*
X166929580Y-72190476D01*
X167024819Y-73761904D02*
X167024819Y-73190476D01*
X167024819Y-73476190D02*
X166024819Y-73476190D01*
X166024819Y-73476190D02*
X166167676Y-73380952D01*
X166167676Y-73380952D02*
X166262914Y-73285714D01*
X166262914Y-73285714D02*
X166310533Y-73190476D01*
X115642857Y-67884819D02*
X115976190Y-67408628D01*
X116214285Y-67884819D02*
X116214285Y-66884819D01*
X116214285Y-66884819D02*
X115833333Y-66884819D01*
X115833333Y-66884819D02*
X115738095Y-66932438D01*
X115738095Y-66932438D02*
X115690476Y-66980057D01*
X115690476Y-66980057D02*
X115642857Y-67075295D01*
X115642857Y-67075295D02*
X115642857Y-67218152D01*
X115642857Y-67218152D02*
X115690476Y-67313390D01*
X115690476Y-67313390D02*
X115738095Y-67361009D01*
X115738095Y-67361009D02*
X115833333Y-67408628D01*
X115833333Y-67408628D02*
X116214285Y-67408628D01*
X114738095Y-66884819D02*
X115214285Y-66884819D01*
X115214285Y-66884819D02*
X115261904Y-67361009D01*
X115261904Y-67361009D02*
X115214285Y-67313390D01*
X115214285Y-67313390D02*
X115119047Y-67265771D01*
X115119047Y-67265771D02*
X114880952Y-67265771D01*
X114880952Y-67265771D02*
X114785714Y-67313390D01*
X114785714Y-67313390D02*
X114738095Y-67361009D01*
X114738095Y-67361009D02*
X114690476Y-67456247D01*
X114690476Y-67456247D02*
X114690476Y-67694342D01*
X114690476Y-67694342D02*
X114738095Y-67789580D01*
X114738095Y-67789580D02*
X114785714Y-67837200D01*
X114785714Y-67837200D02*
X114880952Y-67884819D01*
X114880952Y-67884819D02*
X115119047Y-67884819D01*
X115119047Y-67884819D02*
X115214285Y-67837200D01*
X115214285Y-67837200D02*
X115261904Y-67789580D01*
X113738095Y-67884819D02*
X114309523Y-67884819D01*
X114023809Y-67884819D02*
X114023809Y-66884819D01*
X114023809Y-66884819D02*
X114119047Y-67027676D01*
X114119047Y-67027676D02*
X114214285Y-67122914D01*
X114214285Y-67122914D02*
X114309523Y-67170533D01*
D12*
X129739762Y-60324318D02*
X129739762Y-59054318D01*
X128409285Y-60203365D02*
X128469761Y-60263842D01*
X128469761Y-60263842D02*
X128651190Y-60324318D01*
X128651190Y-60324318D02*
X128772142Y-60324318D01*
X128772142Y-60324318D02*
X128953571Y-60263842D01*
X128953571Y-60263842D02*
X129074523Y-60142889D01*
X129074523Y-60142889D02*
X129135000Y-60021937D01*
X129135000Y-60021937D02*
X129195476Y-59780032D01*
X129195476Y-59780032D02*
X129195476Y-59598603D01*
X129195476Y-59598603D02*
X129135000Y-59356699D01*
X129135000Y-59356699D02*
X129074523Y-59235746D01*
X129074523Y-59235746D02*
X128953571Y-59114794D01*
X128953571Y-59114794D02*
X128772142Y-59054318D01*
X128772142Y-59054318D02*
X128651190Y-59054318D01*
X128651190Y-59054318D02*
X128469761Y-59114794D01*
X128469761Y-59114794D02*
X128409285Y-59175270D01*
X127260238Y-59054318D02*
X127865000Y-59054318D01*
X127865000Y-59054318D02*
X127925476Y-59659080D01*
X127925476Y-59659080D02*
X127865000Y-59598603D01*
X127865000Y-59598603D02*
X127744047Y-59538127D01*
X127744047Y-59538127D02*
X127441666Y-59538127D01*
X127441666Y-59538127D02*
X127320714Y-59598603D01*
X127320714Y-59598603D02*
X127260238Y-59659080D01*
X127260238Y-59659080D02*
X127199761Y-59780032D01*
X127199761Y-59780032D02*
X127199761Y-60082413D01*
X127199761Y-60082413D02*
X127260238Y-60203365D01*
X127260238Y-60203365D02*
X127320714Y-60263842D01*
X127320714Y-60263842D02*
X127441666Y-60324318D01*
X127441666Y-60324318D02*
X127744047Y-60324318D01*
X127744047Y-60324318D02*
X127865000Y-60263842D01*
X127865000Y-60263842D02*
X127925476Y-60203365D01*
D11*
X136609580Y-98235984D02*
X136657200Y-98188365D01*
X136657200Y-98188365D02*
X136704819Y-98045508D01*
X136704819Y-98045508D02*
X136704819Y-97950270D01*
X136704819Y-97950270D02*
X136657200Y-97807413D01*
X136657200Y-97807413D02*
X136561961Y-97712175D01*
X136561961Y-97712175D02*
X136466723Y-97664556D01*
X136466723Y-97664556D02*
X136276247Y-97616937D01*
X136276247Y-97616937D02*
X136133390Y-97616937D01*
X136133390Y-97616937D02*
X135942914Y-97664556D01*
X135942914Y-97664556D02*
X135847676Y-97712175D01*
X135847676Y-97712175D02*
X135752438Y-97807413D01*
X135752438Y-97807413D02*
X135704819Y-97950270D01*
X135704819Y-97950270D02*
X135704819Y-98045508D01*
X135704819Y-98045508D02*
X135752438Y-98188365D01*
X135752438Y-98188365D02*
X135800057Y-98235984D01*
X136133390Y-98807413D02*
X136085771Y-98712175D01*
X136085771Y-98712175D02*
X136038152Y-98664556D01*
X136038152Y-98664556D02*
X135942914Y-98616937D01*
X135942914Y-98616937D02*
X135895295Y-98616937D01*
X135895295Y-98616937D02*
X135800057Y-98664556D01*
X135800057Y-98664556D02*
X135752438Y-98712175D01*
X135752438Y-98712175D02*
X135704819Y-98807413D01*
X135704819Y-98807413D02*
X135704819Y-98997889D01*
X135704819Y-98997889D02*
X135752438Y-99093127D01*
X135752438Y-99093127D02*
X135800057Y-99140746D01*
X135800057Y-99140746D02*
X135895295Y-99188365D01*
X135895295Y-99188365D02*
X135942914Y-99188365D01*
X135942914Y-99188365D02*
X136038152Y-99140746D01*
X136038152Y-99140746D02*
X136085771Y-99093127D01*
X136085771Y-99093127D02*
X136133390Y-98997889D01*
X136133390Y-98997889D02*
X136133390Y-98807413D01*
X136133390Y-98807413D02*
X136181009Y-98712175D01*
X136181009Y-98712175D02*
X136228628Y-98664556D01*
X136228628Y-98664556D02*
X136323866Y-98616937D01*
X136323866Y-98616937D02*
X136514342Y-98616937D01*
X136514342Y-98616937D02*
X136609580Y-98664556D01*
X136609580Y-98664556D02*
X136657200Y-98712175D01*
X136657200Y-98712175D02*
X136704819Y-98807413D01*
X136704819Y-98807413D02*
X136704819Y-98997889D01*
X136704819Y-98997889D02*
X136657200Y-99093127D01*
X136657200Y-99093127D02*
X136609580Y-99140746D01*
X136609580Y-99140746D02*
X136514342Y-99188365D01*
X136514342Y-99188365D02*
X136323866Y-99188365D01*
X136323866Y-99188365D02*
X136228628Y-99140746D01*
X136228628Y-99140746D02*
X136181009Y-99093127D01*
X136181009Y-99093127D02*
X136133390Y-98997889D01*
D12*
X150887270Y-89988285D02*
X150826794Y-89867333D01*
X150826794Y-89867333D02*
X150705842Y-89746380D01*
X150705842Y-89746380D02*
X150524413Y-89564952D01*
X150524413Y-89564952D02*
X150463937Y-89443999D01*
X150463937Y-89443999D02*
X150463937Y-89323047D01*
X150766318Y-89383523D02*
X150705842Y-89262571D01*
X150705842Y-89262571D02*
X150584889Y-89141618D01*
X150584889Y-89141618D02*
X150342984Y-89081142D01*
X150342984Y-89081142D02*
X149919651Y-89081142D01*
X149919651Y-89081142D02*
X149677746Y-89141618D01*
X149677746Y-89141618D02*
X149556794Y-89262571D01*
X149556794Y-89262571D02*
X149496318Y-89383523D01*
X149496318Y-89383523D02*
X149496318Y-89625428D01*
X149496318Y-89625428D02*
X149556794Y-89746380D01*
X149556794Y-89746380D02*
X149677746Y-89867333D01*
X149677746Y-89867333D02*
X149919651Y-89927809D01*
X149919651Y-89927809D02*
X150342984Y-89927809D01*
X150342984Y-89927809D02*
X150584889Y-89867333D01*
X150584889Y-89867333D02*
X150705842Y-89746380D01*
X150705842Y-89746380D02*
X150766318Y-89625428D01*
X150766318Y-89625428D02*
X150766318Y-89383523D01*
X150766318Y-91137333D02*
X150766318Y-90411618D01*
X150766318Y-90774475D02*
X149496318Y-90774475D01*
X149496318Y-90774475D02*
X149677746Y-90653523D01*
X149677746Y-90653523D02*
X149798699Y-90532571D01*
X149798699Y-90532571D02*
X149859175Y-90411618D01*
X149617270Y-91621142D02*
X149556794Y-91681618D01*
X149556794Y-91681618D02*
X149496318Y-91802571D01*
X149496318Y-91802571D02*
X149496318Y-92104952D01*
X149496318Y-92104952D02*
X149556794Y-92225904D01*
X149556794Y-92225904D02*
X149617270Y-92286380D01*
X149617270Y-92286380D02*
X149738222Y-92346857D01*
X149738222Y-92346857D02*
X149859175Y-92346857D01*
X149859175Y-92346857D02*
X150040603Y-92286380D01*
X150040603Y-92286380D02*
X150766318Y-91560666D01*
X150766318Y-91560666D02*
X150766318Y-92346857D01*
D11*
X113045238Y-60550057D02*
X113140476Y-60502438D01*
X113140476Y-60502438D02*
X113235714Y-60407200D01*
X113235714Y-60407200D02*
X113378571Y-60264342D01*
X113378571Y-60264342D02*
X113473809Y-60216723D01*
X113473809Y-60216723D02*
X113569047Y-60216723D01*
X113521428Y-60454819D02*
X113616666Y-60407200D01*
X113616666Y-60407200D02*
X113711904Y-60311961D01*
X113711904Y-60311961D02*
X113759523Y-60121485D01*
X113759523Y-60121485D02*
X113759523Y-59788152D01*
X113759523Y-59788152D02*
X113711904Y-59597676D01*
X113711904Y-59597676D02*
X113616666Y-59502438D01*
X113616666Y-59502438D02*
X113521428Y-59454819D01*
X113521428Y-59454819D02*
X113330952Y-59454819D01*
X113330952Y-59454819D02*
X113235714Y-59502438D01*
X113235714Y-59502438D02*
X113140476Y-59597676D01*
X113140476Y-59597676D02*
X113092857Y-59788152D01*
X113092857Y-59788152D02*
X113092857Y-60121485D01*
X113092857Y-60121485D02*
X113140476Y-60311961D01*
X113140476Y-60311961D02*
X113235714Y-60407200D01*
X113235714Y-60407200D02*
X113330952Y-60454819D01*
X113330952Y-60454819D02*
X113521428Y-60454819D01*
X112521428Y-59883390D02*
X112616666Y-59835771D01*
X112616666Y-59835771D02*
X112664285Y-59788152D01*
X112664285Y-59788152D02*
X112711904Y-59692914D01*
X112711904Y-59692914D02*
X112711904Y-59645295D01*
X112711904Y-59645295D02*
X112664285Y-59550057D01*
X112664285Y-59550057D02*
X112616666Y-59502438D01*
X112616666Y-59502438D02*
X112521428Y-59454819D01*
X112521428Y-59454819D02*
X112330952Y-59454819D01*
X112330952Y-59454819D02*
X112235714Y-59502438D01*
X112235714Y-59502438D02*
X112188095Y-59550057D01*
X112188095Y-59550057D02*
X112140476Y-59645295D01*
X112140476Y-59645295D02*
X112140476Y-59692914D01*
X112140476Y-59692914D02*
X112188095Y-59788152D01*
X112188095Y-59788152D02*
X112235714Y-59835771D01*
X112235714Y-59835771D02*
X112330952Y-59883390D01*
X112330952Y-59883390D02*
X112521428Y-59883390D01*
X112521428Y-59883390D02*
X112616666Y-59931009D01*
X112616666Y-59931009D02*
X112664285Y-59978628D01*
X112664285Y-59978628D02*
X112711904Y-60073866D01*
X112711904Y-60073866D02*
X112711904Y-60264342D01*
X112711904Y-60264342D02*
X112664285Y-60359580D01*
X112664285Y-60359580D02*
X112616666Y-60407200D01*
X112616666Y-60407200D02*
X112521428Y-60454819D01*
X112521428Y-60454819D02*
X112330952Y-60454819D01*
X112330952Y-60454819D02*
X112235714Y-60407200D01*
X112235714Y-60407200D02*
X112188095Y-60359580D01*
X112188095Y-60359580D02*
X112140476Y-60264342D01*
X112140476Y-60264342D02*
X112140476Y-60073866D01*
X112140476Y-60073866D02*
X112188095Y-59978628D01*
X112188095Y-59978628D02*
X112235714Y-59931009D01*
X112235714Y-59931009D02*
X112330952Y-59883390D01*
X154811914Y-71959015D02*
X154335723Y-71625682D01*
X154811914Y-71387587D02*
X153811914Y-71387587D01*
X153811914Y-71387587D02*
X153811914Y-71768539D01*
X153811914Y-71768539D02*
X153859533Y-71863777D01*
X153859533Y-71863777D02*
X153907152Y-71911396D01*
X153907152Y-71911396D02*
X154002390Y-71959015D01*
X154002390Y-71959015D02*
X154145247Y-71959015D01*
X154145247Y-71959015D02*
X154240485Y-71911396D01*
X154240485Y-71911396D02*
X154288104Y-71863777D01*
X154288104Y-71863777D02*
X154335723Y-71768539D01*
X154335723Y-71768539D02*
X154335723Y-71387587D01*
X153811914Y-72816158D02*
X153811914Y-72625682D01*
X153811914Y-72625682D02*
X153859533Y-72530444D01*
X153859533Y-72530444D02*
X153907152Y-72482825D01*
X153907152Y-72482825D02*
X154050009Y-72387587D01*
X154050009Y-72387587D02*
X154240485Y-72339968D01*
X154240485Y-72339968D02*
X154621437Y-72339968D01*
X154621437Y-72339968D02*
X154716675Y-72387587D01*
X154716675Y-72387587D02*
X154764295Y-72435206D01*
X154764295Y-72435206D02*
X154811914Y-72530444D01*
X154811914Y-72530444D02*
X154811914Y-72720920D01*
X154811914Y-72720920D02*
X154764295Y-72816158D01*
X154764295Y-72816158D02*
X154716675Y-72863777D01*
X154716675Y-72863777D02*
X154621437Y-72911396D01*
X154621437Y-72911396D02*
X154383342Y-72911396D01*
X154383342Y-72911396D02*
X154288104Y-72863777D01*
X154288104Y-72863777D02*
X154240485Y-72816158D01*
X154240485Y-72816158D02*
X154192866Y-72720920D01*
X154192866Y-72720920D02*
X154192866Y-72530444D01*
X154192866Y-72530444D02*
X154240485Y-72435206D01*
X154240485Y-72435206D02*
X154288104Y-72387587D01*
X154288104Y-72387587D02*
X154383342Y-72339968D01*
X153811914Y-73530444D02*
X153811914Y-73625682D01*
X153811914Y-73625682D02*
X153859533Y-73720920D01*
X153859533Y-73720920D02*
X153907152Y-73768539D01*
X153907152Y-73768539D02*
X154002390Y-73816158D01*
X154002390Y-73816158D02*
X154192866Y-73863777D01*
X154192866Y-73863777D02*
X154430961Y-73863777D01*
X154430961Y-73863777D02*
X154621437Y-73816158D01*
X154621437Y-73816158D02*
X154716675Y-73768539D01*
X154716675Y-73768539D02*
X154764295Y-73720920D01*
X154764295Y-73720920D02*
X154811914Y-73625682D01*
X154811914Y-73625682D02*
X154811914Y-73530444D01*
X154811914Y-73530444D02*
X154764295Y-73435206D01*
X154764295Y-73435206D02*
X154716675Y-73387587D01*
X154716675Y-73387587D02*
X154621437Y-73339968D01*
X154621437Y-73339968D02*
X154430961Y-73292349D01*
X154430961Y-73292349D02*
X154192866Y-73292349D01*
X154192866Y-73292349D02*
X154002390Y-73339968D01*
X154002390Y-73339968D02*
X153907152Y-73387587D01*
X153907152Y-73387587D02*
X153859533Y-73435206D01*
X153859533Y-73435206D02*
X153811914Y-73530444D01*
X171339819Y-58738095D02*
X172149342Y-58738095D01*
X172149342Y-58738095D02*
X172244580Y-58785714D01*
X172244580Y-58785714D02*
X172292200Y-58833333D01*
X172292200Y-58833333D02*
X172339819Y-58928571D01*
X172339819Y-58928571D02*
X172339819Y-59119047D01*
X172339819Y-59119047D02*
X172292200Y-59214285D01*
X172292200Y-59214285D02*
X172244580Y-59261904D01*
X172244580Y-59261904D02*
X172149342Y-59309523D01*
X172149342Y-59309523D02*
X171339819Y-59309523D01*
X171435057Y-59738095D02*
X171387438Y-59785714D01*
X171387438Y-59785714D02*
X171339819Y-59880952D01*
X171339819Y-59880952D02*
X171339819Y-60119047D01*
X171339819Y-60119047D02*
X171387438Y-60214285D01*
X171387438Y-60214285D02*
X171435057Y-60261904D01*
X171435057Y-60261904D02*
X171530295Y-60309523D01*
X171530295Y-60309523D02*
X171625533Y-60309523D01*
X171625533Y-60309523D02*
X171768390Y-60261904D01*
X171768390Y-60261904D02*
X172339819Y-59690476D01*
X172339819Y-59690476D02*
X172339819Y-60309523D01*
X137429580Y-97100228D02*
X137477200Y-97052609D01*
X137477200Y-97052609D02*
X137524819Y-96909752D01*
X137524819Y-96909752D02*
X137524819Y-96814514D01*
X137524819Y-96814514D02*
X137477200Y-96671657D01*
X137477200Y-96671657D02*
X137381961Y-96576419D01*
X137381961Y-96576419D02*
X137286723Y-96528800D01*
X137286723Y-96528800D02*
X137096247Y-96481181D01*
X137096247Y-96481181D02*
X136953390Y-96481181D01*
X136953390Y-96481181D02*
X136762914Y-96528800D01*
X136762914Y-96528800D02*
X136667676Y-96576419D01*
X136667676Y-96576419D02*
X136572438Y-96671657D01*
X136572438Y-96671657D02*
X136524819Y-96814514D01*
X136524819Y-96814514D02*
X136524819Y-96909752D01*
X136524819Y-96909752D02*
X136572438Y-97052609D01*
X136572438Y-97052609D02*
X136620057Y-97100228D01*
X136620057Y-97481181D02*
X136572438Y-97528800D01*
X136572438Y-97528800D02*
X136524819Y-97624038D01*
X136524819Y-97624038D02*
X136524819Y-97862133D01*
X136524819Y-97862133D02*
X136572438Y-97957371D01*
X136572438Y-97957371D02*
X136620057Y-98004990D01*
X136620057Y-98004990D02*
X136715295Y-98052609D01*
X136715295Y-98052609D02*
X136810533Y-98052609D01*
X136810533Y-98052609D02*
X136953390Y-98004990D01*
X136953390Y-98004990D02*
X137524819Y-97433562D01*
X137524819Y-97433562D02*
X137524819Y-98052609D01*
X133166666Y-92024819D02*
X133499999Y-91548628D01*
X133738094Y-92024819D02*
X133738094Y-91024819D01*
X133738094Y-91024819D02*
X133357142Y-91024819D01*
X133357142Y-91024819D02*
X133261904Y-91072438D01*
X133261904Y-91072438D02*
X133214285Y-91120057D01*
X133214285Y-91120057D02*
X133166666Y-91215295D01*
X133166666Y-91215295D02*
X133166666Y-91358152D01*
X133166666Y-91358152D02*
X133214285Y-91453390D01*
X133214285Y-91453390D02*
X133261904Y-91501009D01*
X133261904Y-91501009D02*
X133357142Y-91548628D01*
X133357142Y-91548628D02*
X133738094Y-91548628D01*
X132833332Y-91024819D02*
X132214285Y-91024819D01*
X132214285Y-91024819D02*
X132547618Y-91405771D01*
X132547618Y-91405771D02*
X132404761Y-91405771D01*
X132404761Y-91405771D02*
X132309523Y-91453390D01*
X132309523Y-91453390D02*
X132261904Y-91501009D01*
X132261904Y-91501009D02*
X132214285Y-91596247D01*
X132214285Y-91596247D02*
X132214285Y-91834342D01*
X132214285Y-91834342D02*
X132261904Y-91929580D01*
X132261904Y-91929580D02*
X132309523Y-91977200D01*
X132309523Y-91977200D02*
X132404761Y-92024819D01*
X132404761Y-92024819D02*
X132690475Y-92024819D01*
X132690475Y-92024819D02*
X132785713Y-91977200D01*
X132785713Y-91977200D02*
X132833332Y-91929580D01*
X140300456Y-97108333D02*
X140348076Y-97060714D01*
X140348076Y-97060714D02*
X140395695Y-96917857D01*
X140395695Y-96917857D02*
X140395695Y-96822619D01*
X140395695Y-96822619D02*
X140348076Y-96679762D01*
X140348076Y-96679762D02*
X140252837Y-96584524D01*
X140252837Y-96584524D02*
X140157599Y-96536905D01*
X140157599Y-96536905D02*
X139967123Y-96489286D01*
X139967123Y-96489286D02*
X139824266Y-96489286D01*
X139824266Y-96489286D02*
X139633790Y-96536905D01*
X139633790Y-96536905D02*
X139538552Y-96584524D01*
X139538552Y-96584524D02*
X139443314Y-96679762D01*
X139443314Y-96679762D02*
X139395695Y-96822619D01*
X139395695Y-96822619D02*
X139395695Y-96917857D01*
X139395695Y-96917857D02*
X139443314Y-97060714D01*
X139443314Y-97060714D02*
X139490933Y-97108333D01*
X140395695Y-98060714D02*
X140395695Y-97489286D01*
X140395695Y-97775000D02*
X139395695Y-97775000D01*
X139395695Y-97775000D02*
X139538552Y-97679762D01*
X139538552Y-97679762D02*
X139633790Y-97584524D01*
X139633790Y-97584524D02*
X139681409Y-97489286D01*
X113642857Y-51524819D02*
X113976190Y-51048628D01*
X114214285Y-51524819D02*
X114214285Y-50524819D01*
X114214285Y-50524819D02*
X113833333Y-50524819D01*
X113833333Y-50524819D02*
X113738095Y-50572438D01*
X113738095Y-50572438D02*
X113690476Y-50620057D01*
X113690476Y-50620057D02*
X113642857Y-50715295D01*
X113642857Y-50715295D02*
X113642857Y-50858152D01*
X113642857Y-50858152D02*
X113690476Y-50953390D01*
X113690476Y-50953390D02*
X113738095Y-51001009D01*
X113738095Y-51001009D02*
X113833333Y-51048628D01*
X113833333Y-51048628D02*
X114214285Y-51048628D01*
X112785714Y-50858152D02*
X112785714Y-51524819D01*
X113023809Y-50477200D02*
X113261904Y-51191485D01*
X113261904Y-51191485D02*
X112642857Y-51191485D01*
X112357142Y-50524819D02*
X111690476Y-50524819D01*
X111690476Y-50524819D02*
X112119047Y-51524819D01*
X141929580Y-97333333D02*
X141977200Y-97285714D01*
X141977200Y-97285714D02*
X142024819Y-97142857D01*
X142024819Y-97142857D02*
X142024819Y-97047619D01*
X142024819Y-97047619D02*
X141977200Y-96904762D01*
X141977200Y-96904762D02*
X141881961Y-96809524D01*
X141881961Y-96809524D02*
X141786723Y-96761905D01*
X141786723Y-96761905D02*
X141596247Y-96714286D01*
X141596247Y-96714286D02*
X141453390Y-96714286D01*
X141453390Y-96714286D02*
X141262914Y-96761905D01*
X141262914Y-96761905D02*
X141167676Y-96809524D01*
X141167676Y-96809524D02*
X141072438Y-96904762D01*
X141072438Y-96904762D02*
X141024819Y-97047619D01*
X141024819Y-97047619D02*
X141024819Y-97142857D01*
X141024819Y-97142857D02*
X141072438Y-97285714D01*
X141072438Y-97285714D02*
X141120057Y-97333333D01*
X141024819Y-98190476D02*
X141024819Y-98000000D01*
X141024819Y-98000000D02*
X141072438Y-97904762D01*
X141072438Y-97904762D02*
X141120057Y-97857143D01*
X141120057Y-97857143D02*
X141262914Y-97761905D01*
X141262914Y-97761905D02*
X141453390Y-97714286D01*
X141453390Y-97714286D02*
X141834342Y-97714286D01*
X141834342Y-97714286D02*
X141929580Y-97761905D01*
X141929580Y-97761905D02*
X141977200Y-97809524D01*
X141977200Y-97809524D02*
X142024819Y-97904762D01*
X142024819Y-97904762D02*
X142024819Y-98095238D01*
X142024819Y-98095238D02*
X141977200Y-98190476D01*
X141977200Y-98190476D02*
X141929580Y-98238095D01*
X141929580Y-98238095D02*
X141834342Y-98285714D01*
X141834342Y-98285714D02*
X141596247Y-98285714D01*
X141596247Y-98285714D02*
X141501009Y-98238095D01*
X141501009Y-98238095D02*
X141453390Y-98190476D01*
X141453390Y-98190476D02*
X141405771Y-98095238D01*
X141405771Y-98095238D02*
X141405771Y-97904762D01*
X141405771Y-97904762D02*
X141453390Y-97809524D01*
X141453390Y-97809524D02*
X141501009Y-97761905D01*
X141501009Y-97761905D02*
X141596247Y-97714286D01*
X165864961Y-53887358D02*
X165388770Y-53554025D01*
X165864961Y-53315930D02*
X164864961Y-53315930D01*
X164864961Y-53315930D02*
X164864961Y-53696882D01*
X164864961Y-53696882D02*
X164912580Y-53792120D01*
X164912580Y-53792120D02*
X164960199Y-53839739D01*
X164960199Y-53839739D02*
X165055437Y-53887358D01*
X165055437Y-53887358D02*
X165198294Y-53887358D01*
X165198294Y-53887358D02*
X165293532Y-53839739D01*
X165293532Y-53839739D02*
X165341151Y-53792120D01*
X165341151Y-53792120D02*
X165388770Y-53696882D01*
X165388770Y-53696882D02*
X165388770Y-53315930D01*
X165864961Y-54839739D02*
X165864961Y-54268311D01*
X165864961Y-54554025D02*
X164864961Y-54554025D01*
X164864961Y-54554025D02*
X165007818Y-54458787D01*
X165007818Y-54458787D02*
X165103056Y-54363549D01*
X165103056Y-54363549D02*
X165150675Y-54268311D01*
X164864961Y-55173073D02*
X164864961Y-55792120D01*
X164864961Y-55792120D02*
X165245913Y-55458787D01*
X165245913Y-55458787D02*
X165245913Y-55601644D01*
X165245913Y-55601644D02*
X165293532Y-55696882D01*
X165293532Y-55696882D02*
X165341151Y-55744501D01*
X165341151Y-55744501D02*
X165436389Y-55792120D01*
X165436389Y-55792120D02*
X165674484Y-55792120D01*
X165674484Y-55792120D02*
X165769722Y-55744501D01*
X165769722Y-55744501D02*
X165817342Y-55696882D01*
X165817342Y-55696882D02*
X165864961Y-55601644D01*
X165864961Y-55601644D02*
X165864961Y-55315930D01*
X165864961Y-55315930D02*
X165817342Y-55220692D01*
X165817342Y-55220692D02*
X165769722Y-55173073D01*
X139540318Y-97104646D02*
X139064127Y-96771313D01*
X139540318Y-96533218D02*
X138540318Y-96533218D01*
X138540318Y-96533218D02*
X138540318Y-96914170D01*
X138540318Y-96914170D02*
X138587937Y-97009408D01*
X138587937Y-97009408D02*
X138635556Y-97057027D01*
X138635556Y-97057027D02*
X138730794Y-97104646D01*
X138730794Y-97104646D02*
X138873651Y-97104646D01*
X138873651Y-97104646D02*
X138968889Y-97057027D01*
X138968889Y-97057027D02*
X139016508Y-97009408D01*
X139016508Y-97009408D02*
X139064127Y-96914170D01*
X139064127Y-96914170D02*
X139064127Y-96533218D01*
X138540318Y-97961789D02*
X138540318Y-97771313D01*
X138540318Y-97771313D02*
X138587937Y-97676075D01*
X138587937Y-97676075D02*
X138635556Y-97628456D01*
X138635556Y-97628456D02*
X138778413Y-97533218D01*
X138778413Y-97533218D02*
X138968889Y-97485599D01*
X138968889Y-97485599D02*
X139349841Y-97485599D01*
X139349841Y-97485599D02*
X139445079Y-97533218D01*
X139445079Y-97533218D02*
X139492699Y-97580837D01*
X139492699Y-97580837D02*
X139540318Y-97676075D01*
X139540318Y-97676075D02*
X139540318Y-97866551D01*
X139540318Y-97866551D02*
X139492699Y-97961789D01*
X139492699Y-97961789D02*
X139445079Y-98009408D01*
X139445079Y-98009408D02*
X139349841Y-98057027D01*
X139349841Y-98057027D02*
X139111746Y-98057027D01*
X139111746Y-98057027D02*
X139016508Y-98009408D01*
X139016508Y-98009408D02*
X138968889Y-97961789D01*
X138968889Y-97961789D02*
X138921270Y-97866551D01*
X138921270Y-97866551D02*
X138921270Y-97676075D01*
X138921270Y-97676075D02*
X138968889Y-97580837D01*
X138968889Y-97580837D02*
X139016508Y-97533218D01*
X139016508Y-97533218D02*
X139111746Y-97485599D01*
X134491666Y-104884819D02*
X134824999Y-104408628D01*
X135063094Y-104884819D02*
X135063094Y-103884819D01*
X135063094Y-103884819D02*
X134682142Y-103884819D01*
X134682142Y-103884819D02*
X134586904Y-103932438D01*
X134586904Y-103932438D02*
X134539285Y-103980057D01*
X134539285Y-103980057D02*
X134491666Y-104075295D01*
X134491666Y-104075295D02*
X134491666Y-104218152D01*
X134491666Y-104218152D02*
X134539285Y-104313390D01*
X134539285Y-104313390D02*
X134586904Y-104361009D01*
X134586904Y-104361009D02*
X134682142Y-104408628D01*
X134682142Y-104408628D02*
X135063094Y-104408628D01*
X133539285Y-104884819D02*
X134110713Y-104884819D01*
X133824999Y-104884819D02*
X133824999Y-103884819D01*
X133824999Y-103884819D02*
X133920237Y-104027676D01*
X133920237Y-104027676D02*
X134015475Y-104122914D01*
X134015475Y-104122914D02*
X134110713Y-104170533D01*
D12*
X117574318Y-73760237D02*
X116304318Y-73760237D01*
X117453365Y-75090714D02*
X117513842Y-75030238D01*
X117513842Y-75030238D02*
X117574318Y-74848809D01*
X117574318Y-74848809D02*
X117574318Y-74727857D01*
X117574318Y-74727857D02*
X117513842Y-74546428D01*
X117513842Y-74546428D02*
X117392889Y-74425476D01*
X117392889Y-74425476D02*
X117271937Y-74364999D01*
X117271937Y-74364999D02*
X117030032Y-74304523D01*
X117030032Y-74304523D02*
X116848603Y-74304523D01*
X116848603Y-74304523D02*
X116606699Y-74364999D01*
X116606699Y-74364999D02*
X116485746Y-74425476D01*
X116485746Y-74425476D02*
X116364794Y-74546428D01*
X116364794Y-74546428D02*
X116304318Y-74727857D01*
X116304318Y-74727857D02*
X116304318Y-74848809D01*
X116304318Y-74848809D02*
X116364794Y-75030238D01*
X116364794Y-75030238D02*
X116425270Y-75090714D01*
X116304318Y-75514047D02*
X116304318Y-76300238D01*
X116304318Y-76300238D02*
X116788127Y-75876904D01*
X116788127Y-75876904D02*
X116788127Y-76058333D01*
X116788127Y-76058333D02*
X116848603Y-76179285D01*
X116848603Y-76179285D02*
X116909080Y-76239761D01*
X116909080Y-76239761D02*
X117030032Y-76300238D01*
X117030032Y-76300238D02*
X117332413Y-76300238D01*
X117332413Y-76300238D02*
X117453365Y-76239761D01*
X117453365Y-76239761D02*
X117513842Y-76179285D01*
X117513842Y-76179285D02*
X117574318Y-76058333D01*
X117574318Y-76058333D02*
X117574318Y-75695476D01*
X117574318Y-75695476D02*
X117513842Y-75574523D01*
X117513842Y-75574523D02*
X117453365Y-75514047D01*
D11*
X128867857Y-63789580D02*
X128915476Y-63837200D01*
X128915476Y-63837200D02*
X129058333Y-63884819D01*
X129058333Y-63884819D02*
X129153571Y-63884819D01*
X129153571Y-63884819D02*
X129296428Y-63837200D01*
X129296428Y-63837200D02*
X129391666Y-63741961D01*
X129391666Y-63741961D02*
X129439285Y-63646723D01*
X129439285Y-63646723D02*
X129486904Y-63456247D01*
X129486904Y-63456247D02*
X129486904Y-63313390D01*
X129486904Y-63313390D02*
X129439285Y-63122914D01*
X129439285Y-63122914D02*
X129391666Y-63027676D01*
X129391666Y-63027676D02*
X129296428Y-62932438D01*
X129296428Y-62932438D02*
X129153571Y-62884819D01*
X129153571Y-62884819D02*
X129058333Y-62884819D01*
X129058333Y-62884819D02*
X128915476Y-62932438D01*
X128915476Y-62932438D02*
X128867857Y-62980057D01*
X127915476Y-63884819D02*
X128486904Y-63884819D01*
X128201190Y-63884819D02*
X128201190Y-62884819D01*
X128201190Y-62884819D02*
X128296428Y-63027676D01*
X128296428Y-63027676D02*
X128391666Y-63122914D01*
X128391666Y-63122914D02*
X128486904Y-63170533D01*
X127344047Y-63313390D02*
X127439285Y-63265771D01*
X127439285Y-63265771D02*
X127486904Y-63218152D01*
X127486904Y-63218152D02*
X127534523Y-63122914D01*
X127534523Y-63122914D02*
X127534523Y-63075295D01*
X127534523Y-63075295D02*
X127486904Y-62980057D01*
X127486904Y-62980057D02*
X127439285Y-62932438D01*
X127439285Y-62932438D02*
X127344047Y-62884819D01*
X127344047Y-62884819D02*
X127153571Y-62884819D01*
X127153571Y-62884819D02*
X127058333Y-62932438D01*
X127058333Y-62932438D02*
X127010714Y-62980057D01*
X127010714Y-62980057D02*
X126963095Y-63075295D01*
X126963095Y-63075295D02*
X126963095Y-63122914D01*
X126963095Y-63122914D02*
X127010714Y-63218152D01*
X127010714Y-63218152D02*
X127058333Y-63265771D01*
X127058333Y-63265771D02*
X127153571Y-63313390D01*
X127153571Y-63313390D02*
X127344047Y-63313390D01*
X127344047Y-63313390D02*
X127439285Y-63361009D01*
X127439285Y-63361009D02*
X127486904Y-63408628D01*
X127486904Y-63408628D02*
X127534523Y-63503866D01*
X127534523Y-63503866D02*
X127534523Y-63694342D01*
X127534523Y-63694342D02*
X127486904Y-63789580D01*
X127486904Y-63789580D02*
X127439285Y-63837200D01*
X127439285Y-63837200D02*
X127344047Y-63884819D01*
X127344047Y-63884819D02*
X127153571Y-63884819D01*
X127153571Y-63884819D02*
X127058333Y-63837200D01*
X127058333Y-63837200D02*
X127010714Y-63789580D01*
X127010714Y-63789580D02*
X126963095Y-63694342D01*
X126963095Y-63694342D02*
X126963095Y-63503866D01*
X126963095Y-63503866D02*
X127010714Y-63408628D01*
X127010714Y-63408628D02*
X127058333Y-63361009D01*
X127058333Y-63361009D02*
X127153571Y-63313390D01*
X124959819Y-59857142D02*
X124483628Y-59523809D01*
X124959819Y-59285714D02*
X123959819Y-59285714D01*
X123959819Y-59285714D02*
X123959819Y-59666666D01*
X123959819Y-59666666D02*
X124007438Y-59761904D01*
X124007438Y-59761904D02*
X124055057Y-59809523D01*
X124055057Y-59809523D02*
X124150295Y-59857142D01*
X124150295Y-59857142D02*
X124293152Y-59857142D01*
X124293152Y-59857142D02*
X124388390Y-59809523D01*
X124388390Y-59809523D02*
X124436009Y-59761904D01*
X124436009Y-59761904D02*
X124483628Y-59666666D01*
X124483628Y-59666666D02*
X124483628Y-59285714D01*
X124293152Y-60714285D02*
X124959819Y-60714285D01*
X123912200Y-60476190D02*
X124626485Y-60238095D01*
X124626485Y-60238095D02*
X124626485Y-60857142D01*
X124959819Y-61761904D02*
X124959819Y-61190476D01*
X124959819Y-61476190D02*
X123959819Y-61476190D01*
X123959819Y-61476190D02*
X124102676Y-61380952D01*
X124102676Y-61380952D02*
X124197914Y-61285714D01*
X124197914Y-61285714D02*
X124245533Y-61190476D01*
X127524819Y-74857142D02*
X127048628Y-74523809D01*
X127524819Y-74285714D02*
X126524819Y-74285714D01*
X126524819Y-74285714D02*
X126524819Y-74666666D01*
X126524819Y-74666666D02*
X126572438Y-74761904D01*
X126572438Y-74761904D02*
X126620057Y-74809523D01*
X126620057Y-74809523D02*
X126715295Y-74857142D01*
X126715295Y-74857142D02*
X126858152Y-74857142D01*
X126858152Y-74857142D02*
X126953390Y-74809523D01*
X126953390Y-74809523D02*
X127001009Y-74761904D01*
X127001009Y-74761904D02*
X127048628Y-74666666D01*
X127048628Y-74666666D02*
X127048628Y-74285714D01*
X126524819Y-75190476D02*
X126524819Y-75809523D01*
X126524819Y-75809523D02*
X126905771Y-75476190D01*
X126905771Y-75476190D02*
X126905771Y-75619047D01*
X126905771Y-75619047D02*
X126953390Y-75714285D01*
X126953390Y-75714285D02*
X127001009Y-75761904D01*
X127001009Y-75761904D02*
X127096247Y-75809523D01*
X127096247Y-75809523D02*
X127334342Y-75809523D01*
X127334342Y-75809523D02*
X127429580Y-75761904D01*
X127429580Y-75761904D02*
X127477200Y-75714285D01*
X127477200Y-75714285D02*
X127524819Y-75619047D01*
X127524819Y-75619047D02*
X127524819Y-75333333D01*
X127524819Y-75333333D02*
X127477200Y-75238095D01*
X127477200Y-75238095D02*
X127429580Y-75190476D01*
X126524819Y-76666666D02*
X126524819Y-76476190D01*
X126524819Y-76476190D02*
X126572438Y-76380952D01*
X126572438Y-76380952D02*
X126620057Y-76333333D01*
X126620057Y-76333333D02*
X126762914Y-76238095D01*
X126762914Y-76238095D02*
X126953390Y-76190476D01*
X126953390Y-76190476D02*
X127334342Y-76190476D01*
X127334342Y-76190476D02*
X127429580Y-76238095D01*
X127429580Y-76238095D02*
X127477200Y-76285714D01*
X127477200Y-76285714D02*
X127524819Y-76380952D01*
X127524819Y-76380952D02*
X127524819Y-76571428D01*
X127524819Y-76571428D02*
X127477200Y-76666666D01*
X127477200Y-76666666D02*
X127429580Y-76714285D01*
X127429580Y-76714285D02*
X127334342Y-76761904D01*
X127334342Y-76761904D02*
X127096247Y-76761904D01*
X127096247Y-76761904D02*
X127001009Y-76714285D01*
X127001009Y-76714285D02*
X126953390Y-76666666D01*
X126953390Y-76666666D02*
X126905771Y-76571428D01*
X126905771Y-76571428D02*
X126905771Y-76380952D01*
X126905771Y-76380952D02*
X126953390Y-76285714D01*
X126953390Y-76285714D02*
X127001009Y-76238095D01*
X127001009Y-76238095D02*
X127096247Y-76190476D01*
X142024819Y-60857142D02*
X141548628Y-60523809D01*
X142024819Y-60285714D02*
X141024819Y-60285714D01*
X141024819Y-60285714D02*
X141024819Y-60666666D01*
X141024819Y-60666666D02*
X141072438Y-60761904D01*
X141072438Y-60761904D02*
X141120057Y-60809523D01*
X141120057Y-60809523D02*
X141215295Y-60857142D01*
X141215295Y-60857142D02*
X141358152Y-60857142D01*
X141358152Y-60857142D02*
X141453390Y-60809523D01*
X141453390Y-60809523D02*
X141501009Y-60761904D01*
X141501009Y-60761904D02*
X141548628Y-60666666D01*
X141548628Y-60666666D02*
X141548628Y-60285714D01*
X141024819Y-61761904D02*
X141024819Y-61285714D01*
X141024819Y-61285714D02*
X141501009Y-61238095D01*
X141501009Y-61238095D02*
X141453390Y-61285714D01*
X141453390Y-61285714D02*
X141405771Y-61380952D01*
X141405771Y-61380952D02*
X141405771Y-61619047D01*
X141405771Y-61619047D02*
X141453390Y-61714285D01*
X141453390Y-61714285D02*
X141501009Y-61761904D01*
X141501009Y-61761904D02*
X141596247Y-61809523D01*
X141596247Y-61809523D02*
X141834342Y-61809523D01*
X141834342Y-61809523D02*
X141929580Y-61761904D01*
X141929580Y-61761904D02*
X141977200Y-61714285D01*
X141977200Y-61714285D02*
X142024819Y-61619047D01*
X142024819Y-61619047D02*
X142024819Y-61380952D01*
X142024819Y-61380952D02*
X141977200Y-61285714D01*
X141977200Y-61285714D02*
X141929580Y-61238095D01*
X141453390Y-62380952D02*
X141405771Y-62285714D01*
X141405771Y-62285714D02*
X141358152Y-62238095D01*
X141358152Y-62238095D02*
X141262914Y-62190476D01*
X141262914Y-62190476D02*
X141215295Y-62190476D01*
X141215295Y-62190476D02*
X141120057Y-62238095D01*
X141120057Y-62238095D02*
X141072438Y-62285714D01*
X141072438Y-62285714D02*
X141024819Y-62380952D01*
X141024819Y-62380952D02*
X141024819Y-62571428D01*
X141024819Y-62571428D02*
X141072438Y-62666666D01*
X141072438Y-62666666D02*
X141120057Y-62714285D01*
X141120057Y-62714285D02*
X141215295Y-62761904D01*
X141215295Y-62761904D02*
X141262914Y-62761904D01*
X141262914Y-62761904D02*
X141358152Y-62714285D01*
X141358152Y-62714285D02*
X141405771Y-62666666D01*
X141405771Y-62666666D02*
X141453390Y-62571428D01*
X141453390Y-62571428D02*
X141453390Y-62380952D01*
X141453390Y-62380952D02*
X141501009Y-62285714D01*
X141501009Y-62285714D02*
X141548628Y-62238095D01*
X141548628Y-62238095D02*
X141643866Y-62190476D01*
X141643866Y-62190476D02*
X141834342Y-62190476D01*
X141834342Y-62190476D02*
X141929580Y-62238095D01*
X141929580Y-62238095D02*
X141977200Y-62285714D01*
X141977200Y-62285714D02*
X142024819Y-62380952D01*
X142024819Y-62380952D02*
X142024819Y-62571428D01*
X142024819Y-62571428D02*
X141977200Y-62666666D01*
X141977200Y-62666666D02*
X141929580Y-62714285D01*
X141929580Y-62714285D02*
X141834342Y-62761904D01*
X141834342Y-62761904D02*
X141643866Y-62761904D01*
X141643866Y-62761904D02*
X141548628Y-62714285D01*
X141548628Y-62714285D02*
X141501009Y-62666666D01*
X141501009Y-62666666D02*
X141453390Y-62571428D01*
X119642857Y-64441995D02*
X119976190Y-63965804D01*
X120214285Y-64441995D02*
X120214285Y-63441995D01*
X120214285Y-63441995D02*
X119833333Y-63441995D01*
X119833333Y-63441995D02*
X119738095Y-63489614D01*
X119738095Y-63489614D02*
X119690476Y-63537233D01*
X119690476Y-63537233D02*
X119642857Y-63632471D01*
X119642857Y-63632471D02*
X119642857Y-63775328D01*
X119642857Y-63775328D02*
X119690476Y-63870566D01*
X119690476Y-63870566D02*
X119738095Y-63918185D01*
X119738095Y-63918185D02*
X119833333Y-63965804D01*
X119833333Y-63965804D02*
X120214285Y-63965804D01*
X118785714Y-63775328D02*
X118785714Y-64441995D01*
X119023809Y-63394376D02*
X119261904Y-64108661D01*
X119261904Y-64108661D02*
X118642857Y-64108661D01*
X118119047Y-63870566D02*
X118214285Y-63822947D01*
X118214285Y-63822947D02*
X118261904Y-63775328D01*
X118261904Y-63775328D02*
X118309523Y-63680090D01*
X118309523Y-63680090D02*
X118309523Y-63632471D01*
X118309523Y-63632471D02*
X118261904Y-63537233D01*
X118261904Y-63537233D02*
X118214285Y-63489614D01*
X118214285Y-63489614D02*
X118119047Y-63441995D01*
X118119047Y-63441995D02*
X117928571Y-63441995D01*
X117928571Y-63441995D02*
X117833333Y-63489614D01*
X117833333Y-63489614D02*
X117785714Y-63537233D01*
X117785714Y-63537233D02*
X117738095Y-63632471D01*
X117738095Y-63632471D02*
X117738095Y-63680090D01*
X117738095Y-63680090D02*
X117785714Y-63775328D01*
X117785714Y-63775328D02*
X117833333Y-63822947D01*
X117833333Y-63822947D02*
X117928571Y-63870566D01*
X117928571Y-63870566D02*
X118119047Y-63870566D01*
X118119047Y-63870566D02*
X118214285Y-63918185D01*
X118214285Y-63918185D02*
X118261904Y-63965804D01*
X118261904Y-63965804D02*
X118309523Y-64061042D01*
X118309523Y-64061042D02*
X118309523Y-64251518D01*
X118309523Y-64251518D02*
X118261904Y-64346756D01*
X118261904Y-64346756D02*
X118214285Y-64394376D01*
X118214285Y-64394376D02*
X118119047Y-64441995D01*
X118119047Y-64441995D02*
X117928571Y-64441995D01*
X117928571Y-64441995D02*
X117833333Y-64394376D01*
X117833333Y-64394376D02*
X117785714Y-64346756D01*
X117785714Y-64346756D02*
X117738095Y-64251518D01*
X117738095Y-64251518D02*
X117738095Y-64061042D01*
X117738095Y-64061042D02*
X117785714Y-63965804D01*
X117785714Y-63965804D02*
X117833333Y-63918185D01*
X117833333Y-63918185D02*
X117928571Y-63870566D01*
X173295238Y-63600057D02*
X173390476Y-63552438D01*
X173390476Y-63552438D02*
X173485714Y-63457200D01*
X173485714Y-63457200D02*
X173628571Y-63314342D01*
X173628571Y-63314342D02*
X173723809Y-63266723D01*
X173723809Y-63266723D02*
X173819047Y-63266723D01*
X173771428Y-63504819D02*
X173866666Y-63457200D01*
X173866666Y-63457200D02*
X173961904Y-63361961D01*
X173961904Y-63361961D02*
X174009523Y-63171485D01*
X174009523Y-63171485D02*
X174009523Y-62838152D01*
X174009523Y-62838152D02*
X173961904Y-62647676D01*
X173961904Y-62647676D02*
X173866666Y-62552438D01*
X173866666Y-62552438D02*
X173771428Y-62504819D01*
X173771428Y-62504819D02*
X173580952Y-62504819D01*
X173580952Y-62504819D02*
X173485714Y-62552438D01*
X173485714Y-62552438D02*
X173390476Y-62647676D01*
X173390476Y-62647676D02*
X173342857Y-62838152D01*
X173342857Y-62838152D02*
X173342857Y-63171485D01*
X173342857Y-63171485D02*
X173390476Y-63361961D01*
X173390476Y-63361961D02*
X173485714Y-63457200D01*
X173485714Y-63457200D02*
X173580952Y-63504819D01*
X173580952Y-63504819D02*
X173771428Y-63504819D01*
X172485714Y-62504819D02*
X172676190Y-62504819D01*
X172676190Y-62504819D02*
X172771428Y-62552438D01*
X172771428Y-62552438D02*
X172819047Y-62600057D01*
X172819047Y-62600057D02*
X172914285Y-62742914D01*
X172914285Y-62742914D02*
X172961904Y-62933390D01*
X172961904Y-62933390D02*
X172961904Y-63314342D01*
X172961904Y-63314342D02*
X172914285Y-63409580D01*
X172914285Y-63409580D02*
X172866666Y-63457200D01*
X172866666Y-63457200D02*
X172771428Y-63504819D01*
X172771428Y-63504819D02*
X172580952Y-63504819D01*
X172580952Y-63504819D02*
X172485714Y-63457200D01*
X172485714Y-63457200D02*
X172438095Y-63409580D01*
X172438095Y-63409580D02*
X172390476Y-63314342D01*
X172390476Y-63314342D02*
X172390476Y-63076247D01*
X172390476Y-63076247D02*
X172438095Y-62981009D01*
X172438095Y-62981009D02*
X172485714Y-62933390D01*
X172485714Y-62933390D02*
X172580952Y-62885771D01*
X172580952Y-62885771D02*
X172771428Y-62885771D01*
X172771428Y-62885771D02*
X172866666Y-62933390D01*
X172866666Y-62933390D02*
X172914285Y-62981009D01*
X172914285Y-62981009D02*
X172961904Y-63076247D01*
X132289580Y-91333333D02*
X132337200Y-91285714D01*
X132337200Y-91285714D02*
X132384819Y-91142857D01*
X132384819Y-91142857D02*
X132384819Y-91047619D01*
X132384819Y-91047619D02*
X132337200Y-90904762D01*
X132337200Y-90904762D02*
X132241961Y-90809524D01*
X132241961Y-90809524D02*
X132146723Y-90761905D01*
X132146723Y-90761905D02*
X131956247Y-90714286D01*
X131956247Y-90714286D02*
X131813390Y-90714286D01*
X131813390Y-90714286D02*
X131622914Y-90761905D01*
X131622914Y-90761905D02*
X131527676Y-90809524D01*
X131527676Y-90809524D02*
X131432438Y-90904762D01*
X131432438Y-90904762D02*
X131384819Y-91047619D01*
X131384819Y-91047619D02*
X131384819Y-91142857D01*
X131384819Y-91142857D02*
X131432438Y-91285714D01*
X131432438Y-91285714D02*
X131480057Y-91333333D01*
X131384819Y-91666667D02*
X131384819Y-92333333D01*
X131384819Y-92333333D02*
X132384819Y-91904762D01*
X140510071Y-75914306D02*
X140843404Y-75438115D01*
X141081499Y-75914306D02*
X141081499Y-74914306D01*
X141081499Y-74914306D02*
X140700547Y-74914306D01*
X140700547Y-74914306D02*
X140605309Y-74961925D01*
X140605309Y-74961925D02*
X140557690Y-75009544D01*
X140557690Y-75009544D02*
X140510071Y-75104782D01*
X140510071Y-75104782D02*
X140510071Y-75247639D01*
X140510071Y-75247639D02*
X140557690Y-75342877D01*
X140557690Y-75342877D02*
X140605309Y-75390496D01*
X140605309Y-75390496D02*
X140700547Y-75438115D01*
X140700547Y-75438115D02*
X141081499Y-75438115D01*
X139605309Y-74914306D02*
X140081499Y-74914306D01*
X140081499Y-74914306D02*
X140129118Y-75390496D01*
X140129118Y-75390496D02*
X140081499Y-75342877D01*
X140081499Y-75342877D02*
X139986261Y-75295258D01*
X139986261Y-75295258D02*
X139748166Y-75295258D01*
X139748166Y-75295258D02*
X139652928Y-75342877D01*
X139652928Y-75342877D02*
X139605309Y-75390496D01*
X139605309Y-75390496D02*
X139557690Y-75485734D01*
X139557690Y-75485734D02*
X139557690Y-75723829D01*
X139557690Y-75723829D02*
X139605309Y-75819067D01*
X139605309Y-75819067D02*
X139652928Y-75866687D01*
X139652928Y-75866687D02*
X139748166Y-75914306D01*
X139748166Y-75914306D02*
X139986261Y-75914306D01*
X139986261Y-75914306D02*
X140081499Y-75866687D01*
X140081499Y-75866687D02*
X140129118Y-75819067D01*
X138700547Y-74914306D02*
X138891023Y-74914306D01*
X138891023Y-74914306D02*
X138986261Y-74961925D01*
X138986261Y-74961925D02*
X139033880Y-75009544D01*
X139033880Y-75009544D02*
X139129118Y-75152401D01*
X139129118Y-75152401D02*
X139176737Y-75342877D01*
X139176737Y-75342877D02*
X139176737Y-75723829D01*
X139176737Y-75723829D02*
X139129118Y-75819067D01*
X139129118Y-75819067D02*
X139081499Y-75866687D01*
X139081499Y-75866687D02*
X138986261Y-75914306D01*
X138986261Y-75914306D02*
X138795785Y-75914306D01*
X138795785Y-75914306D02*
X138700547Y-75866687D01*
X138700547Y-75866687D02*
X138652928Y-75819067D01*
X138652928Y-75819067D02*
X138605309Y-75723829D01*
X138605309Y-75723829D02*
X138605309Y-75485734D01*
X138605309Y-75485734D02*
X138652928Y-75390496D01*
X138652928Y-75390496D02*
X138700547Y-75342877D01*
X138700547Y-75342877D02*
X138795785Y-75295258D01*
X138795785Y-75295258D02*
X138986261Y-75295258D01*
X138986261Y-75295258D02*
X139081499Y-75342877D01*
X139081499Y-75342877D02*
X139129118Y-75390496D01*
X139129118Y-75390496D02*
X139176737Y-75485734D01*
X152742768Y-69660483D02*
X152742768Y-68660483D01*
X152742768Y-68660483D02*
X152504673Y-68660483D01*
X152504673Y-68660483D02*
X152361816Y-68708102D01*
X152361816Y-68708102D02*
X152266578Y-68803340D01*
X152266578Y-68803340D02*
X152218959Y-68898578D01*
X152218959Y-68898578D02*
X152171340Y-69089054D01*
X152171340Y-69089054D02*
X152171340Y-69231911D01*
X152171340Y-69231911D02*
X152218959Y-69422387D01*
X152218959Y-69422387D02*
X152266578Y-69517625D01*
X152266578Y-69517625D02*
X152361816Y-69612864D01*
X152361816Y-69612864D02*
X152504673Y-69660483D01*
X152504673Y-69660483D02*
X152742768Y-69660483D01*
X151695149Y-69660483D02*
X151504673Y-69660483D01*
X151504673Y-69660483D02*
X151409435Y-69612864D01*
X151409435Y-69612864D02*
X151361816Y-69565244D01*
X151361816Y-69565244D02*
X151266578Y-69422387D01*
X151266578Y-69422387D02*
X151218959Y-69231911D01*
X151218959Y-69231911D02*
X151218959Y-68850959D01*
X151218959Y-68850959D02*
X151266578Y-68755721D01*
X151266578Y-68755721D02*
X151314197Y-68708102D01*
X151314197Y-68708102D02*
X151409435Y-68660483D01*
X151409435Y-68660483D02*
X151599911Y-68660483D01*
X151599911Y-68660483D02*
X151695149Y-68708102D01*
X151695149Y-68708102D02*
X151742768Y-68755721D01*
X151742768Y-68755721D02*
X151790387Y-68850959D01*
X151790387Y-68850959D02*
X151790387Y-69089054D01*
X151790387Y-69089054D02*
X151742768Y-69184292D01*
X151742768Y-69184292D02*
X151695149Y-69231911D01*
X151695149Y-69231911D02*
X151599911Y-69279530D01*
X151599911Y-69279530D02*
X151409435Y-69279530D01*
X151409435Y-69279530D02*
X151314197Y-69231911D01*
X151314197Y-69231911D02*
X151266578Y-69184292D01*
X151266578Y-69184292D02*
X151218959Y-69089054D01*
X110289580Y-55357142D02*
X110337200Y-55309523D01*
X110337200Y-55309523D02*
X110384819Y-55166666D01*
X110384819Y-55166666D02*
X110384819Y-55071428D01*
X110384819Y-55071428D02*
X110337200Y-54928571D01*
X110337200Y-54928571D02*
X110241961Y-54833333D01*
X110241961Y-54833333D02*
X110146723Y-54785714D01*
X110146723Y-54785714D02*
X109956247Y-54738095D01*
X109956247Y-54738095D02*
X109813390Y-54738095D01*
X109813390Y-54738095D02*
X109622914Y-54785714D01*
X109622914Y-54785714D02*
X109527676Y-54833333D01*
X109527676Y-54833333D02*
X109432438Y-54928571D01*
X109432438Y-54928571D02*
X109384819Y-55071428D01*
X109384819Y-55071428D02*
X109384819Y-55166666D01*
X109384819Y-55166666D02*
X109432438Y-55309523D01*
X109432438Y-55309523D02*
X109480057Y-55357142D01*
X110384819Y-56309523D02*
X110384819Y-55738095D01*
X110384819Y-56023809D02*
X109384819Y-56023809D01*
X109384819Y-56023809D02*
X109527676Y-55928571D01*
X109527676Y-55928571D02*
X109622914Y-55833333D01*
X109622914Y-55833333D02*
X109670533Y-55738095D01*
X109384819Y-57214285D02*
X109384819Y-56738095D01*
X109384819Y-56738095D02*
X109861009Y-56690476D01*
X109861009Y-56690476D02*
X109813390Y-56738095D01*
X109813390Y-56738095D02*
X109765771Y-56833333D01*
X109765771Y-56833333D02*
X109765771Y-57071428D01*
X109765771Y-57071428D02*
X109813390Y-57166666D01*
X109813390Y-57166666D02*
X109861009Y-57214285D01*
X109861009Y-57214285D02*
X109956247Y-57261904D01*
X109956247Y-57261904D02*
X110194342Y-57261904D01*
X110194342Y-57261904D02*
X110289580Y-57214285D01*
X110289580Y-57214285D02*
X110337200Y-57166666D01*
X110337200Y-57166666D02*
X110384819Y-57071428D01*
X110384819Y-57071428D02*
X110384819Y-56833333D01*
X110384819Y-56833333D02*
X110337200Y-56738095D01*
X110337200Y-56738095D02*
X110289580Y-56690476D01*
X118642857Y-67884819D02*
X118976190Y-67408628D01*
X119214285Y-67884819D02*
X119214285Y-66884819D01*
X119214285Y-66884819D02*
X118833333Y-66884819D01*
X118833333Y-66884819D02*
X118738095Y-66932438D01*
X118738095Y-66932438D02*
X118690476Y-66980057D01*
X118690476Y-66980057D02*
X118642857Y-67075295D01*
X118642857Y-67075295D02*
X118642857Y-67218152D01*
X118642857Y-67218152D02*
X118690476Y-67313390D01*
X118690476Y-67313390D02*
X118738095Y-67361009D01*
X118738095Y-67361009D02*
X118833333Y-67408628D01*
X118833333Y-67408628D02*
X119214285Y-67408628D01*
X117785714Y-67218152D02*
X117785714Y-67884819D01*
X118023809Y-66837200D02*
X118261904Y-67551485D01*
X118261904Y-67551485D02*
X117642857Y-67551485D01*
X117214285Y-67884819D02*
X117023809Y-67884819D01*
X117023809Y-67884819D02*
X116928571Y-67837200D01*
X116928571Y-67837200D02*
X116880952Y-67789580D01*
X116880952Y-67789580D02*
X116785714Y-67646723D01*
X116785714Y-67646723D02*
X116738095Y-67456247D01*
X116738095Y-67456247D02*
X116738095Y-67075295D01*
X116738095Y-67075295D02*
X116785714Y-66980057D01*
X116785714Y-66980057D02*
X116833333Y-66932438D01*
X116833333Y-66932438D02*
X116928571Y-66884819D01*
X116928571Y-66884819D02*
X117119047Y-66884819D01*
X117119047Y-66884819D02*
X117214285Y-66932438D01*
X117214285Y-66932438D02*
X117261904Y-66980057D01*
X117261904Y-66980057D02*
X117309523Y-67075295D01*
X117309523Y-67075295D02*
X117309523Y-67313390D01*
X117309523Y-67313390D02*
X117261904Y-67408628D01*
X117261904Y-67408628D02*
X117214285Y-67456247D01*
X117214285Y-67456247D02*
X117119047Y-67503866D01*
X117119047Y-67503866D02*
X116928571Y-67503866D01*
X116928571Y-67503866D02*
X116833333Y-67456247D01*
X116833333Y-67456247D02*
X116785714Y-67408628D01*
X116785714Y-67408628D02*
X116738095Y-67313390D01*
X134789580Y-66857142D02*
X134837200Y-66809523D01*
X134837200Y-66809523D02*
X134884819Y-66666666D01*
X134884819Y-66666666D02*
X134884819Y-66571428D01*
X134884819Y-66571428D02*
X134837200Y-66428571D01*
X134837200Y-66428571D02*
X134741961Y-66333333D01*
X134741961Y-66333333D02*
X134646723Y-66285714D01*
X134646723Y-66285714D02*
X134456247Y-66238095D01*
X134456247Y-66238095D02*
X134313390Y-66238095D01*
X134313390Y-66238095D02*
X134122914Y-66285714D01*
X134122914Y-66285714D02*
X134027676Y-66333333D01*
X134027676Y-66333333D02*
X133932438Y-66428571D01*
X133932438Y-66428571D02*
X133884819Y-66571428D01*
X133884819Y-66571428D02*
X133884819Y-66666666D01*
X133884819Y-66666666D02*
X133932438Y-66809523D01*
X133932438Y-66809523D02*
X133980057Y-66857142D01*
X134884819Y-67809523D02*
X134884819Y-67238095D01*
X134884819Y-67523809D02*
X133884819Y-67523809D01*
X133884819Y-67523809D02*
X134027676Y-67428571D01*
X134027676Y-67428571D02*
X134122914Y-67333333D01*
X134122914Y-67333333D02*
X134170533Y-67238095D01*
X133884819Y-68428571D02*
X133884819Y-68523809D01*
X133884819Y-68523809D02*
X133932438Y-68619047D01*
X133932438Y-68619047D02*
X133980057Y-68666666D01*
X133980057Y-68666666D02*
X134075295Y-68714285D01*
X134075295Y-68714285D02*
X134265771Y-68761904D01*
X134265771Y-68761904D02*
X134503866Y-68761904D01*
X134503866Y-68761904D02*
X134694342Y-68714285D01*
X134694342Y-68714285D02*
X134789580Y-68666666D01*
X134789580Y-68666666D02*
X134837200Y-68619047D01*
X134837200Y-68619047D02*
X134884819Y-68523809D01*
X134884819Y-68523809D02*
X134884819Y-68428571D01*
X134884819Y-68428571D02*
X134837200Y-68333333D01*
X134837200Y-68333333D02*
X134789580Y-68285714D01*
X134789580Y-68285714D02*
X134694342Y-68238095D01*
X134694342Y-68238095D02*
X134503866Y-68190476D01*
X134503866Y-68190476D02*
X134265771Y-68190476D01*
X134265771Y-68190476D02*
X134075295Y-68238095D01*
X134075295Y-68238095D02*
X133980057Y-68285714D01*
X133980057Y-68285714D02*
X133932438Y-68333333D01*
X133932438Y-68333333D02*
X133884819Y-68428571D01*
X121844414Y-63104819D02*
X121844414Y-62104819D01*
X121844414Y-62104819D02*
X121606319Y-62104819D01*
X121606319Y-62104819D02*
X121463462Y-62152438D01*
X121463462Y-62152438D02*
X121368224Y-62247676D01*
X121368224Y-62247676D02*
X121320605Y-62342914D01*
X121320605Y-62342914D02*
X121272986Y-62533390D01*
X121272986Y-62533390D02*
X121272986Y-62676247D01*
X121272986Y-62676247D02*
X121320605Y-62866723D01*
X121320605Y-62866723D02*
X121368224Y-62961961D01*
X121368224Y-62961961D02*
X121463462Y-63057200D01*
X121463462Y-63057200D02*
X121606319Y-63104819D01*
X121606319Y-63104819D02*
X121844414Y-63104819D01*
X120939652Y-62104819D02*
X120272986Y-62104819D01*
X120272986Y-62104819D02*
X120701557Y-63104819D01*
X122429580Y-72857142D02*
X122477200Y-72809523D01*
X122477200Y-72809523D02*
X122524819Y-72666666D01*
X122524819Y-72666666D02*
X122524819Y-72571428D01*
X122524819Y-72571428D02*
X122477200Y-72428571D01*
X122477200Y-72428571D02*
X122381961Y-72333333D01*
X122381961Y-72333333D02*
X122286723Y-72285714D01*
X122286723Y-72285714D02*
X122096247Y-72238095D01*
X122096247Y-72238095D02*
X121953390Y-72238095D01*
X121953390Y-72238095D02*
X121762914Y-72285714D01*
X121762914Y-72285714D02*
X121667676Y-72333333D01*
X121667676Y-72333333D02*
X121572438Y-72428571D01*
X121572438Y-72428571D02*
X121524819Y-72571428D01*
X121524819Y-72571428D02*
X121524819Y-72666666D01*
X121524819Y-72666666D02*
X121572438Y-72809523D01*
X121572438Y-72809523D02*
X121620057Y-72857142D01*
X122524819Y-73809523D02*
X122524819Y-73238095D01*
X122524819Y-73523809D02*
X121524819Y-73523809D01*
X121524819Y-73523809D02*
X121667676Y-73428571D01*
X121667676Y-73428571D02*
X121762914Y-73333333D01*
X121762914Y-73333333D02*
X121810533Y-73238095D01*
X121524819Y-74142857D02*
X121524819Y-74761904D01*
X121524819Y-74761904D02*
X121905771Y-74428571D01*
X121905771Y-74428571D02*
X121905771Y-74571428D01*
X121905771Y-74571428D02*
X121953390Y-74666666D01*
X121953390Y-74666666D02*
X122001009Y-74714285D01*
X122001009Y-74714285D02*
X122096247Y-74761904D01*
X122096247Y-74761904D02*
X122334342Y-74761904D01*
X122334342Y-74761904D02*
X122429580Y-74714285D01*
X122429580Y-74714285D02*
X122477200Y-74666666D01*
X122477200Y-74666666D02*
X122524819Y-74571428D01*
X122524819Y-74571428D02*
X122524819Y-74285714D01*
X122524819Y-74285714D02*
X122477200Y-74190476D01*
X122477200Y-74190476D02*
X122429580Y-74142857D01*
X127352479Y-59769290D02*
X126352479Y-59769290D01*
X126352479Y-59769290D02*
X126352479Y-60007385D01*
X126352479Y-60007385D02*
X126400098Y-60150242D01*
X126400098Y-60150242D02*
X126495336Y-60245480D01*
X126495336Y-60245480D02*
X126590574Y-60293099D01*
X126590574Y-60293099D02*
X126781050Y-60340718D01*
X126781050Y-60340718D02*
X126923907Y-60340718D01*
X126923907Y-60340718D02*
X127114383Y-60293099D01*
X127114383Y-60293099D02*
X127209621Y-60245480D01*
X127209621Y-60245480D02*
X127304860Y-60150242D01*
X127304860Y-60150242D02*
X127352479Y-60007385D01*
X127352479Y-60007385D02*
X127352479Y-59769290D01*
X126685812Y-61197861D02*
X127352479Y-61197861D01*
X126304860Y-60959766D02*
X127019145Y-60721671D01*
X127019145Y-60721671D02*
X127019145Y-61340718D01*
X177884819Y-66357142D02*
X177408628Y-66023809D01*
X177884819Y-65785714D02*
X176884819Y-65785714D01*
X176884819Y-65785714D02*
X176884819Y-66166666D01*
X176884819Y-66166666D02*
X176932438Y-66261904D01*
X176932438Y-66261904D02*
X176980057Y-66309523D01*
X176980057Y-66309523D02*
X177075295Y-66357142D01*
X177075295Y-66357142D02*
X177218152Y-66357142D01*
X177218152Y-66357142D02*
X177313390Y-66309523D01*
X177313390Y-66309523D02*
X177361009Y-66261904D01*
X177361009Y-66261904D02*
X177408628Y-66166666D01*
X177408628Y-66166666D02*
X177408628Y-65785714D01*
X176980057Y-66738095D02*
X176932438Y-66785714D01*
X176932438Y-66785714D02*
X176884819Y-66880952D01*
X176884819Y-66880952D02*
X176884819Y-67119047D01*
X176884819Y-67119047D02*
X176932438Y-67214285D01*
X176932438Y-67214285D02*
X176980057Y-67261904D01*
X176980057Y-67261904D02*
X177075295Y-67309523D01*
X177075295Y-67309523D02*
X177170533Y-67309523D01*
X177170533Y-67309523D02*
X177313390Y-67261904D01*
X177313390Y-67261904D02*
X177884819Y-66690476D01*
X177884819Y-66690476D02*
X177884819Y-67309523D01*
X177884819Y-68261904D02*
X177884819Y-67690476D01*
X177884819Y-67976190D02*
X176884819Y-67976190D01*
X176884819Y-67976190D02*
X177027676Y-67880952D01*
X177027676Y-67880952D02*
X177122914Y-67785714D01*
X177122914Y-67785714D02*
X177170533Y-67690476D01*
X177884819Y-63182142D02*
X177408628Y-62848809D01*
X177884819Y-62610714D02*
X176884819Y-62610714D01*
X176884819Y-62610714D02*
X176884819Y-62991666D01*
X176884819Y-62991666D02*
X176932438Y-63086904D01*
X176932438Y-63086904D02*
X176980057Y-63134523D01*
X176980057Y-63134523D02*
X177075295Y-63182142D01*
X177075295Y-63182142D02*
X177218152Y-63182142D01*
X177218152Y-63182142D02*
X177313390Y-63134523D01*
X177313390Y-63134523D02*
X177361009Y-63086904D01*
X177361009Y-63086904D02*
X177408628Y-62991666D01*
X177408628Y-62991666D02*
X177408628Y-62610714D01*
X177884819Y-64134523D02*
X177884819Y-63563095D01*
X177884819Y-63848809D02*
X176884819Y-63848809D01*
X176884819Y-63848809D02*
X177027676Y-63753571D01*
X177027676Y-63753571D02*
X177122914Y-63658333D01*
X177122914Y-63658333D02*
X177170533Y-63563095D01*
X176980057Y-64515476D02*
X176932438Y-64563095D01*
X176932438Y-64563095D02*
X176884819Y-64658333D01*
X176884819Y-64658333D02*
X176884819Y-64896428D01*
X176884819Y-64896428D02*
X176932438Y-64991666D01*
X176932438Y-64991666D02*
X176980057Y-65039285D01*
X176980057Y-65039285D02*
X177075295Y-65086904D01*
X177075295Y-65086904D02*
X177170533Y-65086904D01*
X177170533Y-65086904D02*
X177313390Y-65039285D01*
X177313390Y-65039285D02*
X177884819Y-64467857D01*
X177884819Y-64467857D02*
X177884819Y-65086904D01*
X173642857Y-70384819D02*
X173976190Y-69908628D01*
X174214285Y-70384819D02*
X174214285Y-69384819D01*
X174214285Y-69384819D02*
X173833333Y-69384819D01*
X173833333Y-69384819D02*
X173738095Y-69432438D01*
X173738095Y-69432438D02*
X173690476Y-69480057D01*
X173690476Y-69480057D02*
X173642857Y-69575295D01*
X173642857Y-69575295D02*
X173642857Y-69718152D01*
X173642857Y-69718152D02*
X173690476Y-69813390D01*
X173690476Y-69813390D02*
X173738095Y-69861009D01*
X173738095Y-69861009D02*
X173833333Y-69908628D01*
X173833333Y-69908628D02*
X174214285Y-69908628D01*
X173261904Y-69480057D02*
X173214285Y-69432438D01*
X173214285Y-69432438D02*
X173119047Y-69384819D01*
X173119047Y-69384819D02*
X172880952Y-69384819D01*
X172880952Y-69384819D02*
X172785714Y-69432438D01*
X172785714Y-69432438D02*
X172738095Y-69480057D01*
X172738095Y-69480057D02*
X172690476Y-69575295D01*
X172690476Y-69575295D02*
X172690476Y-69670533D01*
X172690476Y-69670533D02*
X172738095Y-69813390D01*
X172738095Y-69813390D02*
X173309523Y-70384819D01*
X173309523Y-70384819D02*
X172690476Y-70384819D01*
X172357142Y-69384819D02*
X171738095Y-69384819D01*
X171738095Y-69384819D02*
X172071428Y-69765771D01*
X172071428Y-69765771D02*
X171928571Y-69765771D01*
X171928571Y-69765771D02*
X171833333Y-69813390D01*
X171833333Y-69813390D02*
X171785714Y-69861009D01*
X171785714Y-69861009D02*
X171738095Y-69956247D01*
X171738095Y-69956247D02*
X171738095Y-70194342D01*
X171738095Y-70194342D02*
X171785714Y-70289580D01*
X171785714Y-70289580D02*
X171833333Y-70337200D01*
X171833333Y-70337200D02*
X171928571Y-70384819D01*
X171928571Y-70384819D02*
X172214285Y-70384819D01*
X172214285Y-70384819D02*
X172309523Y-70337200D01*
X172309523Y-70337200D02*
X172357142Y-70289580D01*
X139642857Y-70679580D02*
X139690476Y-70727200D01*
X139690476Y-70727200D02*
X139833333Y-70774819D01*
X139833333Y-70774819D02*
X139928571Y-70774819D01*
X139928571Y-70774819D02*
X140071428Y-70727200D01*
X140071428Y-70727200D02*
X140166666Y-70631961D01*
X140166666Y-70631961D02*
X140214285Y-70536723D01*
X140214285Y-70536723D02*
X140261904Y-70346247D01*
X140261904Y-70346247D02*
X140261904Y-70203390D01*
X140261904Y-70203390D02*
X140214285Y-70012914D01*
X140214285Y-70012914D02*
X140166666Y-69917676D01*
X140166666Y-69917676D02*
X140071428Y-69822438D01*
X140071428Y-69822438D02*
X139928571Y-69774819D01*
X139928571Y-69774819D02*
X139833333Y-69774819D01*
X139833333Y-69774819D02*
X139690476Y-69822438D01*
X139690476Y-69822438D02*
X139642857Y-69870057D01*
X138690476Y-70774819D02*
X139261904Y-70774819D01*
X138976190Y-70774819D02*
X138976190Y-69774819D01*
X138976190Y-69774819D02*
X139071428Y-69917676D01*
X139071428Y-69917676D02*
X139166666Y-70012914D01*
X139166666Y-70012914D02*
X139261904Y-70060533D01*
X138309523Y-69870057D02*
X138261904Y-69822438D01*
X138261904Y-69822438D02*
X138166666Y-69774819D01*
X138166666Y-69774819D02*
X137928571Y-69774819D01*
X137928571Y-69774819D02*
X137833333Y-69822438D01*
X137833333Y-69822438D02*
X137785714Y-69870057D01*
X137785714Y-69870057D02*
X137738095Y-69965295D01*
X137738095Y-69965295D02*
X137738095Y-70060533D01*
X137738095Y-70060533D02*
X137785714Y-70203390D01*
X137785714Y-70203390D02*
X138357142Y-70774819D01*
X138357142Y-70774819D02*
X137738095Y-70774819D01*
X140384819Y-100515314D02*
X139908628Y-100181981D01*
X140384819Y-99943886D02*
X139384819Y-99943886D01*
X139384819Y-99943886D02*
X139384819Y-100324838D01*
X139384819Y-100324838D02*
X139432438Y-100420076D01*
X139432438Y-100420076D02*
X139480057Y-100467695D01*
X139480057Y-100467695D02*
X139575295Y-100515314D01*
X139575295Y-100515314D02*
X139718152Y-100515314D01*
X139718152Y-100515314D02*
X139813390Y-100467695D01*
X139813390Y-100467695D02*
X139861009Y-100420076D01*
X139861009Y-100420076D02*
X139908628Y-100324838D01*
X139908628Y-100324838D02*
X139908628Y-99943886D01*
X139480057Y-100896267D02*
X139432438Y-100943886D01*
X139432438Y-100943886D02*
X139384819Y-101039124D01*
X139384819Y-101039124D02*
X139384819Y-101277219D01*
X139384819Y-101277219D02*
X139432438Y-101372457D01*
X139432438Y-101372457D02*
X139480057Y-101420076D01*
X139480057Y-101420076D02*
X139575295Y-101467695D01*
X139575295Y-101467695D02*
X139670533Y-101467695D01*
X139670533Y-101467695D02*
X139813390Y-101420076D01*
X139813390Y-101420076D02*
X140384819Y-100848648D01*
X140384819Y-100848648D02*
X140384819Y-101467695D01*
X114304819Y-65261905D02*
X113304819Y-65261905D01*
X113304819Y-65261905D02*
X113304819Y-65500000D01*
X113304819Y-65500000D02*
X113352438Y-65642857D01*
X113352438Y-65642857D02*
X113447676Y-65738095D01*
X113447676Y-65738095D02*
X113542914Y-65785714D01*
X113542914Y-65785714D02*
X113733390Y-65833333D01*
X113733390Y-65833333D02*
X113876247Y-65833333D01*
X113876247Y-65833333D02*
X114066723Y-65785714D01*
X114066723Y-65785714D02*
X114161961Y-65738095D01*
X114161961Y-65738095D02*
X114257200Y-65642857D01*
X114257200Y-65642857D02*
X114304819Y-65500000D01*
X114304819Y-65500000D02*
X114304819Y-65261905D01*
X113304819Y-66690476D02*
X113304819Y-66500000D01*
X113304819Y-66500000D02*
X113352438Y-66404762D01*
X113352438Y-66404762D02*
X113400057Y-66357143D01*
X113400057Y-66357143D02*
X113542914Y-66261905D01*
X113542914Y-66261905D02*
X113733390Y-66214286D01*
X113733390Y-66214286D02*
X114114342Y-66214286D01*
X114114342Y-66214286D02*
X114209580Y-66261905D01*
X114209580Y-66261905D02*
X114257200Y-66309524D01*
X114257200Y-66309524D02*
X114304819Y-66404762D01*
X114304819Y-66404762D02*
X114304819Y-66595238D01*
X114304819Y-66595238D02*
X114257200Y-66690476D01*
X114257200Y-66690476D02*
X114209580Y-66738095D01*
X114209580Y-66738095D02*
X114114342Y-66785714D01*
X114114342Y-66785714D02*
X113876247Y-66785714D01*
X113876247Y-66785714D02*
X113781009Y-66738095D01*
X113781009Y-66738095D02*
X113733390Y-66690476D01*
X113733390Y-66690476D02*
X113685771Y-66595238D01*
X113685771Y-66595238D02*
X113685771Y-66404762D01*
X113685771Y-66404762D02*
X113733390Y-66309524D01*
X113733390Y-66309524D02*
X113781009Y-66261905D01*
X113781009Y-66261905D02*
X113876247Y-66214286D01*
X130967857Y-57384819D02*
X131301190Y-56908628D01*
X131539285Y-57384819D02*
X131539285Y-56384819D01*
X131539285Y-56384819D02*
X131158333Y-56384819D01*
X131158333Y-56384819D02*
X131063095Y-56432438D01*
X131063095Y-56432438D02*
X131015476Y-56480057D01*
X131015476Y-56480057D02*
X130967857Y-56575295D01*
X130967857Y-56575295D02*
X130967857Y-56718152D01*
X130967857Y-56718152D02*
X131015476Y-56813390D01*
X131015476Y-56813390D02*
X131063095Y-56861009D01*
X131063095Y-56861009D02*
X131158333Y-56908628D01*
X131158333Y-56908628D02*
X131539285Y-56908628D01*
X130634523Y-56384819D02*
X130015476Y-56384819D01*
X130015476Y-56384819D02*
X130348809Y-56765771D01*
X130348809Y-56765771D02*
X130205952Y-56765771D01*
X130205952Y-56765771D02*
X130110714Y-56813390D01*
X130110714Y-56813390D02*
X130063095Y-56861009D01*
X130063095Y-56861009D02*
X130015476Y-56956247D01*
X130015476Y-56956247D02*
X130015476Y-57194342D01*
X130015476Y-57194342D02*
X130063095Y-57289580D01*
X130063095Y-57289580D02*
X130110714Y-57337200D01*
X130110714Y-57337200D02*
X130205952Y-57384819D01*
X130205952Y-57384819D02*
X130491666Y-57384819D01*
X130491666Y-57384819D02*
X130586904Y-57337200D01*
X130586904Y-57337200D02*
X130634523Y-57289580D01*
X129539285Y-57384819D02*
X129348809Y-57384819D01*
X129348809Y-57384819D02*
X129253571Y-57337200D01*
X129253571Y-57337200D02*
X129205952Y-57289580D01*
X129205952Y-57289580D02*
X129110714Y-57146723D01*
X129110714Y-57146723D02*
X129063095Y-56956247D01*
X129063095Y-56956247D02*
X129063095Y-56575295D01*
X129063095Y-56575295D02*
X129110714Y-56480057D01*
X129110714Y-56480057D02*
X129158333Y-56432438D01*
X129158333Y-56432438D02*
X129253571Y-56384819D01*
X129253571Y-56384819D02*
X129444047Y-56384819D01*
X129444047Y-56384819D02*
X129539285Y-56432438D01*
X129539285Y-56432438D02*
X129586904Y-56480057D01*
X129586904Y-56480057D02*
X129634523Y-56575295D01*
X129634523Y-56575295D02*
X129634523Y-56813390D01*
X129634523Y-56813390D02*
X129586904Y-56908628D01*
X129586904Y-56908628D02*
X129539285Y-56956247D01*
X129539285Y-56956247D02*
X129444047Y-57003866D01*
X129444047Y-57003866D02*
X129253571Y-57003866D01*
X129253571Y-57003866D02*
X129158333Y-56956247D01*
X129158333Y-56956247D02*
X129110714Y-56908628D01*
X129110714Y-56908628D02*
X129063095Y-56813390D01*
D12*
X159375714Y-75695270D02*
X159496666Y-75634794D01*
X159496666Y-75634794D02*
X159617619Y-75513842D01*
X159617619Y-75513842D02*
X159799047Y-75332413D01*
X159799047Y-75332413D02*
X159920000Y-75271937D01*
X159920000Y-75271937D02*
X160040952Y-75271937D01*
X159980476Y-75574318D02*
X160101428Y-75513842D01*
X160101428Y-75513842D02*
X160222381Y-75392889D01*
X160222381Y-75392889D02*
X160282857Y-75150984D01*
X160282857Y-75150984D02*
X160282857Y-74727651D01*
X160282857Y-74727651D02*
X160222381Y-74485746D01*
X160222381Y-74485746D02*
X160101428Y-74364794D01*
X160101428Y-74364794D02*
X159980476Y-74304318D01*
X159980476Y-74304318D02*
X159738571Y-74304318D01*
X159738571Y-74304318D02*
X159617619Y-74364794D01*
X159617619Y-74364794D02*
X159496666Y-74485746D01*
X159496666Y-74485746D02*
X159436190Y-74727651D01*
X159436190Y-74727651D02*
X159436190Y-75150984D01*
X159436190Y-75150984D02*
X159496666Y-75392889D01*
X159496666Y-75392889D02*
X159617619Y-75513842D01*
X159617619Y-75513842D02*
X159738571Y-75574318D01*
X159738571Y-75574318D02*
X159980476Y-75574318D01*
X158226666Y-75574318D02*
X158952381Y-75574318D01*
X158589524Y-75574318D02*
X158589524Y-74304318D01*
X158589524Y-74304318D02*
X158710476Y-74485746D01*
X158710476Y-74485746D02*
X158831428Y-74606699D01*
X158831428Y-74606699D02*
X158952381Y-74667175D01*
X157138095Y-74727651D02*
X157138095Y-75574318D01*
X157440476Y-74243842D02*
X157742857Y-75150984D01*
X157742857Y-75150984D02*
X156956666Y-75150984D01*
D11*
X177877472Y-69550967D02*
X177401281Y-69217634D01*
X177877472Y-68979539D02*
X176877472Y-68979539D01*
X176877472Y-68979539D02*
X176877472Y-69360491D01*
X176877472Y-69360491D02*
X176925091Y-69455729D01*
X176925091Y-69455729D02*
X176972710Y-69503348D01*
X176972710Y-69503348D02*
X177067948Y-69550967D01*
X177067948Y-69550967D02*
X177210805Y-69550967D01*
X177210805Y-69550967D02*
X177306043Y-69503348D01*
X177306043Y-69503348D02*
X177353662Y-69455729D01*
X177353662Y-69455729D02*
X177401281Y-69360491D01*
X177401281Y-69360491D02*
X177401281Y-68979539D01*
X176972710Y-69931920D02*
X176925091Y-69979539D01*
X176925091Y-69979539D02*
X176877472Y-70074777D01*
X176877472Y-70074777D02*
X176877472Y-70312872D01*
X176877472Y-70312872D02*
X176925091Y-70408110D01*
X176925091Y-70408110D02*
X176972710Y-70455729D01*
X176972710Y-70455729D02*
X177067948Y-70503348D01*
X177067948Y-70503348D02*
X177163186Y-70503348D01*
X177163186Y-70503348D02*
X177306043Y-70455729D01*
X177306043Y-70455729D02*
X177877472Y-69884301D01*
X177877472Y-69884301D02*
X177877472Y-70503348D01*
X177210805Y-71360491D02*
X177877472Y-71360491D01*
X176829853Y-71122396D02*
X177544138Y-70884301D01*
X177544138Y-70884301D02*
X177544138Y-71503348D01*
X144642857Y-67884819D02*
X144976190Y-67408628D01*
X145214285Y-67884819D02*
X145214285Y-66884819D01*
X145214285Y-66884819D02*
X144833333Y-66884819D01*
X144833333Y-66884819D02*
X144738095Y-66932438D01*
X144738095Y-66932438D02*
X144690476Y-66980057D01*
X144690476Y-66980057D02*
X144642857Y-67075295D01*
X144642857Y-67075295D02*
X144642857Y-67218152D01*
X144642857Y-67218152D02*
X144690476Y-67313390D01*
X144690476Y-67313390D02*
X144738095Y-67361009D01*
X144738095Y-67361009D02*
X144833333Y-67408628D01*
X144833333Y-67408628D02*
X145214285Y-67408628D01*
X143738095Y-66884819D02*
X144214285Y-66884819D01*
X144214285Y-66884819D02*
X144261904Y-67361009D01*
X144261904Y-67361009D02*
X144214285Y-67313390D01*
X144214285Y-67313390D02*
X144119047Y-67265771D01*
X144119047Y-67265771D02*
X143880952Y-67265771D01*
X143880952Y-67265771D02*
X143785714Y-67313390D01*
X143785714Y-67313390D02*
X143738095Y-67361009D01*
X143738095Y-67361009D02*
X143690476Y-67456247D01*
X143690476Y-67456247D02*
X143690476Y-67694342D01*
X143690476Y-67694342D02*
X143738095Y-67789580D01*
X143738095Y-67789580D02*
X143785714Y-67837200D01*
X143785714Y-67837200D02*
X143880952Y-67884819D01*
X143880952Y-67884819D02*
X144119047Y-67884819D01*
X144119047Y-67884819D02*
X144214285Y-67837200D01*
X144214285Y-67837200D02*
X144261904Y-67789580D01*
X143214285Y-67884819D02*
X143023809Y-67884819D01*
X143023809Y-67884819D02*
X142928571Y-67837200D01*
X142928571Y-67837200D02*
X142880952Y-67789580D01*
X142880952Y-67789580D02*
X142785714Y-67646723D01*
X142785714Y-67646723D02*
X142738095Y-67456247D01*
X142738095Y-67456247D02*
X142738095Y-67075295D01*
X142738095Y-67075295D02*
X142785714Y-66980057D01*
X142785714Y-66980057D02*
X142833333Y-66932438D01*
X142833333Y-66932438D02*
X142928571Y-66884819D01*
X142928571Y-66884819D02*
X143119047Y-66884819D01*
X143119047Y-66884819D02*
X143214285Y-66932438D01*
X143214285Y-66932438D02*
X143261904Y-66980057D01*
X143261904Y-66980057D02*
X143309523Y-67075295D01*
X143309523Y-67075295D02*
X143309523Y-67313390D01*
X143309523Y-67313390D02*
X143261904Y-67408628D01*
X143261904Y-67408628D02*
X143214285Y-67456247D01*
X143214285Y-67456247D02*
X143119047Y-67503866D01*
X143119047Y-67503866D02*
X142928571Y-67503866D01*
X142928571Y-67503866D02*
X142833333Y-67456247D01*
X142833333Y-67456247D02*
X142785714Y-67408628D01*
X142785714Y-67408628D02*
X142738095Y-67313390D01*
X116379753Y-58544978D02*
X115903562Y-58211645D01*
X116379753Y-57973550D02*
X115379753Y-57973550D01*
X115379753Y-57973550D02*
X115379753Y-58354502D01*
X115379753Y-58354502D02*
X115427372Y-58449740D01*
X115427372Y-58449740D02*
X115474991Y-58497359D01*
X115474991Y-58497359D02*
X115570229Y-58544978D01*
X115570229Y-58544978D02*
X115713086Y-58544978D01*
X115713086Y-58544978D02*
X115808324Y-58497359D01*
X115808324Y-58497359D02*
X115855943Y-58449740D01*
X115855943Y-58449740D02*
X115903562Y-58354502D01*
X115903562Y-58354502D02*
X115903562Y-57973550D01*
X115713086Y-59402121D02*
X116379753Y-59402121D01*
X115332134Y-59164026D02*
X116046419Y-58925931D01*
X116046419Y-58925931D02*
X116046419Y-59544978D01*
X115379753Y-60354502D02*
X115379753Y-60164026D01*
X115379753Y-60164026D02*
X115427372Y-60068788D01*
X115427372Y-60068788D02*
X115474991Y-60021169D01*
X115474991Y-60021169D02*
X115617848Y-59925931D01*
X115617848Y-59925931D02*
X115808324Y-59878312D01*
X115808324Y-59878312D02*
X116189276Y-59878312D01*
X116189276Y-59878312D02*
X116284514Y-59925931D01*
X116284514Y-59925931D02*
X116332134Y-59973550D01*
X116332134Y-59973550D02*
X116379753Y-60068788D01*
X116379753Y-60068788D02*
X116379753Y-60259264D01*
X116379753Y-60259264D02*
X116332134Y-60354502D01*
X116332134Y-60354502D02*
X116284514Y-60402121D01*
X116284514Y-60402121D02*
X116189276Y-60449740D01*
X116189276Y-60449740D02*
X115951181Y-60449740D01*
X115951181Y-60449740D02*
X115855943Y-60402121D01*
X115855943Y-60402121D02*
X115808324Y-60354502D01*
X115808324Y-60354502D02*
X115760705Y-60259264D01*
X115760705Y-60259264D02*
X115760705Y-60068788D01*
X115760705Y-60068788D02*
X115808324Y-59973550D01*
X115808324Y-59973550D02*
X115855943Y-59925931D01*
X115855943Y-59925931D02*
X115951181Y-59878312D01*
X124900236Y-74720434D02*
X124947855Y-74768054D01*
X124947855Y-74768054D02*
X125090712Y-74815673D01*
X125090712Y-74815673D02*
X125185950Y-74815673D01*
X125185950Y-74815673D02*
X125328807Y-74768054D01*
X125328807Y-74768054D02*
X125424045Y-74672815D01*
X125424045Y-74672815D02*
X125471664Y-74577577D01*
X125471664Y-74577577D02*
X125519283Y-74387101D01*
X125519283Y-74387101D02*
X125519283Y-74244244D01*
X125519283Y-74244244D02*
X125471664Y-74053768D01*
X125471664Y-74053768D02*
X125424045Y-73958530D01*
X125424045Y-73958530D02*
X125328807Y-73863292D01*
X125328807Y-73863292D02*
X125185950Y-73815673D01*
X125185950Y-73815673D02*
X125090712Y-73815673D01*
X125090712Y-73815673D02*
X124947855Y-73863292D01*
X124947855Y-73863292D02*
X124900236Y-73910911D01*
X123947855Y-74815673D02*
X124519283Y-74815673D01*
X124233569Y-74815673D02*
X124233569Y-73815673D01*
X124233569Y-73815673D02*
X124328807Y-73958530D01*
X124328807Y-73958530D02*
X124424045Y-74053768D01*
X124424045Y-74053768D02*
X124519283Y-74101387D01*
X122995474Y-74815673D02*
X123566902Y-74815673D01*
X123281188Y-74815673D02*
X123281188Y-73815673D01*
X123281188Y-73815673D02*
X123376426Y-73958530D01*
X123376426Y-73958530D02*
X123471664Y-74053768D01*
X123471664Y-74053768D02*
X123566902Y-74101387D01*
X167024819Y-77857142D02*
X166548628Y-77523809D01*
X167024819Y-77285714D02*
X166024819Y-77285714D01*
X166024819Y-77285714D02*
X166024819Y-77666666D01*
X166024819Y-77666666D02*
X166072438Y-77761904D01*
X166072438Y-77761904D02*
X166120057Y-77809523D01*
X166120057Y-77809523D02*
X166215295Y-77857142D01*
X166215295Y-77857142D02*
X166358152Y-77857142D01*
X166358152Y-77857142D02*
X166453390Y-77809523D01*
X166453390Y-77809523D02*
X166501009Y-77761904D01*
X166501009Y-77761904D02*
X166548628Y-77666666D01*
X166548628Y-77666666D02*
X166548628Y-77285714D01*
X166024819Y-78190476D02*
X166024819Y-78809523D01*
X166024819Y-78809523D02*
X166405771Y-78476190D01*
X166405771Y-78476190D02*
X166405771Y-78619047D01*
X166405771Y-78619047D02*
X166453390Y-78714285D01*
X166453390Y-78714285D02*
X166501009Y-78761904D01*
X166501009Y-78761904D02*
X166596247Y-78809523D01*
X166596247Y-78809523D02*
X166834342Y-78809523D01*
X166834342Y-78809523D02*
X166929580Y-78761904D01*
X166929580Y-78761904D02*
X166977200Y-78714285D01*
X166977200Y-78714285D02*
X167024819Y-78619047D01*
X167024819Y-78619047D02*
X167024819Y-78333333D01*
X167024819Y-78333333D02*
X166977200Y-78238095D01*
X166977200Y-78238095D02*
X166929580Y-78190476D01*
X166024819Y-79714285D02*
X166024819Y-79238095D01*
X166024819Y-79238095D02*
X166501009Y-79190476D01*
X166501009Y-79190476D02*
X166453390Y-79238095D01*
X166453390Y-79238095D02*
X166405771Y-79333333D01*
X166405771Y-79333333D02*
X166405771Y-79571428D01*
X166405771Y-79571428D02*
X166453390Y-79666666D01*
X166453390Y-79666666D02*
X166501009Y-79714285D01*
X166501009Y-79714285D02*
X166596247Y-79761904D01*
X166596247Y-79761904D02*
X166834342Y-79761904D01*
X166834342Y-79761904D02*
X166929580Y-79714285D01*
X166929580Y-79714285D02*
X166977200Y-79666666D01*
X166977200Y-79666666D02*
X167024819Y-79571428D01*
X167024819Y-79571428D02*
X167024819Y-79333333D01*
X167024819Y-79333333D02*
X166977200Y-79238095D01*
X166977200Y-79238095D02*
X166929580Y-79190476D01*
X109024819Y-55357142D02*
X108548628Y-55023809D01*
X109024819Y-54785714D02*
X108024819Y-54785714D01*
X108024819Y-54785714D02*
X108024819Y-55166666D01*
X108024819Y-55166666D02*
X108072438Y-55261904D01*
X108072438Y-55261904D02*
X108120057Y-55309523D01*
X108120057Y-55309523D02*
X108215295Y-55357142D01*
X108215295Y-55357142D02*
X108358152Y-55357142D01*
X108358152Y-55357142D02*
X108453390Y-55309523D01*
X108453390Y-55309523D02*
X108501009Y-55261904D01*
X108501009Y-55261904D02*
X108548628Y-55166666D01*
X108548628Y-55166666D02*
X108548628Y-54785714D01*
X108358152Y-56214285D02*
X109024819Y-56214285D01*
X107977200Y-55976190D02*
X108691485Y-55738095D01*
X108691485Y-55738095D02*
X108691485Y-56357142D01*
X108024819Y-56642857D02*
X108024819Y-57261904D01*
X108024819Y-57261904D02*
X108405771Y-56928571D01*
X108405771Y-56928571D02*
X108405771Y-57071428D01*
X108405771Y-57071428D02*
X108453390Y-57166666D01*
X108453390Y-57166666D02*
X108501009Y-57214285D01*
X108501009Y-57214285D02*
X108596247Y-57261904D01*
X108596247Y-57261904D02*
X108834342Y-57261904D01*
X108834342Y-57261904D02*
X108929580Y-57214285D01*
X108929580Y-57214285D02*
X108977200Y-57166666D01*
X108977200Y-57166666D02*
X109024819Y-57071428D01*
X109024819Y-57071428D02*
X109024819Y-56785714D01*
X109024819Y-56785714D02*
X108977200Y-56690476D01*
X108977200Y-56690476D02*
X108929580Y-56642857D01*
X124453199Y-58797758D02*
X124500818Y-58845378D01*
X124500818Y-58845378D02*
X124643675Y-58892997D01*
X124643675Y-58892997D02*
X124738913Y-58892997D01*
X124738913Y-58892997D02*
X124881770Y-58845378D01*
X124881770Y-58845378D02*
X124977008Y-58750139D01*
X124977008Y-58750139D02*
X125024627Y-58654901D01*
X125024627Y-58654901D02*
X125072246Y-58464425D01*
X125072246Y-58464425D02*
X125072246Y-58321568D01*
X125072246Y-58321568D02*
X125024627Y-58131092D01*
X125024627Y-58131092D02*
X124977008Y-58035854D01*
X124977008Y-58035854D02*
X124881770Y-57940616D01*
X124881770Y-57940616D02*
X124738913Y-57892997D01*
X124738913Y-57892997D02*
X124643675Y-57892997D01*
X124643675Y-57892997D02*
X124500818Y-57940616D01*
X124500818Y-57940616D02*
X124453199Y-57988235D01*
X123500818Y-58892997D02*
X124072246Y-58892997D01*
X123786532Y-58892997D02*
X123786532Y-57892997D01*
X123786532Y-57892997D02*
X123881770Y-58035854D01*
X123881770Y-58035854D02*
X123977008Y-58131092D01*
X123977008Y-58131092D02*
X124072246Y-58178711D01*
X122643675Y-57892997D02*
X122834151Y-57892997D01*
X122834151Y-57892997D02*
X122929389Y-57940616D01*
X122929389Y-57940616D02*
X122977008Y-57988235D01*
X122977008Y-57988235D02*
X123072246Y-58131092D01*
X123072246Y-58131092D02*
X123119865Y-58321568D01*
X123119865Y-58321568D02*
X123119865Y-58702520D01*
X123119865Y-58702520D02*
X123072246Y-58797758D01*
X123072246Y-58797758D02*
X123024627Y-58845378D01*
X123024627Y-58845378D02*
X122929389Y-58892997D01*
X122929389Y-58892997D02*
X122738913Y-58892997D01*
X122738913Y-58892997D02*
X122643675Y-58845378D01*
X122643675Y-58845378D02*
X122596056Y-58797758D01*
X122596056Y-58797758D02*
X122548437Y-58702520D01*
X122548437Y-58702520D02*
X122548437Y-58464425D01*
X122548437Y-58464425D02*
X122596056Y-58369187D01*
X122596056Y-58369187D02*
X122643675Y-58321568D01*
X122643675Y-58321568D02*
X122738913Y-58273949D01*
X122738913Y-58273949D02*
X122929389Y-58273949D01*
X122929389Y-58273949D02*
X123024627Y-58321568D01*
X123024627Y-58321568D02*
X123072246Y-58369187D01*
X123072246Y-58369187D02*
X123119865Y-58464425D01*
D12*
X150225714Y-79695270D02*
X150346666Y-79634794D01*
X150346666Y-79634794D02*
X150467619Y-79513842D01*
X150467619Y-79513842D02*
X150649047Y-79332413D01*
X150649047Y-79332413D02*
X150770000Y-79271937D01*
X150770000Y-79271937D02*
X150890952Y-79271937D01*
X150830476Y-79574318D02*
X150951428Y-79513842D01*
X150951428Y-79513842D02*
X151072381Y-79392889D01*
X151072381Y-79392889D02*
X151132857Y-79150984D01*
X151132857Y-79150984D02*
X151132857Y-78727651D01*
X151132857Y-78727651D02*
X151072381Y-78485746D01*
X151072381Y-78485746D02*
X150951428Y-78364794D01*
X150951428Y-78364794D02*
X150830476Y-78304318D01*
X150830476Y-78304318D02*
X150588571Y-78304318D01*
X150588571Y-78304318D02*
X150467619Y-78364794D01*
X150467619Y-78364794D02*
X150346666Y-78485746D01*
X150346666Y-78485746D02*
X150286190Y-78727651D01*
X150286190Y-78727651D02*
X150286190Y-79150984D01*
X150286190Y-79150984D02*
X150346666Y-79392889D01*
X150346666Y-79392889D02*
X150467619Y-79513842D01*
X150467619Y-79513842D02*
X150588571Y-79574318D01*
X150588571Y-79574318D02*
X150830476Y-79574318D01*
X149076666Y-79574318D02*
X149802381Y-79574318D01*
X149439524Y-79574318D02*
X149439524Y-78304318D01*
X149439524Y-78304318D02*
X149560476Y-78485746D01*
X149560476Y-78485746D02*
X149681428Y-78606699D01*
X149681428Y-78606699D02*
X149802381Y-78667175D01*
X147867142Y-79574318D02*
X148592857Y-79574318D01*
X148230000Y-79574318D02*
X148230000Y-78304318D01*
X148230000Y-78304318D02*
X148350952Y-78485746D01*
X148350952Y-78485746D02*
X148471904Y-78606699D01*
X148471904Y-78606699D02*
X148592857Y-78667175D01*
D11*
X173295238Y-69550057D02*
X173390476Y-69502438D01*
X173390476Y-69502438D02*
X173485714Y-69407200D01*
X173485714Y-69407200D02*
X173628571Y-69264342D01*
X173628571Y-69264342D02*
X173723809Y-69216723D01*
X173723809Y-69216723D02*
X173819047Y-69216723D01*
X173771428Y-69454819D02*
X173866666Y-69407200D01*
X173866666Y-69407200D02*
X173961904Y-69311961D01*
X173961904Y-69311961D02*
X174009523Y-69121485D01*
X174009523Y-69121485D02*
X174009523Y-68788152D01*
X174009523Y-68788152D02*
X173961904Y-68597676D01*
X173961904Y-68597676D02*
X173866666Y-68502438D01*
X173866666Y-68502438D02*
X173771428Y-68454819D01*
X173771428Y-68454819D02*
X173580952Y-68454819D01*
X173580952Y-68454819D02*
X173485714Y-68502438D01*
X173485714Y-68502438D02*
X173390476Y-68597676D01*
X173390476Y-68597676D02*
X173342857Y-68788152D01*
X173342857Y-68788152D02*
X173342857Y-69121485D01*
X173342857Y-69121485D02*
X173390476Y-69311961D01*
X173390476Y-69311961D02*
X173485714Y-69407200D01*
X173485714Y-69407200D02*
X173580952Y-69454819D01*
X173580952Y-69454819D02*
X173771428Y-69454819D01*
X173009523Y-68454819D02*
X172342857Y-68454819D01*
X172342857Y-68454819D02*
X172771428Y-69454819D01*
X144333333Y-70251009D02*
X144666666Y-70251009D01*
X144666666Y-70774819D02*
X144666666Y-69774819D01*
X144666666Y-69774819D02*
X144190476Y-69774819D01*
X143285714Y-70774819D02*
X143857142Y-70774819D01*
X143571428Y-70774819D02*
X143571428Y-69774819D01*
X143571428Y-69774819D02*
X143666666Y-69917676D01*
X143666666Y-69917676D02*
X143761904Y-70012914D01*
X143761904Y-70012914D02*
X143857142Y-70060533D01*
X141142857Y-84634819D02*
X141476190Y-84158628D01*
X141714285Y-84634819D02*
X141714285Y-83634819D01*
X141714285Y-83634819D02*
X141333333Y-83634819D01*
X141333333Y-83634819D02*
X141238095Y-83682438D01*
X141238095Y-83682438D02*
X141190476Y-83730057D01*
X141190476Y-83730057D02*
X141142857Y-83825295D01*
X141142857Y-83825295D02*
X141142857Y-83968152D01*
X141142857Y-83968152D02*
X141190476Y-84063390D01*
X141190476Y-84063390D02*
X141238095Y-84111009D01*
X141238095Y-84111009D02*
X141333333Y-84158628D01*
X141333333Y-84158628D02*
X141714285Y-84158628D01*
X140238095Y-83634819D02*
X140714285Y-83634819D01*
X140714285Y-83634819D02*
X140761904Y-84111009D01*
X140761904Y-84111009D02*
X140714285Y-84063390D01*
X140714285Y-84063390D02*
X140619047Y-84015771D01*
X140619047Y-84015771D02*
X140380952Y-84015771D01*
X140380952Y-84015771D02*
X140285714Y-84063390D01*
X140285714Y-84063390D02*
X140238095Y-84111009D01*
X140238095Y-84111009D02*
X140190476Y-84206247D01*
X140190476Y-84206247D02*
X140190476Y-84444342D01*
X140190476Y-84444342D02*
X140238095Y-84539580D01*
X140238095Y-84539580D02*
X140285714Y-84587200D01*
X140285714Y-84587200D02*
X140380952Y-84634819D01*
X140380952Y-84634819D02*
X140619047Y-84634819D01*
X140619047Y-84634819D02*
X140714285Y-84587200D01*
X140714285Y-84587200D02*
X140761904Y-84539580D01*
X139857142Y-83634819D02*
X139190476Y-83634819D01*
X139190476Y-83634819D02*
X139619047Y-84634819D01*
X130524819Y-57182142D02*
X130048628Y-56848809D01*
X130524819Y-56610714D02*
X129524819Y-56610714D01*
X129524819Y-56610714D02*
X129524819Y-56991666D01*
X129524819Y-56991666D02*
X129572438Y-57086904D01*
X129572438Y-57086904D02*
X129620057Y-57134523D01*
X129620057Y-57134523D02*
X129715295Y-57182142D01*
X129715295Y-57182142D02*
X129858152Y-57182142D01*
X129858152Y-57182142D02*
X129953390Y-57134523D01*
X129953390Y-57134523D02*
X130001009Y-57086904D01*
X130001009Y-57086904D02*
X130048628Y-56991666D01*
X130048628Y-56991666D02*
X130048628Y-56610714D01*
X129858152Y-58039285D02*
X130524819Y-58039285D01*
X129477200Y-57801190D02*
X130191485Y-57563095D01*
X130191485Y-57563095D02*
X130191485Y-58182142D01*
X129524819Y-58753571D02*
X129524819Y-58848809D01*
X129524819Y-58848809D02*
X129572438Y-58944047D01*
X129572438Y-58944047D02*
X129620057Y-58991666D01*
X129620057Y-58991666D02*
X129715295Y-59039285D01*
X129715295Y-59039285D02*
X129905771Y-59086904D01*
X129905771Y-59086904D02*
X130143866Y-59086904D01*
X130143866Y-59086904D02*
X130334342Y-59039285D01*
X130334342Y-59039285D02*
X130429580Y-58991666D01*
X130429580Y-58991666D02*
X130477200Y-58944047D01*
X130477200Y-58944047D02*
X130524819Y-58848809D01*
X130524819Y-58848809D02*
X130524819Y-58753571D01*
X130524819Y-58753571D02*
X130477200Y-58658333D01*
X130477200Y-58658333D02*
X130429580Y-58610714D01*
X130429580Y-58610714D02*
X130334342Y-58563095D01*
X130334342Y-58563095D02*
X130143866Y-58515476D01*
X130143866Y-58515476D02*
X129905771Y-58515476D01*
X129905771Y-58515476D02*
X129715295Y-58563095D01*
X129715295Y-58563095D02*
X129620057Y-58610714D01*
X129620057Y-58610714D02*
X129572438Y-58658333D01*
X129572438Y-58658333D02*
X129524819Y-58753571D01*
X135642857Y-83884819D02*
X135976190Y-83408628D01*
X136214285Y-83884819D02*
X136214285Y-82884819D01*
X136214285Y-82884819D02*
X135833333Y-82884819D01*
X135833333Y-82884819D02*
X135738095Y-82932438D01*
X135738095Y-82932438D02*
X135690476Y-82980057D01*
X135690476Y-82980057D02*
X135642857Y-83075295D01*
X135642857Y-83075295D02*
X135642857Y-83218152D01*
X135642857Y-83218152D02*
X135690476Y-83313390D01*
X135690476Y-83313390D02*
X135738095Y-83361009D01*
X135738095Y-83361009D02*
X135833333Y-83408628D01*
X135833333Y-83408628D02*
X136214285Y-83408628D01*
X134738095Y-82884819D02*
X135214285Y-82884819D01*
X135214285Y-82884819D02*
X135261904Y-83361009D01*
X135261904Y-83361009D02*
X135214285Y-83313390D01*
X135214285Y-83313390D02*
X135119047Y-83265771D01*
X135119047Y-83265771D02*
X134880952Y-83265771D01*
X134880952Y-83265771D02*
X134785714Y-83313390D01*
X134785714Y-83313390D02*
X134738095Y-83361009D01*
X134738095Y-83361009D02*
X134690476Y-83456247D01*
X134690476Y-83456247D02*
X134690476Y-83694342D01*
X134690476Y-83694342D02*
X134738095Y-83789580D01*
X134738095Y-83789580D02*
X134785714Y-83837200D01*
X134785714Y-83837200D02*
X134880952Y-83884819D01*
X134880952Y-83884819D02*
X135119047Y-83884819D01*
X135119047Y-83884819D02*
X135214285Y-83837200D01*
X135214285Y-83837200D02*
X135261904Y-83789580D01*
X133833333Y-83218152D02*
X133833333Y-83884819D01*
X134071428Y-82837200D02*
X134309523Y-83551485D01*
X134309523Y-83551485D02*
X133690476Y-83551485D01*
X133166666Y-89024819D02*
X133499999Y-88548628D01*
X133738094Y-89024819D02*
X133738094Y-88024819D01*
X133738094Y-88024819D02*
X133357142Y-88024819D01*
X133357142Y-88024819D02*
X133261904Y-88072438D01*
X133261904Y-88072438D02*
X133214285Y-88120057D01*
X133214285Y-88120057D02*
X133166666Y-88215295D01*
X133166666Y-88215295D02*
X133166666Y-88358152D01*
X133166666Y-88358152D02*
X133214285Y-88453390D01*
X133214285Y-88453390D02*
X133261904Y-88501009D01*
X133261904Y-88501009D02*
X133357142Y-88548628D01*
X133357142Y-88548628D02*
X133738094Y-88548628D01*
X132690475Y-89024819D02*
X132499999Y-89024819D01*
X132499999Y-89024819D02*
X132404761Y-88977200D01*
X132404761Y-88977200D02*
X132357142Y-88929580D01*
X132357142Y-88929580D02*
X132261904Y-88786723D01*
X132261904Y-88786723D02*
X132214285Y-88596247D01*
X132214285Y-88596247D02*
X132214285Y-88215295D01*
X132214285Y-88215295D02*
X132261904Y-88120057D01*
X132261904Y-88120057D02*
X132309523Y-88072438D01*
X132309523Y-88072438D02*
X132404761Y-88024819D01*
X132404761Y-88024819D02*
X132595237Y-88024819D01*
X132595237Y-88024819D02*
X132690475Y-88072438D01*
X132690475Y-88072438D02*
X132738094Y-88120057D01*
X132738094Y-88120057D02*
X132785713Y-88215295D01*
X132785713Y-88215295D02*
X132785713Y-88453390D01*
X132785713Y-88453390D02*
X132738094Y-88548628D01*
X132738094Y-88548628D02*
X132690475Y-88596247D01*
X132690475Y-88596247D02*
X132595237Y-88643866D01*
X132595237Y-88643866D02*
X132404761Y-88643866D01*
X132404761Y-88643866D02*
X132309523Y-88596247D01*
X132309523Y-88596247D02*
X132261904Y-88548628D01*
X132261904Y-88548628D02*
X132214285Y-88453390D01*
X125024819Y-72868294D02*
X124548628Y-72534961D01*
X125024819Y-72296866D02*
X124024819Y-72296866D01*
X124024819Y-72296866D02*
X124024819Y-72677818D01*
X124024819Y-72677818D02*
X124072438Y-72773056D01*
X124072438Y-72773056D02*
X124120057Y-72820675D01*
X124120057Y-72820675D02*
X124215295Y-72868294D01*
X124215295Y-72868294D02*
X124358152Y-72868294D01*
X124358152Y-72868294D02*
X124453390Y-72820675D01*
X124453390Y-72820675D02*
X124501009Y-72773056D01*
X124501009Y-72773056D02*
X124548628Y-72677818D01*
X124548628Y-72677818D02*
X124548628Y-72296866D01*
X124024819Y-73773056D02*
X124024819Y-73296866D01*
X124024819Y-73296866D02*
X124501009Y-73249247D01*
X124501009Y-73249247D02*
X124453390Y-73296866D01*
X124453390Y-73296866D02*
X124405771Y-73392104D01*
X124405771Y-73392104D02*
X124405771Y-73630199D01*
X124405771Y-73630199D02*
X124453390Y-73725437D01*
X124453390Y-73725437D02*
X124501009Y-73773056D01*
X124501009Y-73773056D02*
X124596247Y-73820675D01*
X124596247Y-73820675D02*
X124834342Y-73820675D01*
X124834342Y-73820675D02*
X124929580Y-73773056D01*
X124929580Y-73773056D02*
X124977200Y-73725437D01*
X124977200Y-73725437D02*
X125024819Y-73630199D01*
X125024819Y-73630199D02*
X125024819Y-73392104D01*
X125024819Y-73392104D02*
X124977200Y-73296866D01*
X124977200Y-73296866D02*
X124929580Y-73249247D01*
X124024819Y-74154009D02*
X124024819Y-74773056D01*
X124024819Y-74773056D02*
X124405771Y-74439723D01*
X124405771Y-74439723D02*
X124405771Y-74582580D01*
X124405771Y-74582580D02*
X124453390Y-74677818D01*
X124453390Y-74677818D02*
X124501009Y-74725437D01*
X124501009Y-74725437D02*
X124596247Y-74773056D01*
X124596247Y-74773056D02*
X124834342Y-74773056D01*
X124834342Y-74773056D02*
X124929580Y-74725437D01*
X124929580Y-74725437D02*
X124977200Y-74677818D01*
X124977200Y-74677818D02*
X125024819Y-74582580D01*
X125024819Y-74582580D02*
X125024819Y-74296866D01*
X125024819Y-74296866D02*
X124977200Y-74201628D01*
X124977200Y-74201628D02*
X124929580Y-74154009D01*
D12*
X117205092Y-58924285D02*
X117144616Y-58803333D01*
X117144616Y-58803333D02*
X117023664Y-58682380D01*
X117023664Y-58682380D02*
X116842235Y-58500952D01*
X116842235Y-58500952D02*
X116781759Y-58379999D01*
X116781759Y-58379999D02*
X116781759Y-58259047D01*
X117084140Y-58319523D02*
X117023664Y-58198571D01*
X117023664Y-58198571D02*
X116902711Y-58077618D01*
X116902711Y-58077618D02*
X116660806Y-58017142D01*
X116660806Y-58017142D02*
X116237473Y-58017142D01*
X116237473Y-58017142D02*
X115995568Y-58077618D01*
X115995568Y-58077618D02*
X115874616Y-58198571D01*
X115874616Y-58198571D02*
X115814140Y-58319523D01*
X115814140Y-58319523D02*
X115814140Y-58561428D01*
X115814140Y-58561428D02*
X115874616Y-58682380D01*
X115874616Y-58682380D02*
X115995568Y-58803333D01*
X115995568Y-58803333D02*
X116237473Y-58863809D01*
X116237473Y-58863809D02*
X116660806Y-58863809D01*
X116660806Y-58863809D02*
X116902711Y-58803333D01*
X116902711Y-58803333D02*
X117023664Y-58682380D01*
X117023664Y-58682380D02*
X117084140Y-58561428D01*
X117084140Y-58561428D02*
X117084140Y-58319523D01*
X117084140Y-60073333D02*
X117084140Y-59347618D01*
X117084140Y-59710475D02*
X115814140Y-59710475D01*
X115814140Y-59710475D02*
X115995568Y-59589523D01*
X115995568Y-59589523D02*
X116116521Y-59468571D01*
X116116521Y-59468571D02*
X116176997Y-59347618D01*
X115814140Y-60859523D02*
X115814140Y-60980476D01*
X115814140Y-60980476D02*
X115874616Y-61101428D01*
X115874616Y-61101428D02*
X115935092Y-61161904D01*
X115935092Y-61161904D02*
X116056044Y-61222380D01*
X116056044Y-61222380D02*
X116297949Y-61282857D01*
X116297949Y-61282857D02*
X116600330Y-61282857D01*
X116600330Y-61282857D02*
X116842235Y-61222380D01*
X116842235Y-61222380D02*
X116963187Y-61161904D01*
X116963187Y-61161904D02*
X117023664Y-61101428D01*
X117023664Y-61101428D02*
X117084140Y-60980476D01*
X117084140Y-60980476D02*
X117084140Y-60859523D01*
X117084140Y-60859523D02*
X117023664Y-60738571D01*
X117023664Y-60738571D02*
X116963187Y-60678095D01*
X116963187Y-60678095D02*
X116842235Y-60617618D01*
X116842235Y-60617618D02*
X116600330Y-60557142D01*
X116600330Y-60557142D02*
X116297949Y-60557142D01*
X116297949Y-60557142D02*
X116056044Y-60617618D01*
X116056044Y-60617618D02*
X115935092Y-60678095D01*
X115935092Y-60678095D02*
X115874616Y-60738571D01*
X115874616Y-60738571D02*
X115814140Y-60859523D01*
D11*
X127642857Y-54524819D02*
X127976190Y-54048628D01*
X128214285Y-54524819D02*
X128214285Y-53524819D01*
X128214285Y-53524819D02*
X127833333Y-53524819D01*
X127833333Y-53524819D02*
X127738095Y-53572438D01*
X127738095Y-53572438D02*
X127690476Y-53620057D01*
X127690476Y-53620057D02*
X127642857Y-53715295D01*
X127642857Y-53715295D02*
X127642857Y-53858152D01*
X127642857Y-53858152D02*
X127690476Y-53953390D01*
X127690476Y-53953390D02*
X127738095Y-54001009D01*
X127738095Y-54001009D02*
X127833333Y-54048628D01*
X127833333Y-54048628D02*
X128214285Y-54048628D01*
X126785714Y-53858152D02*
X126785714Y-54524819D01*
X127023809Y-53477200D02*
X127261904Y-54191485D01*
X127261904Y-54191485D02*
X126642857Y-54191485D01*
X125833333Y-53858152D02*
X125833333Y-54524819D01*
X126071428Y-53477200D02*
X126309523Y-54191485D01*
X126309523Y-54191485D02*
X125690476Y-54191485D01*
X143238094Y-77104819D02*
X143238094Y-76104819D01*
X143238094Y-76104819D02*
X142999999Y-76104819D01*
X142999999Y-76104819D02*
X142857142Y-76152438D01*
X142857142Y-76152438D02*
X142761904Y-76247676D01*
X142761904Y-76247676D02*
X142714285Y-76342914D01*
X142714285Y-76342914D02*
X142666666Y-76533390D01*
X142666666Y-76533390D02*
X142666666Y-76676247D01*
X142666666Y-76676247D02*
X142714285Y-76866723D01*
X142714285Y-76866723D02*
X142761904Y-76961961D01*
X142761904Y-76961961D02*
X142857142Y-77057200D01*
X142857142Y-77057200D02*
X142999999Y-77104819D01*
X142999999Y-77104819D02*
X143238094Y-77104819D01*
X142095237Y-76533390D02*
X142190475Y-76485771D01*
X142190475Y-76485771D02*
X142238094Y-76438152D01*
X142238094Y-76438152D02*
X142285713Y-76342914D01*
X142285713Y-76342914D02*
X142285713Y-76295295D01*
X142285713Y-76295295D02*
X142238094Y-76200057D01*
X142238094Y-76200057D02*
X142190475Y-76152438D01*
X142190475Y-76152438D02*
X142095237Y-76104819D01*
X142095237Y-76104819D02*
X141904761Y-76104819D01*
X141904761Y-76104819D02*
X141809523Y-76152438D01*
X141809523Y-76152438D02*
X141761904Y-76200057D01*
X141761904Y-76200057D02*
X141714285Y-76295295D01*
X141714285Y-76295295D02*
X141714285Y-76342914D01*
X141714285Y-76342914D02*
X141761904Y-76438152D01*
X141761904Y-76438152D02*
X141809523Y-76485771D01*
X141809523Y-76485771D02*
X141904761Y-76533390D01*
X141904761Y-76533390D02*
X142095237Y-76533390D01*
X142095237Y-76533390D02*
X142190475Y-76581009D01*
X142190475Y-76581009D02*
X142238094Y-76628628D01*
X142238094Y-76628628D02*
X142285713Y-76723866D01*
X142285713Y-76723866D02*
X142285713Y-76914342D01*
X142285713Y-76914342D02*
X142238094Y-77009580D01*
X142238094Y-77009580D02*
X142190475Y-77057200D01*
X142190475Y-77057200D02*
X142095237Y-77104819D01*
X142095237Y-77104819D02*
X141904761Y-77104819D01*
X141904761Y-77104819D02*
X141809523Y-77057200D01*
X141809523Y-77057200D02*
X141761904Y-77009580D01*
X141761904Y-77009580D02*
X141714285Y-76914342D01*
X141714285Y-76914342D02*
X141714285Y-76723866D01*
X141714285Y-76723866D02*
X141761904Y-76628628D01*
X141761904Y-76628628D02*
X141809523Y-76581009D01*
X141809523Y-76581009D02*
X141904761Y-76533390D01*
D12*
X138074318Y-90260237D02*
X136804318Y-90260237D01*
X137953365Y-91590714D02*
X138013842Y-91530238D01*
X138013842Y-91530238D02*
X138074318Y-91348809D01*
X138074318Y-91348809D02*
X138074318Y-91227857D01*
X138074318Y-91227857D02*
X138013842Y-91046428D01*
X138013842Y-91046428D02*
X137892889Y-90925476D01*
X137892889Y-90925476D02*
X137771937Y-90864999D01*
X137771937Y-90864999D02*
X137530032Y-90804523D01*
X137530032Y-90804523D02*
X137348603Y-90804523D01*
X137348603Y-90804523D02*
X137106699Y-90864999D01*
X137106699Y-90864999D02*
X136985746Y-90925476D01*
X136985746Y-90925476D02*
X136864794Y-91046428D01*
X136864794Y-91046428D02*
X136804318Y-91227857D01*
X136804318Y-91227857D02*
X136804318Y-91348809D01*
X136804318Y-91348809D02*
X136864794Y-91530238D01*
X136864794Y-91530238D02*
X136925270Y-91590714D01*
X136925270Y-92074523D02*
X136864794Y-92134999D01*
X136864794Y-92134999D02*
X136804318Y-92255952D01*
X136804318Y-92255952D02*
X136804318Y-92558333D01*
X136804318Y-92558333D02*
X136864794Y-92679285D01*
X136864794Y-92679285D02*
X136925270Y-92739761D01*
X136925270Y-92739761D02*
X137046222Y-92800238D01*
X137046222Y-92800238D02*
X137167175Y-92800238D01*
X137167175Y-92800238D02*
X137348603Y-92739761D01*
X137348603Y-92739761D02*
X138074318Y-92014047D01*
X138074318Y-92014047D02*
X138074318Y-92800238D01*
D11*
X126142857Y-81884819D02*
X126476190Y-81408628D01*
X126714285Y-81884819D02*
X126714285Y-80884819D01*
X126714285Y-80884819D02*
X126333333Y-80884819D01*
X126333333Y-80884819D02*
X126238095Y-80932438D01*
X126238095Y-80932438D02*
X126190476Y-80980057D01*
X126190476Y-80980057D02*
X126142857Y-81075295D01*
X126142857Y-81075295D02*
X126142857Y-81218152D01*
X126142857Y-81218152D02*
X126190476Y-81313390D01*
X126190476Y-81313390D02*
X126238095Y-81361009D01*
X126238095Y-81361009D02*
X126333333Y-81408628D01*
X126333333Y-81408628D02*
X126714285Y-81408628D01*
X125809523Y-80884819D02*
X125190476Y-80884819D01*
X125190476Y-80884819D02*
X125523809Y-81265771D01*
X125523809Y-81265771D02*
X125380952Y-81265771D01*
X125380952Y-81265771D02*
X125285714Y-81313390D01*
X125285714Y-81313390D02*
X125238095Y-81361009D01*
X125238095Y-81361009D02*
X125190476Y-81456247D01*
X125190476Y-81456247D02*
X125190476Y-81694342D01*
X125190476Y-81694342D02*
X125238095Y-81789580D01*
X125238095Y-81789580D02*
X125285714Y-81837200D01*
X125285714Y-81837200D02*
X125380952Y-81884819D01*
X125380952Y-81884819D02*
X125666666Y-81884819D01*
X125666666Y-81884819D02*
X125761904Y-81837200D01*
X125761904Y-81837200D02*
X125809523Y-81789580D01*
X124619047Y-81313390D02*
X124714285Y-81265771D01*
X124714285Y-81265771D02*
X124761904Y-81218152D01*
X124761904Y-81218152D02*
X124809523Y-81122914D01*
X124809523Y-81122914D02*
X124809523Y-81075295D01*
X124809523Y-81075295D02*
X124761904Y-80980057D01*
X124761904Y-80980057D02*
X124714285Y-80932438D01*
X124714285Y-80932438D02*
X124619047Y-80884819D01*
X124619047Y-80884819D02*
X124428571Y-80884819D01*
X124428571Y-80884819D02*
X124333333Y-80932438D01*
X124333333Y-80932438D02*
X124285714Y-80980057D01*
X124285714Y-80980057D02*
X124238095Y-81075295D01*
X124238095Y-81075295D02*
X124238095Y-81122914D01*
X124238095Y-81122914D02*
X124285714Y-81218152D01*
X124285714Y-81218152D02*
X124333333Y-81265771D01*
X124333333Y-81265771D02*
X124428571Y-81313390D01*
X124428571Y-81313390D02*
X124619047Y-81313390D01*
X124619047Y-81313390D02*
X124714285Y-81361009D01*
X124714285Y-81361009D02*
X124761904Y-81408628D01*
X124761904Y-81408628D02*
X124809523Y-81503866D01*
X124809523Y-81503866D02*
X124809523Y-81694342D01*
X124809523Y-81694342D02*
X124761904Y-81789580D01*
X124761904Y-81789580D02*
X124714285Y-81837200D01*
X124714285Y-81837200D02*
X124619047Y-81884819D01*
X124619047Y-81884819D02*
X124428571Y-81884819D01*
X124428571Y-81884819D02*
X124333333Y-81837200D01*
X124333333Y-81837200D02*
X124285714Y-81789580D01*
X124285714Y-81789580D02*
X124238095Y-81694342D01*
X124238095Y-81694342D02*
X124238095Y-81503866D01*
X124238095Y-81503866D02*
X124285714Y-81408628D01*
X124285714Y-81408628D02*
X124333333Y-81361009D01*
X124333333Y-81361009D02*
X124428571Y-81313390D01*
X125761904Y-75454819D02*
X125761904Y-76264342D01*
X125761904Y-76264342D02*
X125714285Y-76359580D01*
X125714285Y-76359580D02*
X125666666Y-76407200D01*
X125666666Y-76407200D02*
X125571428Y-76454819D01*
X125571428Y-76454819D02*
X125380952Y-76454819D01*
X125380952Y-76454819D02*
X125285714Y-76407200D01*
X125285714Y-76407200D02*
X125238095Y-76359580D01*
X125238095Y-76359580D02*
X125190476Y-76264342D01*
X125190476Y-76264342D02*
X125190476Y-75454819D01*
X124809523Y-75454819D02*
X124142857Y-75454819D01*
X124142857Y-75454819D02*
X124571428Y-76454819D01*
X118261904Y-70204819D02*
X118261904Y-71014342D01*
X118261904Y-71014342D02*
X118214285Y-71109580D01*
X118214285Y-71109580D02*
X118166666Y-71157200D01*
X118166666Y-71157200D02*
X118071428Y-71204819D01*
X118071428Y-71204819D02*
X117880952Y-71204819D01*
X117880952Y-71204819D02*
X117785714Y-71157200D01*
X117785714Y-71157200D02*
X117738095Y-71109580D01*
X117738095Y-71109580D02*
X117690476Y-71014342D01*
X117690476Y-71014342D02*
X117690476Y-70204819D01*
X117071428Y-70633390D02*
X117166666Y-70585771D01*
X117166666Y-70585771D02*
X117214285Y-70538152D01*
X117214285Y-70538152D02*
X117261904Y-70442914D01*
X117261904Y-70442914D02*
X117261904Y-70395295D01*
X117261904Y-70395295D02*
X117214285Y-70300057D01*
X117214285Y-70300057D02*
X117166666Y-70252438D01*
X117166666Y-70252438D02*
X117071428Y-70204819D01*
X117071428Y-70204819D02*
X116880952Y-70204819D01*
X116880952Y-70204819D02*
X116785714Y-70252438D01*
X116785714Y-70252438D02*
X116738095Y-70300057D01*
X116738095Y-70300057D02*
X116690476Y-70395295D01*
X116690476Y-70395295D02*
X116690476Y-70442914D01*
X116690476Y-70442914D02*
X116738095Y-70538152D01*
X116738095Y-70538152D02*
X116785714Y-70585771D01*
X116785714Y-70585771D02*
X116880952Y-70633390D01*
X116880952Y-70633390D02*
X117071428Y-70633390D01*
X117071428Y-70633390D02*
X117166666Y-70681009D01*
X117166666Y-70681009D02*
X117214285Y-70728628D01*
X117214285Y-70728628D02*
X117261904Y-70823866D01*
X117261904Y-70823866D02*
X117261904Y-71014342D01*
X117261904Y-71014342D02*
X117214285Y-71109580D01*
X117214285Y-71109580D02*
X117166666Y-71157200D01*
X117166666Y-71157200D02*
X117071428Y-71204819D01*
X117071428Y-71204819D02*
X116880952Y-71204819D01*
X116880952Y-71204819D02*
X116785714Y-71157200D01*
X116785714Y-71157200D02*
X116738095Y-71109580D01*
X116738095Y-71109580D02*
X116690476Y-71014342D01*
X116690476Y-71014342D02*
X116690476Y-70823866D01*
X116690476Y-70823866D02*
X116738095Y-70728628D01*
X116738095Y-70728628D02*
X116785714Y-70681009D01*
X116785714Y-70681009D02*
X116880952Y-70633390D01*
X167024819Y-65857142D02*
X166548628Y-65523809D01*
X167024819Y-65285714D02*
X166024819Y-65285714D01*
X166024819Y-65285714D02*
X166024819Y-65666666D01*
X166024819Y-65666666D02*
X166072438Y-65761904D01*
X166072438Y-65761904D02*
X166120057Y-65809523D01*
X166120057Y-65809523D02*
X166215295Y-65857142D01*
X166215295Y-65857142D02*
X166358152Y-65857142D01*
X166358152Y-65857142D02*
X166453390Y-65809523D01*
X166453390Y-65809523D02*
X166501009Y-65761904D01*
X166501009Y-65761904D02*
X166548628Y-65666666D01*
X166548628Y-65666666D02*
X166548628Y-65285714D01*
X166120057Y-66238095D02*
X166072438Y-66285714D01*
X166072438Y-66285714D02*
X166024819Y-66380952D01*
X166024819Y-66380952D02*
X166024819Y-66619047D01*
X166024819Y-66619047D02*
X166072438Y-66714285D01*
X166072438Y-66714285D02*
X166120057Y-66761904D01*
X166120057Y-66761904D02*
X166215295Y-66809523D01*
X166215295Y-66809523D02*
X166310533Y-66809523D01*
X166310533Y-66809523D02*
X166453390Y-66761904D01*
X166453390Y-66761904D02*
X167024819Y-66190476D01*
X167024819Y-66190476D02*
X167024819Y-66809523D01*
X166024819Y-67142857D02*
X166024819Y-67809523D01*
X166024819Y-67809523D02*
X167024819Y-67380952D01*
X124467857Y-54524819D02*
X124801190Y-54048628D01*
X125039285Y-54524819D02*
X125039285Y-53524819D01*
X125039285Y-53524819D02*
X124658333Y-53524819D01*
X124658333Y-53524819D02*
X124563095Y-53572438D01*
X124563095Y-53572438D02*
X124515476Y-53620057D01*
X124515476Y-53620057D02*
X124467857Y-53715295D01*
X124467857Y-53715295D02*
X124467857Y-53858152D01*
X124467857Y-53858152D02*
X124515476Y-53953390D01*
X124515476Y-53953390D02*
X124563095Y-54001009D01*
X124563095Y-54001009D02*
X124658333Y-54048628D01*
X124658333Y-54048628D02*
X125039285Y-54048628D01*
X123610714Y-53858152D02*
X123610714Y-54524819D01*
X123848809Y-53477200D02*
X124086904Y-54191485D01*
X124086904Y-54191485D02*
X123467857Y-54191485D01*
X122610714Y-53524819D02*
X123086904Y-53524819D01*
X123086904Y-53524819D02*
X123134523Y-54001009D01*
X123134523Y-54001009D02*
X123086904Y-53953390D01*
X123086904Y-53953390D02*
X122991666Y-53905771D01*
X122991666Y-53905771D02*
X122753571Y-53905771D01*
X122753571Y-53905771D02*
X122658333Y-53953390D01*
X122658333Y-53953390D02*
X122610714Y-54001009D01*
X122610714Y-54001009D02*
X122563095Y-54096247D01*
X122563095Y-54096247D02*
X122563095Y-54334342D01*
X122563095Y-54334342D02*
X122610714Y-54429580D01*
X122610714Y-54429580D02*
X122658333Y-54477200D01*
X122658333Y-54477200D02*
X122753571Y-54524819D01*
X122753571Y-54524819D02*
X122991666Y-54524819D01*
X122991666Y-54524819D02*
X123086904Y-54477200D01*
X123086904Y-54477200D02*
X123134523Y-54429580D01*
X140297977Y-100328382D02*
X140345597Y-100280763D01*
X140345597Y-100280763D02*
X140393216Y-100137906D01*
X140393216Y-100137906D02*
X140393216Y-100042668D01*
X140393216Y-100042668D02*
X140345597Y-99899811D01*
X140345597Y-99899811D02*
X140250358Y-99804573D01*
X140250358Y-99804573D02*
X140155120Y-99756954D01*
X140155120Y-99756954D02*
X139964644Y-99709335D01*
X139964644Y-99709335D02*
X139821787Y-99709335D01*
X139821787Y-99709335D02*
X139631311Y-99756954D01*
X139631311Y-99756954D02*
X139536073Y-99804573D01*
X139536073Y-99804573D02*
X139440835Y-99899811D01*
X139440835Y-99899811D02*
X139393216Y-100042668D01*
X139393216Y-100042668D02*
X139393216Y-100137906D01*
X139393216Y-100137906D02*
X139440835Y-100280763D01*
X139440835Y-100280763D02*
X139488454Y-100328382D01*
X139393216Y-100661716D02*
X139393216Y-101280763D01*
X139393216Y-101280763D02*
X139774168Y-100947430D01*
X139774168Y-100947430D02*
X139774168Y-101090287D01*
X139774168Y-101090287D02*
X139821787Y-101185525D01*
X139821787Y-101185525D02*
X139869406Y-101233144D01*
X139869406Y-101233144D02*
X139964644Y-101280763D01*
X139964644Y-101280763D02*
X140202739Y-101280763D01*
X140202739Y-101280763D02*
X140297977Y-101233144D01*
X140297977Y-101233144D02*
X140345597Y-101185525D01*
X140345597Y-101185525D02*
X140393216Y-101090287D01*
X140393216Y-101090287D02*
X140393216Y-100804573D01*
X140393216Y-100804573D02*
X140345597Y-100709335D01*
X140345597Y-100709335D02*
X140297977Y-100661716D01*
X110782520Y-58557682D02*
X110306329Y-58224349D01*
X110782520Y-57986254D02*
X109782520Y-57986254D01*
X109782520Y-57986254D02*
X109782520Y-58367206D01*
X109782520Y-58367206D02*
X109830139Y-58462444D01*
X109830139Y-58462444D02*
X109877758Y-58510063D01*
X109877758Y-58510063D02*
X109972996Y-58557682D01*
X109972996Y-58557682D02*
X110115853Y-58557682D01*
X110115853Y-58557682D02*
X110211091Y-58510063D01*
X110211091Y-58510063D02*
X110258710Y-58462444D01*
X110258710Y-58462444D02*
X110306329Y-58367206D01*
X110306329Y-58367206D02*
X110306329Y-57986254D01*
X110115853Y-59414825D02*
X110782520Y-59414825D01*
X109734901Y-59176730D02*
X110449186Y-58938635D01*
X110449186Y-58938635D02*
X110449186Y-59557682D01*
X109877758Y-59891016D02*
X109830139Y-59938635D01*
X109830139Y-59938635D02*
X109782520Y-60033873D01*
X109782520Y-60033873D02*
X109782520Y-60271968D01*
X109782520Y-60271968D02*
X109830139Y-60367206D01*
X109830139Y-60367206D02*
X109877758Y-60414825D01*
X109877758Y-60414825D02*
X109972996Y-60462444D01*
X109972996Y-60462444D02*
X110068234Y-60462444D01*
X110068234Y-60462444D02*
X110211091Y-60414825D01*
X110211091Y-60414825D02*
X110782520Y-59843397D01*
X110782520Y-59843397D02*
X110782520Y-60462444D01*
D12*
X126304318Y-90032380D02*
X127332413Y-90032380D01*
X127332413Y-90032380D02*
X127453365Y-90092857D01*
X127453365Y-90092857D02*
X127513842Y-90153333D01*
X127513842Y-90153333D02*
X127574318Y-90274285D01*
X127574318Y-90274285D02*
X127574318Y-90516190D01*
X127574318Y-90516190D02*
X127513842Y-90637142D01*
X127513842Y-90637142D02*
X127453365Y-90697619D01*
X127453365Y-90697619D02*
X127332413Y-90758095D01*
X127332413Y-90758095D02*
X126304318Y-90758095D01*
X127574318Y-92028095D02*
X127574318Y-91302380D01*
X127574318Y-91665237D02*
X126304318Y-91665237D01*
X126304318Y-91665237D02*
X126485746Y-91544285D01*
X126485746Y-91544285D02*
X126606699Y-91423333D01*
X126606699Y-91423333D02*
X126667175Y-91302380D01*
D11*
X133467857Y-79024819D02*
X133801190Y-78548628D01*
X134039285Y-79024819D02*
X134039285Y-78024819D01*
X134039285Y-78024819D02*
X133658333Y-78024819D01*
X133658333Y-78024819D02*
X133563095Y-78072438D01*
X133563095Y-78072438D02*
X133515476Y-78120057D01*
X133515476Y-78120057D02*
X133467857Y-78215295D01*
X133467857Y-78215295D02*
X133467857Y-78358152D01*
X133467857Y-78358152D02*
X133515476Y-78453390D01*
X133515476Y-78453390D02*
X133563095Y-78501009D01*
X133563095Y-78501009D02*
X133658333Y-78548628D01*
X133658333Y-78548628D02*
X134039285Y-78548628D01*
X132563095Y-78024819D02*
X133039285Y-78024819D01*
X133039285Y-78024819D02*
X133086904Y-78501009D01*
X133086904Y-78501009D02*
X133039285Y-78453390D01*
X133039285Y-78453390D02*
X132944047Y-78405771D01*
X132944047Y-78405771D02*
X132705952Y-78405771D01*
X132705952Y-78405771D02*
X132610714Y-78453390D01*
X132610714Y-78453390D02*
X132563095Y-78501009D01*
X132563095Y-78501009D02*
X132515476Y-78596247D01*
X132515476Y-78596247D02*
X132515476Y-78834342D01*
X132515476Y-78834342D02*
X132563095Y-78929580D01*
X132563095Y-78929580D02*
X132610714Y-78977200D01*
X132610714Y-78977200D02*
X132705952Y-79024819D01*
X132705952Y-79024819D02*
X132944047Y-79024819D01*
X132944047Y-79024819D02*
X133039285Y-78977200D01*
X133039285Y-78977200D02*
X133086904Y-78929580D01*
X131610714Y-78024819D02*
X132086904Y-78024819D01*
X132086904Y-78024819D02*
X132134523Y-78501009D01*
X132134523Y-78501009D02*
X132086904Y-78453390D01*
X132086904Y-78453390D02*
X131991666Y-78405771D01*
X131991666Y-78405771D02*
X131753571Y-78405771D01*
X131753571Y-78405771D02*
X131658333Y-78453390D01*
X131658333Y-78453390D02*
X131610714Y-78501009D01*
X131610714Y-78501009D02*
X131563095Y-78596247D01*
X131563095Y-78596247D02*
X131563095Y-78834342D01*
X131563095Y-78834342D02*
X131610714Y-78929580D01*
X131610714Y-78929580D02*
X131658333Y-78977200D01*
X131658333Y-78977200D02*
X131753571Y-79024819D01*
X131753571Y-79024819D02*
X131991666Y-79024819D01*
X131991666Y-79024819D02*
X132086904Y-78977200D01*
X132086904Y-78977200D02*
X132134523Y-78929580D01*
X137369514Y-86057752D02*
X137702847Y-85581561D01*
X137940942Y-86057752D02*
X137940942Y-85057752D01*
X137940942Y-85057752D02*
X137559990Y-85057752D01*
X137559990Y-85057752D02*
X137464752Y-85105371D01*
X137464752Y-85105371D02*
X137417133Y-85152990D01*
X137417133Y-85152990D02*
X137369514Y-85248228D01*
X137369514Y-85248228D02*
X137369514Y-85391085D01*
X137369514Y-85391085D02*
X137417133Y-85486323D01*
X137417133Y-85486323D02*
X137464752Y-85533942D01*
X137464752Y-85533942D02*
X137559990Y-85581561D01*
X137559990Y-85581561D02*
X137940942Y-85581561D01*
X136417133Y-86057752D02*
X136988561Y-86057752D01*
X136702847Y-86057752D02*
X136702847Y-85057752D01*
X136702847Y-85057752D02*
X136798085Y-85200609D01*
X136798085Y-85200609D02*
X136893323Y-85295847D01*
X136893323Y-85295847D02*
X136988561Y-85343466D01*
X135798085Y-85057752D02*
X135702847Y-85057752D01*
X135702847Y-85057752D02*
X135607609Y-85105371D01*
X135607609Y-85105371D02*
X135559990Y-85152990D01*
X135559990Y-85152990D02*
X135512371Y-85248228D01*
X135512371Y-85248228D02*
X135464752Y-85438704D01*
X135464752Y-85438704D02*
X135464752Y-85676799D01*
X135464752Y-85676799D02*
X135512371Y-85867275D01*
X135512371Y-85867275D02*
X135559990Y-85962513D01*
X135559990Y-85962513D02*
X135607609Y-86010133D01*
X135607609Y-86010133D02*
X135702847Y-86057752D01*
X135702847Y-86057752D02*
X135798085Y-86057752D01*
X135798085Y-86057752D02*
X135893323Y-86010133D01*
X135893323Y-86010133D02*
X135940942Y-85962513D01*
X135940942Y-85962513D02*
X135988561Y-85867275D01*
X135988561Y-85867275D02*
X136036180Y-85676799D01*
X136036180Y-85676799D02*
X136036180Y-85438704D01*
X136036180Y-85438704D02*
X135988561Y-85248228D01*
X135988561Y-85248228D02*
X135940942Y-85152990D01*
X135940942Y-85152990D02*
X135893323Y-85105371D01*
X135893323Y-85105371D02*
X135798085Y-85057752D01*
D12*
X143995637Y-58386377D02*
X143995637Y-57116377D01*
X142665160Y-58265424D02*
X142725636Y-58325901D01*
X142725636Y-58325901D02*
X142907065Y-58386377D01*
X142907065Y-58386377D02*
X143028017Y-58386377D01*
X143028017Y-58386377D02*
X143209446Y-58325901D01*
X143209446Y-58325901D02*
X143330398Y-58204948D01*
X143330398Y-58204948D02*
X143390875Y-58083996D01*
X143390875Y-58083996D02*
X143451351Y-57842091D01*
X143451351Y-57842091D02*
X143451351Y-57660662D01*
X143451351Y-57660662D02*
X143390875Y-57418758D01*
X143390875Y-57418758D02*
X143330398Y-57297805D01*
X143330398Y-57297805D02*
X143209446Y-57176853D01*
X143209446Y-57176853D02*
X143028017Y-57116377D01*
X143028017Y-57116377D02*
X142907065Y-57116377D01*
X142907065Y-57116377D02*
X142725636Y-57176853D01*
X142725636Y-57176853D02*
X142665160Y-57237329D01*
X141576589Y-57539710D02*
X141576589Y-58386377D01*
X141878970Y-57055901D02*
X142181351Y-57963043D01*
X142181351Y-57963043D02*
X141395160Y-57963043D01*
X110074318Y-95138333D02*
X110074318Y-94533571D01*
X110074318Y-94533571D02*
X108804318Y-94533571D01*
X110074318Y-96226905D02*
X110074318Y-95501190D01*
X110074318Y-95864047D02*
X108804318Y-95864047D01*
X108804318Y-95864047D02*
X108985746Y-95743095D01*
X108985746Y-95743095D02*
X109106699Y-95622143D01*
X109106699Y-95622143D02*
X109167175Y-95501190D01*
D11*
X173642857Y-58384819D02*
X173976190Y-57908628D01*
X174214285Y-58384819D02*
X174214285Y-57384819D01*
X174214285Y-57384819D02*
X173833333Y-57384819D01*
X173833333Y-57384819D02*
X173738095Y-57432438D01*
X173738095Y-57432438D02*
X173690476Y-57480057D01*
X173690476Y-57480057D02*
X173642857Y-57575295D01*
X173642857Y-57575295D02*
X173642857Y-57718152D01*
X173642857Y-57718152D02*
X173690476Y-57813390D01*
X173690476Y-57813390D02*
X173738095Y-57861009D01*
X173738095Y-57861009D02*
X173833333Y-57908628D01*
X173833333Y-57908628D02*
X174214285Y-57908628D01*
X172690476Y-58384819D02*
X173261904Y-58384819D01*
X172976190Y-58384819D02*
X172976190Y-57384819D01*
X172976190Y-57384819D02*
X173071428Y-57527676D01*
X173071428Y-57527676D02*
X173166666Y-57622914D01*
X173166666Y-57622914D02*
X173261904Y-57670533D01*
X171738095Y-58384819D02*
X172309523Y-58384819D01*
X172023809Y-58384819D02*
X172023809Y-57384819D01*
X172023809Y-57384819D02*
X172119047Y-57527676D01*
X172119047Y-57527676D02*
X172214285Y-57622914D01*
X172214285Y-57622914D02*
X172309523Y-57670533D01*
X167024819Y-74857142D02*
X166548628Y-74523809D01*
X167024819Y-74285714D02*
X166024819Y-74285714D01*
X166024819Y-74285714D02*
X166024819Y-74666666D01*
X166024819Y-74666666D02*
X166072438Y-74761904D01*
X166072438Y-74761904D02*
X166120057Y-74809523D01*
X166120057Y-74809523D02*
X166215295Y-74857142D01*
X166215295Y-74857142D02*
X166358152Y-74857142D01*
X166358152Y-74857142D02*
X166453390Y-74809523D01*
X166453390Y-74809523D02*
X166501009Y-74761904D01*
X166501009Y-74761904D02*
X166548628Y-74666666D01*
X166548628Y-74666666D02*
X166548628Y-74285714D01*
X166024819Y-75190476D02*
X166024819Y-75809523D01*
X166024819Y-75809523D02*
X166405771Y-75476190D01*
X166405771Y-75476190D02*
X166405771Y-75619047D01*
X166405771Y-75619047D02*
X166453390Y-75714285D01*
X166453390Y-75714285D02*
X166501009Y-75761904D01*
X166501009Y-75761904D02*
X166596247Y-75809523D01*
X166596247Y-75809523D02*
X166834342Y-75809523D01*
X166834342Y-75809523D02*
X166929580Y-75761904D01*
X166929580Y-75761904D02*
X166977200Y-75714285D01*
X166977200Y-75714285D02*
X167024819Y-75619047D01*
X167024819Y-75619047D02*
X167024819Y-75333333D01*
X167024819Y-75333333D02*
X166977200Y-75238095D01*
X166977200Y-75238095D02*
X166929580Y-75190476D01*
X166024819Y-76142857D02*
X166024819Y-76761904D01*
X166024819Y-76761904D02*
X166405771Y-76428571D01*
X166405771Y-76428571D02*
X166405771Y-76571428D01*
X166405771Y-76571428D02*
X166453390Y-76666666D01*
X166453390Y-76666666D02*
X166501009Y-76714285D01*
X166501009Y-76714285D02*
X166596247Y-76761904D01*
X166596247Y-76761904D02*
X166834342Y-76761904D01*
X166834342Y-76761904D02*
X166929580Y-76714285D01*
X166929580Y-76714285D02*
X166977200Y-76666666D01*
X166977200Y-76666666D02*
X167024819Y-76571428D01*
X167024819Y-76571428D02*
X167024819Y-76285714D01*
X167024819Y-76285714D02*
X166977200Y-76190476D01*
X166977200Y-76190476D02*
X166929580Y-76142857D01*
X124006551Y-69557789D02*
X124339884Y-69081598D01*
X124577979Y-69557789D02*
X124577979Y-68557789D01*
X124577979Y-68557789D02*
X124197027Y-68557789D01*
X124197027Y-68557789D02*
X124101789Y-68605408D01*
X124101789Y-68605408D02*
X124054170Y-68653027D01*
X124054170Y-68653027D02*
X124006551Y-68748265D01*
X124006551Y-68748265D02*
X124006551Y-68891122D01*
X124006551Y-68891122D02*
X124054170Y-68986360D01*
X124054170Y-68986360D02*
X124101789Y-69033979D01*
X124101789Y-69033979D02*
X124197027Y-69081598D01*
X124197027Y-69081598D02*
X124577979Y-69081598D01*
X123101789Y-68557789D02*
X123577979Y-68557789D01*
X123577979Y-68557789D02*
X123625598Y-69033979D01*
X123625598Y-69033979D02*
X123577979Y-68986360D01*
X123577979Y-68986360D02*
X123482741Y-68938741D01*
X123482741Y-68938741D02*
X123244646Y-68938741D01*
X123244646Y-68938741D02*
X123149408Y-68986360D01*
X123149408Y-68986360D02*
X123101789Y-69033979D01*
X123101789Y-69033979D02*
X123054170Y-69129217D01*
X123054170Y-69129217D02*
X123054170Y-69367312D01*
X123054170Y-69367312D02*
X123101789Y-69462550D01*
X123101789Y-69462550D02*
X123149408Y-69510170D01*
X123149408Y-69510170D02*
X123244646Y-69557789D01*
X123244646Y-69557789D02*
X123482741Y-69557789D01*
X123482741Y-69557789D02*
X123577979Y-69510170D01*
X123577979Y-69510170D02*
X123625598Y-69462550D01*
X122673217Y-68653027D02*
X122625598Y-68605408D01*
X122625598Y-68605408D02*
X122530360Y-68557789D01*
X122530360Y-68557789D02*
X122292265Y-68557789D01*
X122292265Y-68557789D02*
X122197027Y-68605408D01*
X122197027Y-68605408D02*
X122149408Y-68653027D01*
X122149408Y-68653027D02*
X122101789Y-68748265D01*
X122101789Y-68748265D02*
X122101789Y-68843503D01*
X122101789Y-68843503D02*
X122149408Y-68986360D01*
X122149408Y-68986360D02*
X122720836Y-69557789D01*
X122720836Y-69557789D02*
X122101789Y-69557789D01*
D12*
X113020952Y-56545270D02*
X113141904Y-56484794D01*
X113141904Y-56484794D02*
X113262857Y-56363842D01*
X113262857Y-56363842D02*
X113444285Y-56182413D01*
X113444285Y-56182413D02*
X113565238Y-56121937D01*
X113565238Y-56121937D02*
X113686190Y-56121937D01*
X113625714Y-56424318D02*
X113746666Y-56363842D01*
X113746666Y-56363842D02*
X113867619Y-56242889D01*
X113867619Y-56242889D02*
X113928095Y-56000984D01*
X113928095Y-56000984D02*
X113928095Y-55577651D01*
X113928095Y-55577651D02*
X113867619Y-55335746D01*
X113867619Y-55335746D02*
X113746666Y-55214794D01*
X113746666Y-55214794D02*
X113625714Y-55154318D01*
X113625714Y-55154318D02*
X113383809Y-55154318D01*
X113383809Y-55154318D02*
X113262857Y-55214794D01*
X113262857Y-55214794D02*
X113141904Y-55335746D01*
X113141904Y-55335746D02*
X113081428Y-55577651D01*
X113081428Y-55577651D02*
X113081428Y-56000984D01*
X113081428Y-56000984D02*
X113141904Y-56242889D01*
X113141904Y-56242889D02*
X113262857Y-56363842D01*
X113262857Y-56363842D02*
X113383809Y-56424318D01*
X113383809Y-56424318D02*
X113625714Y-56424318D01*
X112476666Y-56424318D02*
X112234762Y-56424318D01*
X112234762Y-56424318D02*
X112113809Y-56363842D01*
X112113809Y-56363842D02*
X112053333Y-56303365D01*
X112053333Y-56303365D02*
X111932381Y-56121937D01*
X111932381Y-56121937D02*
X111871904Y-55880032D01*
X111871904Y-55880032D02*
X111871904Y-55396222D01*
X111871904Y-55396222D02*
X111932381Y-55275270D01*
X111932381Y-55275270D02*
X111992857Y-55214794D01*
X111992857Y-55214794D02*
X112113809Y-55154318D01*
X112113809Y-55154318D02*
X112355714Y-55154318D01*
X112355714Y-55154318D02*
X112476666Y-55214794D01*
X112476666Y-55214794D02*
X112537143Y-55275270D01*
X112537143Y-55275270D02*
X112597619Y-55396222D01*
X112597619Y-55396222D02*
X112597619Y-55698603D01*
X112597619Y-55698603D02*
X112537143Y-55819556D01*
X112537143Y-55819556D02*
X112476666Y-55880032D01*
X112476666Y-55880032D02*
X112355714Y-55940508D01*
X112355714Y-55940508D02*
X112113809Y-55940508D01*
X112113809Y-55940508D02*
X111992857Y-55880032D01*
X111992857Y-55880032D02*
X111932381Y-55819556D01*
X111932381Y-55819556D02*
X111871904Y-55698603D01*
D11*
X118643761Y-63520466D02*
X118977094Y-63044275D01*
X119215189Y-63520466D02*
X119215189Y-62520466D01*
X119215189Y-62520466D02*
X118834237Y-62520466D01*
X118834237Y-62520466D02*
X118738999Y-62568085D01*
X118738999Y-62568085D02*
X118691380Y-62615704D01*
X118691380Y-62615704D02*
X118643761Y-62710942D01*
X118643761Y-62710942D02*
X118643761Y-62853799D01*
X118643761Y-62853799D02*
X118691380Y-62949037D01*
X118691380Y-62949037D02*
X118738999Y-62996656D01*
X118738999Y-62996656D02*
X118834237Y-63044275D01*
X118834237Y-63044275D02*
X119215189Y-63044275D01*
X117738999Y-62520466D02*
X118215189Y-62520466D01*
X118215189Y-62520466D02*
X118262808Y-62996656D01*
X118262808Y-62996656D02*
X118215189Y-62949037D01*
X118215189Y-62949037D02*
X118119951Y-62901418D01*
X118119951Y-62901418D02*
X117881856Y-62901418D01*
X117881856Y-62901418D02*
X117786618Y-62949037D01*
X117786618Y-62949037D02*
X117738999Y-62996656D01*
X117738999Y-62996656D02*
X117691380Y-63091894D01*
X117691380Y-63091894D02*
X117691380Y-63329989D01*
X117691380Y-63329989D02*
X117738999Y-63425227D01*
X117738999Y-63425227D02*
X117786618Y-63472847D01*
X117786618Y-63472847D02*
X117881856Y-63520466D01*
X117881856Y-63520466D02*
X118119951Y-63520466D01*
X118119951Y-63520466D02*
X118215189Y-63472847D01*
X118215189Y-63472847D02*
X118262808Y-63425227D01*
X117072332Y-62520466D02*
X116977094Y-62520466D01*
X116977094Y-62520466D02*
X116881856Y-62568085D01*
X116881856Y-62568085D02*
X116834237Y-62615704D01*
X116834237Y-62615704D02*
X116786618Y-62710942D01*
X116786618Y-62710942D02*
X116738999Y-62901418D01*
X116738999Y-62901418D02*
X116738999Y-63139513D01*
X116738999Y-63139513D02*
X116786618Y-63329989D01*
X116786618Y-63329989D02*
X116834237Y-63425227D01*
X116834237Y-63425227D02*
X116881856Y-63472847D01*
X116881856Y-63472847D02*
X116977094Y-63520466D01*
X116977094Y-63520466D02*
X117072332Y-63520466D01*
X117072332Y-63520466D02*
X117167570Y-63472847D01*
X117167570Y-63472847D02*
X117215189Y-63425227D01*
X117215189Y-63425227D02*
X117262808Y-63329989D01*
X117262808Y-63329989D02*
X117310427Y-63139513D01*
X117310427Y-63139513D02*
X117310427Y-62901418D01*
X117310427Y-62901418D02*
X117262808Y-62710942D01*
X117262808Y-62710942D02*
X117215189Y-62615704D01*
X117215189Y-62615704D02*
X117167570Y-62568085D01*
X117167570Y-62568085D02*
X117072332Y-62520466D01*
D13*
%TO.C,R7*%
X139977500Y-100744239D02*
X139977500Y-100269723D01*
X141022500Y-100744239D02*
X141022500Y-100269723D01*
%TO.C,C17*%
X120703802Y-60181784D02*
X120703802Y-60462944D01*
X121723802Y-60181784D02*
X121723802Y-60462944D01*
%TO.C,R29*%
X167477500Y-69737258D02*
X167477500Y-69262742D01*
X168522500Y-69737258D02*
X168522500Y-69262742D01*
%TO.C,R20*%
X173237258Y-61977500D02*
X172762742Y-61977500D01*
X173237258Y-63022500D02*
X172762742Y-63022500D01*
%TO.C,Q3*%
X172250000Y-57850000D02*
X174110000Y-57850000D01*
X172250000Y-58900000D02*
X172250000Y-57850000D01*
X172250000Y-60100000D02*
X172250000Y-61150000D01*
X172250000Y-61150000D02*
X174050000Y-61150000D01*
X174560000Y-57888324D02*
X174320000Y-57558324D01*
X174800000Y-57558324D01*
X174560000Y-57888324D01*
G36*
X174560000Y-57888324D02*
G01*
X174320000Y-57558324D01*
X174800000Y-57558324D01*
X174560000Y-57888324D01*
G37*
%TO.C,C9*%
X127990000Y-78640580D02*
X127990000Y-78359420D01*
X129010000Y-78640580D02*
X129010000Y-78359420D01*
%TO.C,C14*%
X130981802Y-60951122D02*
X130981802Y-60669962D01*
X132001802Y-60951122D02*
X132001802Y-60669962D01*
%TO.C,R31*%
X167477500Y-72737258D02*
X167477500Y-72262742D01*
X168522500Y-72737258D02*
X168522500Y-72262742D01*
%TO.C,R51*%
X115237258Y-65477500D02*
X114762742Y-65477500D01*
X115237258Y-66522500D02*
X114762742Y-66522500D01*
D14*
%TO.C,IC5*%
X127700000Y-58750000D02*
X129300000Y-58750000D01*
X127700000Y-60750000D02*
X127700000Y-58750000D01*
X129300000Y-58750000D02*
X129300000Y-60750000D01*
X129300000Y-60750000D02*
X127700000Y-60750000D01*
X129650000Y-58500000D02*
X130500000Y-58500000D01*
D13*
%TO.C,C8*%
X126920000Y-98322651D02*
X135080000Y-98322651D01*
X126920000Y-98362651D02*
X135080000Y-98362651D01*
X126920000Y-98402651D02*
X135080000Y-98402651D01*
X126921000Y-98282651D02*
X135079000Y-98282651D01*
X126923000Y-98242651D02*
X135077000Y-98242651D01*
X126924000Y-98202651D02*
X135076000Y-98202651D01*
X126926000Y-98162651D02*
X135074000Y-98162651D01*
X126929000Y-98122651D02*
X135071000Y-98122651D01*
X126932000Y-98082651D02*
X135068000Y-98082651D01*
X126935000Y-98042651D02*
X135065000Y-98042651D01*
X126939000Y-98002651D02*
X135061000Y-98002651D01*
X126943000Y-97962651D02*
X135057000Y-97962651D01*
X126948000Y-97922651D02*
X135052000Y-97922651D01*
X126952000Y-97882651D02*
X135048000Y-97882651D01*
X126958000Y-97842651D02*
X135042000Y-97842651D01*
X126963000Y-97802651D02*
X135037000Y-97802651D01*
X126970000Y-97762651D02*
X135030000Y-97762651D01*
X126976000Y-97722651D02*
X135024000Y-97722651D01*
X126983000Y-97681651D02*
X129960000Y-97681651D01*
X126990000Y-97641651D02*
X129960000Y-97641651D01*
X126998000Y-97601651D02*
X129960000Y-97601651D01*
X127006000Y-97561651D02*
X129960000Y-97561651D01*
X127015000Y-97521651D02*
X129960000Y-97521651D01*
X127024000Y-97481651D02*
X129960000Y-97481651D01*
X127033000Y-97441651D02*
X129960000Y-97441651D01*
X127043000Y-97401651D02*
X129960000Y-97401651D01*
X127053000Y-97361651D02*
X129960000Y-97361651D01*
X127064000Y-97321651D02*
X129960000Y-97321651D01*
X127075000Y-97281651D02*
X129960000Y-97281651D01*
X127086000Y-97241651D02*
X129960000Y-97241651D01*
X127098000Y-97201651D02*
X129960000Y-97201651D01*
X127111000Y-97161651D02*
X129960000Y-97161651D01*
X127123000Y-97121651D02*
X129960000Y-97121651D01*
X127137000Y-97081651D02*
X129960000Y-97081651D01*
X127150000Y-97041651D02*
X129960000Y-97041651D01*
X127165000Y-97001651D02*
X129960000Y-97001651D01*
X127179000Y-96961651D02*
X129960000Y-96961651D01*
X127195000Y-96921651D02*
X129960000Y-96921651D01*
X127210000Y-96881651D02*
X129960000Y-96881651D01*
X127226000Y-96841651D02*
X129960000Y-96841651D01*
X127243000Y-96801651D02*
X129960000Y-96801651D01*
X127260000Y-96761651D02*
X129960000Y-96761651D01*
X127278000Y-96721651D02*
X129960000Y-96721651D01*
X127296000Y-96681651D02*
X129960000Y-96681651D01*
X127314000Y-96641651D02*
X129960000Y-96641651D01*
X127334000Y-96601651D02*
X129960000Y-96601651D01*
X127353000Y-96561651D02*
X129960000Y-96561651D01*
X127373000Y-96521651D02*
X129960000Y-96521651D01*
X127394000Y-96481651D02*
X129960000Y-96481651D01*
X127416000Y-96441651D02*
X129960000Y-96441651D01*
X127438000Y-96401651D02*
X129960000Y-96401651D01*
X127460000Y-96361651D02*
X129960000Y-96361651D01*
X127483000Y-96321651D02*
X129960000Y-96321651D01*
X127507000Y-96281651D02*
X129960000Y-96281651D01*
X127531000Y-96241651D02*
X129960000Y-96241651D01*
X127556000Y-96201651D02*
X129960000Y-96201651D01*
X127582000Y-96161651D02*
X129960000Y-96161651D01*
X127608000Y-96121651D02*
X129960000Y-96121651D01*
X127635000Y-96081651D02*
X129960000Y-96081651D01*
X127662000Y-96041651D02*
X129960000Y-96041651D01*
X127691000Y-96001651D02*
X129960000Y-96001651D01*
X127720000Y-95961651D02*
X129960000Y-95961651D01*
X127750000Y-95921651D02*
X129960000Y-95921651D01*
X127780000Y-95881651D02*
X129960000Y-95881651D01*
X127811000Y-95841651D02*
X129960000Y-95841651D01*
X127844000Y-95801651D02*
X129960000Y-95801651D01*
X127876000Y-95761651D02*
X129960000Y-95761651D01*
X127910000Y-95721651D02*
X129960000Y-95721651D01*
X127945000Y-95681651D02*
X129960000Y-95681651D01*
X127981000Y-95641651D02*
X129960000Y-95641651D01*
X128017000Y-95601651D02*
X133983000Y-95601651D01*
X128055000Y-95561651D02*
X133945000Y-95561651D01*
X128093000Y-95521651D02*
X133907000Y-95521651D01*
X128133000Y-95481651D02*
X133867000Y-95481651D01*
X128174000Y-95441651D02*
X133826000Y-95441651D01*
X128216000Y-95401651D02*
X133784000Y-95401651D01*
X128259000Y-95361651D02*
X133741000Y-95361651D01*
X128303000Y-95321651D02*
X133697000Y-95321651D01*
X128349000Y-95281651D02*
X133651000Y-95281651D01*
X128396000Y-95241651D02*
X133604000Y-95241651D01*
X128444000Y-95201651D02*
X133556000Y-95201651D01*
X128495000Y-95161651D02*
X133505000Y-95161651D01*
X128546000Y-95121651D02*
X133454000Y-95121651D01*
X128600000Y-95081651D02*
X133400000Y-95081651D01*
X128655000Y-95041651D02*
X133345000Y-95041651D01*
X128713000Y-95001651D02*
X133287000Y-95001651D01*
X128772000Y-94961651D02*
X133228000Y-94961651D01*
X128834000Y-94921651D02*
X133166000Y-94921651D01*
X128898000Y-94881651D02*
X133102000Y-94881651D01*
X128966000Y-94841651D02*
X133034000Y-94841651D01*
X129036000Y-94801651D02*
X132964000Y-94801651D01*
X129110000Y-94761651D02*
X132890000Y-94761651D01*
X129187000Y-94721651D02*
X132813000Y-94721651D01*
X129269000Y-94681651D02*
X132731000Y-94681651D01*
X129355000Y-94641651D02*
X132645000Y-94641651D01*
X129448000Y-94601651D02*
X132552000Y-94601651D01*
X129547000Y-94561651D02*
X132453000Y-94561651D01*
X129654000Y-94521651D02*
X132346000Y-94521651D01*
X129771000Y-94481651D02*
X132229000Y-94481651D01*
X129902000Y-94441651D02*
X132098000Y-94441651D01*
X130052000Y-94401651D02*
X131948000Y-94401651D01*
X130232000Y-94361651D02*
X131768000Y-94361651D01*
X130467000Y-94321651D02*
X131533000Y-94321651D01*
X132040000Y-95641651D02*
X134019000Y-95641651D01*
X132040000Y-95681651D02*
X134055000Y-95681651D01*
X132040000Y-95721651D02*
X134090000Y-95721651D01*
X132040000Y-95761651D02*
X134124000Y-95761651D01*
X132040000Y-95801651D02*
X134156000Y-95801651D01*
X132040000Y-95841651D02*
X134189000Y-95841651D01*
X132040000Y-95881651D02*
X134220000Y-95881651D01*
X132040000Y-95921651D02*
X134250000Y-95921651D01*
X132040000Y-95961651D02*
X134280000Y-95961651D01*
X132040000Y-96001651D02*
X134309000Y-96001651D01*
X132040000Y-96041651D02*
X134338000Y-96041651D01*
X132040000Y-96081651D02*
X134365000Y-96081651D01*
X132040000Y-96121651D02*
X134392000Y-96121651D01*
X132040000Y-96161651D02*
X134418000Y-96161651D01*
X132040000Y-96201651D02*
X134444000Y-96201651D01*
X132040000Y-96241651D02*
X134469000Y-96241651D01*
X132040000Y-96281651D02*
X134493000Y-96281651D01*
X132040000Y-96321651D02*
X134517000Y-96321651D01*
X132040000Y-96361651D02*
X134540000Y-96361651D01*
X132040000Y-96401651D02*
X134562000Y-96401651D01*
X132040000Y-96441651D02*
X134584000Y-96441651D01*
X132040000Y-96481651D02*
X134606000Y-96481651D01*
X132040000Y-96521651D02*
X134627000Y-96521651D01*
X132040000Y-96561651D02*
X134647000Y-96561651D01*
X132040000Y-96601651D02*
X134666000Y-96601651D01*
X132040000Y-96641651D02*
X134686000Y-96641651D01*
X132040000Y-96681651D02*
X134704000Y-96681651D01*
X132040000Y-96721651D02*
X134722000Y-96721651D01*
X132040000Y-96761651D02*
X134740000Y-96761651D01*
X132040000Y-96801651D02*
X134757000Y-96801651D01*
X132040000Y-96841651D02*
X134774000Y-96841651D01*
X132040000Y-96881651D02*
X134790000Y-96881651D01*
X132040000Y-96921651D02*
X134805000Y-96921651D01*
X132040000Y-96961651D02*
X134821000Y-96961651D01*
X132040000Y-97001651D02*
X134835000Y-97001651D01*
X132040000Y-97041651D02*
X134850000Y-97041651D01*
X132040000Y-97081651D02*
X134863000Y-97081651D01*
X132040000Y-97121651D02*
X134877000Y-97121651D01*
X132040000Y-97161651D02*
X134889000Y-97161651D01*
X132040000Y-97201651D02*
X134902000Y-97201651D01*
X132040000Y-97241651D02*
X134914000Y-97241651D01*
X132040000Y-97281651D02*
X134925000Y-97281651D01*
X132040000Y-97321651D02*
X134936000Y-97321651D01*
X132040000Y-97361651D02*
X134947000Y-97361651D01*
X132040000Y-97401651D02*
X134957000Y-97401651D01*
X132040000Y-97441651D02*
X134967000Y-97441651D01*
X132040000Y-97481651D02*
X134976000Y-97481651D01*
X132040000Y-97521651D02*
X134985000Y-97521651D01*
X132040000Y-97561651D02*
X134994000Y-97561651D01*
X132040000Y-97601651D02*
X135002000Y-97601651D01*
X132040000Y-97641651D02*
X135010000Y-97641651D01*
X132040000Y-97681651D02*
X135017000Y-97681651D01*
X132915000Y-102412349D02*
X133715000Y-102412349D01*
X133315000Y-102012349D02*
X133315000Y-102812349D01*
X135120000Y-98402651D02*
G75*
G02*
X126880000Y-98402651I-4120000J0D01*
G01*
X126880000Y-98402651D02*
G75*
G02*
X135120000Y-98402651I4120000J0D01*
G01*
D10*
%TO.C,Q12*%
X144323000Y-93114000D02*
X144323000Y-93114000D01*
X144423000Y-93114000D02*
X144423000Y-93114000D01*
D14*
X148351000Y-87444000D02*
X148351000Y-93984000D01*
X148351000Y-93984000D02*
X154446000Y-93984000D01*
X154423000Y-87444000D02*
X148351000Y-87444000D01*
D10*
X144323000Y-93114000D02*
G75*
G02*
X144423000Y-93114000I50000J0D01*
G01*
X144423000Y-93114000D02*
G75*
G02*
X144323000Y-93114000I-50000J0D01*
G01*
D13*
%TO.C,Q8*%
X112000000Y-60850000D02*
X113860000Y-60850000D01*
X112000000Y-61900000D02*
X112000000Y-60850000D01*
X112000000Y-63100000D02*
X112000000Y-64150000D01*
X112000000Y-64150000D02*
X113800000Y-64150000D01*
X114310000Y-60888324D02*
X114070000Y-60558324D01*
X114550000Y-60558324D01*
X114310000Y-60888324D01*
G36*
X114310000Y-60888324D02*
G01*
X114070000Y-60558324D01*
X114550000Y-60558324D01*
X114310000Y-60888324D01*
G37*
%TO.C,R60*%
X155264595Y-72839131D02*
X155264595Y-72364615D01*
X156309595Y-72839131D02*
X156309595Y-72364615D01*
%TO.C,U2*%
X168225000Y-57115000D02*
X168225000Y-59500000D01*
X168225000Y-61885000D02*
X168225000Y-59500000D01*
X168465000Y-57115000D02*
X168225000Y-57115000D01*
X168465000Y-61885000D02*
X168225000Y-61885000D01*
X170805000Y-57115000D02*
X171045000Y-57115000D01*
X170805000Y-61885000D02*
X171045000Y-61885000D01*
X171045000Y-57115000D02*
X171045000Y-59500000D01*
X171045000Y-61885000D02*
X171045000Y-59500000D01*
X171135000Y-62902500D02*
X170805000Y-62662500D01*
X171135000Y-62422500D01*
X171135000Y-62902500D01*
G36*
X171135000Y-62902500D02*
G01*
X170805000Y-62662500D01*
X171135000Y-62422500D01*
X171135000Y-62902500D01*
G37*
%TO.C,C2*%
X137990000Y-97407475D02*
X137990000Y-97126315D01*
X139010000Y-97407475D02*
X139010000Y-97126315D01*
%TO.C,R3*%
X132762742Y-92477500D02*
X133237258Y-92477500D01*
X132762742Y-93522500D02*
X133237258Y-93522500D01*
%TO.C,C1*%
X135990000Y-97134420D02*
X135990000Y-97415580D01*
X137010000Y-97134420D02*
X137010000Y-97415580D01*
%TO.C,R47*%
X112762742Y-51977500D02*
X113237258Y-51977500D01*
X112762742Y-53022500D02*
X113237258Y-53022500D01*
%TO.C,C6*%
X142490000Y-97640580D02*
X142490000Y-97359420D01*
X143510000Y-97640580D02*
X143510000Y-97359420D01*
%TO.C,R13*%
X163457642Y-54292958D02*
X163457642Y-54767474D01*
X164502642Y-54292958D02*
X164502642Y-54767474D01*
%TO.C,R6*%
X139992999Y-97508571D02*
X139992999Y-97034055D01*
X141037999Y-97508571D02*
X141037999Y-97034055D01*
%TO.C,R1*%
X134562258Y-102477500D02*
X134087742Y-102477500D01*
X134562258Y-103522500D02*
X134087742Y-103522500D01*
D14*
%TO.C,IC3*%
X111600000Y-72700000D02*
X122400000Y-72700000D01*
X111600000Y-77300000D02*
X111600000Y-72700000D01*
X121510000Y-77650000D02*
X121510000Y-79425000D01*
X122400000Y-72700000D02*
X122400000Y-77300000D01*
X122400000Y-77300000D02*
X111600000Y-77300000D01*
D13*
%TO.C,C18*%
X128365580Y-61490000D02*
X128084420Y-61490000D01*
X128365580Y-62510000D02*
X128084420Y-62510000D01*
%TO.C,R41*%
X122552500Y-60262742D02*
X122552500Y-60737258D01*
X123597500Y-60262742D02*
X123597500Y-60737258D01*
%TO.C,R36*%
X127977500Y-75737258D02*
X127977500Y-75262742D01*
X129022500Y-75737258D02*
X129022500Y-75262742D01*
%TO.C,R58*%
X142477500Y-61737258D02*
X142477500Y-61262742D01*
X143522500Y-61737258D02*
X143522500Y-61262742D01*
%TO.C,R48*%
X119237258Y-62034676D02*
X118762742Y-62034676D01*
X119237258Y-63079676D02*
X118762742Y-63079676D01*
%TO.C,Q6*%
X172250000Y-63900000D02*
X174110000Y-63900000D01*
X172250000Y-64950000D02*
X172250000Y-63900000D01*
X172250000Y-66150000D02*
X172250000Y-67200000D01*
X172250000Y-67200000D02*
X174050000Y-67200000D01*
X174560000Y-63938324D02*
X174320000Y-63608324D01*
X174800000Y-63608324D01*
X174560000Y-63938324D01*
G36*
X174560000Y-63938324D02*
G01*
X174320000Y-63608324D01*
X174800000Y-63608324D01*
X174560000Y-63938324D01*
G37*
%TO.C,C7*%
X129990000Y-91359420D02*
X129990000Y-91640580D01*
X131010000Y-91359420D02*
X131010000Y-91640580D01*
%TO.C,R56*%
X140104472Y-73506987D02*
X139629956Y-73506987D01*
X140104472Y-74551987D02*
X139629956Y-74551987D01*
%TO.C,D9*%
X150954674Y-70205664D02*
X153614674Y-70205664D01*
X150954674Y-71905664D02*
X153614674Y-71905664D01*
X153614674Y-71905664D02*
X153614674Y-70205664D01*
%TO.C,C15*%
X107990000Y-55859420D02*
X107990000Y-56140580D01*
X109010000Y-55859420D02*
X109010000Y-56140580D01*
%TO.C,R49*%
X118237258Y-65477500D02*
X117762742Y-65477500D01*
X118237258Y-66522500D02*
X117762742Y-66522500D01*
%TO.C,C10*%
X132490000Y-67359420D02*
X132490000Y-67640580D01*
X133510000Y-67359420D02*
X133510000Y-67640580D01*
%TO.C,D7*%
X120056320Y-63650000D02*
X122716320Y-63650000D01*
X120056320Y-65350000D02*
X122716320Y-65350000D01*
X122716320Y-65350000D02*
X122716320Y-63650000D01*
%TO.C,C13*%
X122990000Y-73640580D02*
X122990000Y-73359420D01*
X124010000Y-73640580D02*
X124010000Y-73359420D01*
%TO.C,D4*%
X124197660Y-59457385D02*
X124197660Y-62117385D01*
X124197660Y-62117385D02*
X125897660Y-62117385D01*
X125897660Y-59457385D02*
X125897660Y-62117385D01*
%TO.C,R21*%
X175477500Y-66762742D02*
X175477500Y-67237258D01*
X176522500Y-66762742D02*
X176522500Y-67237258D01*
%TO.C,R12*%
X175477500Y-63587742D02*
X175477500Y-64062258D01*
X176522500Y-63587742D02*
X176522500Y-64062258D01*
%TO.C,R23*%
X173237258Y-67977500D02*
X172762742Y-67977500D01*
X173237258Y-69022500D02*
X172762742Y-69022500D01*
%TO.C,C12*%
X138738748Y-71265000D02*
X139261252Y-71265000D01*
X138738748Y-72735000D02*
X139261252Y-72735000D01*
%TO.C,R2*%
X135977500Y-100262742D02*
X135977500Y-100737258D01*
X137022500Y-100262742D02*
X137022500Y-100737258D01*
%TO.C,D6*%
X111150000Y-64950000D02*
X111150000Y-67610000D01*
X111150000Y-67610000D02*
X112850000Y-67610000D01*
X112850000Y-64950000D02*
X112850000Y-67610000D01*
%TO.C,R39*%
X130562258Y-54977500D02*
X130087742Y-54977500D01*
X130562258Y-56022500D02*
X130087742Y-56022500D01*
D14*
%TO.C,Q14*%
X158575000Y-73550000D02*
X158725000Y-73550000D01*
X158575000Y-76450000D02*
X158575000Y-73550000D01*
X158725000Y-73550000D02*
X158725000Y-76450000D01*
X158725000Y-76450000D02*
X158575000Y-76450000D01*
X159075000Y-73500000D02*
X160525000Y-73500000D01*
D13*
%TO.C,R24*%
X175470153Y-69956567D02*
X175470153Y-70431083D01*
X176515153Y-69956567D02*
X176515153Y-70431083D01*
%TO.C,R59*%
X144237258Y-65477500D02*
X143762742Y-65477500D01*
X144237258Y-66522500D02*
X143762742Y-66522500D01*
%TO.C,R46*%
X113972434Y-58950578D02*
X113972434Y-59425094D01*
X115017434Y-58950578D02*
X115017434Y-59425094D01*
%TO.C,C11*%
X124116799Y-75280854D02*
X124397959Y-75280854D01*
X124116799Y-76300854D02*
X124397959Y-76300854D01*
%TO.C,R35*%
X167477500Y-78737258D02*
X167477500Y-78262742D01*
X168522500Y-78737258D02*
X168522500Y-78262742D01*
%TO.C,R43*%
X109477500Y-56237258D02*
X109477500Y-55762742D01*
X110522500Y-56237258D02*
X110522500Y-55762742D01*
%TO.C,C16*%
X123950922Y-56498178D02*
X123669762Y-56498178D01*
X123950922Y-57518178D02*
X123669762Y-57518178D01*
D14*
%TO.C,Q11*%
X149425000Y-77550000D02*
X149575000Y-77550000D01*
X149425000Y-80450000D02*
X149425000Y-77550000D01*
X149575000Y-77550000D02*
X149575000Y-80450000D01*
X149575000Y-80450000D02*
X149425000Y-80450000D01*
X149925000Y-77500000D02*
X151375000Y-77500000D01*
D13*
%TO.C,Q7*%
X172250000Y-69850000D02*
X174110000Y-69850000D01*
X172250000Y-70900000D02*
X172250000Y-69850000D01*
X172250000Y-72100000D02*
X172250000Y-73150000D01*
X172250000Y-73150000D02*
X174050000Y-73150000D01*
X174560000Y-69888324D02*
X174320000Y-69558324D01*
X174800000Y-69558324D01*
X174560000Y-69888324D01*
G36*
X174560000Y-69888324D02*
G01*
X174320000Y-69558324D01*
X174800000Y-69558324D01*
X174560000Y-69888324D01*
G37*
%TO.C,F1*%
X144602064Y-67590000D02*
X143397936Y-67590000D01*
X144602064Y-69410000D02*
X143397936Y-69410000D01*
%TO.C,R57*%
X139772936Y-85090000D02*
X141227064Y-85090000D01*
X139772936Y-86910000D02*
X141227064Y-86910000D01*
%TO.C,R40*%
X130977500Y-58062258D02*
X130977500Y-57587742D01*
X132022500Y-58062258D02*
X132022500Y-57587742D01*
%TO.C,R54*%
X135237258Y-81477500D02*
X134762742Y-81477500D01*
X135237258Y-82522500D02*
X134762742Y-82522500D01*
%TO.C,R9*%
X132762742Y-89477500D02*
X133237258Y-89477500D01*
X132762742Y-90522500D02*
X133237258Y-90522500D01*
%TO.C,R53*%
X125477500Y-73748410D02*
X125477500Y-73273894D01*
X126522500Y-73748410D02*
X126522500Y-73273894D01*
D14*
%TO.C,Q10*%
X117050000Y-59575000D02*
X119950000Y-59575000D01*
X117050000Y-59725000D02*
X117050000Y-59575000D01*
X119950000Y-59575000D02*
X119950000Y-59725000D01*
X119950000Y-59725000D02*
X117050000Y-59725000D01*
X120000000Y-60075000D02*
X120000000Y-61525000D01*
D13*
%TO.C,R44*%
X126762742Y-54977500D02*
X127237258Y-54977500D01*
X126762742Y-56022500D02*
X127237258Y-56022500D01*
%TO.C,D8*%
X141450000Y-77650000D02*
X144110000Y-77650000D01*
X141450000Y-79350000D02*
X144110000Y-79350000D01*
X144110000Y-79350000D02*
X144110000Y-77650000D01*
D14*
%TO.C,IC2*%
X135050000Y-89900000D02*
X139950000Y-89900000D01*
X135050000Y-93100000D02*
X135050000Y-89900000D01*
X139950000Y-89900000D02*
X139950000Y-93100000D01*
X139950000Y-93100000D02*
X135050000Y-93100000D01*
X140105000Y-93450000D02*
X140105000Y-94975000D01*
D13*
%TO.C,R38*%
X125737258Y-79477500D02*
X125262742Y-79477500D01*
X125737258Y-80522500D02*
X125262742Y-80522500D01*
%TO.C,U7*%
X126100000Y-76900000D02*
X123900000Y-76900000D01*
X126100000Y-79100000D02*
X123900000Y-79100000D01*
X127350000Y-77350000D02*
X127200000Y-77250000D01*
X127350000Y-77150000D01*
X127350000Y-77350000D01*
%TO.C,U8*%
X115115000Y-67090000D02*
X117500000Y-67090000D01*
X115115000Y-67330000D02*
X115115000Y-67090000D01*
X115115000Y-69670000D02*
X115115000Y-69910000D01*
X115115000Y-69910000D02*
X117500000Y-69910000D01*
X119885000Y-67090000D02*
X117500000Y-67090000D01*
X119885000Y-67330000D02*
X119885000Y-67090000D01*
X119885000Y-69670000D02*
X119885000Y-69910000D01*
X119885000Y-69910000D02*
X117500000Y-69910000D01*
X114577500Y-70000000D02*
X114097500Y-70000000D01*
X114337500Y-69670000D01*
X114577500Y-70000000D01*
G36*
X114577500Y-70000000D02*
G01*
X114097500Y-70000000D01*
X114337500Y-69670000D01*
X114577500Y-70000000D01*
G37*
%TO.C,R27*%
X167477500Y-66737258D02*
X167477500Y-66262742D01*
X168522500Y-66737258D02*
X168522500Y-66262742D01*
%TO.C,R45*%
X123587742Y-54977500D02*
X124062258Y-54977500D01*
X123587742Y-56022500D02*
X124062258Y-56022500D01*
%TO.C,C3*%
X137998397Y-100354469D02*
X137998397Y-100635629D01*
X139018397Y-100354469D02*
X139018397Y-100635629D01*
%TO.C,R42*%
X111235201Y-59437798D02*
X111235201Y-58963282D01*
X112280201Y-59437798D02*
X112280201Y-58963282D01*
D14*
%TO.C,U1*%
X125400000Y-90350000D02*
X125400000Y-89150000D01*
X125575000Y-90700000D02*
X128425000Y-90700000D01*
X125575000Y-91300000D02*
X125575000Y-90700000D01*
X128425000Y-90700000D02*
X128425000Y-91300000D01*
X128425000Y-91300000D02*
X125575000Y-91300000D01*
D13*
%TO.C,R55*%
X132587742Y-79477500D02*
X133062258Y-79477500D01*
X132587742Y-80522500D02*
X133062258Y-80522500D01*
%TO.C,R10*%
X136489399Y-86510433D02*
X136963915Y-86510433D01*
X136489399Y-87555433D02*
X136963915Y-87555433D01*
D15*
%TO.C,IC4*%
X135491475Y-67387859D02*
X135491475Y-66219459D01*
X136380475Y-67387859D02*
X136380475Y-66219459D01*
X139987275Y-67387859D02*
X139987275Y-66219459D01*
X140876275Y-67387859D02*
X140876275Y-66219459D01*
D10*
%TO.C,L1*%
X96000000Y-86250000D02*
X123000000Y-86250000D01*
X96000000Y-105750000D02*
X96000000Y-86250000D01*
X123000000Y-86250000D02*
X123000000Y-105750000D01*
X123000000Y-105750000D02*
X96000000Y-105750000D01*
D13*
%TO.C,R11*%
X173237258Y-55977500D02*
X172762742Y-55977500D01*
X173237258Y-57022500D02*
X172762742Y-57022500D01*
%TO.C,R33*%
X167477500Y-75737258D02*
X167477500Y-75262742D01*
X168522500Y-75737258D02*
X168522500Y-75262742D01*
%TO.C,R52*%
X123600952Y-67150470D02*
X123126436Y-67150470D01*
X123600952Y-68195470D02*
X123126436Y-68195470D01*
D14*
%TO.C,Q9*%
X112475000Y-57350000D02*
X111025000Y-57350000D01*
X112825000Y-54400000D02*
X112975000Y-54400000D01*
X112825000Y-57300000D02*
X112825000Y-54400000D01*
X112975000Y-54400000D02*
X112975000Y-57300000D01*
X112975000Y-57300000D02*
X112825000Y-57300000D01*
D13*
%TO.C,R50*%
X117763646Y-63973147D02*
X118238162Y-63973147D01*
X117763646Y-65018147D02*
X118238162Y-65018147D01*
%TD*%
M02*
